<mxfile host="app.diagrams.net" modified="2021-04-13T13:45:50.524Z" agent="5.0 (Macintosh; Intel Mac OS X 10_15_6) AppleWebKit/605.1.15 (KHTML, like Gecko) Version/14.0.2 Safari/605.1.15" etag="vH-IukJSH4OTBkeMQHdH" version="14.5.10" type="github" pages="2">
  <diagram id="KoL_8cFO3gcvUsD-eTHj" name="over-all">
    <mxGraphModel dx="928" dy="710" grid="1" gridSize="10" guides="1" tooltips="1" connect="1" arrows="1" fold="1" page="1" pageScale="1" pageWidth="1169" pageHeight="827" math="0" shadow="0">
      <root>
        <mxCell id="0" />
        <mxCell id="1" parent="0" />
        <mxCell id="ZjEw9_OgDTy5mjLqH5w0-1" value="" style="shape=image;html=1;verticalAlign=top;verticalLabelPosition=bottom;labelBackgroundColor=#ffffff;imageAspect=0;aspect=fixed;image=https://cdn3.iconfinder.com/data/icons/recycling-extras/72/Px-128.png;fontFamily=Garamond;fontSize=35;fontColor=#FFC505;strokeColor=#000000;fillColor=none;align=left;" vertex="1" parent="1">
          <mxGeometry x="420" y="140" width="128" height="128" as="geometry" />
        </mxCell>
        <mxCell id="ZjEw9_OgDTy5mjLqH5w0-2" value="" style="image;html=1;image=img/lib/clip_art/people/Doctor_Woman_128x128.png;fontFamily=Garamond;fontSize=35;fontColor=#FFC505;strokeColor=#000000;fillColor=none;align=left;" vertex="1" parent="1">
          <mxGeometry x="440" y="60" width="80" height="80" as="geometry" />
        </mxCell>
        <mxCell id="ZjEw9_OgDTy5mjLqH5w0-3" value="" style="image;html=1;image=img/lib/clip_art/people/Doctor_Man_Black_128x128.png;fontFamily=Garamond;fontSize=35;fontColor=#FFC505;strokeColor=#000000;fillColor=none;align=left;" vertex="1" parent="1">
          <mxGeometry x="355" y="70" width="70" height="70" as="geometry" />
        </mxCell>
        <mxCell id="ZjEw9_OgDTy5mjLqH5w0-4" value="" style="shape=image;html=1;verticalAlign=top;verticalLabelPosition=bottom;labelBackgroundColor=#ffffff;imageAspect=0;aspect=fixed;image=https://cdn2.iconfinder.com/data/icons/health-care-and-first-responders/64/doctor-asian-male-coronavirus-128.png;fontFamily=Garamond;fontSize=35;fontColor=#FFC505;strokeColor=#000000;fillColor=none;align=left;" vertex="1" parent="1">
          <mxGeometry x="525" y="61" width="80" height="80" as="geometry" />
        </mxCell>
        <mxCell id="ZjEw9_OgDTy5mjLqH5w0-5" value="" style="shape=image;html=1;verticalAlign=top;verticalLabelPosition=bottom;labelBackgroundColor=#ffffff;imageAspect=0;aspect=fixed;image=https://cdn3.iconfinder.com/data/icons/solid-locations-icon-set/64/Doctors_2-128.png;fontFamily=Garamond;fontSize=35;fontColor=#FFC505;strokeColor=#000000;fillColor=none;align=left;" vertex="1" parent="1">
          <mxGeometry x="534" y="278" width="62" height="62" as="geometry" />
        </mxCell>
        <mxCell id="ZjEw9_OgDTy5mjLqH5w0-6" value="" style="shape=image;html=1;verticalAlign=top;verticalLabelPosition=bottom;labelBackgroundColor=#ffffff;imageAspect=0;aspect=fixed;image=https://cdn3.iconfinder.com/data/icons/medical-192/512/stetoskop-128.png;fontFamily=Garamond;fontSize=35;fontColor=#FFC505;strokeColor=#000000;fillColor=none;align=left;" vertex="1" parent="1">
          <mxGeometry x="365" y="175" width="70" height="70" as="geometry" />
        </mxCell>
        <mxCell id="ZjEw9_OgDTy5mjLqH5w0-7" value="" style="shape=image;html=1;verticalAlign=top;verticalLabelPosition=bottom;labelBackgroundColor=#ffffff;imageAspect=0;aspect=fixed;image=https://cdn4.iconfinder.com/data/icons/file-types-outline-1/64/medical_record_doctor_files-128.png;fontFamily=Garamond;fontSize=35;fontColor=#FFC505;strokeColor=#000000;fillColor=none;align=left;" vertex="1" parent="1">
          <mxGeometry x="350" y="268" width="80" height="80" as="geometry" />
        </mxCell>
        <mxCell id="ZjEw9_OgDTy5mjLqH5w0-9" value="" style="shape=image;html=1;verticalAlign=top;verticalLabelPosition=bottom;labelBackgroundColor=#ffffff;imageAspect=0;aspect=fixed;image=https://cdn4.iconfinder.com/data/icons/office-tools-24/88/heartbeat-128.png;fontFamily=Garamond;fontSize=35;fontColor=#FFC505;strokeColor=#000000;fillColor=none;align=left;" vertex="1" parent="1">
          <mxGeometry x="443" y="268" width="82" height="82" as="geometry" />
        </mxCell>
        <mxCell id="ZjEw9_OgDTy5mjLqH5w0-10" value="" style="shape=image;html=1;verticalAlign=top;verticalLabelPosition=bottom;labelBackgroundColor=#ffffff;imageAspect=0;aspect=fixed;image=https://cdn2.iconfinder.com/data/icons/coronavirus-information/128/coronovirus_call_doctor_hospital-128.png;fontFamily=Garamond;fontSize=35;fontColor=#FFC505;strokeColor=#000000;fillColor=none;align=left;" vertex="1" parent="1">
          <mxGeometry x="531" y="174" width="74" height="74" as="geometry" />
        </mxCell>
        <mxCell id="ZjEw9_OgDTy5mjLqH5w0-11" value="" style="shape=image;html=1;verticalAlign=top;verticalLabelPosition=bottom;labelBackgroundColor=#ffffff;imageAspect=0;aspect=fixed;image=https://cdn0.iconfinder.com/data/icons/covid-19-37/512/Infected-patient-hospital-sick-covid19-coronavirus-covid-19-128.png;fontFamily=Garamond;fontSize=35;fontColor=#FFC505;strokeColor=#000000;fillColor=none;align=left;" vertex="1" parent="1">
          <mxGeometry x="220" y="232" width="108" height="108" as="geometry" />
        </mxCell>
        <mxCell id="ZjEw9_OgDTy5mjLqH5w0-13" value="" style="shape=image;html=1;verticalAlign=top;verticalLabelPosition=bottom;labelBackgroundColor=#ffffff;imageAspect=0;aspect=fixed;image=https://cdn0.iconfinder.com/data/icons/covid-19-13/64/Bed_hospital_medical_patient_icon-128.png;fontFamily=Garamond;fontSize=35;fontColor=#FFC505;strokeColor=#000000;fillColor=none;align=left;" vertex="1" parent="1">
          <mxGeometry x="220" y="70" width="128" height="128" as="geometry" />
        </mxCell>
        <mxCell id="ZjEw9_OgDTy5mjLqH5w0-15" value="" style="shape=image;html=1;verticalAlign=top;verticalLabelPosition=bottom;labelBackgroundColor=#ffffff;imageAspect=0;aspect=fixed;image=https://cdn2.iconfinder.com/data/icons/maternity-and-pregnancy-2/512/17_progress_report_statistics_patient_recovery-128.png;fontFamily=Garamond;fontSize=35;fontColor=#FFC505;strokeColor=#000000;fillColor=none;align=left;" vertex="1" parent="1">
          <mxGeometry x="628" y="230" width="110" height="110" as="geometry" />
        </mxCell>
        <mxCell id="ZjEw9_OgDTy5mjLqH5w0-16" value="" style="shape=image;html=1;verticalAlign=top;verticalLabelPosition=bottom;labelBackgroundColor=#ffffff;imageAspect=0;aspect=fixed;image=https://cdn2.iconfinder.com/data/icons/veterinary-line-fluffy-pet/512/Medical_report-128.png;fontFamily=Garamond;fontSize=35;fontColor=#FFC505;strokeColor=#000000;fillColor=none;align=left;" vertex="1" parent="1">
          <mxGeometry x="610" y="61" width="128" height="128" as="geometry" />
        </mxCell>
        <mxCell id="ZjEw9_OgDTy5mjLqH5w0-17" value="&lt;font&gt;&lt;span style=&quot;line-height: 198%&quot;&gt;Self Service Software&lt;br&gt;SMS Integrated&lt;br&gt;Online Visit Booking&lt;br&gt;Reports for patient&lt;br&gt;&lt;div&gt;First 6 months free&lt;/div&gt;&lt;div&gt;Patient reminder&lt;/div&gt;&lt;div&gt;24x7 Support&lt;/div&gt;&lt;div&gt;Hosted in Amazon Cloud&lt;/div&gt;&lt;br&gt;&lt;br&gt;&lt;/span&gt;&lt;/font&gt;" style="text;html=1;strokeColor=none;fillColor=none;align=left;verticalAlign=top;whiteSpace=wrap;rounded=0;fontFamily=Tahoma;fontSize=17;spacingTop=0;fontColor=#FF5112;" vertex="1" parent="1">
          <mxGeometry x="780" y="68" width="230" height="280" as="geometry" />
        </mxCell>
        <mxCell id="ZjEw9_OgDTy5mjLqH5w0-18" value="" style="shape=image;html=1;verticalAlign=top;verticalLabelPosition=bottom;labelBackgroundColor=#ffffff;imageAspect=0;aspect=fixed;image=https://cdn3.iconfinder.com/data/icons/recycling-extras/72/Px-128.png;fontFamily=Garamond;fontSize=35;fontColor=#FFC505;strokeColor=#000000;fillColor=none;align=left;" vertex="1" parent="1">
          <mxGeometry x="749" y="79" width="30" height="30" as="geometry" />
        </mxCell>
        <mxCell id="ZjEw9_OgDTy5mjLqH5w0-19" value="" style="shape=image;html=1;verticalAlign=top;verticalLabelPosition=bottom;labelBackgroundColor=#ffffff;imageAspect=0;aspect=fixed;image=https://cdn3.iconfinder.com/data/icons/recycling-extras/72/Px-128.png;fontFamily=Garamond;fontSize=35;fontColor=#FFC505;strokeColor=#000000;fillColor=none;align=left;" vertex="1" parent="1">
          <mxGeometry x="750" y="143" width="30" height="30" as="geometry" />
        </mxCell>
        <mxCell id="ZjEw9_OgDTy5mjLqH5w0-20" value="" style="shape=image;html=1;verticalAlign=top;verticalLabelPosition=bottom;labelBackgroundColor=#ffffff;imageAspect=0;aspect=fixed;image=https://cdn3.iconfinder.com/data/icons/recycling-extras/72/Px-128.png;fontFamily=Garamond;fontSize=35;fontColor=#FFC505;strokeColor=#000000;fillColor=none;align=left;" vertex="1" parent="1">
          <mxGeometry x="750" y="175" width="30" height="30" as="geometry" />
        </mxCell>
        <mxCell id="ZjEw9_OgDTy5mjLqH5w0-21" value="" style="shape=image;html=1;verticalAlign=top;verticalLabelPosition=bottom;labelBackgroundColor=#ffffff;imageAspect=0;aspect=fixed;image=https://cdn3.iconfinder.com/data/icons/recycling-extras/72/Px-128.png;fontFamily=Garamond;fontSize=35;fontColor=#FFC505;strokeColor=#000000;fillColor=none;align=left;" vertex="1" parent="1">
          <mxGeometry x="750" y="215" width="30" height="30" as="geometry" />
        </mxCell>
        <mxCell id="ZjEw9_OgDTy5mjLqH5w0-22" value="" style="shape=image;html=1;verticalAlign=top;verticalLabelPosition=bottom;labelBackgroundColor=#ffffff;imageAspect=0;aspect=fixed;image=https://cdn3.iconfinder.com/data/icons/recycling-extras/72/Px-128.png;fontFamily=Garamond;fontSize=35;fontColor=#FFC505;strokeColor=#000000;fillColor=none;align=left;" vertex="1" parent="1">
          <mxGeometry x="750" y="248" width="30" height="30" as="geometry" />
        </mxCell>
        <mxCell id="ZjEw9_OgDTy5mjLqH5w0-23" value="" style="shape=image;html=1;verticalAlign=top;verticalLabelPosition=bottom;labelBackgroundColor=#ffffff;imageAspect=0;aspect=fixed;image=https://cdn3.iconfinder.com/data/icons/recycling-extras/72/Px-128.png;fontFamily=Garamond;fontSize=35;fontColor=#FFC505;strokeColor=#000000;fillColor=none;align=left;" vertex="1" parent="1">
          <mxGeometry x="750" y="278" width="30" height="30" as="geometry" />
        </mxCell>
        <mxCell id="ZjEw9_OgDTy5mjLqH5w0-24" value="" style="shape=image;html=1;verticalAlign=top;verticalLabelPosition=bottom;labelBackgroundColor=#ffffff;imageAspect=0;aspect=fixed;image=https://cdn3.iconfinder.com/data/icons/recycling-extras/72/Px-128.png;fontFamily=Garamond;fontSize=35;fontColor=#FFC505;strokeColor=#000000;fillColor=none;align=left;" vertex="1" parent="1">
          <mxGeometry x="750" y="310" width="30" height="30" as="geometry" />
        </mxCell>
        <mxCell id="ZjEw9_OgDTy5mjLqH5w0-25" value="" style="shape=image;html=1;verticalAlign=top;verticalLabelPosition=bottom;labelBackgroundColor=#ffffff;imageAspect=0;aspect=fixed;image=https://cdn3.iconfinder.com/data/icons/recycling-extras/72/Px-128.png;fontFamily=Garamond;fontSize=35;fontColor=#FFC505;strokeColor=#000000;fillColor=none;align=left;" vertex="1" parent="1">
          <mxGeometry x="750" y="111" width="30" height="30" as="geometry" />
        </mxCell>
      </root>
    </mxGraphModel>
  </diagram>
  <diagram id="MBonDo-fyGHqWVWkwIvN" name="process">
    <mxGraphModel dx="928" dy="710" grid="1" gridSize="10" guides="1" tooltips="1" connect="1" arrows="1" fold="1" page="1" pageScale="1" pageWidth="1169" pageHeight="827" math="0" shadow="0">
      <root>
        <mxCell id="iryjkZB7OB2-_eOB0UU8-0" />
        <mxCell id="iryjkZB7OB2-_eOB0UU8-1" parent="iryjkZB7OB2-_eOB0UU8-0" />
        <mxCell id="iryjkZB7OB2-_eOB0UU8-9" value="" style="edgeStyle=orthogonalEdgeStyle;rounded=0;orthogonalLoop=1;jettySize=auto;html=1;fontFamily=Tahoma;fontSize=17;fontColor=#FF5112;endArrow=openThin;endFill=0;startSize=6;endSize=6;strokeColor=#FFC505;strokeWidth=3;" edge="1" parent="iryjkZB7OB2-_eOB0UU8-1" source="iryjkZB7OB2-_eOB0UU8-2" target="iryjkZB7OB2-_eOB0UU8-3">
          <mxGeometry relative="1" as="geometry" />
        </mxCell>
        <mxCell id="iryjkZB7OB2-_eOB0UU8-15" value="" style="edgeStyle=orthogonalEdgeStyle;rounded=0;orthogonalLoop=1;jettySize=auto;html=1;fontFamily=Tahoma;fontSize=17;fontColor=#FF5112;endArrow=openThin;endFill=0;startSize=6;endSize=6;strokeColor=#FFC505;strokeWidth=3;" edge="1" parent="iryjkZB7OB2-_eOB0UU8-1" source="iryjkZB7OB2-_eOB0UU8-2" target="iryjkZB7OB2-_eOB0UU8-11">
          <mxGeometry relative="1" as="geometry" />
        </mxCell>
        <mxCell id="iryjkZB7OB2-_eOB0UU8-2" value="" style="shape=image;html=1;verticalAlign=top;verticalLabelPosition=bottom;labelBackgroundColor=#ffffff;imageAspect=0;aspect=fixed;image=https://cdn2.iconfinder.com/data/icons/health-care-and-first-responders/64/doctor-asian-female-coronavirus-128.png;fontFamily=Tahoma;fontSize=17;fontColor=#FF5112;strokeColor=#000000;fillColor=none;align=left;" vertex="1" parent="iryjkZB7OB2-_eOB0UU8-1">
          <mxGeometry x="450" y="165" width="128" height="128" as="geometry" />
        </mxCell>
        <mxCell id="iryjkZB7OB2-_eOB0UU8-10" value="" style="edgeStyle=orthogonalEdgeStyle;rounded=0;orthogonalLoop=1;jettySize=auto;html=1;fontFamily=Tahoma;fontSize=17;fontColor=#FF5112;endArrow=openThin;endFill=0;startSize=6;endSize=6;strokeColor=#FFC505;strokeWidth=3;" edge="1" parent="iryjkZB7OB2-_eOB0UU8-1" source="iryjkZB7OB2-_eOB0UU8-3" target="iryjkZB7OB2-_eOB0UU8-6">
          <mxGeometry relative="1" as="geometry" />
        </mxCell>
        <mxCell id="iryjkZB7OB2-_eOB0UU8-3" value="Self Sign-up" style="rounded=0;whiteSpace=wrap;html=1;fontFamily=Tahoma;fontSize=17;fontColor=#FF5112;strokeColor=#000000;fillColor=none;align=center;" vertex="1" parent="iryjkZB7OB2-_eOB0UU8-1">
          <mxGeometry x="600" y="209" width="110" height="40" as="geometry" />
        </mxCell>
        <mxCell id="iryjkZB7OB2-_eOB0UU8-7" style="edgeStyle=orthogonalEdgeStyle;rounded=0;orthogonalLoop=1;jettySize=auto;html=1;fontFamily=Tahoma;fontSize=17;fontColor=#FF5112;endArrow=openThin;endFill=0;startSize=6;endSize=6;strokeColor=#FFC505;exitX=0.5;exitY=1;exitDx=0;exitDy=0;strokeWidth=3;" edge="1" parent="iryjkZB7OB2-_eOB0UU8-1" source="iryjkZB7OB2-_eOB0UU8-6">
          <mxGeometry relative="1" as="geometry">
            <mxPoint x="500" y="305" as="targetPoint" />
            <mxPoint x="900" y="335" as="sourcePoint" />
            <Array as="points">
              <mxPoint x="896" y="375" />
              <mxPoint x="500" y="375" />
            </Array>
          </mxGeometry>
        </mxCell>
        <mxCell id="iryjkZB7OB2-_eOB0UU8-8" value="CONFIRMS" style="edgeLabel;html=1;align=center;verticalAlign=middle;resizable=0;points=[];fontSize=17;fontFamily=Tahoma;fontColor=#FF5112;" vertex="1" connectable="0" parent="iryjkZB7OB2-_eOB0UU8-7">
          <mxGeometry x="-0.1708" y="1" relative="1" as="geometry">
            <mxPoint as="offset" />
          </mxGeometry>
        </mxCell>
        <mxCell id="iryjkZB7OB2-_eOB0UU8-6" value="" style="shape=image;verticalLabelPosition=bottom;labelBackgroundColor=#ffffff;verticalAlign=top;aspect=fixed;imageAspect=0;image=data:image/png,iVBORw0KGgoAAAANSUhEUgAAAggAAAHSCAYAAACJsTO3AAAAAXNSR0IArs4c6QAAAERlWElmTU0AKgAAAAgAAYdpAAQAAAABAAAAGgAAAAAAA6ABAAMAAAABAAEAAKACAAQAAAABAAACCKADAAQAAAABAAAB0gAAAACYSaSMAABAAElEQVR4Aey9B7gdx3Hv2ffiIudAEiRAEoFJIEGQpsRMBYuiAmUrP1nJXvkzKdlar7T2vt3vsxyev/et/byW/ezVZ2VZXEmmrEhRpESJQRQzCWYkIjEjEDln3IutX83UOX369MycC5xzcQF0A/fUdHfVv6ur50zVdPfM6dq3b98hl1KyQLJAskCyQLJAskCygGeBbu84HSYLJAskCyQLJAskCyQLqAVSgJBOhGSBZIFkgWSBZIFkgSYLpAChySSpIFkgWSBZIFkgWSBZIAUI6RxIFkgWSBZIFkgWSBZoskAKEJpMkgqSBZIFkgWSBZIFkgV6ykzQ3d3turq6oiyHDh1y9hdlSIVH1QI2doxRX1/fUdWlXY0fj31ql20STrJAskCyQLst0FX0mCOOZdOmTYXOpaenx40YMcKNGTPGceE+ePBgu3VrGY8gxg9kjheH2LIBAkbGbvPmza63t9cNGTLETZ48OeBoPYs8eNgXvE4nziVS2F47+9TpPiT8ZIFkgWSB48EC0RkELtLbt293//AP/+C2bt2qAYDfWS7WQ4cOdaNGj3KzZs5yb3zjG93cuXOPyowCjmT37t0azKDXhAkT3Lhx41QXX+cT5Rh77N+/3/3rv/6re/XVV90ZZ5zh/vqv/9oR0GGf/qa1a9c6CSJ1vE855ZSGQKy/WK3wr1+/3u3Zs8cN6Rnipp4yVc+9sE+nn366+5u/+ZvD7lMreiSeZIFkgWSBE90C0QDBjIKjwTnYDEHoYLZt2+bWrF7jHnvsMfeOd7zD/ZcPf9gNkeAi5DO8TlAc37Jly9QhMovxYdHh/e9/vzrJTrR3rGASNO3cuVODp8PRGaeMPb/yla+4lStXulNPPdX9t//239yoUaM6Nr60edNNN7kFCxa4SZMmub/92791EydOrLV3pH06HDskmWSBZIFkgRPVAqUBAhds0rBhw9z7P/B+N3bMWF1y2Lt3r+NO77nnnnOvvfaa8vzsZz/TJYcPfvCDhcsNhodAq0FEKzJg4cz4awXXMFvh1c7lH52Q6y9mFT99YlngrW99qy4z4GCRkR0jflf0uAoLJpYVsGurywuFmHIqyUKQtltmd5aHwvYOp080VNaOKhJ8FOoe8KVsskCyQLLAiWCBLEDguh36D8rycu7S3/yWt7gpkxrXsrds2eJ+8pOfuLvvvlunoO+44w73hje8wZ155pl6kceAXHSZLj544KAjsMABDB021I0YPsL1Hepzfb2ygc7a92h3V7fOXDDdjMNgFoM9Dzg/nBUXf7Ch1HHMH8e0QZu9B+tr5pTzx6wIfyQCH/7g58/XY0j3EM0f6ss2YyKL/ugyfPhwxVIQ+8h1R7/cD2rfuodIm/uyNmmLerWJULDoHwlM7ILONcfm2QN9Dkl+7+492n/jx35gEgCgq/Zd8r/zO7+jZThl2rHxbckOoo/2Q6hvV84Dys3+umyRt0sf4KU/1I8cOZIiR/8Zy5rdpQ/DhgZ29/jC9tAXe9BuUZ9op6tbzjOxETNetAWO2kiWwkxf+BgbbGI2wy56Lon8HrEt5+TwYcN1+QJb1sZChfMPb1zUrkV5X6bouEjWyovk/HLjraK+THhcJWv1oVwsb7xFNCYTlhXJhuWhnJ8PeYvyvkzRcZFsWF4kT3nIW5TvNIbhF7Uflht/jIa8RfmYrJUVyYTlxl9GQ5mi/LGAYToW9SEsN/4YDXmL8oFsFiCEwQFMlPEHkKQD4uRwNOpIsyJd6/+DP/gDXf9/4okn3I4dO9zDDz/sZsyYqRzmVB+971H31FNPuY0bNyoGGxtnz57t3njNNe4MCSa4gGvK9eBC//zzz7v77rvPvfzyy27Xrl21NXACEP64+LPGfuedd7oNG9arw8ZhoQezG1OmTHHvfve7a86YDZcPPPCAW7J4sdsqSyM4kPETxrsLzr/AXX3N1W7SxEmqB+X080e3/EjvwM859xx3+WWXuzt++Uv3zNNPuwMHDrg//dM/ddOnT6/rjfKiO07nl8L34osvupNOOsld/+7r3cMPPeweeughxfr93/991R0nShlLMxs2bNCus5GQfl155ZW1oEXtL7XYY8WKFe7Xv/612gMHOElmBq66+mqx9Qx31113qV6vf/3r3aWXXqpO8pZbbtFxYar+ve99b80+q1at0jFatnyZ27F9h9ph3Phx7vw557urBQ89GA9mhNasWaMY2JWxZfqfPr797W/X/v3Hf/yHjs1v/dZvufPOO8/ddtttbrHYl0Doc5/7nJs0eZJ74YUX3KOPPKrjyZIHDnfsuLHC/zp3lfSVpQvK7rrzLvfSSy+51atXq3PGRt/97nf1+M1vfrM766yz3A9/+MOGPqmTF1n0W7N2jbv//vvd8mXLVVfGkb7PmzfPXXXVVW7s2LHZ+MoJzVIF9kEf6s8991z385//XJeqGHv2sdAn9tYQlPrnvA5Wfp7a+BRSZa74qMKqEG+bPlV6WH079GkHRiv6GE8VPZb0qeqL1ac+ZRYwe4S0zD4hb1G+0xiGX9R+WG78MRryFuUD2dIlhoBXsnm0kIfCOBKcwVtkdoEAgIvy0qVLxVntV0eCU/7a177mnn322ewuTerh4YK7ZMkSddgf//jH9UKsd7nSAhf7e+65x/3Hf9wsF/rtqgKOABmcDU716quvcTfeeIM6XZwSOhAwILt8+XL3zLPPuNeJA7r++uv1rnzZ0mXuq1/9qsM54owIXEh9L/a5Z595VvX41Kc+5c46+yy966dfBBPws0lzwbML1KmiO23ZHWp4S9Ald8rYYf78+RoA4VQJYMDjD8eE48MmBAiUmS4EFcjyd8MNN6hDo8/06Te/+Y379re/rQ4NvZF55ZVX3GKx4dlnn619BhvHdvnllysu+ARXMySAeM973qM4ixc/57785X9z69atAya7ixZ70A52QOazn/2smzZtmnvkkUfU2RPMYX/wmSlC50suuUTbImBhHwpjR93TEkBho/Hjxyv+Iw8/4r7xjW+ow8bu4JDgx6b3Sb8IJM4++xwN7GgTWfqHjcFnRoDgY/bss1Q/+sQMFX0iYZ8nn3zS/fu//7sGhtK8yGdPXmBTdCJo/fSnP+2mnTZNZwj27t2n2GzE5WmP22+/Xc9bxlZOEPeygDzzzDO694Lzgj6FY92cV3UKPpDnG1lFC8QbigcCw9poaDjIGE8VDcSi2YHAsDaiCuSFxlNFyzCsbiAwrA1rM0aNp4rGZMOygcCwNsK2/bzxVFFfpuh4IDCsjSIdKDeeKlqGYXVVGFZv/DGa8eQBQrMA07B1pTnCuQMkH11ysWO+Wy56OIypU0/RKWWcHxdc7sxGyx0bd5xcoHnigTtuAgnu5NiEhjPAgXJh5277da97HeDqlHCGOAicBXf3s2fNdlu2bJaL+r3qBO677zeyO/90d8WVV7hPfPwTevdI4IAuPE3BHeEkuRPGeWzcuEmc4pcdu/HJX3DhXHfl5VdooIDjWLxosc5EsBnv85//vG6Ko49M9+Mc2aBHv5htmDljpgYIw0YMV/nMDqK02UMobXDXyfILgQ5OZ+bMmRrA4MC5C+ZOF5vMmTPHXXbZZcpDQEJwRT9o98Ybb1Qs2sceLG+Ae7XMupwvcpvFHvfcfY9bumypTtlnAVLmgLEj+LQNxcHhlL///e+p/UaPHq2zBbS/e89u9+ADD+rdMwHYD3/8I/e5/+2z7m1ve5u78MIL1SkzpujEjAz9s9kT8CnHmRJATD5pijtTnpoYM3qM27Z9m7v55pt1hoHlhkuln3PnXqB+8smnnnRPPfmUBiq33X6b+98lSOBunVkl+k8Ag8x1MlMxQgK/mbNmud6+g/U+ydiQCDgIlAi4CFSwwSWvv0QDmH0SBGBn7Mcm1q9//evuv/6f/9WNGjlalyPQnQ2X7KNB7n3ve5+bMWOGe1FmMX5z7716/nGOvvktb3Zzz5/rDvQeyH18fu57Y27fBc6bnCmnaClJeYuoyBhWNIhQhPpHFKsKw/TKYaowWtEnimF9rNKn3h09imJVYQy2PvVTn+hY9xOj4+PUT31Sn47SNaKf49TieQNbHiBwd9OYsk1tlNM4/c7+ZRbISvRT7rhGjRqtF1kcKXd8OOolixbp3TAOhcfS/uzP/8ydOvVURNw14uROPvlk3b+ADNO7TOUThDBFjzPEsX3sYx/TzXYqJB9MS//93/+9Xry5+L/9HW93H/ovH9J2uJjjBJky5u5S1NKA5l65C2WqnLtSnDF3kjgfEnfbX/7Sl938x+drkMCSxgc+8AGpqdsDXViuwGGff/75GhhwN0wfc9Moli+DQ2YpAsfDDMk1b7xGnTjOiqABXS6cd6H7rDhinDXp0ssudf/8z/+sAQuBC45pzuvm6PIBARd2ZEbkIx/5SN6e0+WRf/zHf1TnSGFd6xqLHqDPLnHgzOjQNlPvH//Ex3UfCHXzLpznviRB1G5ZymEpabesxV977bW1mR6WQQgEsI1NubNcZIkx5K7+hhtvcLPEmbMk8tTTT6lejCN2/pPP/ImOLzKXS2D3l3/xeZ3hWL9uvZwz+92b3vQmhXtJHDTjRTvvk6URgsTevl7dH2DtGUX3X/3qVxqMESywMZMlL2xFeoPY9F//579o4EUg8Pj8x91v//Zvm3gW5EnuE5/4RO08e7Pk90p/mL1gnFevWu0unHuh7NasicmBWbqK+jJFxwOBYW0U6UC58VTRMgyrGwgMa8PajFHjqaIx2bCsCsPqQzk/bzxV1JcJj6tkrT6Ui+WNt4rGZK2sStbqjT9GjaeKxmTDsioMqw/l/LzxVFFfJjyukrX6UC6WN94qGpO1sipZqzf+7IrQvyUGnTUQgHz2QKEEF6fDxZrERZXEsgIOmws3j0ASHDArgFftlg1h73znO92jjz6q0/isr2/ZvEUwunWtHawZM2boXS6ONoM8pHeYH/3YR93mTZv17o+Nj26E7I+A5ok2SQcPHhDHIlPnogf64YjfK4EDjifTw7nRcgf5HnFCCxct1FkCeH/3d39XpKUv0kf6wh+PTRJ47N8vd5F6IaWv0k+zQwOVKknocd1116mjpQ/0iZkT20/xtmuvy4OqvcJ9yI0cMdJd+9ZrZY/EEg2QmPKfNXOmLh+YU+eunsBEgxOR4o77iiuu0Cly2sz00aOGD/rAnTjvhyBIwOF/+Utf0bv202U5YcKkie7zf/EXitsnGx2HDu3RAIc+2HhCceRDhvRo4GUNUI5D/sjv/Z47R5YK1LZiGt6P8Vd/9dc61gSDbL48KH/Uv/jiC2oHbII8f9kY1t/6SBm8yBw6xJsgs/NL2xV7I8sMFMssnGM8rcHYYSsbp0kTsjLOL5ZRmM36bZnFMiTKmA0hgKGv5JlZYEnjXplFQAcCXmuzeMyzcz5jjHw2nB9F500FhsFWYRlfGa3CsPpOYxi+tVdEja+MFsmG5Z3GMPyw3TBvfGU0lCnKdxrD8Ivat3LjK6PGW0U7jWH4R6JHqxjWhvHHqPFU0ZhsWFaFYfWhnJ/PeeRqL6Vcm3wKo11FOSaRZ85Bk1EpEmfP9LI5XS6wXKSZJuYizjTuOeecU3NqNIYTYqlh1uxZeueOPFPEJI65UM+YMUMdqOFSxwX7urddp7jkqWNeo64XpVmi7V1y5w0ucrzkZ6psiLMAAq4D4hSmTTtNZzO4c2VZgPa560VP5LiDZdniIDMG2haENnMqRMshuX2QA4NNgxzzjz6xAQ+9cGg/+9mtcvf7S61XUSnnTpw6eLHftm3b1ZGCcdppp+m6P3fTmvLx4Y69lmrjUyvRA9onMGIGgql27Pboo4/Iuv/jGjRgG8aIDY7gsZM/msDXNvLGhQld2Wh4jizrEAhhF8oIRhhjlgAefPBBnRUgMNkkf+vkj3HgPNGkcPVzqrFtKzdKbbaPhLHdKUEC7fFCKIKEg715sCiYtDFj5gwdQ2Y8+Nsn+2Ps3EZuogQR2MZmhMxW6EZ9PVn7RTTnpC+wNFAp0LxHlT3EKsMwzIHAML3K9PH0sL6lPnlj79mnzC65iRvPFyk0mxqNYgzScUp9yi1g42M0L9YxleMG6p0vpWNehmGYHpayW/shLcPKMOT1ejmTT03xvKrWhvF45VxIuStlKt4cKksOdueFoyRooC5Mo4VPHajUZTMF9TvIYXLHG0tcyHGyNThgm6FVFF4LCHACQ+RON9QDh0wdCV7+sgBBYKURnNxoWVM/ZM7C2jKqkvmHV8byAnsO1MlIOVjYKNP9kDpOX5Rj6giosMWw4cPEaWWPXyKLTuq0DuZOK28L/Q2zyA6U0y9287NUwDIHG/jYpEdQxPixaZQNlR/44Afc9e96t+jrO0evf7TL+ZEn+kcQhQ3NoaLPzp273He+8233+OOP654UdB8tbY+RmRz2Plj7CpP3xTBbpfSJMcY+LBuF9sHZD+0ZqoEmmMovMxIsZVniMcxaQo/D1KUBg4zhFNGaQOSgSCYsj4jWikLeonxNoOSgSDYsL4GotIdhdRrD8K29Kmr8MVola/Ux2bDMeItoyB/LF8mG5TFZKwt5i/LGX0aLZK28TNbqjLeKGn+MVslafUw2LDPeIhryx/JFsmF5TNbKQt6ivPGX0SJZKS9cYqhfQjNk8vZneOIH1CmwVGB3+kx7jxw5QjaDjVJBAgUcERsRcbLIgoMz4Y4OZ4KTwzFyAeciT9omTw/AA6/JCLOuJ7MmP1zeo3Deeefq2r4KRD4IMnDUJHRgbVn3H4hDMUycNnei6AHvCAlmxOOojDlm3g5pydfHMIwaD3L0SdfCcyx1kOIc6RPH7GmYLtP7B2VGoFsA+gR4iJN2ZEYG7djox1o+jpf+bpGNgug/NAi22HxJeyR0K0vYn9kQNh9ulqCAGQ025bH0wf4IxvBHP/yRPgHC0xGMhyWw/T8rh+qskdiPkAKeHglmfv3r23Udn8Dmggsu0CUlnQWRYIL6v/zLv9QnRJA33KwXlDQm6psTyzIjtG1mfbZKoIO+Fiwhg51Z0sF+JGzJOxh2Hdqlef8D/nAc/XqOfR7jLdK5VVnDDPljeeOtojFZK6uStXrjL6PGW0WPBQzTsaovVm/8MWo8VTQma2VVslZv/GXUeKtopzEM/0j0aBXD2jD+GDWeKhqTDcsGAsPaCNv288ZTRX2ZomMwxB1lKaShEBfbbnF6+ieOCweIX2ITIDvwcYY4CtZzSTxlgOPi4s1jaH7qkXVsNqKxNgwud9o81z9ZXsTE1DTY1G3evFWPkaUMJ/+lL33JfeELX5DHIL9bmxY23f02aJu71alTp6rT4I2P7Ga3DWyKKTpz58zUN/ynnnqaGymBijncOl5rbiCmBxiU47jYrEnCEbOccPqZZ7iZM2a6M2fO1Kl9Zg3YoPiQPFWwTvTl/QQnyfo96VV55HKx7E/ADmD1CGUNnkcqKStL1LNk8TVZXuCJjvtkfR3ciy++WPdX/IXsP+AdCAQvBEy8X4I2/KRLUhQE5T6PHffJXT12pV2c8ic/+Uk9L6ZNm64zMgek//vy2ZRMprEtw8lK/U+rIcCU5R85b3hvA+fQS/L4I7MS/vjSB56w4LxhTLF/j+yv8JM/snEtfO74MXImW0TjkvVSk6PEjkNa564+CmUtXy2ZccBvMkW0VSz4BgNG6lP1iHVynAy7SovBNk7t0KcdGL7dzJYh9XnKjlvVR25esyaKKI3gOLjT5B0D/C2STX1s4uIHgb4ljzJy58ZULxvmeFwR/ktk/Z3peZwEL/J57LH5cpXINpdtkrthXrLDnTu8vJRmrAQGPErIHS5lOO0fyyN37L7nQr9HHArvPGDWgcRdqU79yxW+WwIOEnwEAnv27FUnTCCCTiT0+8F//qe+S8H04K6Zxw5xHjiZyy+/TAMg32kga7bxj63MeKFWBp8lyvijT9y5EwCReBERL/VBL/7YePnt73zH/eAHP3A/vfVWt0+cKM7uMtkXQILnO9/9jm6027FjpwRYa903v/lNdYoWIMTaRxa7IM97Dhi3n/z0pyrHHgyWM1jKsGUV7MAyhMmBjfwuWTLYsGljxi99CZO1nfU3O2eQo98EJ7TTJ7MlO+WO/nZ5amWz3PHTFvXi67O7d+G3vhCorJMXXtlmU7OztcuYMRvEy6XAgJ9zCrvQLmPM5lPsTDvMDl166WUqLqK1xOiQ+Mx0t6+cFjd8mFiM1svKv091O2XQdbl6U3WeKqzOYaBXXbcqPay+c/qAfKR2GZx9MpuZDYuo8TXTwTdOpmNRX6zc+JrpYOpT/86b5r5Q0j+McvtkeMZTRY9Mn8bbqQyr4ZOLLcsEX/ziF2vlXJAJCrhI2wX9oosu0scS4Wfn+cyZM/XpBXtj3Ve+8uXcqY/W2QHbsMdd3bve9S69yMtV3b1LNtItkkckCRB+/et75G72FX1xDzMOOHTw2VSXPYaX7UeYOHGCOjjqWO7gZTpsWrvxhhv1znX+/MdlFuMJ97LcGfNYIGvgJN76xxo8iUcg+UN3TZndG48pY6TLaCZR/8xx2DyHTjzZgE0IZP7pn/5JbUIg8Pzzz+sTHczC8LgewQQ25v0AvDyJZQAc7b/8y7/oY4pMnRNgMW3PewoYi6JEcMDLj9g0yQwFew6ww3nnnueGjRimj/LxDgQSOrJhkbYJGrhLZ7yZCaLtcWPH6TgzM9OUcruwJMO7KBYsyJ5k4T0FBI48ScLYcKfPWOG4eevlt7717/JDXx9yJ0052U2URzBJzLIwW0RAxVMkF144r6k5No5yHjBLwOwQ75H4H//j77VtnmQgkMVO2AabXnDB+RooNQFR4I9pjMGvj50DMRkrq5K1euMvo8ZbRMtkra5INiw3/hgNeYvyMdmwrEjWykP+WN54q2hM1sqqZK3e+Muo8RbRMlmrK5INy40/RkPeonxMNiwrkrXykD+WN94qGpO1sipZqzf+Mmq8RbRM1uqKZMNy44/RkLcoH5MNy4pkw/JQzs/nvBIgxK522Zq7+RwusKED4o4MBzJZ3hFwhbx4iEfwRo0aqXejYHJXaq/4ZQaBaV6cN84Gh4g8jujj8vphprsPsgNertJnSMDwmc/8r7rBDWfChR9Hjgx/OLo/+IP/RSmPxuFoeFSNO0nwcWwEEnp3KnqzV+HGG2+Qu8tR+rY+nOlv5A1+JPDY+8Du/Y9+9GPSn+x3GdRbiFmyfgtjzfeGFibfnJrtBVh2F//e975PcdkouE1swvsc4CfQYsaFGY+PfPSj0q/s7hr9/viP/0RmFr6vjhCHh1Nl6h6b44h5S2RjyvSyMWMcsQfvZOBOfuHChW7T5k3u/geytqmjHfYdwDN+/IQ8QBgiAcqb3FJ5h4C2K+8s4Nc7maHB7tZPa8e8LAHJO97+TgkGXhGdn9Y9AAQmJAIgdCZYYOmJ8XrwwQf0CYuTT3K61PHM07xDYbvOFq1es1qDE56WIWmb0rYey9QDNvuTP/mMvJb5O9ovgigLPllOYDaEIOuDH/yQiKCzDoWnu0JpnTfQWpj1ywY/PtYmXafww1tF6xLNR1WyVt8sWS8xnipalyg+qsKw+mKEansMFIbpaO1VUeOP0SpZq4/JhmXGW0RD/li+SDYsj8laWchblDf+Mloka+VlslZnvFXU+GO0StbqY7JhmfEW0ZA/li+SDctjslYW8hbljb+MFsnKnJ082y61jQxcf3G+ixcv0tkDnEGYuNBzcT7t1GlylzdWHy9jXdjHwsn1yI8m4Si4m+Oumcf0xo0Z58465yx9/z+ODifhX1R5Dn/7ju36Ol7uNnFOOPoZM87U9xHwoh8cnV2HcXBMMXMHycwDevB2x7m84EYS9Vzsl8vvD/DCHIIE0qRJk+XlR3PUMYrHk9csM3vAtHiv6LtYHOFucTBjZcbhdeqw9RE/FuN51K9GVUS73SXtLBMdwMc+LIMQCOGUzC7YcojsnH/hpRfdogXMlDCNflACrcn6wiJ+cwBdCaRIvHsAWeS481+/nkcED8ijmafIexBmSYDxgMzu/L8q87GPf0xeLvQ+t3ffXnlR1RK3c/dO/QXOOXPOp3vSrrzfQO7MnxMdX5L20RNnzuOBtIvjHiEbTPX9Egy59LF7SJd7RcaPccDGjMNFF82TgGK0zhAwDuwhOU9eYiVaqwz6dss+lf3792lQw+wIGwWZDeAxSuxCu7+SpyY2yZLRSSed7N523dvcGMEkEOAV18iwT4NNmXMvmKv2WSSBzc5dO3UD5/nyGxrd0ik2dLKUdEBssmTJc7oEtnWbLF90DZHAc4q+TIo3MbJBE5tiR2YnwNrv656/a4F3dGyS5Z4VK5breXSm7BOZNm26LIPIudH4NWnMM1ia1HBy5NGG80XKNd/IotgZQKSiCCvC2g4Ma64MK/UpYnwznI2x0QhrzbZ24MnaidZg4wiGiRiEf85FMVrRx0AjtEqfmh52cBgYJmIQqU+tX2eiYy6GNJuGtAUb5wFCjTM/kCuhXEiHyQxBWcIRc6HP7rSKOfllRf9JADhxmjjGppfg5DBcqLnDDxNLADjwrNdWiwMlGKm/xAd8DSJqRstmDHAqfqIPWYDSePUflr/Ol9IDMl3dWsoeq7O7XdrPggNfWhBFBzYZErj4qa5LVkpwxR4JHhWkbx+TWY45EtBYwIbtvyRvgnzooQcV68//jz93r7/kDdpvZnfoat0OGSayvp2sfcYQ28bGA37Gw5KOgThUOz+QzWxd5+GsDsfE5G3mh/5ZoswereRxVP98sTFnhifWJzAoz/rl65DthUC+/i3LeLEPKbQPZYyL6YaN+Ws83+BKKVkgWSBZ4Pi2gHpgu+jWIw25yIof4w7LEpfdRhdaz8PTjFEX4C16vV1cZLPkYyGo+cxv6gUbLJylth82CoTJcCh/4or0k7tIH0sKc8X0qH5nnGVrn6q7SBoWlDVsLQ/bD/M5ismy14CbTV8PnFAdS2okry9ewnHB6GGQV1kpw1FNmXKS3u1T+q2bvqWvkWb9nz0BBA7z5z+q0syunCt7CtSZCQCzDKZqDZMCKVVnbo00UQqyZFW90idT1foCeC0AUhH5MIE8z929r4fpk6nBmxK5oxeNrCJXNDxfVBth9LH8PhkGmy5rnTZMo6pcXUXVXYBVVWiuB5SZhv0HmA0xBik0xrzIqpqoFBiWyjQxGKbQ/LCJpc0YpfpkapSqamNeG6cmhfOOlGEd533quI3LbJubv93jlPpUvwTUTvmq8/g4GyeZQdjHrV52leYiqJawfK0g73ZIcrP5Z2ZNxMOw+voV1wOKYZhsh/Sp6ZG37WlTOyVMZ6URPay+huWDtKdPDAvT/d/61rf0CQScGjMA3P0SCJDnrvlkecfEjZ/ityIuyJ0/g+CnmD5Sr8Vma492sE+ZVi3qU9Mj5/e7ZHU2DkdxnPrVJ9PX9G+5T8IYjlfLGDa2rWKYUi2OU+pTPSrkq9efcbIxNBsWncfGZ0PTQDs1Tv09b3I9TNfUp4ZRGky+JVOs+rzRAMHig6A3DVnjqaINQgWZKgyrLxDXYuOpomUYVjcQGNaGtRmjxmMUHmYRuHPmSQaexmATHnsBKGdNn42eb5QfOjrt1KkSHHgvNrLvdgGNtR+WmR5VNJTz81WyVu/LFB0bbxEtkvPLi2TDcl8mPA55i/KhXCxfJGvlMZmwzHiraCjn56tkrd6XKTo23iJaJOeXF8mG5b5MeBzyFuVDuVi+SDYsj8laWchblDf+GC2SCctjsmFZKFOUD+X8fJFMWO7LhMchb1E+lIvli2TD8pislYW8RXnjj9EimbA8JhuWhTJF+VDOzxfJhOW+DMdd+/bLDEIQ+DXkQ4lYvhY1S+XhYrUDw3SrwjK+MlqFYfWdxhB8mzVgr8SefXvc/r37XZdsdBwlP/DEJk9+lKqX6fWqZDpX0TKcKlmrL8OwOuMtosZXRotkw/JOYxh+2G5R3vhjtEgmLI/JWlnIW5Q3/jJaJBuWHwsYpmOoe1He+GO0SCYsj8mGZaFMmA/5Y/lQpigfk7WyIpmw3PjLaCgT5stkrS6UKcobf4wWyYTlMdmwLJQJ8yF/LB/KFOVjslZWJBOWG38ZDWW8fGOAUAZS5vg9wDKIWl07sNqBYQpVYRlfGa3CsPojwZCVYiI+3aQoeER2hRtErb0iWqaH1RXJhuXGH6Mhb1E+JhuWFclaecgfyxtvFY3JWlmVrNUbfxk13iJaJmt1RbJhufHHaMhblI/JhmVFslYe8sfyxltFY7JWViVr9cZfRo23ih4LGKZjVV+s3vhj1HiqaEzWyqpkrd74y6jxVtFjAcN0rOqL1Rt/jBpPFQ1k5fk/vLskKMJ+Xsv5KEjwk3yZKIa1kbE3fMYwDDOK1SDdmIlhlWEYv49iZYOxT7Kmx9N4ffojTnlwUNMz74Tpf6z0CT3pw/E0TqV96ud3wexi1LCV8hEkG//aeWHtVdg4gNFsDCuqh7URASnDiGK1iAFb1XkTgdLzzGSNRvXoZ59KsSKK1OyS1/njFdUngmFFNSzTuWisrd4EPRrDoLo/Nq5h5LipT56BsWWrdunwOJlWFfp0yfh17Zf3IMCHSjFqWGW0SDYs7zSG4YfthnnjK6OhTFG+0xiGX9S+lRtfGTXeKtppDMM/Ej1axbA2jD9GjaeKxmTDsioMqw/l/LzxVFFfJjyukrX6UC6WN94qGpO1sipZqzf+GDWeKhqTDcuqMKw+lPPzxlNFfZmi44HAsDaKdKDceKpoGYbVDQSGtWFtxqjxVNGYbFg2EBjWRti2nzeeKurLFB2XYchvMWRhhE9144KUQ0lFNKslsCjHoP5wMMA3WaOUHQ4WMu3EKMNCRxI8RbTd+tDO4dqFqwKvOTie+mR9MRqzD2WkgRynVvXhqxfTq+q80Q4VyFJn7Rul7HDPG8MwGsOijARPET2R+6RGKbBPlV1s3FrFGKhxalUf+KwPIW0VI/Wp+XvVzvNG3iwkQ1F7tEYaI08yql/s7HKVFaKQ5ZUzz+ayhuVjlGKVYMSw2qFPOzCOhz6p6Q/p2xp50yGPTXIpr5tHOmlvT8sL9Qsp499IcxFh1yHDNrXTxMMoxSrDEDzF9LCi+jRjlOoTxbC+NWO1o0+t6NPNBlR5q+To0aMyS2vf8+8XY0ZeU83IklOmvNyyuYx9j4zCVYrRApaPUYoFoySFPFx9Mogjwxikfcq7Fu2b2U15YmOd+lR+HrfjvLEBKsGiqvQ7MNjGqXV9eoxV+6cfmSHs0CK73DwNRCMV+86bjUzQ8j716gwohmFfhbrR6/Zviz65HjGsmD5RPfIOtIoxGPvEZsfdu/fobxfwWxC8FprHJ2v9VTvJh1Edy8x42WulqLJ8ZpCaPbLiuqxhGI1ilWGoQPbRD4xKfaJ6ZMpnn9KF2kGmX80epofRKFYmYxhGc7M12UffbyGPtfI66H3yyuzJUyZpjFbj1zYaMbNcvcziADvnjLaKYXjoGmJFMXKBWt8MQGgphtkVvn5iDLY+9Vefml1atbEZyLOtHdawpKBUjw7buKZH6pMNTQOt2ecoj5Mp1Yo+PVwA+HYqrUl6PbAzDh7qferLtoIRw4phtILl62F6xbCoIwl/7dtjehj1sTqFMdj6lNtjvfwWBDMHBAe1AEENlj6OhgV4lJXZHF6Axfsu9sojrSNkbGpPq8TO46rzd7Cde6Fhj4c+9dfGsetMfzGwo8mE1Gws5Yd93TPMMix4qDfeItoqRhlWGUar13LTrwzreO9TizZmwrf+4wVilFpSY+dW0jBDamLUZEIK0JFiGGY7sAYLxiDrU59EhXvllxlTGlwWYGaHIIFfouR3QHjXRS1Vfa/sHCuiAFVhWH2nMaxT1l4RLdLDygdLn/qjj/EW0dSn7OwI7dMOuxhmK1jGW0RbwbDzupMYht1mfXqa5hC1M9KKURq0xkNKHcl4qyi8ncAwTPBJh6NHfzGsDdozWaOUkYynisJrsiGljtQJDAXN4NPn4LIAvwfBcgNxeTb4cgKE5wBVh3u+GFYMwzCpIxlvFYXXZI1SRqqStXp4TdYoZSTjqaLwmmxIqSNVYVg9vJ3EAJ9k7RVReEI9LE8dqUg2LIfXZI1SRgp5i/LwmqxRyvxUJGvl8JpsSA3HeKtoDKudGK1ixfSwvrWKYX2NYbUDo0V9WFXIfi5Rn1eVnFEdtVxLUzZGTVnOKpM16mPYWddfjBhWDIMOU15LFfq0A+MY7xPPuPrLSty12l/NjOlgwC1gYwC1VB+r4MQNspXfgU59nzr9XTBD0I71IaT+9SZml/5eIwasT9a5SN9Sn8Q4FXZJ49T8nWjjeZNvUrTfQzSaBXZ8zzLPa9+ukCpDro7JGq1jmFQcqwyjGSuOUW8BtCxnskatHI6SKwgXZvnfLRcgeSdRtolf+K0FozwWSH0cC0FxuJzbNVnDMFrXhyaLba2NHFmfMohGDGmzyyIEdPX+WO8mb+ve5qysPIdL5AgtYPZktoDNoZa3sajB60nXfN4UnnsiqCItnHtxjEza2o9jWRt1GsfKUOIYqU+t2jhu28E5TqlPNi4hLfsu1L9HJhUf8zKMVr9P9RZAy3ImazQr79ZaPuDCU+WHdVrfpw4LDEaVv85YgpFVwW+yRqMYhtkxfXI9An24QK9etcoteGaBe+HFF2T9V37zQHUQbbP/Svk54pdeecXtkZ9c1ou5ZxdzpsgSHJhghkM2AzooGwOpBeMVwWJzmmEZzWSxVN5+LmsY1NT1ivcpxKgLIKsIQDQkNsitWLHC/frXv3b3P/CA/lDUpk2bsiccGjhT5kgswJMj++Q8uffee/WpBfKFKR/76JjLCNZGUsdUco2MWb5FjFKsKIY1V9ejFYzS8/hY6xMGp9NR+5TZRYXMgP3CaMXGyiMfjbRMH87AQCD1SUyCBQ/PLmp7lW0Vw8arM+PUH330VcsqwJQdHkuo3s3WaDyOyWTyjghvOYZhNmPRmMmGtHP6ZHqAr32Vbg8Rp/jggw+6L3zhC+5737vZ/fM//0/34x//WOvpXV/fIfnrc0O6e9z2HdvdP/4//+iWL18u503eNzVdlzrRdevWuy996Utu/foNLrvoIy/zDWKnbuHfu3ef+9rXv+aWLV3mVq9Zoz/nvGP7DsEeou0pr56Q2Eb+ccx4cGcv/5SpNj6NtqWOPmFLoxw02VbqlQFewff/+Dnp+fPnu+UrlotO3W7l8yvdt7/9bbd27drsTlcE0TG84/Ux0nGjTWP24Nx44vHH5Xz7nnviiSf0XAn5GCZNDGbBmFeNtY29jncLGKXnTVSPxnOwSh/TwyiQ9b7Vz9syPQZbn/qrD33PZIzqN1vt0KpdyuwTx+jfOKU+cV7a+Bg99sepP+eNvijJXnqjJ4TYhKlxzl6jGOmQZHQt1KfCZLJGizAKsSIYVVjt0AcM/YbmlF9DvPuuu93EiRPdZz7zGffII4+6p595SneTb9682S1ZskQ3jc2ZM8eNHz/B7dmzRx8PfPLJJ92UyVPcGTPOcI+LU508ebJbtmyZe+yxx9yZZ57p3nbd29zypcslEFjtxowe4y55/SVuxcoV7rFHH3PDhg5z11xzjbvoootkp/pwt2PXDvf0U0+7rVu3upmzZrrXve51GoRs375d7zC3bdvmLn3DpW7KSVMy5xwZJ+tTw3hFbMw4ia/IxlnqQ8dEft6F89zb3/52DQZuvvlm99BDD6muzC7s2rXLXXvttdpfDWgEKqXWLcCSwsaNG91dd92ljzTeeeed7oILLtCf8Lax8NHyeLH2nRxs36f+6FO7RuQdNFmjTd/vyPk7ENeIjuqT+lS7/jZcqwhgxfC4YRtjo7XzJrjupXHK7FVkn6bvUz9s3IPxGSmjhExcoHRQlEqttiwfAUXSly3GMMxmrCKMYqxmDNOrCKuoT9rz3KrczZ19ztk6i3DTTTe5s846y33sox9zvfLrSN/4+tfFKZ8kLxXa7e79zb3uc5/9nN7t4Ri///3vu6uvvlod+g9+8AN1oFz8uQvfsmWL3onf9rPb3G9dfLH7xS9+4datX+emTJmi8gQCzz//vLvjjjvclVde6W7/+e1u0cJFbsaMGcr76U9/2j3zzDM61X/JJZe4BQsWuFWyBPLHf/zH7oAuSdCzRtvW+1Qfr5hdsi8goxcPDhhZlj34Y6bg7LPPlqDpEbdGZjyYafnoRz/qxo0fB5ueL3qQPlq2AN8xnlJ45zvfqecCx7VlpuwL14CVjaGNtdHm70JsrBnlzn6f+q8PZy56FX03tU6/m+hOqvfB+mK0FQxtSjHiWM0Y/e9Tf/Sp96lVfcQCuT2sL0brWJlNi/VIffLPo+Yxb7Zx3bbHzzj157yRvXbyL5+65vwjn5nCqGaVR8uF16jym6xRqWzGKMaKYpRiafNHqE+OkRE5Tw5lF+t3vMN96EMf0hcGcWf3b//2b27r5i3uiiuucLNnz3YjR45027dt10CBCzyJpYluWRogERiMGjXKvfnNb9aL/jsE7xxxrMgTFPRI0LB+/Xqt59n2N77pjW7WrFnqgAkW5j82373nPe9xf/Znf+amT5+ujhhrn3LKVPfZz37WXXbZZe7VV1/NHIm26Ns6K8i0knLpEykbW6P1sdY6PoSPACD8o8oSdcxi0DeOCVYuvfRS1zOkp7bUEMqnfLNNfZsQXPKeAwJRzgEoeVu6Mdsb1e9JC9/No/N9ys66Vs8964tR+li/ZmQ9rjp/j/VrlvZdvkt1Wv9utmoXtVu/MEDG1llqt43rfWm+3qQ+9WesOztOeg60eN5060VLTpns4oW/yOJPOcgid/EzuatpoHRXWKQslzVKWU3WMIxGsGIYHlZdjxIM6XH/9Mn10LblZBbHvkNeTPOVr35VA4UbbrjBffjDH9Yp4Keefsrd8ctfypLCXnXy2exK1kcMPURCLF5qw/Q/ry2m3i7yTMM/9NDD7tHHHnWjRo9WB4AMyxkk5Pbp7x9IRuSYddh/YL+Wg9EzVF5TIXTkqJEafAwbNiyzrehNUlKzteVzig2Vp2CcFEA4pF10tj+CHP7I87pfllLYe/C4rJUzBU4djmzvvn1aDp/JJJrZrhU7sBGUoPCLX/yi+7u/+zulnEOU21jUxphx1MG074DRxrGWwVS+pu9kx79P/dRH+mLXGxSma3V6jPapvzbGBkXj1epYY7YSjAG/Dlf0qVmfyFinPolR7DsRsU/NxvA0+966bAlGP2zcI9f3eJJyrSqhcUGvtES2AdsTiR028JZgxmQbygpkOXHHitNjz8Ctt97qFi5a6LZu2ap7AE6ffro6/L179+jdPxfwPpkOxpnzamLu/h6TAGDTpo367nyWKrjTxoneeutP9Ud3uNPmKQCeWCAhy4zCPXffo3fiOP5JsveBZYa7ZC2a/Q7wM5vBZsGefHc7jgdZG7MjtQt7EHBG6Oz/0c6kSZPcwoULtc8ECey9YAbjvvvuUye2SdbPb/3Zre7GG2506J9S/y0wY8YMnY35yU9+4t4ss07ksTVjwRhooJDDyjBpUiIfpbRClVJZD7sCRpVoCasCaMAwtKFqZQZMn2pVWrJxBUxLGC2aphqrUhlhkMaqbFwJ0wJG6lO5rVuysTxmpXvVCFoxaEgrQSIyIYbly7CMp4qWYVjd4WBwMWYNePHixbrOP278eDd37lw3YcIEt+DZZ91r69a5aaedJkHAPr2Qv/jSS262BAckNiqyuRFHCT/LA88995xjcyNr90uXLtUL/gTh4SmGOeef7155+WX3svydetqpjicYcMA4hmelLYKDs885R/HZo6AOWmReljaZ6ThfeMM+Wt/LaCjDq5afX7lSHf7YsWM1sEEHbEGb7LkgsbRCPbMa/D4AaUjPELd7124NhOBPqf8WIAhg1oCnGD7ykY/ouYN9mXlidolgkEAN29vdl/8dLWsxHOuifBmG1RXJhuXGH6Mhb1E+JmtlRTJhufGX0VCmKN9pDMMvat/Kja+MGm8V7TSG4R+JHq1iWBvGH6PGU0VjsmHZQGBYG2Hbft54qqgvU3RciiHTyNSnhAXE0fWI47PU19unTpGpfj9Rzk/yQkkcWzokj0Oy4cxkeDyym7cqeenggYPqlP2IjHcrMBC19iVDwMKMBXzIdMsxUBy3I+F0VkqAQGDjBwhg691r7vjVOQmvlUMpw8ERNKR0+BbAzizlMAbYlB/OsgCBsSfwtADh8FtJkskCyQLJAv23QKPn67/88SUhF+iY842V+Y7RPzaD+DJ9vVZapzj/WPLlqPf5+kSm3e4YB4Wj9/9CvfxgweooIyGX0pFZgA2rBAc2FkaPDDVJJwskCyQLHJkFUoBwZPY7LqRx8uaUksM/OkPqB1wWrFnZ0dEotZoskCxwoltA3oNQ33tQZgzuF33eonwZhtUVyYblxh+jIW9RPiYblhXJWnnIH8sbbxWNyVpZlazVG38ZNd4qCoYfHKQAocyqna+z4IC9ILq0o986280cb79qjK0+Lp2VGk8VLcOwuoHAsDaszRg1nioakw3LqjCsPpTz88ZTRX2Z8LhK1upDuVjeeKtoTNbKqmSt3vhj1HiqaEw2LKvCsPpQzs8bTxX1ZcLjKlmrD+VieeOtojFZK6uStXrjN6o/1iRXInUSFgJkD1DwmBwPUuQXp0h0oLPMUq53OqUYxVhRjFKsduhjPW3GiuqTh0aNdjn2+8R+BjbCkcwxpQBBzXHUPtT+Mi7sSdA9KBIokDjbsk++k4Pt3OunPnlf7FvY+L1q8TvZ8WtEP/vUT33q1xkZ1pauoc12sYtzHUtOnFI9Up/K7dNs47ptj59x6s95ky0xqBXEACoZoyVVRBCkSgxjhFclIjSvqMQqwzDswkZyBo8UshZWWCN1kELWvGIw9kkiBDbB8Ty+7aMwWu9YOhpICzBrwG9y9Hb1auA9YmT2cqrIl6Wu1qA490wJUcsOm2hTQd6HsLwFjAH5Ppleg0WfMj3MlKZzFS3DymUHxMZleqQ+qQUKh7Lz49TFY475MNQIzWb3K+W0JhA5aAeGwbYDa7BgDLo+yUWAAIF3NKTZAxudo0v57vHuiwnyiCOUoMFS1XlsfGW0CsPqO41h+NZeETW+MlokG5Z3GsPww3bDvPGV0VCmKN9pDMMvat/Kja+MGm8V7TSG4R+JHq1iWBvGH6PGU0VjsmFZFYbVh3J+3ni69DFHiwZ8jvDYeKpoKBfLV2FYfUzWyoynihp/GR0IDGvjSPRoBcPwjbeIGp9QloiYOegLH7fQNykJQBX1sJoOq2StvkkwUmC8RTQi0lRUJBuWNwl6BSFvUd4TKTwMZYWxq6s7+2VP/ZYygBWpaIzD8jKYkLcoX4ZhdUWyVm58ZdR4q2inMQy/Sg+rN/4YNZ4qGpO1sipZqzf+Mmq8VfRYwDAdq/pi9cYfo8ZTRWOyVlYla/XGX0aNt4p2ACMLEMqAU12yQLJAskCyQLJAssAJZ4H0EPsJN+Spw8kCyQLJAskCyQLVFkgBQrWNEkeyQLJAskCyQLLACWeBFCCccEOeOpwskCyQLJAskCxQZQF5y24VS6pPFkgWSBZIFkgWSBY40Swgv7dzonU59TdZIFkgWSBZIFkgWaDaAilAqLZR4kgWSBZIFkgWSBY4wSwgv258gvU4dTdiAX3nv/cynghLKkoWSBZIFkgWOEILHFsvozuUAoQjHO9jXrxXXpC0Y/t2t2/fvoY39h3zHUsdSBZIFkgWGEQWIDgYOXKkGzNmjL6cbhCpVqhKmkEoNM3xX9Etb1DcuHmz/ijQ2LFjeYXf8d/p1MNkgWSBZIGjYIFDcjO2bds2eTPtITdu/Phj4IasYImh/mtx9utfcVpm43ZgGH47sAYLxmDpE/Zg9mDPnj3u9NNPr/2qo+mXaLJAskCyQLJAey3Ar7Ru3LBBAwQfuR3+yfDagWUY0U2K/PwqqYqaQjFaJWv1MdmwzHiraCjn56tkrd6XCY+Np4qGcrF8FYbVx2StzHiqqPH7FBn2HjDt1dOTJpJ826TjZIFkgWSBTliAACHzro3oVddwq2+UiueMt4rGpbNSk9UAoZWJZeOpomWNWl0VhtUbf4waTxWNyYZlA4FhbYRt+3njqaK+TNFxFYbVF8mn8mSBZIFkgWSBo28Bu1ZX0TJNq2StPsSQAIHlA5KxhDQTsagnTqswDLMMq47ReX0yPezzsPvkdUsxJN+I1eY+6R4BazSk1pv+2LhRJuWSBZIFkgWSBQbKAuE1PMxnejT6FPMxbfYt2lTYvr5Jsar5TMlQtNGEVRhZfYhh+faZwbSq0qc9fTrUZ+1k4ZXm60XSiGUaaf+GVmAwFH+yZ6AWx9XCugzbbBlSkfJSox5eRelhb2+vs7+DBw+2dXMNPzPNUoelMG/liSYLJAskCxwPFrBrdOgf+ucX7JrZSPuHYdZsxDC9wIruQUAsLlIvN+gyWoVh9Z3GMHxrr4gaXxk12QPiKJ977jm36tVX9ZGVg719bunSpW6TPBXAun6X3O3bn+LJWVHLMxOQ/1FmmIdyGa3zlRCG7q1bXM+iZ53bv8+vqcvmpTWsBq5Ypn6axmqtjIBg9erV+rdmzRqlu3btsuoGulcelSSQaDX1Hepzr732mtu5c2dNZNPmTbpxslaQDpIFkgWSBY4jC9g1OuySlVfRUM7PV8lavS9TdAxvQYBgzqOKFkFTXiVr9WUYVme8VdT4Y7RK1upjslaW8XR3D3G7d+92X/3qV93XvvZ1t1UeXTlwYL/78pe/7J559mk3ZMgQfXRw957dbv/+/SrM7MKBAwf0b+++vY78PnH2vH+A1NXV7fokyNi7d4/y1IIECTaGbNzghnz/O67rv/+VG3rnL1yXOO2s3nSuotrEYX3s3bvXPfjgg+6VV15xq1atcq9KQLRjxw7tH/2hniCit6/XLXj2Wbd27VqdEWAmgIDB+k8ePvIck+gv2I8//rjWUbZwwUINGjiGt2YPySNvbRKIZPV7a3iUoY+1CUZKyQLJAskCg98CVddwq2+lJ8ZbRcuwMtke9eOECuRrVA40TwGpiGa1jbJSZrIhrTH6mGUYESxlP0J9ahjWaQoMUysDe0iZ3xfhZVoch/TCC8+7u+68073r+uvVMeH4CR4efvhht3HTRjd82HB3xRVXiFPd6VasWO6GSZ675HPOPtutWr3K7du7z11zzTVu4sSJbuHCBYL3ghs7bpx7/esvcRMnTHR9zDD0HnDuzl869/O7nJtzgXNvf3ejPrUpevrQap+C/ubdDgn9HDp0qOjzeoHm4Ren+eeff15twHO9U6ZMcePlud6XXnpJ7/7JE0Qw80CwNGvWLHXcGzduVBuRHz16tDbFExTr1q1T2dmzZ6uzZwctjn7lypVKebHIWWedpTzYfOeunW7SxEmKtV1e8nTmmWeqDgQnG+QRouHDh7uZM2fqS0nC/qR8skCyQLLAoLCAXap938K13PItX8ulN0VY2lG71oc0t0KDrGFlenRnflE4QlnL5xiZBmRAI3lUeUswalh24MkaVgNGCZbyB+0bhtEGLCm0Zo0qHx9WUKWPx2oiOca5552nd8FLn1uqzhCHt2TJEnf77ber8//FL37h7r77bodDven/u8ktX77MPXD//e7rX/+6LE+scrfddpt74IEHpHy5++Y3v+nWrF3jfi6yt/70VvHH4pDlbrtv6jTn3vJW5z7/fzl3+ZXu0MgRcvudKxLo03qfrM95RwoIOnDXTp+WyRLKsmXLNABauHChzhaMGjXKPfHEE+qsCST4490KjzzyiCJuliWXp59+2q1fv17LqCNosDR02FA3b948t3jxYsfSBe0NkRkaZipYfuDNY88884y+YAQeyoYNHaY2J4hAN3TZsmWL6kH7BCYLFiywJhJNFkgWSBYYRBbIr7127S6iLfunzvlLfQCeVXDTMbMid4qUVVHChEzWaH0UqmStvhnDx8KU1XoUY7VDnxDDgiPuhoFj6gAAQABJREFUZq+68kq3RPYi3HLLT9RZMYMwYcIEd9FF89wYeTshDgvnpXfZ48a7P/zDP3Tf/va3ZTZhhfvUpz7l1m9Yr3fQOEeWHKaeMtVt37Zd9zPslrJRcqfNG7gO/NFn5NZ9mOtiNuGgrfNbv6tozMb1XlUd4bS5K8exc8weC/o1d+5cN2nSJA1+uMtnFmTGjBnq6G1fAXLc1TNjMH36dHfppZc2NMcywxlnnKH7EHDqtkmRNzuefPLJ7sDBA1rGUgzPEF9wwQU6W0HAxfHWrVvdU089pcEKSwsHew+6ESNGOGYrwELXlJIFkgWSBQaLBfBvzanqGm71sWt53X+31V92sUlRLvjq8BqoOGXN16k5xQbaICM4Dfm6bA3Ln3VQC4Uyzfma7KDQp94n1McBDRMH+P73f8Bxp8x0O070sccec08++ZRMg090o0aJg5dpIwIHnKq+lKi7S50dzou7Zc4X7pSH9gwV5zfBnXX2We7ii39L+Hvqp5LUdwn2oWEye8D5FdijZqeWbVzHoC9FCd3ReebMmerI7a2L6G7Ol6DBHDt39diAwIBlB4IGZLqHdNeWFfy2wEeWWQQCKZYJkGd5Aec/edJktQ3BGO3RFsfwIMcfCdsSGIyXIIyghWAE3pSSBZIFkgUGkwWy8CD0dXXf0v9reR2rJhv4hwa/rcaoyzT6bSvHzeSPOR6SSEG9jlH1QHlZfmw8VdSVYFhdFYbVG3/mEY+ePk16SB9xPtzldomzP+PM0911110newfGuh5x6iPEmeMgmQ4/JDv1Oe4Z1qM/0oFDHCmOjKl5dvFzZz1s+DB32WWX6R0z+xRYbhg9epQbJnzIH5IxkwhDRgJnyKOOjbZosE9eZzasonqulHzQP9KzsgFx4aKFSlkuIKAxB8ydPc6bWYSXZB8CfZo8ebLexbO/AIc+YvgIdeJhU9iGBCVIwD44f/7A37Rpk8oTfFk7lHNMLMQxAQwBAToRZNCmBRNheymfLJAskCxwVC3AJdWu4UYjPtd4qq7hVm/8Df7gCP13l0zL4u0EE6eTJzpA1qcNmbwSGZM1WoZhmD5WDKMVLB/DlI1htUOfEEOc5sH9B9yKlSvc1KlT9S6XjYkrn1/ppk3DUY1wixYuUic1Qe6g+VEklhs2i7M759xz3No1a90eeVph9qzZ7sWXXnQ9Q3rcGTPOcK+tXSd3zivc2DFj3Zw5cyTYGKrLC52ycZ84bu7Y2eRnzt66ahTnTqDDWj88OHBmBXiigBkCnDNLCNy1M8XP8amnnqq/87BG9gLgqJlBsP0CLL9Y4u6fpQBkdWZFKmhLeaSt1fLUBLMCBAPwwjNONnASPBA4EISgBxsVWcJhWYPgAP5p06Zp29ZWoskCyQLJAkfbAlxH2SM1/fTpOqtc08f3teYnjfq+LubjOuQviV2yAKGmZX5QpqwpDS1L7cAw/HZgtRmDFSGd5pY7e5xXtzymiDNkVqBPBrGHpYM8sUKEY4UHhzakR+6O5Z8dw6bT5iJjjvqgPDZY24hoQCE9kj6JLOv/VQFC2GTKJwskCyQLJAscngVqAYLMeOITaulIruU1kPygHVg5hjzmKEdVUYn1I6SmWBWG1cPfCQzDbFWfmB79xGDaHwdvSQODfD2csoN9+bsKPNv26XQSwYAsE+TlvbUNh1mQYHhN1GxYRBGwPoTUwEJZK080WSBZIFkgWWBgLRBej8M82rR6LQ9lLR/DMEzrrfFGqGzxFm4qlOZoZC2vx5JVnoBSV5MtwSjDimKUYFFFOhJ9ahgZVANWVB/4sFOE1rDyA/TisMkuFPYDg6YKsagMsLRNZKiT5Nsnoo/OVBhvJpE+kwWSBZIFkgU6bQG7VofX8DBv1+eKa3nd16B4xC9Q7GNYPuIXQh8nAYJw6VQHVCVkr0NAARcedSoebZQVxRQrkPWx5Lg1jAqsduijGK3qc4z0CVu3bGM9S/hIKVkgWSBZIFlgoCyAe+PvGPCX8h4E0RT/V6PqYyjI4oWsJutLzqNPXTbItICh/NpKA1a93RDD8p4eBRiHpQ8dFDxppUV9InoU6HPU+tQPfYglurXz2dKGbRLEHCklCyQLJAskC7TfAuw1Yy+a+lxdZs7a4HpMaqIUSl21j+uMv+xhs5yth6NLYdLOeLxF+UIAr6JINiz3RJoOQ96ifJNgpKBI1sojIk1FxltFmwS9gipZq/dECg+Nt4iKYJdsquTxQp4C4BFFTTLEnBOckMwk8QiNzihJuUZTMZpJZjIma9TDKMUqw4hgSVGzPu3AIGgCO09qB2vf6FHoU6v6RO2S+lR+HpeNdWTM22HjdmB0/PvUz/Mm9UmulfIvvHbqY4hiSzYl8m4XHnFXv2tf6ipadA0Py8twQt6ifIDRJbsqNTjRwa1V2pnhUUIbNtk1UBHwWCoxlKEFDMMcLPqU6XGM96lXNlNu2bxVf2zJxjJ2kls3ozS3z2BxplE9RPHwixvtS3DuRbFSgJDZ0mwaUs8+URvXvk/ZQZWNoxiDbZz6qU/qU7EzLbwhKbvO2DlYde4dpXHi2sryOjO1PCauS+0N3wNTLEKrfK6J1PCswKMNGFKueRHwWPScDDD0Vcu1svwglCnKh3J+vkgmLPdlio5DmaJ8kTzlRTJheacxDD9styhv/DFaJBOWx2Qpg49HNaecdJI8WXEwt5GU5idT1yH5qY6uPokL+cmO7AvNkxjdUu/TWtxY4yrAKMEqw2hVnxiGXYZaxbC+xbCiGP3sU3/1qelhJq2y8VEYp9Sn+neiNl4tjlPse9UyRofPvX5/F/JzL/VJvhH+tTMfJxww11t9vJGLb8NMZZa14iLKdbsqFcmG5WU4xtu1/8B+udznd1ciYRVG6yD0xkobqZ0QGS3iqiPFTNGI0Vl9fE2y4+a+NeqT+mQWaLRLGiezi9FG+1hpM62fg8f+uWdXgxO7TwP1XWg+X+zsav+5l/pktjVaZeOy70CrGP3/PnVunPRFunWFbGWkTjNnjgKkOPVPWXjIx2gZlo/RaX1MD6Oxvvn6xPpifWwVI/UpOyd8W1fZ2Gxr1JelzGxqlDIbl5C2ilGGVYbRKX1Sn+rnjX++DLZx6rQ+R+PcS32qn3utfr+Pt3FiDjm7qDKtTFIqp4bRrDC/8DKZqEw5zcxRiVGK1YyhbXRSn7wPSsTNpD5hgaoxT+MUP1/s/Gm2T3aaBbbt53ehjsEQBVhZZeX5q+d3J79PpleL+hyPfeq/jfPzRYxhskbr9qn6Tnb23Ou/PqlPOnZNPmWwjVPr+mSbFLNepc9kgWSBZIFkgWSBZIFkAbWAPJCZUrJAskCyQLJAskCyQLJAowVkiYGVJklFNKst/yySDcvLUELeonwZhtUVyVq58ZVR462incYw/CPRo1UMa8P4Y9R4qmhMNiwbCAxrI2zbzxtPFfVlio6rMKy+SJ5y46mincYw/Co9rN74Y9R4qmhM1sqqZK3e+Muo8VbRTmMY/pHo0SqGtWH8MWo8VTQmG5YNBIa1Ebbt542nivoyRccDgWFtFOlAufFU0TIMqyvBSEsMZqREkwWSBZIFkgWSBZIFahboYf7AHpJgU0qWr9MaZ1NNnZMtD2UYxlmG1YhhD5PU9WgFI9siY7JGyzBMI0Ov00Z9mjGM0xBiHI0YrehjqM20Eau5tboedtQ6Bj9XzZ9JGEJzK9aHkDZzlmGcyOPUfxs327b/GDZezVjtGKf+69OsR/8xBlufOqvP0Rmn1Ce7Vhlt/TpsZ7RH5RXL3fKyJN5ge8z4S32TYv3sS0cnmAX4yWpetbx//36ZtZLTnx+xSilZIFkgWSBZoG0W4Nranb/afty4cXrcNvAOAkXfpNjB9hL0ILIAwcCWLVt09oCTNqVkgWSBZIFkgc5YgCBh27ZtCs7rlvWNip1pqm2oKUBomymPPSCWFfbs2eNOP/10N3To0GOvA0njZIFkgWSBY8gC/BbDhg0b9PcYjgW19TFHm1QuonSkqK4/5f3hLWuzrK7VNtqBQVuttlfFdzT0sWmv9FPPWD+lZIFkgWSBzlpg2LBh2kCVPxgsvkVnENhGQSqiZXVFMkXl7cAaLBjWx2NZH3RPKVkgWSBZIFlg4CxgvqOKolEVT1X9kWDobzEAUBbRlNVVyfr1/vGRYB6JrOnQKgZTLKzVG3+YN7zDoexoJUF1dytUSwrGw9PD9Akp4mFZVT5vMpFkgWSBZIFkgQ5bwDaCt3JdruJppb4VHroc4+sm+qCiLArxeYy3iNJQEZbVFcmG5cYf0nbo4+sYtmt52j3Q2+vY6W/8Yd50M5kqavys/+8/cICsOyD48jSJtnNQyjmBGvpIXoC7Dh4QSgvttbECFnywDEH//aT2kPLDTTFMsHrF1sfCxp3D7XeSSxZIFkgWsJcc2RW0iGKpBj9QkTf+kB4Jht6wmoIAFyXjqaJF8n55FYbV+zLhsfFU0VAuli/C4LGUlStXukWLFqlYLb84y+vMAnf1uUNXpjwvhVlTXt4iR3DYqPLEE0+43bt3u8WLF7vH5s938+Xv2WefdevWrVPZml69B123lA157GHXvSPbBZuBF3/WZHOWonwxQlbD44+rVq1yfYf6tAC6evVqfSyySraongADDIIkP61fv143Tfpl6ThZIFkgWeB4soBdi1vtk/FX0TK8KlmrDzHSEkNukdydN0yz4Mjvuusu98Mf/lDLNX/nne4nP/6xO9R3SJ0Zjwnu3LlT73xZJti3b58+OsjTAURfOFiOd+3a5fbu3autgfPcc8+5b3zjG8r7Y8G7+eab3Z2CDb3pppvcutdec0O6h8j6g7xcY+MG1/3dbzn3f/+t6/7l7U5ef6lBCWCh3rGykCfMq1IFHwQwTz31lPYXFvr99NNPa59x9PSdvnH3T2ImhDLrK3lsAo7NDmAPMKlDDn7qlyxZ4jZt2qQ46SNZIFkgWeB4tIAtWIfX4TBP38Oyw8kfjoy1rW9SJGMRRJ0Cm71JyyY6yKFyRmMyIPnlVRitYDVi8Carzunj665dUQemU+pZ1rEE0Nvb53aIU3vggfvdjh073IgRI9xVV13lRo8e7R579DG3bv06N378eHf11Ve7l1562b304ot6Bz59+unuDW94vSLZNDt0nwQOZ599tvvIRz7inn/+efe1r33N/free93HP/FxcarSX2Yj5j/i3LPPOLd8KZsWZAzaZ5e8a4XEHLsxWH7NmjU629Et+kybNt1NnjzZvfzyy27b9m1u2NBh7qyzztJ6bITMnDlznD0xYRhr1651/PGY5Y4d262JRJMFkgWSBY5rC9R9bdbN8Jpe97XmJ402+6k6Vvv8AvrIUww4IFHQWmgYEiryZDw1KgdZvNBIjb9GDcOoVNQw5FgdIDQsl3wtmaxRqWjAIC8FpRgG5mH4RSobYChstoSQNUgzYjRxZitXrnA/+vGP3FVXXuWWLVvmJk2a5A4eOOhu+ektbt68eRI8PKDBxV65e/7pLbe4C+deKE50mrWo1JYcaHqUBBennXaa/t19990aKHC33iWOte/kqa77ndc7d/WbnJtzgTs0bDgL9miX44U0r4r1CVYtR9TkOG496ZKK6MXSCIEQzp1lCAIplmPOOecc98orr2j/CQ5ek9kQbNI9xLZgZnZk1uDJJ5/U4GjIkCESIOyszYy0rk3iTBZIFkgWOHYsgMsrvvbaNdlozmrX7AH2lxIgSMuqcU2DUCN6kzmVJurJVmJ4HaapGlYEoxJLhBswLB/Bao4kjBkNstSA5WFILY4Lx9cr+wCIQQ7IkgE9GTNmjJs+fbpOrxMcjBw50t03/34JHnr0TnrKSSe5F154wZ188sluwoQJ7lOf/rSbOGmC6+vllZs069lDcoeYmejrdXt279Gp97Fjx2Y84ohJvR/7Q3dIsLtEF2HUsuyDerCM5lWZWG4nyZhNQ5qzFxHeG87dvt3xQ1kWYJnklFNO0dc0EyDQR2YCqGfpYMTIEbW3hp177rkaNPhtIL9121YNCJhZIDF7Eu5L8GXScbJAskCywDFvAbs2167Zdu0Oad5T41cqH+E13PINfsDHEpwGDMtHsAKM7E2KXTCiTBSFCvFBOU8VLcQw7HZgtQnDdC3qkzTDXf2CBQvc08887caMHqN3w9whjxo1yp1//vnqGO/4xR3q6CZOnCCbD9c5Xls8a9ZMnTHYuGGjGzN2jBs3fmy+jp/ZQeYFak5XmnGbN292SxYvcS++9KJjsx5LFvLbHk7WJtT/HxInzNgd6hGaBw1HPF40XJFGDB+uwcBr615zE2S2gLt8EkEBQdKUKVM0MGA24YwzztDlFmYVSMNFlr4QPIWJQGA4MyGStm7NAgX2LdisSsif8skCyQLJAseFBfA35nsqqbAW+aewvBDr8DGyAMHz3ToA/g0pdUV5mE3WqAKUyIRYMYx2Yh2BPuzYv+yyy9zSpUvdrT+9VdfPubN/61vfqpsPly9b7mbPnq130twlz5o9y63fsN6tWLFCNx9efNHFsuzQ66ZMnpLZib5L4i571MhRburUqYp56qmnqpP9/ve/r3fnV1xxhe5f6CM4UIH8oxN2yVoo/MTJz5o1yz235DldRmFT5oyZMzRAwvmzp4BZFvYfzJw5020TZ79x40adWUCOQIpgwk/MHrBfAxlmWBYuXOh4wxh2sTeN+fzpOFkgWSBZ4LixQHgdp2OhXyzKw2vyIaWOVCQblsNbgSEb4g/IQrdI1u5KQ5Q8bzxVVLWzlo8UC5wjxUCehCX6j8WTCThFNt8xtc7vFuDUwFu9eo0+rpfNGMwW5zZUZxhYj8f5zZg5023auEmWIXaqnLXfJVMD22R6HUfKMsX69Rtk1/8e1TALHE5Rp5oFCKJ3aPM22bhP+sNGwzPPPLP0zp1Aaf269bqcgsNnaQEnz9MJBAk4dmzCZk2eaKBfzBpQxi9F4vSps4Qd+dESfrCEY2YneGKDYIRZiRQkmKUSTRZIFjieLMDyK9dcNqwfkutq5hPo4eH5J/Xb5h/UUP33cY0Yjf4yCxCKHGfNEWnLJR8lnWvALoEoM1DLGIZfpY/xldE6Bs6wPvXNGjwxFXsJ5DHEPOHMcZRDvI147Cno7hqi/p0nH/yTgLV9gg+m2sH3U4blnzzU1vWxQKOR+ghFx40YfaJfKwFCEVoqTxZIFkgWSBZo3QLxAKHxuly/1pfhFsmE5WUYVhfK1PM9OD4cWxFt8M11uYbAp0g2LC/EEj1D3qJ8IYYX+BTJWnl/MXDiJgu1AeTutwFLaggK1JfnfcIJm4yPwabEvtz2NZk6tEgDgMElCWmQjYxXgx4tjpPKZC2kz2SBZIFkgWSBAbNAsc+1a33hNV10NJ4qWojRor/sITjAy2mQEKHm7GBT/xVSka7CMOxCrACj0/qYHkab+hbow4strA8hbRVjMPbJdJfuppQskCyQLJAsMBAWwOWqT5Ebz0HuW+QVN/JPPL8qGqH0hT94imgVhmHzNEYrGJ3Wx/rUqj7wWR9C2irGgPQJ+7ZoY+mQnqR8ppQskCyQLJAsMEAW4Norf6EvCfOtXss76Vv0x5rMYeK91YHLLbVRTGbvbwopdSZrNIZRw5KDVjDKsNqhj2Ggayv6HDN9Yiqk1T6JEZie4o/3PKSULJAskCyQLNA5C+BV2YOge86yS7Ver+VQX4gX0lav5cjxx0cTBthSquUBzUW0jnr++FDePAbIHnPMitBSOAQuu2XOKZvvCHlopJFqFtC8XGkUQ6QVsxkritFxfXI9RNewb1F9jsM+MZq8IpmnC3iiYMyY0fk46oCmj2SBZIFkgWSBNlqA5Wme6hojj3izyZ37ubjPHTz+Ul7MdzDTlHkKNA5pKwYKZYryZVhFMmF5GYbVhTJh3vjKaChTlO80huEXtW/lxldGjdejPOq4VQKEg2y4lPHPQsCGkE/DtTJYqyuSDcuNP0ZD3qJ8TNbKimTCcuMvo6FMUb7TGIZf1L6VG18ZNd4q2mkMwz8SPVrFsDaMP0aNp4rGZMOygcCwNsK2/bzxVFFfpuh4IDCsjSIdKDeeKlqGYXUDgWFt4FuHy4vuxk/IXiTX5Gu963IWPZiWERryFuUjok1FRbJSrjMI2byB+AeRpDN+wmVkUxTNNOOLOxUfw45jWFmr5YNu8tAYhumX8VXr0w4M0ymGdaz0CT279SVHk+TpC3mskhNAkp0HPs1q+jNOxbxlWFYH9du3L5lR47O8T63OpzEsq/dlQz7jgYZ1ft74YlhW51Nf1mSs3vIxajzQTmFYu9aW5X1qdT7tlD7Wht9+2JbxQMM6P298MSyr86kvazJWb/kYNR5oGYbxHQ6GybSKYXxl+hhmjJo8tAzD+A4Hw2RaxTC+Mn0MM0ZNHlqGYXyHg1GTkYMh8tg7s7fZZvd6m4bv08HgW2QG4YDeN5qTVSrLAdkUiPSo1ruIBfPeNMhaQOFhlGKVYUSw2qFPOzCOuz6ZrdU4/mnaeBwda0/W6hul4jnjLaJxqcbSItmwvFGqMRfyFuUbpeK5ItmwPC6dlYa8RflOYxh+UfthufHHaMhblI/JWlmRTFhu/GU0lCnKdxrD8Ivat3LjK6PGW0U7jWH4R6JHqxjWhvHHqPFU0ZhsWNYxjEHqL7vkFwglcLLYKTdHNCgQnnAqIuppyzCkTrE9rCjGYNMn9anFSLF+KtkQRpetYidYO2zcDgxTvAzLO3/tOxE9j8swpK6l70KOYSRmOt/GUT1Sn2rXrqh92jFO/bRxVI9+YnT83OunPqlP3vVPbGfjYzRqn6Nw7vVDH3mKQf6JgFLRFZr992nGw7oIvEZVxmSNFmJktjNZo1GMSqxGPUqxCvWhZSobsaL6FGIMtj71Q5/UJz3Xa+e+nXNGC+3TeL7Y+dOx8ybXg3OVNrL/Rils1CeqR+pTzU5R+0Rt21kbR/UYbOPUT31Sn+w7KpYQ27X03TwK557pFR2vQB951fJBni/gulOajKeKloLklVUYVl+GZTxVtAzD6gYCw9qwNmPUeKpoTDYsGwgMayNs288bTxX1ZYqOBwLD2ijSgXLjqaJlGFY3EBjWhrUZo8ZTRWOyYdlAYFgbYdt+3niqqC9TdFyFYfVF8pQbTxXtNIbhV+lh9cYfo8ZTRWOyVlYla/XGX0aNt4oeCximY1VfrN74Y9R4qmgom/0IAFKSctJAKdNy+SiivrDymExAqWsFwxSIYZVhGHaVPoZhlPZM1mgVBvUmbzIh9TFSn/pvY9++oW0t79tYy/JxodzPc2wyIYW3gbk5q9VlGIbpY2nZYWC1G8P6FtMn9alp6M1clWPuj5MJdcrGR2OcUp+arxn+mHdqrGnDxlvbkI+Q+np0dJz0MUdtLX0kCyQLJAskCyQLJAskC2QW0BkEW16IUcqq/oCKyYblZTghb1G+DMPqimSt3PjKqPFW0U5jGP6R6NESRh6lst7E4zVNlDL5I5ItpFUYhl2G1WYM1dfaDWmZHtbXY02f1Kf4+WtjX2Yfb6zlsPk70ApGq+dNrod+10wmpJ4+0e9kK/p4GHKY+tRfG7d9nLiScw3NUhm163aMtgPDcMuwshcl5comcmJagFct8x4EXhhZ25CiVxOxh9HcNJaNUiksxTChMqw2Y5TqU6aHdf1Y0yf1Kbv62rkW0jL7eGPd8fMm18NIqKbmPX3Uo0SZDKH+VW1g8zBSnyKnhmefqI3r5tWjBttKiearMExI+Ht6hrgh8u6ZYyVlr1omlKATZcl4qmgZhtVVYVi98ceo8VTRmGxYNhAY1kbYtp83nirqyxQdt4hxYP9+t01e/6m/xyAyh7iKpJQskCyQLJAs0DYLdHHnJa+2H9rT4yaMn5AFCVU+11qvupZbvfHHqPFU0UC264C8KKn5HYn110EE/NEsj0uUYVh9VDgvNJ4qWoZhdQOBYW1YmzFqPFU0JhuWdQKDNta9tk7eptgtv8UwRh7bbfWMDbVL+WSBZIFkgWSBMgvw9sStW7e64cOHu8mTJ7u+Q/nPPRf4z1KsApnQT5RhWF0o4+d7slVlJhAy5xBSAymjoUxRvtMYhl/UvpUbXxk13iraaQzDPxI9ijA4Yfft2+tOP+MMmfrKf7fLmBNNFkgWSBZIFmirBVheWL9uvQYIR3JNr5K1+laUN94YzR5zbAUl8Rx3FtD3gXd3H1NrYsfdIKQOJQskC5wwFtAbsWNoojYFCCfMqZk6miyQLJAskCyQLNC6BU7YeeVwvZ276UGTJMJkuqdJp/z1nYNGz6RIskCyQLJAssBxa4ETMkDI1t731Rww0z49Q8UUgyRGkB/Qcn3y2OGwYcOyE88Cg717nBsxUvQceEX3y9MO/LGGNmLECN3QeODAAc13yzJFpxNtYxMSOgwdOrTTTZbicw7x5MfR1qNUyVSZLJAskCxwmBZgJeSECxBwZrt373YPP/yw6+3tVUeHwzvnnHPcKSefLLfujQtEOILYbENYZmPQKn+MDwxwn3/+ebdp0yZ35ZVXZvocEMe8epVzSxc7d8mlrnfySU16WvudoDt27HBr1qxxe/fuVed80kknuZNOPsmtWrXKnXLKKW7UqFGdaLaGSWCATbCN/dHu+PHjazwDfYBOr7zyipsxc4Yb0n3sPNc80HZK7SULJAscmxbgycwTLkDAwezatcv953/+pztZAoJTpp7iXnn5FTd79mx3ww03OO6Kt23bpiM6YcIEfSRl586dDifJTMPEiRPVSW7ZssXt2bPHjRw50o0dO9Ztl3cJ8KggAQjyOC+cCHLI7Nu3Tx9x4e6XPHxgMEsADmVgELQ8+uijbsWKFe7KK65wXcLXtXGDc9/5d+fuudu5P/wj537vE84NGz4gMwncJS9atEh1xClju6efftq98Y1vdMtXLNd+jBs3Tu1EoECfsRf9IM8jPZQhBxb2IiBjRoBAjYTdsC0BCLbAJsgyViTkFyxYoGNE3YYNG9zatWtVBzDAQh4c2qAt0ujRo7WcPOOKLvzRDnWMCdjoBA7Y5DnukmeWx4zOxhOdKGfs0Ik8jwJhl9NPP90NGZYCBDV4+kgWSBY4fiwgE9UnXIBgo4fDuPjii91b3vIWd8stt7hHH3nEffCDH3ILFy5wa9aucQf2H3Bnnnmmu/TSS93dd93ltoujx6m/4Q1vUGf+q1/9Sp0FTuXyyy93Dz30kDv//PP18ZXbbr/Nvfv6d2tAgGO7/vrr3fzH57s1q9eozNwL57qzZp/lfv7znzucKw7rwgsvdI8//rg6q1WrV5uaGSUYWLbUOXlngRPdCBoGapGBIIbZg3e84x3qVJn5ePbZZ9UpowR30Th8bEMfNm7cqDMLOFIc79lnn62B0KuvvqpLOvBShhzPBMN32mmnuSlTprgXXnhBnS9Ys2bNqs0Q0CZlZ511lraFzZ586ikJBHZKILVSg5GDvQfdhXMvdOvWrXPr169XfgIaAq/nnntO8ywHnCGPdL7w4gvuonkXuZdfflltP3fuXLdi5Qo37bRpOnNDoEY69dRTdYZk8eLFtQCEoIIAgcQ5ZEGMFqSPZIFkgWSB48QC3J51fvF4kBoLh8MU+VPiaLgjnTlzpl7wuXvnLvS1115zt956q1stzvrnv/iFOjmOcTZLly5z99xzj96Bkof3hReedw8++KAEGAvdnb+6U+94CRpeeuklrfvJj3/ixsuMBM7lezd/Tx3Zvffe6+bPn6+O9PbbbxfcpRow7BAHpY7H7qAnTXHud9/n3F/8pXNXvckdGip7E8RpDkRiNoS7bf5I6EUgxN06swQkHCn9ZFmE4GHY8GHqWFkWILggSOLu2/iwI3XYmWQzAsuXL9eZA5z8UgIiL3EHT1DBH8HGadLmtm3bNchgBufVV15169av0yDDlkIIFNAJ/hEjR+gxsw2rV61WOXReuXKlzvKsenWVljEGzCzR32eeeUZnE55b+pz2lcCBoIJ+MGOB/ilA8AYpHSYLJAscVxY4oQMEHMiyZcv07vX9H/iATD9njm3smLE63czdYresL7M/AQfFHSiOYdy4sRpQ4OxHyzQ0swjMLOBscJBz5sxRyjIBswuvvrJKZd/7nve46667Tu9waRun+aY3vcm99z3v1WBl3rx57p3vfKfeYeN8NQTIA4HeD/ye6/39P3K9V1zNnPuAnYT0mTtlc+bczeNYWTpBf+7qp0+frnf7OFCm58879zydeudtYQQILDmce+65ysddPbMM06ZNU6eLXZlVIEgg0RbLC3v37G3qI44ffGYFmK0gyCM4sDt5NnfivHHa8oZQtTlY6LFr5y4NxBgrAgAClGwsx+m4gQkOgQ8zR+e97jwNAGlv9KjROttE39l/QX85J7ANZSklCyQLJAscbxbQt0M3dipb85X7xLzYaCNXec5kYtTKyhHqtcYf0jpH9VFcljtJnDf7Dj75yU/qXTEzCvfff786DhwPzou/U089zZ133nk6i/DYY4+pU2AKfMaMGTLFvVxnDeZdOE8dIc4TJ8+dJg7zApYdJk1SmUWLFrtly5epMwUf54LzYj176tSpGiRwF42z1DvTmu+RA3HG+piFUut12DfyVmY8R0b1laBiA/q1ectmnflYsmRJzSnbHTR9weHi7JkB2Lx5c82Zs9SwTmZZKCNYwGnjXFm/R54gDTn+sAtOmiUHP8HHzMVFF13kLrjgAr3DZ2aAGQKWHJAlYCNoOV0c+DCZZSFAo4yghH6sXrNagzPGjQCBfSIEFLTPMgdtExSC+dra1zTwQ0/+CEbQC/3pB320oMnXMx0nCyQLJAtUW8Cu02XU6qrRMg7jD2mr8vB5suJ2ZA8CBXiiRqrP4Ut5Y2mdC6h6inPVMey3HWItGUo7MFrAyh0ZDn7KlJPUsYinVmfNpkTWx5lWx2nPmjVTHE63OIRN7qDcXeK0cC44jLXsBRCnxeZGgoeTxQnNk7vafRJ4cHfLHSZ3q1PkjhPntXDJInf33XepY7322mv1LpQ7VZwliZmFO+64Q3ju1lkL6rBILWmwYONEaWavuo2xbfN41eT1oG5jRqSVhFPEMRPw2MZM1vG5k8ahYgsSzhZHjf0IJmwz4syZM5XnFXHmo8Tx9gg/NmQqn1kIbIhzpgy7Y+udcrePQ7cED3monxgv7vDRCxszA8DMy2aZacD200+frkELS0DMEEyZPMUhAxa6EjggRx+ZVSDAmTBhvM4oEEByjtBHZAiA6DeBATNFBBJgEjiklCyQLJAs0D8L2LW8TuvX8sHjL7tkcxd+xfxNM22l13W/E48ArL4My3iqaBmG1ZVgMAjc+bELngs/DqA+TdwlU+Kr9c5/8pTJulERJ4IT4m6VHfA4CSgBwoYNGxVj+rTpuuudqXMcFDI4Eu5mCSpwbNx5MkOB4wKDhA6TxFmNkjtsEmvztIVezFzgtGqppE8t+vqmsaUN2tRgJHC+tXbzA5w3MyI4VOsTDp5AAMdK/6jjmDtsHCwOFFuRmH3Yv2+/9s2cOXfqpEkyw4JdWELA2Q8fMdxNmjhJ6/hgfGibsfIdMrYGA/sSaOG0cfyU0TdwaR/d0Y99BdiWRBl5GxvkOEZv9KcfFqTQT9qm3nSk37bEQXlKyQLJAskCVRbgJoZlV2ZP1fEeru+t8gdWX6UQ9cYbUC5rXeIsD3GBy5xkxtEYyWTyMRC5bstFM7uAl2NwZ5vds9KCjxXDKMc6Mn2Q1o6r4rKcLwpkfcj6El7ssUtDmeRVZ3kMztKhPgyBfFbWJ/nuvB55/nzHprZGJOeBH0nL13CtLak0PVQ2N2BsnOx8y1lUL9U3wEBXHGyrAYLplGiyQLJAskCywOFZoB4gnCHXdPaSceU3/xjSrLaVa3mVX/AxbEIg5hd8fdBLH3PMwOkw7kVSl1D1NEYlK4e+IyVPqtO8oBAjjhXD6KQ+XdK3TOfc0avjrPet3rZ2Tz+szO+/OvVAFqOZPaj3E3e0fgLLMLTcy4NhbVFnmKYH7WQyZlOjMMtfk14lGBlS+kwWSBZIFkgWGDAL5Nfwwmt5/Zpe5Q9a8Qs+Rqu+BRl5C09uEWj+p6rjZKgyKoea92iDbM5bihHBimK0guXpYXpFscr61Ko+7cAYZH2ysUWtlJIFkgWSBZIFBtACuU8Z7P4yf+NO7inxGuZtQxrzvuZlfMpxKBvmfSxflnI/z3Eoa3kfQ8c1kDWsMowYlpYFWO3AaEWfgeyT6aO2Sx/JAskCyQLJAgNmAfMpRmlYfU+E+n5BeQL/ZNfyMiwfQztZjcFCQrYFW3izlB/wACTJpxSR9yk8OWuN2oEvC5/mhbkVDMMsw/L1MMxO6VOmB3XWvtGYHoOuTzJ0MtfU1dWtG/Pq01Qon1KyQLJAskCyQDstwDWWTdBsXtc1ZAXPHQO+g9RAj65vId7Qxxz9hyoaN775myZEdxGgG3Ua54ZLVuPlM6S+rGE1c5kU3OW1hmE0zt0OfdqBQW8GS59EEd04OXr0KH1CgKcAbJMldSklCyQLJAskC7TPAuxD27kzfyLK85CD2bd0yU528fd1l6+utmFHgxgoqK7la7ZrDBuaMYiEBCTCVoOIVuYNt12f1CcbVHbS8sri9NKf+pmYjpIFkgWSBTphAd7WyyPTWfIcYoOPGzz+Uh5z7JVJDbvfz92G6efpnzl4r4IO5U698T6/GcP6XgssrKAQo7P61PWwLhC85H07AftE3w9JdGsjmp+9FkM0UF1FEcYGKgIma7QMw2LBljEMzMA9WoVhrAbRpKgwNGBYvkN96rc+ET36jZH6ZJeqGm0Y82PAxmXnb6vfp8F23pxofcLFsKTLlbZLfF/mN/NrZ+Ba4a1fq2TkSv1TMVYUoxSrUZ8eO7mU1kZMDlCQZDTLNX42dCLCa7Ih9VFiGE1nsodtWD6GHcewrA5qsiENeax9o2F9DCvkMdmQhnw+ll9nxwPQJ9bGbHnBTGPNx2ymPPLRQEXAZI2WYWhdfzAMzMA9qoeGFdHDWA2iSVGTDWkEqwxD61rA6Lc+ET36jWF6RbBSnzILmE1DWmYf5TXbGu2Qjcv00Dpr32hED6lqTFbgUT2UjwYawaoBebJa5uUHAsOaK9OnQQ/JmExIyzCsbw1YUtgfDN3rVSQQllu+plTeWOhTLB/ykY9hGB91JmvU6qBSL0sM9Tcp+jf2tSAjF4hh1TC9yhhGK1jaEQPMaQzL9PeabO6jV1mGUYbl6xPDSH0S66VxMhPUaLvPm2Ph3Ovvd+F47JOdALG+lV1n7JJXdd60A6O/45T6VLvEmSkyh9vh695gGqd8iSEzRNlJaHU+tZPbp1bv+eiacY3PeKBWFqPGF8OyOp/2F8P4BwLD+mBtWd6nVudT09GnVu/L+vWU+ymsI2/pSDBMtgzL6nzaKX2sDdMrRo0HGtPDZIzP8j61Op/GsKzelw35jAca1pEPUwzL54lhmIzxWd6nVufTGJbV+7Ihn/FAwzryYYph+TwxDJMxPsv71Op8GsOyel825DMeaFjn540vhmV17cIwPL99a9fqLB+jxtMufWJ6WLvWluV9anU+jWFZvS8b8hkPNKzz88YXw7K6dmEYnt++tWt1lo9R4zka+uiLkljB0AgWDdCQ5FM5Np4q2iTrY+XHVRhWX4jVDn28/ll7RbRQD62QjzbpU9R+WN4OfdqBYXoVYrXDLgouHy1gFerRD4zUp+xaYHYIaTts3A4M06sQq4XzpRJjsJ03qU+NfonxEZvUUjvsM1gwrFNHWR95DwJxDYktExlVkpfzsgSPxa/SNzL//+zd+ZNdx5Un9ouNxA5i5QIuBXGnSFEkRW2trcWWujVuyW1FeHrGER3zH4x/tGPCHvWvE/Z4i7Dnp3bYDqtDilG4W7s0otTaKFEU9x3gBhILsZAACIDYF+cnX51Xt27dtxTwqlBFZAKv8t7Mc06e8818eU7mXd6kgh4yQkCWP9FcZs3y81GjooesUegTMobVpw2XOWlTwrHYNHUcGV7D4pKH4gyOvemOmxh7kYd+xSYIzN85K+a9yGNcFJs6I3xYXAK3mfp+hx6RR3vzuZ/S1yanYWxKv+boMcdmUgTyQXmTr34+iDfq6zy9joN2UN6LX/kg3qifaRkhP9oblAd9Wz6IN+rbeKMsaAblQd8vHyQj6ueDjNAxdB6UB31bPog36tt4m2VB2ytv0red9+JtlrfxRlmTttd50PfLe/FGeT/eqAvaQXnQt+WDeKO+jbdZFrS98iZ923kv3mZ5G2+UNWl7nQd9v7wXb5T34426oB2UB31bPog36tt4m2VB2ytv0red9+JtlrfxRlmTttd50PfLe/E2ywfLWNxZmUwmbIrpdT6Za/JZL55m+WSu9rMmT6/zdu5OaS+eZvlMywj5zXZ7nQd9W96Lp1nexhtlaP2o5Ln03FcnJGzPg75fPvHYTruMqJ8PMkLH0HlQHvRt+SDeqG/jbZYFba+8Sd923ou3Wd7GG2VN2l7nQd8v78Ub5f14oy5oB+VB35YP4o36Nt5mWdD2ypv0bee9eJvlbbxR1qTtdR70/fJevFHejzfqgnZQHvRt+SDeqG/jbZYFba+8Sd923ou3Wd7GG2XNObvXedD3y3vxNsuHkdF5iqG5WzDfHhIOy7sWR0EtLzYldGp41Pr89OlT6UVJZ9OrLtSXVBAoCBQECgIXgkB+XLx9ms2Pki9ZsiS9atkvHDR26Cf5pyQgnyeypqyuUs2K2vkkWS0ygrSfrHEZ+eeeu3RZGzqJfeo5cyZep9Sprxs4IaFjUZ23v6wOPVltiSVtskahT72LJmxr16eXHmHbZH3aZYR9vWRNlnFhGE/XpgXViRMn8quWvQa0BAjRRyUvCBQECgLDIyAwMIcuXLgwf3B23y2T6syt6q688spq2bKlKUgI19vLH8wN35JftRzP7vaDI2gG5f1kRN0gGVEf9G150AzK23ibZbMhI9potl0/D5pBeZ2n1/GwMna/vbu68oorqxUrVnQHdC+ZpbwgUBAoCBQE2hE4efJkDgKuuOKKPJcKCupBg/Pjx4/n19qvW7c+CekEB+3SJkoHzeVRP8Ex9ShoBuVNzsVUXJBuZxSvTKyjJ86DwcsbpLY88/aREbI7EoaQ0UdWPxmh3yB9Qkbkl6tN59JoOX3qdHXN1ddUixdHRBuolLwgUBAoCBQEhkVAAOBjLk03/+edWQGBgGHNmjU5J+vo0aPV+vXr0n1fyReO79e35dHuQP80g/6yeIXohcswN5htg+WfH70M7S8mFwQKAgWBUSNgTj108GD15ptv5p93FjBs2rSpuvHGG7s7C6Nuc6bkuVuipIJAQaAgUBAoCBQERoCAywr79u3L93cR55dy9+7dm4OFEYifVRHjjzl2Hkuz4dG5kjCRD6NNk6fXeT9ZvXia5f1kRF2Tp3kedP3yOo9f4Kqfp4V393xYGW3Yhsx+MqIu09JD4yPrp44G0UbJCwIFgYJAQeDiELAze+rUqbxbQJIdhbPpkoNAIW5c7Mzh7XP5MH4haAblw1jST0a5xDAEgq4jnT59OlPaLlq6dGm+GcVAmJXkIlRqa8GRw9X5Vavz8ay0mxph4/H0pMOV6Tpa/VIETDyyY8B7EiKSMtfcfCHaytH5orx/7P3MsmL5iin3P6iHt7t+Fy9ZXC1auCjT+tLlsgu8X+JY0rlpRxY8/oe+9Ja6dpxLdhzv2MfWuCxjHFgpGAuRQm9laN20FDTOY5JwJ7Okjp1xHnIiP3HieL7bmS6R6Kgf4BD4Or4i/c584BS0cv2EXtuhl3Jtn0j6LU264O+X4E4G++r9ETxkoaljEXXNPLebbFi+fHmzKp/Dl13oYGYswVpii+MmHtn+RFdPx44dy7TxvY067ZLbK2mfLb36pBefcvjQm87DJH3iMyx9UyY96dtLV7ZHvwdvfYwan+olmOi/GAvK33///SwfZjDHiyeSdqNvoqzkHywEFn3jG9/42w+WSaO1xhfnj3/8Y/Xkk09W27dvzx9fnLVr1+Yvh/r4RMtxPmzexhdl8gUnT1QLX91aLXjk19WC1Wuq8ytX+UbXSS7o2ORy+PDh6qqrruo5aZoUnn3mmewgVq1K7aZkon72uWer5cuWZwe3bdu2yoR88NDB6mC69rZy5cp8I84rr7wypRwmcNy3d1918MDBTOcGnnrw4cmKY+8fy9t0S69c2p0A8ZmAPXFxIWnXrl3VyTSprkr6NRMstm7dWh04cKA6cuRIdejQoTw5mjBdS1S+Z8+ePGmylROjz4YNG7q679y5M9Nec801uf7111/PfGwzycIaDR6JjNdeey2fw6We2Pniiy9lrNetW5er9MULL7yQJ3X0gft7772XcTTB150nB0IHNmzdtrVavXp1F0v99NJLL1VkD3JQb731Vh4fMFiyuBMA1nXVDmxDz3pd85jjYbMxUtc16MiiF6zY5QM/trGdg/Ldk+Dx/PPPZzyM4Ui+nzt27Mjl+si5/tSv6OpjLXgih7txu379+p7fiaBt5m4+e/fdd/MNac26tnM62YoOe9po+pWxZ/fu3Rn35vjBp0/Yv3Hjxq7NxrIx6Jr4q6++Wr3zzjsZF33re22MCCzQGe/Gib6Y8p1O5fpmZZoTSpDQ6aUIRo0vlxSc65fom6uvvjofw7k+Xvv18aWu6790uNTazYH2de6jjz5a/fSnP81fxueee6765je/WT311FO5s31JTcK+jCY/9L44ygySt99+O69I9u/fnycPExcHYyIxUfqCSnU+PCaq8YpqQfryVv/P/1lV//7fVdVPfmBmHEmA0Gmg/1+DnM0vv/xyVyeT0pNPPJknD5McB+JL4cKUyXXP3j15Qp5SniYck82zzz6bngVelid9GMArkkn/lW2v5EmHLJN7JJMWvDhzPCZX8iSOQ5l62MKPLOfoYE7HV1IwE6umkCsnk8PloPQFu55JgVHwkfXy1pezs12c5JD5xBNP5Bx/OKsXX3wxy9Iu/Y0BciW6sjeStuDaSx8BC6xi4jFZa9P4YCs82KSeXBN+PeknEz9snn7q6eqN7W90q9E//fTT2T62kx04ISIzxixaeGiTzvSFMXqTHazxK0cTsmKHQ04WXWDrO+N70JbIZzc6enFSxl9g5TjwIE/gzs56euONN3LwRUd1MBIkydPP22cd8dIpZHHu7MGjv9gENzT6MujqY4pdzvVr4MM2tHAgCz8aKdqAD9viu6MOn/aVqZOMPWXo1R89eiTjrQ4ep890HLm6tpS/pwkfekj0iu+yvjJe2NjB5WzGUpv6Rp3AUWDrnCx6xJijo0BuTxqLJX1wESiXGIboW18mq75/9a/+VXXg4IHqP/wf/6H62c9+Vn34wx+ufvnLX+Yv4Lnz56qPf/zj1c0335yDCV8mUaLJ5etf/3r1yCO/TV/w9/Mketddd+Uvmi+j6PvLX/pStTytih9++OE82ZicPv3pT1d33nln50nZtFJPS+6qOpuChjSRLUgT3Sxd3MiTlUnCJOSzavWqPGFYaUSyurN6pLfJ5MzpM3lCnlKeJkoTm0SmeokziGSC5HRE2yYhE22sUEzIJnqTuwksJjY40U1QZqXjGMYx2dkKXZpeTnLH7XdUzz3/XMa4uWrTFtlbtmzJq0eT6U9+8pPc1u233571IP+OO+7oBBBJL20Jgq6//vpMRz82kbXA+6tTMskKhnJZspNcTkOqBz+5oPYH/ZVLr6xOnTyVncTmzZvzmIndE/X6gG4SPR5//PE8ZgIvk/kNN9yQ8bP78/but6u77rwrj0E60F8yRq002e8Swm233pb7Ec6wM5bV6V9JMMxh6De4bhnbku3jbAQ02jr6/tFq3dp11S233FK9+lpyRCc629nu5Pax8r/l1lvSa74nr1HYBbPbbrst7zBwqj/+8Y+z44QtZ8tpNvHIiqU/Z9MlIWPwE5/4RNbTOIudDTsWJxOeAr/Va1ZXRw4fyX1nx0egpm3fdW2EA9VHyn2XfbfrQerKVSura6+5NjtKfQwrY1LAYLdD/ziOMVVvY2xsLGMKQzaqc6xd9HbVBEp00b6PMaveeIe/7xI77AgY723JeDE22Kif8XTHaGrPTgJ8lL/y6is5YBAgsVUfSHTxnTR2jRljih7a9f0s6YOLwORv5wfXzou2zKTrCz9201h2EqJyK7Af/OAH+cvyyiuvVj/8wQ+rl158KQcIN910U55QH3nkkTwBmDAee+yxHGj8/ve/r3xMCI/89rcpeHgkT1ockonAKpRckwM3c8726df/eVX9d/+2qj7z+ep80iURXrRNwwigj8nPNqWJ16TKEVx77bXZvpjg3trxVnYyJjsTpfIj6TjKTbQmaJOcCWZ7ckhWpmSFQ6MPp6Q9DkmyWibDh2zlJk7OiqPhlK3UBQWc3nXXXZcxpOv+/ftyOYfz3qH3Mq+XQnF4vVI4QbpyCtqUoryeCwwOp/tC2GYS1jbbTZ704qzoT044WRNt2GOCJQ9WbWnxosUZK7LxGXMxrtDrm0j6R7vGjEQu52TyV2bLHM6chFX58oQxvch4ITnr3G8pIHnt1ddyP3NYgjQfcukI33B+0Y/Hjx3PgRiZHAibyL1609W5f+n88ksv52CHDQID3yPBm3dw9EqBM4fEoUUwDXNOmixjxViq4yAQMaa0IeVVuvHz1pt5NwcfHTdt3JQDGbsNAh62GU+CG/IOpDFiXOnTTVdvyg5ce76bFgv0cBlM35OBz9gUvGhDv8POWKavz7sH3s1tsAcObMQj8ISr9gUY2oCnIIB9xpTxjA8t+7RpjArC6N6WyMdv7Ln/hg4CK3wSO2Gh3Px0xZJOMAtrukfauGljDjCc+5757mrfmKjTBX3JPzgIlABhyL70ZfPFNOGYZEXVvsAmxbVpQrwxfRHRvJW+yOmbU33qU5+qPvKRj+Qvo/nfXC4i/6u/+qs8GXBaJtLrE9/h9KXjLL2eSpmJ4lRqi+xwHuf+2deqc3/119W5Bz4+a8FBHZqxtOIx6VldxMRngvGxStt83east5WKCQcWKxrlHB1HZJKy+2L1YnI2EUeykomAgWw0ZPtYDZFrwuMo1cXqHS29fOhgkt6wYWOeuPUbHOFJtjZC92g38sAbrRsp2daW8HMKa69am/UP563cBCtQ/Oi9H036bc7BnwmfMzDJhz2CLGV47EA1E1tN8O8dfi+3QZdw6k1a45JtHIyEl2PnDMhXR9Zrr7+W++fGhJ+20XCGme7c+bxCtCrEf9PYTdlBCgackw1LH6tczlNODty0w6HrG/2ijF54z6fdL84SjSQXuLTZrT76gWPTF3gFXGzgpIyZNjzYQzZdtauPMt6br89BrjoY0t0HDccvgDJ2xtI49908nDDgmNlhUcBGdHRms3J2SvDx3TY+Awfy9K+xiMf4EDRpAz8blKMnF63xrH3BgjJzDH42ax8NuzhoY9j3SL/Ch11NLJWRIVhyaU1fmFvYHAmu9EaHnj5k1ncG3tn/Th4z6uKD5u577s72hKySD4lA8gfzIiU9S4AwRE/5UvjC/OpXv8q7AxydLcyxNIGapHxpfclsy93yoQ9VK9PxL9OlBzsMvnRpuqvOpy9lrGpMLr7wS9KXzORiG1aZG/LIMsnelraOl1zRmdyzikmHJMzMOYTGoyUx6VqhssXKYWxsbNyuqe3QGV4duyfqOSA2w9G1S06GnSZwE2UkE5bJL5KJ1iTpEw7Gqliw4vq+FZtzbZIvRdvk4tc3+syqXhknjdeEWU/4BH9kW6mdPXM2txs0ArhI0YbJ3mqbzHCkJmzt0NcrVU322mYXpxP2wDSw2rljZw4sQr5cG/C5as1VecUJ97ARH5kCj10pUH0lXXK5bvN1eXLHm8dXwhwNWk6Bo9m/r7MLEM4RHfxM+HAynjkx/UUn8jksdPThPNlg5Qknl3qMD21Eu+i0By+XpOCwLMnFpz/UoV+U2myzG3b6lXyOzTjhwPSH75CPFTjsA4/cePrDDmX6oN+CLbsAAEAASURBVJ7oFP0SPMr802/GJVvZpZ+0QU86CGJdMhJYsN9qvjtGku3KpCwvyZTqbTiHscDWuNuxc0e2h65RJ4BQpy3toBdo5vaTTnTRJ4ISl3GMHe3qX5d5BN4uITUTnMfSuLErsTr1RQQC6NQZEx9Kc5bFDNwF1uYiCxZtw8T4Vi7hd4nDJY3rN3eCwFxR/gyNQHrx4bxI9Cz3IAzoKt93XyCThi+mL/5nPvOZ6nOf+1w+tlOwL23xmXxuvfXW/GVEb+L0hebwTQS3pDrbmiaRhx56KN9gtDt9AcnzhTRJmZxMEtq65557KlvM6HOKfIC+o66mfzgMkxNHaJLwMXGbpJSZ2Exito2tphxPKh/HB9++tPXPYcOFfAFSJA7ELgUMot2oM2lq00rrpZdfynhpBz8n5lji6CTYcs6cnknShEjuhg3rU18+lydhuActuehNtvrTJGiylvSlV1KTIbGD/PVJFj7Oij2OORdYvZm2tfXhRz/60a7DMrFHws9GySRskqarpB2ytDuWdHcpQ2BhwjYm0PkE7stSH5i4Q7+sW8LS9rMt8XXp1a7orTqjz+iij9xXIfDjwNiwIZXDlGy0bO0EO+vy8a233Zr1QEsmvMmiq5wO+nVj2sEx5o1vwRhMr0n2csZ57CR6weK9996b5bCbDPranWMDHvX0jPEAD3109TVXTwou8QtCBFUcrr4T8LEDZvQlw5a5xDZb9PRDz/FzknCPywjKjKsPbflQLrcICN2Wr1ie2zJmpcCIrsaq5NgYozO7yRMcw5w+dDRW3DwYde4rMYb0iTmBrWglY8C9Jhw7m1y2sDOh7zh1/RtJu3Rij365Ke2EwNc5bKPP0DuPoJFu5jrj1z0icPKd9pRS2BptlHz6CMyT+CCFzmkeOns27St2DtNpLmrJgdCrbjrl5Jhgp8PTRk/O7Ml4771DOVLXqi/YVWnCXJQe96KDdwTseXtP+hItyV+wg8nBfOvb305f/LVpcjuVHeG//tf/dZpkzmZn4cYmL146lL5sMYmtX++xt87W9J49e9OXemlt5dpmfz/baTkcz7nU9Tt37sgTVDgW3PVkcrR64ARM1qfTBOr6tZULJ4AvbuTCd0WaoNWbaOvlJm6TlURObD2vShMh+kjac3+GCdXkiS8mR9vNniAwYZEdepHL8eM1IccxXpOy9jgNzlJg4gZQjskEats2EploJXJ8Itne9j6ECD5M8pI2rPTkJlnHaNjPRrpzsCZ5K+Y0q3edYcjUjhvnOGWOQTL5kxWYha1hG7mBr37grJrvQRBM2Ip/MN08C5voN31W1xu/LW99Cif6aD92WOCN/lTCJt4joY6NMAy76UqGoCH0b2LhprrH//h4djScracyBNZ1u2EVuxJkal9iL9m20qMvAo96X3GU9BNkwzASu8nznnxYaEM/kkmOsUIOe+itf9y7gs9YlAcueNeuS8Fl+iqGDHgYP+YIWMX3II7RwRmWcA76wI3djrXt2KpfIIVHex/72MfywsMiwgKFPN+VT37ykxkbuy533313mJv7gi3xfbHTwOHDhM1y9up/Cb50R88OeBg3bFcGo8Cu20g56CIAT+MDhgIs58ZMjBsLAMfvJh8xloLCRJrSaOby/nP+oHZ6+Au6CxDSsE//0kmPnPheddMp76jZu51hZY1Cn2nJGL8jvduZqWejcxekL6ByVvnxo7Ppi/W73/0+bfvuyl+8e+65u7oj3Tm+0OSCMn3hoNm5ebvTMZ3Lz5276KMnyPLWxH790oYXu4blERvu3Nk/QCBvthNHziG6XjrKtD1duzX5WjlxICbpmBxH2c50ZZlUTMYCCRPIqJLJfdsr26otY1uyUxqV3IuRw9HFXfImUv0Qzvdi5NZ5OTKXiKx6Ocj5mNggiDU2YDY2NpadOcfjWGBr18COl0CLczcX1YPt+Wj3fNZ56AAh7VZtSX1oad42h8f8DYs4vpicnH7t9JV9Ni0jF2RFiIk0Nappd+saZsREHhIml06mmixrgncy1YSkNlmTZYSJU2VNSKlrObmlybIuXgYJdg9MThxQveV++kzWY2ZtgkDq+3QNeO4FCDAyKY7aec+EzIn+nJtHgoRYxcwFDTk8OwDN3Y5R62b1b7U8yoBr1DoOkgcrOzICKTtG+tLK3g6E9EGwcRAG86l+6AAhBXVbxgQIPEOkupeYnn8K6pA0Sn/pInd2YBPC4yiU7+RBNTXv0Ad1cE8ujdpestqp+8maqkfIniyrn4wOkP4Gb+QXL2Nx+lLnjhsfBB3Jk7WJ9iOfqsfo9In2J+WTBmhTt0t7PurggDUzIfPSojS49bm2guawFy3obGkP1v7CKWY6ALlwzYbnhJVLDpH0ZQQHyj4INoZtl1Pu5j/B3/g2dM30SbNzKu+cT/ULHZYmdU1Ql7e3jJA9WVZdBv9VblKsIzKy4wR+5//IJBZBBYGCQEGgIDD/EQiHP9ctoefitAfXoqfoIjYu+uUtrN2iUcgIYaOQNVdkzCGbWvs+9OvktuXdTGl7M5I7tOPGsShzA+G5RGsr1PXTuOks6i80d7OWbVZ3lV9sopdrtW6sG0Vyk5hrwDCCB1zY30zqPWUBE/caaH+mtr7Zpy33WdDFSkX/uSFOcu4+jEH9A/OTp05Wa9Jvf0w3sREe9dVvPxne8+AFVvUbDfvRD6pjrzdCeolTpEWLO09V2KLXZ+7Gj75yyePAu51HUfWLeyJgxI640Yyc2IHy5ErzDZDRTskLAgMRMO9OmXtH4Z+i5VHI6sjIlxhC7ORQwDVwC2GEUq+8Uxt/e8lQPiGtKSu4J+e9ZHWomjLifHgZnRs30Adv5MPJmGs2TUefTDvEJQZO1e9OmFBjuzo/opYcQP369r50Z7UbC02u7rL2aJ9Uv+7PObU5xn7lbmjzqNrnP//5Sdur2g596m1oMwczycDmJG6y92x3BAj4yAid6KEsHAdZUlO+Mo6Gbpyxa8Sn0j0nHjfzJAJ5dR3gEo/zuTPdo7GcTR0/MqW2tuq2dqgm/tbboT+d2MlGdqj3CB1nzWk796hfBAjO6RsYhA7utNan9913X26sTS9ldfwQcrbupjcOIkBo8tLTJ/rv9ddez4/eeURPOZ3CGZNZp3dc11V9PQmQPLmhfY8NGrd4BB8eu/Rkh/eTeC16PGK6e9fu/CKgwMtjjJ6A8KiyANXNrCHjyNEjWbd4jLHedjkuCAyFgDGcPnksJwZex3zM19bzTgmJ4ZciVzY1dXinyupQBm8znyynLkO7i3NB+pOviyTaOgFRziV3MmaaQXmibZMRauW6QTKivoesUeiTZYT8aK9XHnQtOTmJ7aLxIWfWMdbogGTl6W5pDt8EanI22VqlcY4mcs9Vc0rxCJc70zkFk7FVNj7Pb3M6a9IqmkP1bLpnuTlPk3pM1nV1yDRZ0wG990tY/SnnoDk87eO34tMGnTwb7obPWCXGDkg4HU5sb3qclBxl+Dgljo3eHJsywYRER06iriPbPKd+//3356cP0NJ1y5Yt+c58esAqO6j0RYtVvGDHxNDEDyYCKyt3eMEYrp7o4KSUOa9fgybDKrfbTpLLOXquvmtrsgvdAw880A0K2KdP4RY7C5wzDOigjJ7wUcbW0IsOflq6iV/s9MALhhJZ+skYYI/n7LVJNrkCTTsddBGw+HnrvelXPs+cTY/Spp8B986EkydP5DKYCSg8JmxnQF/AxLiAMfmSx1jRka/tsbGxjDdaZR6BlHvKgQy6eTLAWIQbO52zJ56wCBn6SNBBRgkQMtzlzwUhkJam4WsSf/YfLTnRl9a3pLdqdlSgSj1FaDAor/M0jwfxRn2Tr+08aAflbbxRNog36oO+LQ+aQXkbb7NskIyob/LVz4NmUF7nqR8bfsMlP77D6Sxb2nnngDfZcTTHjh/Lk2msJDkrk7GXR3n5j5UsJ2YngmNwqcDjfJ7fVmeCN0nXnW9oZDLmmDklEzrnyylzeBwLh0yetk3a5FqhcyacFOfK0XvW3mNhVpWckZ+ZRuc8ghxOwyuiORp6fv4Ln8/vJuAIyNfuF77whRzc0M8LbOjsJTsSZ6d9wQRsnHNQgg6P28EONnKOt4tfOuaMYBF47X9nf35O3bsN/E6CH/JCw7l6iY1Ehp0BgRGHzhnTxbF26sk5enZYpXgG3u9BePMeGwQ37NYGzOFCb/bAIt4ZAStyYN7EDx76mQ4CRW3oM23TkTxBgACGDGPHY6cPPvhgJ5hJKr+WdhL0Lfrtb2xPvw3QCZroYBxw/t6ZQN94lwAcvdciAgTjCUawMgboYjzoR/o7Fyx52VAEp3IvxdI3dBT0kU93YzNkqBPk+O0UOBvnJRUELgyByd/RtDxMYpQNyodpbZCMqO8nC03ahc1/O8dZPedWXznCUZLtSH8yTTNPxOO8kWfyhoyQ1Zm3BsuoywreyEehT8gYVp/5YpN+G9qm6Dcd3ieRZ6J1jfbddzorVo7XqpIjMdF7dawJs5sSzxvJOXAwXg5idRarLm+P5MxMxm/veTs7jrb7C7QZDsYEz8FwYHF/gy1gTt3qURsmebsLnI6J3IcjwcNRcxqcDDqOxu6DN/R5a104AjzhSLyIx2rSqpJ8W8vOI9EjnJIyMnzggpZ+fm+C4+Rg1EmctDdJwiDwQ2M7W/v4vH3Qjw7tS6vp/ck5Ch44LM4bFhKnSS56L8cRLOkLmNM5nJd2BQVWw/DRj3T3K5EcMV64wBfe+opMgZUkMOLsYbBly5bcj/pSW3X8OH1tc+CcKsxhLTBDp6/orH+88ZE8Y0YfGQvewKl9l2jQW637FUjte86fnvqMPXCDBQzRsUPShjYFZ5L+YrOgQ7kA8GzanWC/OriHo6dDJH1ElmT8hAw2agsPGSUVBC4UAbvx0lz2LfRbzPGmWScFBOmA0vlc1bjv7zqS5hWS2nnm7SNjGFmTZNRkBW/ko9AnZESep9CO4d2rQJP0SY03cRlGn0ky5p5NXfOTLb0Sf+T3FT6cJmi/HWGC3pEcLEdlknWdf+WKlV3HleUkHs9oxyrMxG5S5XQ4whNpsrZie3P7m/kd93YIrPg43JioY1JXx+GY9LcnZ2Hy5kg5QPJN2OQ7F1TQKyZvjs9Ez8FyXiZ4iS513dBbXXJqHI6Ej0x8aJekN2eG01BPJgdFpnqrZ7+IZ2fDr+LRE3/d2eCTzvnZ7pTgB08OmE7apj8+5ewJOmXoIqFXBi882pHkyvBLuS71kcszHKsEL/3jXJtwD+zUSWziVJVHIKQu8BUgaEMZXSTBAD7fFXV0gVO0Ad/gkSsPG8mV6u372XCzDDvVyyW2+GVUmG/ZMvX3GNDoK8FevFlQYIBnYwq+8Nk5EXzYwfB2QEEvejrqR4GSZMdA0BLtN/XNROVPQWAaCPhqGu0d35sO5qpvSXqlbx7LxjV22PmeTuTKcmKF1JIPkhEyOwKGkDHD+nT1iIPL1KYwv09uIneHue3emKDXpok0rvuaiDkQjoGj5RTQxQS8Pa0YrRJNtBw2J2dVZpK33ewHhvDasrZS5Pwlqzs8cbMjZ+YGPPURRGiHfiZvd6kLIgQh2UklGYIHb5YLp4MWL0dm2zx04xg4DbK9jha9gCX4yOfM8EeySmcXG7RrBQ4HOtvm5nwEAPRmN/2ifdhpMxwzZ0tXK1wfuwFss7OCHx1s0YQOZMDaqptT0wY9tKM8Um4zlQlm2KS/IjAIHNHDjO52V8hjG5nuTYD79je35x96QkOvXDbet4I4/DE+BFNkwiymC23RXwAFM7LZhNfuBhv1HXv8boSAzU4DudtTO3ZLXB5yCYP+5HlduRs+I2nT+EKrXv9lHRKBAECZywv0FPz84he/yHhcf/3mfHnHuNBnxqfAEJ02jUVjgI6BcYyxaLvkBYFhETCWcgq/2CvvCox5p5ZnnnQ+KU8MTVn9ZOS6/jIW/e03/u3fps3R9K+zds7Haf9jqDzzBG89T/PCRcuYa/p8wGzi7M6fyxOxCTccT3c8jR8YzOpM7EFjcjTxmsQlqy1OzgRq4jcxm8g5ACtsk7at55iwOeLYwuaA8LoxTFmskk3S6kzIMfFbqZq4rUrRcXaO6XP+XOfnnrV/KP12BlrODL120bHFpE9fK0FtkCNY4bxiRwQtncjiiDkWvI7DCYaz4IyOp5vrnLuMEe3BBo/VpzLfDkEBDNkV+DmHFT1swdOLI3cOM7ZrY+GihV2cYc5mH+3AIdpxrJ1wjGhhQy5M9Ald9QFs2U1Ptl533bWp7WPViXRjoDrOm654j6VyfHQiP/DDv2XLWNJzUbYTDR3YfOXSK/PPYcPfjaEeDxRc0JkeZHPKZMFcUHk02WrHSNuCMHScNJn4YKVNAYxxOzY2liycSOjtPpFLF3IlmKI3jmEKO4nd9DBO3U9jd8d4QKdNuvl4SsVumUDSC4roVlJBoI6AwFoyRwhIjeOYM+XmN/7b5cu1a9NuXvremRfSTJzoLtbnzpC/TF+CpGZHOcblxApa1/LzDEh7IpPyRBS8kXcETObtK6tFxjCyJukRerXIGoU+o5AxF20yAbqWa7KLgdy1dYgD/Pj68ZpcOdh+CY3r2vSIiZvTapPbq7wuH40PR9AvNXVzjke7bBvET7Z2ON66Q1Y+DDZ1Git8uw5XpYnDTzILYsbGnV+djux66ldXp6NnPbVhG/VNXJS3lbE7AqbgHSYf1D/1trZu3doNmNzfcd/99+UfUHKpyr0KgrZ6Egg888zTaafgY92xpF6bbTbXy03wxmq93+u4wdoNr/pFAFNSQaCOgCDTeDGHbR/fXYvxJRC1gBA0HDjoVctbMm2Xv+Zr55K/nHQbblfHFByk/+M3KnZyhuRrJvVcYY+EtikjzrF0ZfXgzzTpT/A081yvMKWhZCXapow4n1UZqbFot5lP0kNlSpOn9U5Z/B0FxiHrQvL6RNqLf1BwgI+cLVu2THKybZM52l7l6iKhGYauqVv9fBjbtKedZnCgfBj+Oo1VuW1vuxh+pMpKOVKdLsoi71cXNPJh8Aj6Og79yi4kOAhd+ulTbx8OLrlwzi45eHHT4fcO58tRMGsmuws333xLs7in/XU92vqxXk+owM3uQkkFgX4ICCA9ruuRXPdweUeK8XUyfb/b0ijm8pnw352fe86eKqmd8rRR0AkMIk/F/ZxUNrarmYmow5ANDhmR95NVk9HxoIl4pvQZ1yPMTqdTU02fD6pN6Zc80/XVC99BmApaKSkIFAQKApcnArGD4JKawNKOlB0DgUHsjLqseejgoWpsy1gKeu1qJazCPzbzTlU7mDX/NJP+cvyHjJOiSQ0fSZAwNU80ubyWZ6oOLyuDfypvU+YgGR1ZIe/S65MN7YFL2Db/bAp8O9aVvwWBgkBBoCAwCgRcWhAYuJfHvTD15PK4VJ9/233cpfct6RLDeDTQzcc1VxwWdPNx2rCmyzNARj9ZPWWEzBnQJ4nsaVtPfRp6fCBsqmEMkz7JY3GeVXeXvLvUR51sIUvDbpkPap++bs6LJKKvb11HeT33pfa5EB2mqz96OvkMk6ZLTyZb3BzY9qt/dXzgEnoodzNenNd1U9cmq04zzPF05UyXfhgdCk1BYKYR8P1rTfmauLpavWnAaT3HHNPDQJ/bQ1abjIGyQg9vUow9jpiougqRXE9N7Wvng2SEzK64Gm8gMklGqp9Jfbp6xMEgfRJd2NDMQ8SU3g0bmnmLrH4yWvHpJyOEDWNTGBM87bkbvzy6Z8uM83RjWP2phnau6ZV6GY3k7npbde44Hzbhddd8PQDY8daOvL2nzBdVJO/O9n7J9X9PErjOPN3k9c6cZ9t18TZZ2qFb8ya7Nlpl6K1I4q78Oh374Va/J8Dd/PrMjYT6qonnrp27Ms549Cn86OIVyvGEQ70NGLqhdfN1nScw6nXNY08deAojtlXr9cYQvYa9MVa7dNV37K8n/WULl+4lFQTmCwKdWTf9jem3V941aNBcHj4mMTRl9ZMxhG8Zv807pHaltRwEzaC8hXVK0SAZUT+FsVYQNIPyGkvPw9mQEW30VCJVBM2gvJ+MqBuFjM5LhbwC2GNlfq3RI3deb8uJS37F0aNfJn7JhO2jzAQucVLO8ZrwnXNgUeeYfI7D3fzuXI/6fM0uPSdfl+9mPvLc7a4t+nBKZEfyngNOlQ4+5J0+07kmSA+vjo6knjyPx3lGX6Kjx+rCzihDJ2CS6ESuc9cV6eo87KdnJHLwhh2crTdJSmFP2Bxl2qcbvR2TL8nJomPYT/e6/YIGGMA0bMrM43+8x8BTAfTySNZzzz+X24CjNqVsV8JeG3YwXn7p5dyutuu6GgP00x90yuMl2YbHJ3SnHz7vvFCOvl6nzSijV7TLNuV4vTNBHX62saOuCxklFQTmMgJ5A2FaCg6ay6O+n9CgGZRPltF5iiEClG5dFNTyfncdajNI+8mIiGWSrBpvyIi8n6xJMhJDPm+R1U/GsPqMQsactalrXOsBZ/DmW29Wn//c5/MK06TtNwA4OhO31yzbkrYa9iy+F+1wMJyBSfyOdOf5zuQMY1L3bgLJ+djYWHbs4XDxuWOd8/TSJM5mz949qZc6PxC1ZcuW7PSsTPFbrTv2IhurXqvr2DGgnzuJPVsvuQ7oNcMCEStR/PEbCV7OIwkcPO+O12OXHA87rF61pYyOnJUnDTh2jjhuSvKugl1JlyPjjhydN0Zy6GyyUrdih5M6l0D81LHfHZDUq9O+x6Rs8zv2/DS71HPmHKNjd+xbqbPfsR2A2EUgHy/dbNE3E9vgD1N2+H0BfYdfu+xyrh0fWOl7j2LCnK233nJr5o0XCdHFToVz7btzWxAiCPCY7/p166u169ZmvYwNL4XS9zC2y8FO8pWxV//Djz70hSE+H083wEEQyIa213U3bS7nBYFLjUB2z3zBlBQOoiWf5OsSYwtJmiJrqYVgkoxUP6S/XJhFJeFyqZl3Sqv0Je0cteWDZITMfrLqMrQRPM28nwx1wRu5sl4y1EmXq00d6/v/tWLzA02xFc45eI8+Z2Al6KUfjvOKODlfTkXgoIyTO5gcjVVerPysUNULBCSOyPGCdLssR8ShceAchLcTxm8ieP0tR2Z1ykF4s6MVMufBqdHLcSTHnBMnRA/OX1sckGCBPnRWx8lwsJyQYMQuhqCBDZwsO8kSICjTfuiNjr7kefxuR3KOnDi6wIKenKsy+ghS2Ce9+sqr2YFqP/T1jD+nip6zhQPcBGvOfeilHXJg5lNPHDR7YMtR06+e4ANv/C6/cM5otMVBs09gw0mzH/bsdk4v2/70sNsDL/rYyaG3voCxXRq8jt23kvvw2PHcX+TjVbco6aFO28aKl1TRH27aY4P+cy5Ao6cATzsxVuq2leOCwKVCwHek7ycFw+HMm36peR42xLRWz9E6r+fopyMD/SAZk3cQcmtaSS2ba+U59cpr1V3eVBa8zbxVVj8ZLbJaZYR+/WQlmtBnFDL6yuqnR6oL3shHoc8FyDBWByUOxCRt0HMokpUbh8axfuELX8grd46B4+N4XF/esmVLdoYci1V88MutGMOZd4+TLp4X3rB+Q3aEdgM4WM4LLR04DT81bDXr3fqvJ2ePzk8AW1GGfujJXb58WXY22hREKLPStDvB0dCZo6GvMjQcFIdnJWw1r/6nP/1pDia87MSbBMNJsd9b+NDVL3G4h0HZzl2dXzj040wPffGhfK2ccxMIcGxW9o79eqBdCk6W0+XYvQSIbG3QX6K/6+31FbZzGLGf/pJgZOu2rdUd6Yeo/MS2IIb85n0I0QfBQye82vFhLycs0clYgL1gMXZF7ID4cSlBA3462M2hu2fAJT+IRZ7Ah6PXT+wS1KjTr/qS7WRow7jRF6ELuYIYeeiUnzVP46LtvozccPlTEJhFBHxPzQ15jqu1ywlH8j3KKebert9MROEPIs+EwRz5uKRMk45b81SYy/2ReuWd2n4yOo85jstDmEXV8lygsM+nydPrfKZlhPxe7Ud50PXLg3ZQPtMyQv7F6NFTRhY6Pkh6ZLaEDfjtaaVtBcuhWe1xZsuSAzbRc3ochqDBhB6OigMy+VslcjacLTkcDXp8+MMJxFMHvmRoOYyT6bW/5NAhO6l0IyD+1ExOeL0el26OpZC3Or1Ux6UBQQGnRBcOqJ7ozLkfSvxy7XB2HBT9rNI5JE44AgOBEEcnKZeiTcfRRn4aIH3D7MAETpw7+ejtVji2mtYWGwQ7dFLmI4iJgIdubOfo8duNgJNjvOolTt5PWl+XnLTgTIBw+Ei6R6B2qQFP7KrAmZ2CCDLUKaNrYK+/4Wf3h6542b582fKuXP3MHjLoAwdPUeAhnyxBgXq7BGSyUZ3+IU8gCCu7CWEPfbQNG3z6affbadcpyWO/fimpIHCpEfCjX8ascWlqnfg47/zLOqbxrDJPv33yTDAhpC5wIG/I7icj6oK2LR9/zFHV+IzbE+WgGZT3FFCrGCQj6mssUw6DZlA+hbGlYDZkRBstzXeLgmZQ3mXoczBIRtT3EZGqVq9anVfNHAanYDLmdKzebv7QzdXefXuzMzWJuy7POcV2t6CA0+BQlHF8nK0VqO19H07C9Wc/kuTX+9BwghyM1fGiRZ1fabQqJTtWixyKY8EIeZwKB4dX4kQ5nnCgzpevmPg1RI7Gl5kdLlvsSM6WntqxGscbDnjLli25jGNyP8aRw0dyW2jJkTg3trG5br9furTrILDicCU42YVBzwbtcIDs8xPRcLZ7YqLx09F0hCN6QRI52tmUcOOEBUCc8ObrN2dHi5YN21MwBieveD17Jsk/0bnMQQftwlgSDMHOh2OOvtI+vfQDGjzqHcPOrgvM4hID/eBBH1jZRdi4YWPXPudeJU13uwECLXaePHUy62snh3xjLZw+/fWdfj165Gi+VEEfb1SEOR0FUWwuqSBwSRFIc6B5zBwmMI5koRDJDxscP965wXuwzw2umKsH5UHflg/ijfrJvAvOnTvbCWc6VzNSrUAhiOXDpCZPr/N+snrxNMv7yYi6Jk/zPOj65U2eXuczLSPk92o/yoOuXx60nTz1fXLSOwc+csYZcAIcE4dkcucMlHN8HJtJnAPhqHxBTNhWh8vT8ZkUBMQKkrPjRILPihMtR0CeSZ/jkEsHkjwy1KGzwuSABCTacszR0Y2DI0eK4IADQRs6hcOL6+v05pTwk885Cjg4Pk7OuYBIIJLLkk1XJNu1xTEpp6utdo85CnjIYSN+x7AKewMnOnN69IItp8txsoeD9CHD9Xdb7oIotpEFn7MJhzVJdzskZAkq6BQBEvv2J7sWjwcQdNc2mRLs0MCHTDazJfoPzviXJno06iT20ZWTxhNjQxn59CFX39MHPXzpvinh6N4RwZxxgM6xOmNKeuaZZ3JbAiE6P/TQQxnHCGjYGn2CDxarVq/KAUMWUP4UBC4RAsar74rvtDknkjJJfiQFuYcOHajGxvwWgyCi7msnz8+ZqeefJm2v854CahW9eNMuZ/qCq52UepNPNmcSU+NkFDJC5ChkzRUZc8kmW/OeQhj2mfTQveQzi4CgwA4DZ87x3nnXnZWdiA96EhS40VEQKugUbPhlxZIKAvMBgX4BgmDWguLkyVPpxuvj1U1jN00KIkbhnwKjUcgKGenOrST2QoOYmdBoNvQJvfvlg/SI+pmWEfKjvV550PXLm7z9aEvdJUPAytsqhMO0OxGr/kum0Cw1bGfAJZbYmbEjUVJBYL4jIDgQPPhJe5flYkfhonxvcy7vdT4MeL14U3l66HlcQi3Ph+lPrSgTNc+7bTcrgreZJ4YmaT8Z0WjmCVktMkJmP1kjl9FHn356zDWburqWgzmDgAnEFv7lmFzucDmlpILABwGBCA6efPLJfPnP+elzZzqmheMKX9LME1WNZDIczYraeT5Mf2pFmbd53hXYrAjelE/cPdGlLgcFgYJAQaAgUBAoCEwbgZqzFQy4DymCA/fRuDdnYVoAzJfUufNovmhb9BwpAlaqPm5Ic923LbnZxvaYLW9bwJIyN4u5wTDK2njbytwk6Lp63ITYRjNMGTm2ouvJTX5xM129vH4cNyPGzXz1un7HbMZ7IXrDF150drmAnsMm1+K17WbHZnKDYPRhs65+js5NjGwmJzCKJwWU6RM3DUr0q7dHd3rrazTGipV+rxTjA1bRFlo3LHqqpL47QjfyXU4h05MhJlb6wi2SNuvYD2MT+8iRLtam0KPkBYF+CKSvavfeAm8P9WI23wFPFXnRl/ej9Jpr+8m9VHUlQLhUyM+BdjkXjt8EXXcIddU4NS+4cV08rgmbuJW58zzK6jz9jjk8d/S7MfJiksnf8/2ROCUy604k6uq5RyvzY5UtDrdO1zxmsxsHL0RvAZZ2yeAAx8bGuk8bNNtpnluBeApkY7rrv5kELOH0m3X1c1i52x+tJw/0ueQpBYlstu1/Z39+iMlTG/pb4oj1tTJ9re9McOT0SjE+PNZYD4aMM/wmyQjQ2OAxTzoKQjwCSj+Pk75/tPMeBn1LjrpIw9jkZk8vqXKt92JtinZLXhDohYC5zffFb9YYs5Lg4M70unnfL98Hr5oXAAse5kMqAcJ86KWZ0jHtdK25ak1+rt/gbksChHj5TdBwAHHjXJS18baVWUVyMNPla8qiA73qia6D5Gob7yC6ulzHZOPlmARW00na4+BitU9GfWXdT5aJZkGaUNr0hSXZg/RBByuy6raTK4VNV62ZuCkwytgteDTx0cEuAjlt+oQd2jA+mv0Rsur2h27Rl85zO0vSblUnjslitVtvM/j62YQxbEIXNrFlujaFbSUvCPRDwHfR2Ixk58DYE3CbPwTGeazPj/ig/THHMK7klwECydd5g2F+y16PQZsj3jTIDfScEo+Xfzjvlg0L1TivSfqi0rickOGL2c+GoGNLfolJD1uDbkp+EXpHYBAyp9N+OP82nNXllcggW2pY1duuy4ZLPdX7p97/dZ46/aTj8faa4wOvT112lAV/8GhTnfPI63zuwIoX0MyKTaFgyQsCvRBIY7Jf8i7FGNf96OZSXet7EOaSgkWXWUJgwOCeJS1KMwWBgkBB4IOLwKBgfg5ZziWkMH1co355vzrsw9ZPh7afzH51w7YxChnakkYhaxQyOtpcmD4xcOX1YzIv9PxieOtt1o8vVOYoZGhbGoWsuSKjY1GxqVe/jqKfRoVxLx2nW15s6j3ep4tlG31bWWCubti5fjq0/WT2q+vTht9qnLyviLikgkBBoCBQECgIFAQuewTKJYbLfggUAAoCBYGCQEGgIDAVgbKDMBWTUlIQKAgUBAoCBYHLHoHB9yAMA9Gw1zj6yRqFjJA/SFbQ9csHyYj6mZYR8qO9XnnQ9ct78TbLZ1pGyG+22zwPun55k6fX+UzLCPm92m+WB31b3qTtdd7GG2W9eJrlQd8vb/L0Op8PMkLHXjY0y4O+LW/S9jpv422W9eKN8iZ923nQDsrbeKNsEG/UB32/PGh75f14o64Xb7M86NvyJm2v8zbeZlkv3ihv0redB+2gvI03ygbxRn3Q98uDtiVvfQ8COvdUBD3Zcd6Wq2+muow2nmZ9k79+XqeN8n4yg6aej1pGv/ajrXr7zeOgkUfqJzNo6vkoZXQ7u65QvbH6cdAMyus8vY5nQ0a00UsH5UEzKO8nI+oGyYj6oG/Lg2ZQ3sYbZYN4oz7o++VBOyifDzJCx0G2RH3Qt+VBMyhv422WzYaMaKPZdv08aAbldZ5ex7MhI9ropYPyoBmU95MRdaOQEbLGcyL7zf/N+gb7pNM6bVT0kx009TxMXLwgcWbmWl4ndCcjmgxwPa8RDZLRJa1r3pDVJgNJM41Cn1HI6Oo1321K+ntT3+nTZ6b/ToMuCOWgIFAQKAgUBPoh4H0eXvi1ePGivj63K+MS+xb+t3UHIRxz5F2Fp3EQvM18GiK6pHNVRujVVXQaB8Eb+TRYu6TB28y7BAMOBEonT5xMv2nwXgoOUqAYL0IawFeqCwIFgYJAQWB6CAgQvCjJK8sXL0muNybuJCYOm/n0WuhQj1LGgvPn0mv0xrcHCG4LWjrNttVM5ZhaMiGTHFImSvrL7CUri2jVdCrH1JLQYXznZAh9eslQLs0Vm6arz/m0bbNnz97862Je/5nGb0kFgYJAQaAgMAMIcLV+7MyPkuXfMvEm2tROLy9IhUvpWzS+uK5gL0zqNL2MqZf3klOnGUZmLznD8NbbapMzChnk1tsZRmabLsqG4a231UtOnWaQTK+uPXHieHX95uvze8J7ySzlBYGCQEGgIHDxCPgNlnfeeScHCDE/95I6nbmcrF4p2hk2r8sZf8yxKZ5qUj1vE48meCNXJtV5m+d1WeqCt5mrk9pk1WWob/LGeRbQQ4a64I1cWfBGrkxq0yPK0faTMYysuox+srQpXYw+iT015/3gw/5wUG6y/CkIFAQKAgWBC0LADza1X8q9mLl8ZnzLgnQNOj/mmH4OpetrXJeWunnnNPmSTkVrnqpCBlW7vNORNUlGOmnyxvko9OnK6BxcrjaNw1CygkBBoCBQEJhtBLLPm8v+8vz4q5bzYwrQsZ7spIl8/ChoJuWpbtJ5R8IE7zCypsroypwxfToadq11yo5cXNenVsQUVY08F2Te8Sgu41GXEeXjvIkhy+iII22ipIFl9/GRbnkmz/S9ZHSld3m0365PaNSRWv4WBAoCBYGCwEwikGfj2s1e5uupc3lHg27NwLl83Me0yhqXPklGkp/Pp/qFpj7pEkNNvcQ0ZTUd1W2odeviIP08a5uM8TbUTUnBWtcjE6WKNlld+imSJkypyWrVZ1xG1icfn69OnzqdfvY4/QSxZsfbP5t+1/7M2XPp3G98n6mcn0J3/lzOXcM/k8rOnjk7zjOuU01GyCI78yaEp4dxUCctTp5IDfTAuNNQxn8KMuN1YZncDwUPk2jr981PnTrV/Uz62d1hhAygseUGx3pSdvLkyYyW9n3Onj2bt+cib/LU+eM4aOO85AWBgkBB4FIhYN6dmHl7zOXj3mQu+MtF3/jbb/xtviZQd97hUOq56wZoBuWBfJ1XWf18kIyo7ycraAbl/WTkugXpTv491S9+/ovsgDZdfXVW9e3db1e//e1vc9k7+/dXTz39VHZYL774YrrBZF31y1/9urpqzZrqlVdfqfYm/uuuu27CxiSBuadOnqrQr1m9unrvvfeq3/3+d9Xm6zZ3bgjMeI9jSo86PnGebUtVSc6CHdur6tHfVguuWltV6YmD/MhBG88k3t79hdVTjR5x9NiNR3DaksDppZdeqg4dOlQdPHiwevfdd7P+y5Ytm0Lu5htyXGebTiJ369at1dq1a7v3Q7z11lvVvn378h2/r732WiUoQbdo0aLq7bffrrS/a9euzNNs68SJE1lfT2bs2LEj87hzuKSCQEGgIHApETCPHTlyNM25a5IaE6FC6/xP0TxRpz8X63sH+cmoD3DG3UHnJsV6cBAEzTxoBuVNvrbzQTKivo03yoJmUB70PXI4/PGxx6rvfOc71U9+8pO8S3Ds2PHq5z//eT5/4/XXq3/4h39INH+sDrzzbvXGG2/kDv7+976XHdWet/dUu1MwoScPv3e42pEc2/7k2M6mgcDJ/cf/+B+rV199NfEcrl5/7fXq9JnT2TPv37e/2p0c3Mnk/KX30+Mv+N9NbZBpV6K7DXTg3ar65v9dVf/T/1hVP/1htSDtZgxMA3DpDM3aAO0h0M4B5+35XTczctCCgGPHjuWPoMBKH51AgtP2JbByP3DgQApADmfJdgCOHz+ez+srf/H06wnjbdu2JRx3Z1qyX3jhhRxUwVA9/iNHjuTHhPQB+c4lcumhLW0LIARmAoX3338/86JTL8Chq6ReW8qOvn80l5U/BYGCQEFgTiEwYC7v+IkBGl+gjMWdzWbb2J3Nj5ynpSUnkO+25EH5kbZ8XKdJvIm4KaOvrH4yWmS16hH69ZPVYlM4usdSgHDDDTdUVqqc1JmzZ6rHH3+8WpCcIifHQd5zzz3VkvQWLM6IE5JzUhwXOXYhHn744fymLM+6PvjxB6tXtr2SHR9Z99330eyY8D7xxBPV888/nzFdv35D9WdffKh6+ulncvsrVq5IOxJ7q0996lPV/fff17HIivylF6tq7/4qRRWJz72lnf7pi+0AXAhPqvdNxoDPhg0buqv7lStXZv0XLFyQAxmBw+bNmzMGaB3v3LkzO1/22l1RzrFbyd9xxx1dWcfeP5ad+2233VZt3769Ghsbyw7bbsHVaTcHrhI+fUFOXDYQaHDwL7/8cg5cOPwtW7ZUe/fuzUGCXZug1a8+AhzBzp133pkDOEGGMkGOPrbrUFJBoCBQEJgJBMxfMedO8pu5fIg5fVypSbzhJyOvyUpu4qL898LwIXKpft7xHVTxjz+bnHdKJvO0yQiZ6oaRETa1yQoJF6NPyCD/1ddeTave3dVDDz2UHYWdgmVLl2VHvzZtvV9//Q05ALj++uuzg+fYOSZOxodTe3P7m3lL+60db+W6P/zhD9Vjf3gsb3/bbl+3dl1yZMfzqnj/3n15R+JM2gXYuGFj9fDPflZt3bY1BwePPPJItTpdjrBq/uUvf0m9Tlq3vqr+y39RVf/Nf1tVX/izKu3h9+inDvkwGAdl9Pt4S60Ze23V00t+Mt0L4fh8evGHF35Y4Uu2/VetWpVX7XYAYpVvNW+Vjkd9/bFKOw6CLMHA/nQp59B7h7KTFhCsSZdwVqxYkc/hKFjofMEW5L5wCcJuQDj5XSl4spMggFm6dGn+kKleEEHmunXrcqBAlkDCroIysuhYUkGgIFAQmCkEBAfJf+cUc2/4x2aOaJi5fCb95cLsaWiWPp57zOdJrU7qBASOkUiRd+jHC8b5O2VTZWTG8eCiLgNb3vmo8ecGxs+zPpl5tPpkaenPufPnqj88+ofs1DkLDv+xPz6Wr8lbMW9Iq/tPfvKT1aK0Qr7t9tuTw1qdnd4ECAmP1Ns+nJDAgrPhKJ1bKZNpZcoxorMK5ig/+7nPVn/xF3+Ry+xc2AlwDf6htJtw6623ZmcJho75Sdkv/2dV9S//pqruvb9TliubuEztr579NC66bksU1XMD2gqbXfTLrwldvCSX3XTTTdXY2Fi2kfPlmDdt2lSdSAGE1TwcBDx2ETjyjRs3Ztu8j1wSQGxPAZZzjl0729/YXq1L93gsXba0ui7tRGhXoEAO/OoJZuTi1/7SK5dmmYIWuuDDY3fAbsItt9xS0Vm5YAC/3Y0bb7wxy7crVFJBoCBQEJgVBNJ01uZzO21PncvNfrPtL9NedXJw/EzOs8bjd8IrTx//slbJGdbyHEtknuCNfKoMYUVH1mQZiaNT3m0/ZEQOkmg/ZMT5ZFnT0SdJSHKrfL3/ySefrD7ykY/k1eZHP3pvXl1u3fpyrj9z7kwKIs5W55IjO38u5cnZ5C3rxN/Zuj6XnR95217Z1rlWnu4xsOJWH9v/L7z4Qr52rmx5uoTA0T6fVtguNaDlVOVxjV+ONlLun+XLqvMuNSy9EiIT/eWs1k8ZsWH6ifBxuminLQ+fzAH7cMZ0FUMKfnJKx+G8BUBLUgARLwRRzlmjtaqvJ07aPQK3p+ALJnfddVcOnlx2sDtxDuYpuPAhR0BXzx1r751338li0QlMlLv0QLZjeGrbbkXeUTh6pBtwLEo/nCKh8ympIFAQKAjMGAIm85h3zduOIx+fy8PnNedyOuW5fhb9ZboHgTp5vm/NKTUoDZIR9f3kBM2gvJ+MqBtGBifrOrcV5Nf+869VN6RLCceOvZ8czsH82bJlLK1oOzflcVx5BZu8ouNl6Tr1hz98V9oVWJ1Xn4sWLczX6HemyxCclB2AjZs2VitXrawefPDBfD1809WbMq/2vvKVr+RLCgeSY3vggQequ+++O+845AGR9Lr22mvzypg99GxLTRvbaJplF8LDuVqRu/GPk+dE6bdp46bupQKXStC5TGCl7rLAzTffnFfuggm7AAIGn3riwK3e7UJILjXYybGSt9uwaOGiLEudtrXD0a9Pl1wEKrFTsDr1A15BhuQ+AjrYxUGj79zjEJcb1qxek204ltpfvqxzz8HadWu7bWUh5U9BoCBQEBgxAuFriW3Ox83zfk03aXud95MRdb14lS9Iz/TnhVPabc2uqEkcQlorx4kzb7K8l4yQ2U/WJBl9ZPWTEYhPksXI9ImOkUc6dPBQtT9tbW/ZMtZ1du4ncDOiWzYXpJsBOXY3111z9TWZbc/ePfm3C3bu2llde821+Rq2Co+tvJaeUrBNzkG5ge+GFDDsSjfGHTl8JO8SeFTQFjenuT1trdsed0OfLfV96d4EW+E33HhD9c7+d/IKmPMM5Ye1KSvpT93gHv0kmNnx1o6sk92OtnQ2reI9WVHf0XC5hA12BgQGAi1OmD0CBJdn1Nsh4NjjXBneSK7/qycnkh0BlyZgsWr1qvyoaN55WbG8eu9QJ/gQQAgA3AyK1+UJgxgfHQQkdBJMKJfTE51AwiUGfNoXaKivH4cuJS8IFAQKAqNE4FSaf/a8vTstjG5KYjvLv6Z/ivNuu4Pm8lSf/UNiCN7I+8kI4n6+pRMgtAie0kC3pakHQTson8o5UTKIN+onOHofBW2vPDjjKg/8Ox4VwEKDyUDn6gF/mjydcwOg00rUt4kJKjTh2Tu6d0qU9rIlytEMSkEb+TABwiCZpb4gUBAoCBQEhkPgggKEFtExhw/KW1inFPWTMXERObFNOMdwkliV9s87LaKRJng7TnHivJ+s4K3nM6VP6DHhfjsl/k6kqO1EeZ2/EfPV8wmO3kcTstA0ZdXb7WAdkiaw75SEfhOYBsZhU7+8LiMkR0slLwgUBAoCBYGZRcAtB+ENOi1NncuHmdODt57PhL/MjzmGywrF2/OmW+t13lG5XUaA04t3cvkoZHS0iXZ75ZPbDTwm8g+mTYFvYFTygkBBoCBQEJgdBOrzbxy354P8U6e+nTd83nAywvKQlXcQYl0alW150AzK23ibZYNkRH2Tr34eNIPyOk+v49mQEW300kF50AzK+8mIuuFkBFVwlbwgUBAoCBQEZgyBNOVOPL4/XCsxSw/K+0kbxBv1TRkLY8tDLk3JO8XdbZGILOp5XYaGpsgI2X1k1WUgvxAZxAdv5K36jOsRoIyrN8nGuj6tMsaZhpUR+mh6im3j+rTpoSp4I2/VZ1zGsPogDz3GWUtWECgIFAQKAjOIQGeO7/w1/7bO5Z3q7oJx/LSnf1Ifc/mUfNyWNhmqgjfypj5pByFcykTeOepcDc+M441MUIwXdLOJmo4iHV6yB8nqimjRo1M3WEa03iarTZ+wKXJ805URtg0rI2yJfBAu09Un9Ih8kE0dPcrfgkBBoCBQEJg9BMzQkTr3H4QvaebTm8vDY4zWX47fpBgKd/IwYVA+mWvy2SDeqJ/M1X4WtIPydu5O6SDeqJ9pGSE/2huUB31bPog36nvx9qtv4yllBYGCQEGgIHCxCIQzn5ATc/GgfIKj99EgGVHfW0Lct5DeP9PZm0gKp72JvD3R3KPoSgmjWvIOY28Z4zJDtEipk2p5TUauT+edonFzJpin8uaSdln9ZEyIrPGGrA7jB9amjpnDDJVxuEtWECgIFAQKAheJAF8z4dNa/dO4YxrWP82kv1zM2tjoCMtrvjG33SlnVBjXzGsyxn1tU0b3PAtrkzUhYzb0yWokXTvq9tcn4pmuDePk3fO5YlPoNZQ+yXb0JRUECgIFgYLA7CEw7iNzg3PcX6Z354674/yO6KRyMx+HLXxJa16Xgb4pI877yarJyG0ETzPvJ0PT6muyMnkPGbkO+fjBpHyQjJDZxhsyazJCr06MNR6ZDCOjRVZuMngjV1gbeJNs6SWjzpCFlj8FgYJAQaAgMHMIpJnZnC3Vc0Uxl0eeiQb7p5n0LQs7OqYgoUXncf3Gs/A+U/NBMkL2hLxBMmZWnwk94miQPpP7EtcHwaawvuQFgYJAQaAgMPMI8DTdxdu42wlf0swntBnkn2bOX7bepDihWDkqCBQECgIFgYJAQWAkCIgOwt+PRODMCikBwsziO6elR8Q6p5UsyhUECgIFgYLAJUEgBwjDBDRBMygfxopBMqK+n6ygGZT3kxF1syEj2og22/KgGZS38TbLRiGjKbOcFwQKAgWBgsBFIBAT8zREBMugvJ/IQbxR35SRfpS4k+p57IJ0r5WM0zTPQ1idV5nzuow4VzcdGeiDN/I2GSFTnYRWqud1fdQFTzNXJ9V547wuo58+WUAPGW2ylDX1iHN10iB90ARPM1cnNWV0SsvfgkBBoCBQEJgNBMzNzXk4fEkzp8+wc3ldZrTR5G2eh711XmV1PcolhkDpMs1jcFym5hezCwIFgYLA7CEQXnr2WryolkqAcFHwFeaCQEGgIFAQKAgMiUAsz4ckv9RkJUC41D1widufZwHtJUarNF8QKAgUBC4fBNKbFKe6iNh2HpT3g2kQb9T3kxF1QTsoD/q2fBBv1LfxRlnQDMqDvl8+SEbUz6SM8Vdk9Wui1BUECgIFgYLAqBDw6Fj3FbYTvjfm+0H5MGoMkhH1/WQFTdlB6IdSqSsIFAQKAgWBgsBlikDaQYhY4TJF4LI2u/T9Zd39xfiCQEFglhGwaxDzbuSzrMI0mis7CNMAq5AWBAoCBYGCQEHgckGgBAiXS08XOwsCBYGCQEGgIDANBEqAMA2wCmlBoCBQECgIFAQuFwRSgBB3UvbKh4GiF2+zvJ+sJm2v834yoq4Xb5QHXb88aAflMy0j5F+MHoNkRH3JCwIFgYJAQWCmEFiwwH0Hg+byqO+nRdAMyvvJiLreMsoOQmBU8oJAQaAgUBAoCMwQAufOnauOHT+WpM/9mxMDgtpTDKF0Mw/SfnmTp9f5TMsI+b3aj/Kg65cH7aB8pmWE/IvRY5CMqC95QaAgUBAoCIwagfPnz1fPPvtsdcUVV1Sr16weF38xc/og3qgfxpKgnZqXHYRh8Cs0BYGCQEGgIFAQuAAEIjjYs2dPtXLlyur8udjSvwBhs8xSAoRZBrw0VxAoCBQECgKXBwJnz56tnnnmmUpwcMMNN1T79u2rXGqYL6kECPOlp2ZCz/EdJYO4pIJAQaAgUBAYLQICg71791a33HJLzk+fPl0tXpyu7M+TNH80nSeAzic13VG7YsWK6uDBg9Xy5cvnk+pF14JAQaAgMOcROHPmTA4OVq1aVS1esqTavHlznnPnvOLjCi5I10fmzwWR+YLqPNLz1KlT1dH3j048eTOPdC+qFgQKAgWBuYwA97pw4cLKzoHjpUuX5gBhvuwilABhLo+uWdLNJQaRbokVZwnw0kxBoCBweSCQ33vQMXVhOhYYCBjmSyoBwnzpqaJnQaAgUBAoCBQEZhGB+RPKzCIopamCQEGgIFAQKAhc7giUAOFyHwHF/oJAQaAgUBAoCLQgUAKEFlBKUUGgIFAQKAgUBC53BEqAcLmPgGJ/QaAgUBAoCBQEWhAoAUILKKWoIFAQKAgUBAoClzsCJUC43EdAsb8gUBAoCBQECgItCJQ3KbaAcrkVeTd4vMijqj23e7nhUOwtCBQECgIzgsD4C5OWpLcpeoPtfEklQJgvPTVDenqT4qFDh/JLksqLkmYI5CK2IFAQuOwREBgsWrSouuqqq+bN7zGUAOEyHrYCAr/DIC1btuwyRqKYXhAoCBQEZhYB8+37779fHT58uFq3bt3MNjYi6SVAGBGQ81GMAXvs2LH8AyK2vkoqCBQECgIFgZlDwA7CgQMHSoAwcxAXyaNEwLbXfLsuNkr7i6yCQEGgIDBbCFxxxRWz1dRI2ilPMYwExiKkIFAQKAgUBAoCHywESoDwwerPYk1BoCBQECgIFARGgkC5B2EkMH7whdSfcBj1Yzohe9RyP/i9UiwsCBQECgIzh8BIAoSnn3m62r1rd9bSZL8QW/mEAABAAElEQVR+/frqox/9aLV06dKhNPcc/i9/+ctqy5Yt+dNkclPH0aNHqxtvvLFZNeWcrO3bt1dXX311rvv1r39dffKTn6zWrl07hXa2Ct55553q6aefrj796U9Xy5cvn36z585WVZJRPfd0VX36c1UCtpqt9xV4P8K2bdvyY5AcOHw3b97cepONxyU9DXHllVcOZSNZr732WnXy5Mn8bLCxs2HDhuqaa64Zip9ub+14q9oytmXKb6wbL/RdsWLFQFnvvvtutmffvn2ZZ9OmTQN5ZoJg586d1cpVq6qr1qyZCfFFZkGgIFAQmBYCI7nE8IdH/1D97Gc/q0ywb7zxRvWd73ynevLJJ7qKHDlypDpx4kT3nGPwqIcJnnNw/vbbb1fopOPHj+dn88+cOZMd02OPPVZ997vfzeXoz549m+++x+eYY+IQJHK//e1vVy+//HKWv3v37sqz/hJe9fgk8tVFeaxkc2X6oxwN2aG/c+VSHJOnjD1sIMd56ASXH/zgB1lP9dE+GeiCJ87Z5HEY8nPa83ZV/d1/qKr/7d9X1Xf+vkpKd8pn4S98tm7dmp/fdYOND8dLNx96sscH5nv37s32U80TEoFV0DgP++Vka8ONkux+5tlncj/jR0tGJLg6R69t/CdPdIKLwF45OkHim2++2dWT7NCFDHpHPz333HP5nIxTpzvYko1GmeSc7LpNdb3UoQ25ZAev49BXbiz5KA97yNqxY0d1IAUryoJXeejCBilkxZjMheVPQaAgUBAYMQIj2UHgdBcuXFj96Z/+afXee+9Vjz/+ePX6629UH//4J6pf/epXeeJbvHhxXkHbBXj44Ydz2foN66v3j75ffelLX8rO0wT+xvY3qt/+5rfVgoUL0mp0eXXvRz5S/e53v6t27dpV/f73v8/O1ISpnT/5kz+pnns+Te5Jhsnz3nvvzY+QmPA5HDsYdh/Uvf7669Vvf/vbPPFu3Lix+rM/+7PsRJ566qm84t23f191/333590GGOP58Y9/nCfncOBf+9rXstMRBH3961+vXnjhhbwCfvDBB6t/+qd/qlavXp0dJBuPHD2SJvsD1Wc/+9nsCKxSH/75w9mh3XDDDbn9t956q3r00Uez48Lzmc98pvrpT39anTl7JvN+9atf7eyEXJl2DJKd1RNPVdWffLZKYI94GPQWB2vOyo6MPpTsErA96uyKWPW/mewR3MFXwCdwQ3PT2E3V+XPnM3b477rrru7KnrPHa9cJzi+99FJuz5iyopY8M3zTTTdVr776au53jwpxrrfeemt2yAKxV155JQcuub1EK0CQ7AaQoz/JOZt2Yw4eOJj5N6bdigUJS/1g58LOB9kcLz3OJdpzSe/bbr+tOn7seKYzrtTfcccd3V0p+Dz77LPV4iWLMx1Zm6+/Pum0LY3fezO9nRI7L/TUDhkrV67MwQ4M7rnnnuz42Qg3+t522215DAuiBAW+Y9o1/gQixvfdd9+d7Sx/CgIFgYLAqBEYiacxcZmwBAZPPPFEdiS33357Xh3+6Ec/yhO3bWqraKtMjnfjxg3VieMnqp///Od5VW9C5xTwP/LII9XZM2ert9Pq38S4Jm25mlRN8HYTBAyr0lasldbOHTuzsyGXk75q7VU5ODBJm+xNyF4G9L3vfS8HC9enifs3v/lN2uF4Mgcdv/inX2T+9w6913HOqT2Jo+G8yd24aWNu07FVKR0kOjt2CYEdeDirH/7wh9WK5SuyfAGSpG7J4iX5LVowgcf3v//95FTfzM7gH7/7j7ktev3+d7/PzoMzyumqdHnkq39VVf/9N6rqUylAiPJO7Yz+TZsFuQ84OM6rc0ngRHaWGhY4CL6k5Slw0FeCBA6W/pzniy+8WAmQ4OUtYmGXnQgJpvB48cUXM79dCkFexizJUG51/fobr+fgw1jgJDlWfetDBwGM9gQPnK8PWnpzuM71s4DmzJl06SSNjaCht74zjre/uT076U2brs5827Zuy2Nnz549uX3OPYIX+huj9Fm2dFkeo9o7Pj421dMTPdnscLlLMCzoFUzRXyALDx9l9IUJzLQrGJA7J0uADMuSCgIFgYLATCEwkgCBciY2E7TJ2STNOZsoOU8TvknRBKxM/sUvPpTvU0DLEZgwTaSbr9tcWWGbAE2a5Dh3LfnDH/5wpuPkH3rooSyXM9KmtrV184duzg7I6ktAYTIni5O57777qs9//vPZKVgBm9gXLVyUdyKsak3AyiLRyarvC5//QnY0LhWYuOksoXWszPHHP/7x6s4778yBi50Dq96QKYj6xCc+UX3py1/OjoIDfenll3L7VuRL0y4B+TBg35//+Z9nZ5kbShhUX/5nVfUv/6aq7r0vF83WnwRt7gNOy0fgtTgFOhI92Qh/fczZWrEfO34sB3vRL/CBJYfmPhO0knqJ8+O0OXNjAQZ2dIwpNMaASxcLFyzM7WkTnmjhbmxcd911ua+NB4nDN+bIJefmm2/O5/rLDg0bjA002o97Vsjcu2dvtsO405Z+wYeWzTAwhiOFnXaB0LOVXufOdy5lsZJcH/qQS5Z+J4/+MY6Nt3q7dmLoC0P40NmxttCWVBAoCBQEZgqBkQQIJkM3V3G+X/nKV/IkaPWz5qo1eXI2AVvxc9jXXnttLrNLYJUYKSZQEyU6E75VGcdgxcnJ2wrWFifE2VhNKbO1b5I2cXImjq1K43o/h6R9tMrJ0oY2BRb46cgJ4I1Engndh0NyblK3BSzAsGoNJ4YHBiZxtJyldvFoh9Oj72spQFJmS90ug0S3cGh04IA4ELZ007r1VbU63bzmcwkSHeEUWLM7dgJCHdhxnHZK4JoDn4QrTNDDUXk94dHXHKsgTf/rY6tx8jlPOGqX47Xa3r9/f6YJ7I+fOJ5p9KlVukBRXVzf16b+IFvABnd9BGt94bIDPv1EH23GfS12PoyNur146+OEPcq0gy7OT508lcfavjSGtSUtWrwo06ALLIJHvfZgGO3SRWAkh0fowp46H96SCgIFgYLAKBGYPFtfoOSr0zVkExan7ZOvp6ZVzz1335NXzbEy/ki6n8BKzr0CtkljQo1dArycyenkTE2SaK+97tosm9N8/vnn8+qKc5WU4TGZChpM8CZROwWCAdeOP/ShD2W6v/zLv8yXFVyGsEL71Kc+lQMQKzGJA4qVqXOTb6z0nDvmxLd8aEsOcgQ4dMVv8rYyXiQwWLUyy8HDYVnlcYy33HJLbk/Q8sADD2QMOA2BhlUiJzk2Npbpwz4yLnXSN4IDwRAnCGM21QMYfYBOH3DebIG7QCwCuknBzrhRMCaH0wsn7pzztRODH0Zw1yanLWgkMxyyuiuWXJGDB5eoYE0ffC4vwXtt6gdtaWPFyhVZrnO0goaNGzbm8SigoaedEv3i2r8gw+UywQkeCZ3AIhJdtKnex7HvAzkvb305bZV0xkIOdFatzmxkwFJCCwNjEH5bt23N99W4x0Kd4FJgRLax4bgZnGVB5U9BoCBQEBghAgvSZDyxZL5AwVblJm0OXdqeVsrEcpo7d+2s9u3dl1dOY8kBnjl9pvq7v/u7PPGZZNH+m3/zb/Kqj8M3cXJGJniOl6MxOStTR66J1JawVZ9yKVapdBB8uDzBqZhw6SGhPXHyRLU+rcYFAwILHw4AvUDGpQkTvnY4GJM9x2dHxDEH5ph+goHkErIjcG2ZHE6KHMdWq9kBJUehnvMR+NDd1jL92W/bmO2CENf4w76s9Az+4aAEUrAI59dsTh+xJ5wZXDhlTkvO6VqxwyYu58BLn3HoCZ6MN35jBE8ksoI3HJ62Vicarljf4BOg6F/3p3CYnDbZX/ziF3MAoG20+oQ+sDyT9H53XC99IFhjo/boRh59BA/HUj84rq/OyWMPvchzbKt/TdrB0W91W2DEaXPebMKLRxlabel745nusdMRMtiCBqZ0zZdAFnXswNfUBT1MBBwlFQQKAvMHAd9xfiEWpnNd85EECNMx0gToJsFYEQHKUwAmwpJmF4FhAoTZ1ah3a5y/FT1nzIFuWL+hu1PTm6vUFAQKAgWBuYPAfAsQRnKJYTrw2wVwA58Vu9WeVVcJDqaD4OVJayVvN8mK3Hip70RcnogUqwsCBYGCwMwiMOsBAnMECbb/SyoITAcB9wz4lFQQKAgUBAoCM4/ASJ5imHk1SwsFgYJAQaAgUBCY3wj0utdrrlpVAoS52jOzoFcerOluQNf1SyoIFAQKAgWBmUXAvVRugp8v6ZJcYpgv4HzQ9RQgrFq5Kt8P4g7+hen11iUVBAoCBYGCwOgROHfufL6HatXqVaMXPkMSZ/0phhmyo4i9QAROnzmdHvM7lh8n9IheSQWBgkBBoCAwAwik9dfi9Piyx53ny435JUCYgXEw30R63NFlhhIgzLeeK/oWBAoC8wUBO7ae3JtP9yGUAGG+jK6iZ0GgIFAQKAgUBGYRgflzt8QsglKaKggUBAoCBYGCwOWOQAkQLvcRUOwvCBQECgIFgYJACwIlQGgBpRQVBAoCBYGCQEHgckegBAiX+wgo9hcECgIFgYJAQaAFgRIgtIBSigoCBYGCQEGgIHC5I1AChMt9BBT7CwIFgYJAQaAg0IJAeZNiCyiXW5F3IPgZ0vIehMut54u9BYGCwGwh4BXLV1xxRXnV8mwBXtq5eAROnjxZHTh4sCOovEnx4gEtEgoCBYGCQA8EBAnr1q+rlixe0oNibhWXFyXNrf6YVW3sGOzZsye/3ctPcM+nN3zNKlClsYJAQaAgcJEImG+PHDlSLVmypNqwYcNFSpsd9nKJYXZwnpOtGLB2EAzW+fYK0DkJaFGqIFAQKAj0QMB8axH27rvv9qCYe8XlJsW51yezrlEJDmYd8tJgQaAgcJkhIDiwezCfUgkQ5lNvFV0LAgWBgkBBoCAwSwiUAGGWgC7NFAQKAgWBgkBBYD4hUAKE+dRb589dEm1dO2t+RqUIuW2pVznatrooi7xN5ijLtDNbbY1S7yKrIFAQKAgMi8CcDxBefPHF6lvf+lb16B8e7dr0q1/9qvr2t79dbd++vVtWP9i/f3/1j//4j/mO0Sg3mf/sZz+rXnjhheqpp56qfv3rX0fVjOd79+6tvvvd71bvv//+hbV19kxV7dpRVd///6rq6GEe8sLkXACX9yPAy+fpp5+unnzyyeqdd95pleTmm+PHj7fWtRXqk+eff7564403utXnzp2rnn322erNN9/sltUPDh8+XL366qv1ouyot23bVh09erSSnz59elL9TJx4+mP37t0zIbrILAgUBAoCcwKBOR8gcAY/+MEPqh//6Mf5jnuPifzwhz/MZTt2JKeZkjvxOSe5dODAgeo//af/lMscnzmTHGxKHAgaDujRRycCjoPpPQDq6onzOnbsWH6BkPpw7hymcimOyVdGNlpODv2hQ4cynYCFPuro48VEkdApj9UoORzce++9N+Hodu+qqv/9f6mq//V/rqr/9/9KDXfsDBkzmbPx9ddfr1avWV2tXbu2Wpc+XvZBR3X0ZI/PSy+9VL399ttdW/RVBAzq4eQ87Gfza6+9Vj333HPdPoKZYIQcCZaCgpADH/0uJ1+KxzPJFWxEf9fbz4Tjf+q6B62+iz5gl3bRnThxIrejzhiJcSBIEvgpC92ID31jLJJBL/qG/Lou5bggUBAoCMxVBOb8Y44mWh+7BRyDCZrzMHGbjE3SAgYT8NKlS6u/+Mpf5ImYc/jpT39anUx011x7bfXVr34101511VVZHn6T989//vPsVDiZT33qU9W9996b+8qk/g//8A95ctfmmXT+L/76r7OztEr9m7/5m7yi3rp1a/WZz3ym+tGPflSRTZ8bbrgh68mJfPGLX6yuvPLK7EjR0FP91772tbwS/s1vfpMd2vXXX199+ctfrr73ve9lxyuQ+OvU3rVJ92rV6qra8VZVvZ5W2kmX9EzirI0nTg0Wa69amx+F1PDy5curZ555pjp7LgUGZ85WVy69srrh+huqXbt2ZWyvueaa6q2k7+H3Duc+Ghsby30i2Fu0aFH1kY98pFq5cmUug7u+EESx9a233srt6FvO+5lnn6lOnzqd8D9TkeMFI/v27cs7D2fOnE5By7rqjjvuqA4eOlitX78+8+DVL4IXx7D1kdhT191dxfpc2Uc/+tHctoDl5ptvzrtNS5Ntx4+fqJYtW5r5jxw5Wt199905KHkjjUnYGJ90Y7cdKgEG3eklcDUmFi9ZXN1/3/3z7i7mbHT5UxAoCFyWCMz5HQQTuuf0161bVz322GN5i3vz5s3V6tWr82TvsoHA4f77788T8U9+/JNczjHguT1N0r/85S+rrdu25sDChM1JcQyvvPJK9aMf/zg7K+Xf+c53uitE7dpSt4181113Vc8mB2KF7JwDkQQqju0A2JFYs2ZNXl0//PDD1Y033phXlwIAuviw49Zbb81BCUciGMC7YsWKHGCQpQ07HBwUR5zT6jVV9c//q6r6d/9DVX32C1W1aPYCBA6csxMUcbpyDp3ty5ctr7Zs2VLt3LEzY7pq1apq48aNOQjatnVbxhU/WwU8tuX1nYApkn647rrrcgAoYOP8BVDeOIZ+/7792flu3LCxeunFl3JQRyaeG264MQdsdh3eO/Re1hPfoRQY0FMQ4hyusVOgXX24bOmyrLtjuwCcePSTYzZqf9Omq3O/7ty5KwUZN+QAgu10WJICNf0sMHn55ZfzODQW4SBoUCZI1MfXb74+YxR2l7wgUBAoCMx1BOZFgMBRPvCxB6rf//73efv54x//eHbEJn1OyyT94IMPVh/60IfyuRWcIOCBBx6oPvvZz2ansnvX7rza4wQkjsN17oPJcUm2z70PwMQeiXwrz09+8pNpBbksOzn8Vo2SPJyKgEJ7AgB8eOgl8EBH9sc+9rHq81/4fF5hCk5sh9NDHSdjxUt3dvzpn34hO5rcUKKpvvBQVf3lf1FVH/5ILpqtP+zixMfSCpk9Phw8B2nFn3c4kjJoYCQo41ztunD47NMXjtnI+aONBD8y2W6HweULgZR23z3wbnbyVuY33XRT3uonmwMWIMSugEsQkbR3NO0ecfrapKfVe/QZuXXdHaOLcud0ck4X7bCJzVdffXXeJTJG1NNT2VjCRnsCCv2nHi9ZxgL9yaFbSQWBgkBBYL4gMOdnLJO1SfeB+x/ITsRkfs899+RJ2ARs8uXorbxdKzdhh6O3cnz66acyv0neZE0eZ0GO1a5J26UJzs0OgONI6DmGWPE6t9q3Gv7jH/+Y2+Qo4kMGZ0gvcham4wgiODb6PPXkU7nt2AWhj90Q9LFFTo+VK1dNdiguM9hRSO3PdqIjnDh29sFBgnM9wcFqnnNUByuYcNAdTK6cbFNiJov9bHbvgUBAG3BTTt6Bgwfy5Qvt6wvBhJ0GlyVOpvsxBJDotS/XJlrlPovTjguZ9VTXnW5sJM+OQtxngJ7d5KKJ5FxCb3cAD3mCTPT0hgEd8NGhzh9ySl4QKAgUBOYyApNn+Dmo6aZNm/J2O8fxiU98Iq8erVqt1Dn9P//zP69+nC4T2Mq3svzSl76UHZMggiO3SreL4HrwWFrpkWfrmaO5/fbb83V/Ez3Hct9993UDBBP6rbfckoMIsNySjq0Ybf37PPHEE/lcmXbvvPPO7CTch0CudE0KVs6kQES96+7asePxuc99Lgc5aMhx3d1WPf3kgp65ksLxbU/X2zk/9x3cmLb2N2zc0HW6MEBnlcxGfQWD2D3ZfN3mdCdhujLScNIwJocjZbtg4NokY29aibsp8tprrs2XGF7Z9koOJFz713cCKZjpM7stV629qrvKNyboo33OG41gLNrObY7rC2O0AgrtGyucuSDT+NCO5JhcaYWAI9mKB61dDzsG+p/udhJgIAA1Tt559508HjNz+VMQKAgUBOYRAnP+x5o4eTcc2oa2UuNMTOp2DeQm6biObMXKSVmV2u7l0NwUaHK3W7Bz5848WXNybnxDy4m5TsxxCDw4c8kqMa4nWxlySJyT1aFyDkDbknorWjpafdKZkySb84h6+qjneAQqdhXoHjTK3OjHjnBIuYEZ+mPVzC66sr8toWFPrJrlcGA/PTlLjh1udno4SPaeSvW2+iVB07mE+Zl0QyPeSGTZDcB7Lr3j4cjhI9nuEyeOJ/lncnk8ibBg4YJ8oyRelxT04flzSZfEuzw5a3L0B3ztRsAWr7TazlBy8pHQNnXXB+iNL/2kniy6s9WTCvpeDhMBh3rHEjq8ZBhzCxctzPrSY/HiRSnwXBbNl7wgUBC4TBEwR/JNfMV8SHM+QJgPIM5XHYcJEOarbUXvgkBBoCAw1xCYbwHCnL8HYa51cNGnIFAQKAgUBAoClwMCJUC4HHq52FgQKAgUBAoCBYFpIlAChGkCVsgLAgWBgkBBoCBwIQj0utfrQmTNBk8JEGYD5TnahsHqE48tzlE1i1oFgYJAQeADgYB7EOKJqvlg0Jx/zHE+gDhfdRQcuDPf0xbewzDfotv5invRuyBQELj8EHBTuKegPGU1X1J5imG+9NQM6ek9AR7Lk8ejjDPUVBFbECgIFAQuWwQswDwK7R0qHqWeD6kECPOhl2ZYR4GBAKGkgkBBoCBQEJg5BFxemE87tSVAmLmxUCQXBAoCBYGCQEFg3iIwP/Y55i28RfGCQEGgIFAQKAjMTwRKgDA/+61oXRAoCBQECgIFgRlFoAQIMwpvEV4QKAgUBAoCBYH5iUAJEOZnvxWtCwIFgYJAQaAgMKMIlABhRuEtwgsCBYGCQEGgIDA/ESgBwvzst6J1QaAgUBAoCBQEZhSB8ibFGYV3fgj3quWTJ0+WFyXNj+4qWhYECgLzEAHvP5hPL0kCcXkPwjwcaKNU2as/Dxw4kN/sVd6kOEpki6yCQEGgIDAZAUHChg0b8hsVJ9fMzbMSIMzNfpkVrQQEu3fvzr/DsHz58llpszRSECgIFAQuRwTMt0eOHMlvUty0adO8gKBcYpgX3TQzShqwp0+frq6++upq8eIyFGYG5SK1IFAQKAhU3Uu477zzzryBo9ykOG+6auYUnU8/PzpzKBTJBYGCQEFg5hBweWG+LcRKgDBz46FILggUBAoCBYGCwLxFoAQI87briuIFgYJAQaAgUBCYOQTmdIDgGrnPKFLIqedxPAr5FypjLugwSPdz587ln4P2k9A+o9T53Plzg5ofqj7kyOkX50Mxj5godBix2CKuIFAQKAjMKgJzNkDwbP53vvOd6rHHHrtoQPbu3Vt985vfrN5+++3qW9/6VvXmm29W3//+96snnnjiomVfjIBdu3ZVf//3f18dPXr0YsTMKK/3Izz66KPVH//4x+rxxx/P/QHPtqT82LFjbVWtZQKPZ55+pnr//fdb64ctdKPl8889n3F88YUXq8OHD1dbX946LPvI6bR98ODBkcstAgsCBYGCwP/f3pkFV3Wde/7TLCEJIYQQM2KwmaeAGQI2tts4ZVdGp+ralVuu6zx0qro6eenKy+3qh3SSe1/6tju56ZdOVaor5SR2OwEncSBO7GBjM8SYwYaYSUwGgZmRQAIBGnr9vqMlH4TsyEJHPlv6L9dh77P32mt967eO9/9b31p7ayAJZK+DEEaqW7dutUOHDt3Bg+f26+vru8QIUeLD8fMXzneNcFtaWuzcuXOGcL355pt+02bLsdzcXH/cBAFEoBEV8iFaJEaB5GtoaLijfvJfC+8PuHjxon/IQF08wpK+j3BRLrZRNk5PY2OjnT+fspHrsYct58kfE/k4xoidRNnYSt6bN2/GbBnfYhOOzLhx42zixIk2adIkKysrc1toM/aQh7bt27fP88KQUTzsmppSTDiP3Xxnn0S+EydPeFnpDeE4fcmHfoABbYcBZcYIBvWSh+P8Hshz8uRJ79eCwgIvP9W/qetiVIH6uY53QKQnztMmHBavO9iBLRwjxfPRHvqW9vCd/NE5OnPmjDUGO7vXgS0ci/3H98gk3Q7ti4AIiEA2EMjeZ9uCwHADjWISYb3++us+ki0tLXVhevrpp92RqKur85dPIFhf/OIX7Z577rHnnnvORQBB4UbMzT5ujx8/7m+12r17t23evNlFjwjD/fffbw888ID9/ve/d7HhmlWrVtmyZcuiCbZ+/XpDBFiVykjxySefdNHfv3+/fetb33L7EMsHH3zQ1q1bZ1VVVS72iCxtwvFYs2aNDR8+3MXod7/7nW85/9RTT7nQbtq0ye0dO3asfeUrX/FoCoKGQP7TM8/Y+JB3IJKH6wMD3gAWV+AWFhZ6RIFzfHgKYsrUqV1OEO04evSoO170X21trbM6cOCA99HixYudN/a3td4+ZYEI0yeIMsLLS0VgQARjxIgR7nBNDXVRx/ZwrCA8ngmXKPb0F4wvXrho1aOqPeIxvGK4Xb1y1SZPnuyfd9991+3mtzBz5kyrrq52lDdv3Oz6LVAe/cY1Bw8etKVLl1pzU7P3zbRp02zXrl1uD85ifIcE+8uXL/ey3w/9j+04DfPnzw/vmiiy997b4wxhsmDBAuP3wjW0a9GiRQPRnapDBERABHpNIGsjCLQAAeYTE2KEcPCSiVHVo1w0GDnysh+mDVauXOnigJgwNcEN+KGHHrIJEyZ0jTpjeTgDcTSPcC1ZssTKy8vd2di7d6/95S9/sZoxNV7e2rVr/UYe7Th27JhPV+BMUMaOnTvs7LmzdvjwYc9ChIB9RraUhaBh87Zt21wIEFT229rb3AnAmVmxYoVt2bLF9uzZ484Jo2Ouee211wxBQ3BxashXMbw8mpLxLbxutd7ySA6cEEv6AEcMAZw1a1ZweM5acVGRjagc4awRxSNHjrjwFRcX2/vvv++ODc7Nvffe6y9miobH/ojfO9o7PLrDuxngFCMMcEaYx4wZ49ECWLQGRjNmzLDx48d7//L7oDwEGPY3b930/pk2dZrnIbrA74XITGVlpTsgOHIx4ZDQLqIk1EV+HIVLly95lhixoP0I+/Tp060otJuIA+2iXhxGbBg5stKPIf4wO3Sozp0F6qUt8CHaxfVTpkyJJmgrAiIgAllDIKsdBCgxFZCeuLlzE2fkGcO/3Ni58c6dN9cFBCE6ceKEj1IZqc2ZMye9CN/nWgSFa4eFaASjvNow0kVYcDYQAOpgFMlNHrGJCSFAvOfNm+eOSsPlMA0R1lJSJokyKZsP9pOPskkLFy50sUIk2tvafUSJjUQoyI/zQUgfkeEzafIkF2TEKToSpaVlXtZA/INNhQWFPtJGjBHCkmEl3i531IKTkJub52JeVFjkURFG8AgrWxLRHpjhUCDwMRIR7U/vY9jRB3zIByNsYFqDvuAThbiioiII8UiPJnQvk2twNqi7alSV142jA3euxz4iIXxi8raG7zgn1MN37KFvY+IY/Yw91E35fNjHGaJsUk3NGD9G9IPfI79ZoiPUS36cn9DD7ozw+1ISAREQgWwjkL1TDIEUN2JGeC+++KLvc+NmNI1IcZMlRMwNmZt4bhDTgvwCF1XElPlyRuSM1FnHQL6OUB7nKBex4DpEmIRQcNNG1AhfIziM7qiDEPKwko9eRUxZXBdFie9l5WU+zcCaAqIGLlCdAhNFCIFgbpxE3eRBMLZu22plQfSpi2gDQkqZRDQQJ75zjjYjQgOdsIVRM3zQyoLrLWGbGq1jC+2IW94SNm78OOcJk+vN15wpvAoKUv3jmTv/oWymXOBOKW3hOxEYRvE4g9RL23NyU/1EXbBDkH0UHvIy3UM+En1LnrjlGEJMwuFDjLEF5yK2yU+Gf2I7OM+HMrCZCAE2En3g95OeuIa8JPbjByeTOo6HSAdbfkNEDKj/csNlL5dr4m+DfSUREAERyCYCed8LKZsMirZwc+bGjwhzI2dESZQAJ4ERGTdcRnGzZs+yvDCCLQtiOnfuXBcXhHX16tUuvkQSyMuIcEEYvXMt0QLmm5lfZh0At3fmxX1UH+p95JFH/MZN/QjYsuXLbPKkyV1CwPQEdjCiJg8Cvvhzi13QKIM5bUbXODLYzfx1FDr2WajGnD4haiIVjLyxk3lo1jswykYkKYvwM9MfCFRtba1/IqO73SJm1BFFs6fy6AfsxX7yEkLHSUEUaSMCx3FGykQCyDth/ATPw6j5RhB3xJ5r6Ms43x/roj+YkoATZeMEkRBlHDTqQWBx/uCCQPOBHdfBie/8FnDssBO7OEZdOBccpx9xQriOc9RL2+Ab6+Q79cYpKfqmNjDHicPxibZQLuXRZurDieA3QP4YDYh1wJhpGGxiDQMLG/ML8m3qlKluD8c/C6cv8tdWBERg4AgwuOE+wT0tCSlr/1gTN9Z48wck37mR5wQRuhIECfHgho7AczMGPE4AIsPxkVUj7dLFS37D5wbMMRwMzo8YUREEqalL6BAabtR0HAKB+HMjR0QQPcpF0GNC+DhOeQgiwoEdiDjCUVwSRvlhOIyjQn2UjZAggqxruNJ4pUvUqIPrOc+PBoGhPbHtlMsxvtMOvvdXggmOCY4SNvSUyIPd8CexhQW8sYeoAtxwwrAbMaXdcIArie+UwzXpHDlH2eSl/lg23ykL4eWaoqLCcH2H18E5hJ7fAuWz7+H6cD02UD92cZwtXMlLOXGf69jnOhwLtiRs5BzHiPZcC9GP9Hqwh37ntxdtYNsR8hYXl/i15MF27KROyqb9eKE4CJyLx6grMnQD9I8IiMCgJsCAhUElg6YkpKx1EJIAL+k29sZBSHobZb8IiIAIZAuBpDkIt68AzBaKskMEREAEREAEROAzJSAH4TPFr8pFQAREQAREIDsJyEHIzn6RVSIgAiIgAoOMwMet9crWZspByNaeGQC7+LHyYeGckgiIgAiIQGYJxMXRma2l/0rP6vcg9F8zVVJPBHAOeEKCR/hYTc9KeyUREAEREIH+J8BL33jqiaffkpL0FENSeipDdvIkA14tj+W1dz7KmKGqVKwIiIAIDFkCvMyP98bE97skAYQchCT0UoZt5P0DOApKIiACIiACmSFAxJb3qCQpyUFIUm/JVhEQAREQAREYIALJcmcGCIqqEQEREAEREIGhTkAOwlD/Baj9IiACIiACItADATkIPUDRIREQAREQAREY6gTkIAz1X4DaLwIiIAIiIAI9EJCD0AMUHRIBERABERCBoU5ADsJQ/wWo/SIgAiIgAiLQAwG9SbEHKEPtEK9a5mVJehfCUOt5tVcERGCgCOTl5VpJyTDLy8sbqCrvuh69B+GuESa7gGvXrtnFixf9R8uLPJREQAREQAT6n0B8Id3o0aP9jYr9X0P/lygHof+ZJqZEfrD19fVWXl4ePNuSxNgtQ0VABEQgiQQaGxs9UjtmzJhEmK8phkR0U2aMxEFoa2tzByFJYa/M0FCpIiACIpBZAgzGzp8/n9lK+rF0LVLsR5hJLSpp7wdPKmfZLQIiMLQJJG0gJgdhaP9e1XoREAEREAER6JGAHIQeseigCIiACIiACAxtAolxEHgEr7m52efMB6rLmJ//uIQ9zOGnJ45l9FHB1lvp1Q3YPhx4FDJ+MtHGTyqzp3Mc685/wICoIhEQAREYAgTyvhdStrfzgw8+sOeff95ef/112717ty+q41GRHTt22I3w/H5lZWWfmtDQ0GDb33nHxo4de8ezqe+//74999xzVlxc7OfTK0CcONfa2mrjxo3rOrVl6xbbvHmzzZ8/v+tYv+zcuGFWd8DspRfNJtWahWdprR8eSURgWVU7YsSIUFzPjzjyfoQtW7bYqVOn7PTp03bixAkrKiryPujeNvKwnqGwsLD7qU/8/uGHH9rbb7/tnAsKCu7ISz/Tx+nn6B9sLi0tvSO/DoiACIhANhJgsNXU1GQVFRXZaN4dNmV9BAExXrt2rYvTQw895KPYX//614ao/Pa3v7VNb73lwC9dumQ804+IIXx8R8xu3rzZ1ejLly/7sRsIbkj79u2z53/1Kzt27NhtI3+uf+ONN+yvf/2rbdy4sesctiCC586dsz179vg+5fAeAew5fuy4/e1vf/M6OUbE4+zZs2TxLddSBokfysmTJw3nJ9qI/dgS2+AZ+ed0vdn/+Fezf/93s//zv8067e86n8Gd1hC1YNXtvffeazNnzrTZc2a7Q4GtsX3YzweetIk28uE6nDAS53E2+E4kIj0dPnzYGcIiJpwvOJMfhreCHfQLXOlbyqb+69eve7k4OiTOkYe8JP5npG/IS4rlkif2hZ/QPyIgAiIgArcRSMRjjlevXvWb/pUrV2z58uU+qkeIESOEavq0abZt2zYXBQSAPNu3b/eGDh8+3J555hmrq6uzP/7xj56HR02+/vWv27a/bjOchtdee80mT54Uyk29CwDxYYS6ePFiO3TokAs2kQIck71799rIkSNdoFiRSr4XXnjBPUKEnREtgvSzn/3M98vKyqy2ttYdCgRpWrD1iSeesJdeesmdAcpgdPzVr37VfvXLX1p7EDZE7XOf+5w9/vjjqc6qCc/MhnxWFEbmVaPCtui2TszkF3QWsfWPpUQ3Pz/ftm7dygnLCRED0j333ON91N7RbhMnTrQDBw64U4BjMHnyZI/Q4FQNGzbMli69rysaQJ/ygTV9NGPGDHee6E+iJO3BkcJJyAn/vfvuu95fRChwtqZOneoRJa6vqanxyAbCT8JDnzBhgu3YucNGVIzwMu677z47eOigl9nScsOIQs2dO9fz6x8REAEREIHbCWR9BIGQ9ZNPPekCxBTDunXrXKTnzJljVVVVNmvWLD+HuCBiX/jCF9wRIPyMgOAovBWiDC+//LKPHhEyQtbvvfeeLV+23IVq9erVISz+keju3LnTR7mPPfaY09q1a5c7BDgSDzzwgD366KMueDgjGzZsMJyQrz3xNauurnYbiFBgDwK0YMECW79+vTsVvBzjlVde8XM4ODgn48ePdzFjBLwrTJ/gRCCwTG10JaYU/uN/CtGDn5n9hy9YiON3ncr0DhwZ8dOeQwcPWV1wmBi1I8oTgp2LFi3ydiD89MeU2inutBENwJHCYXp/3/su0DeCs7Bw4UJ/3Wi0m3z0G/lggMATMcApXBjY0c9MLVAfDiE8mcKhPq6D4ahRo9wJ2b9/v7PE4cLeM2fOWMPlBi8bBwJn5sL5C8EBaTf6QtMTsRe0FQEREIE7CWR9BIHQ8J739rgwIwSMXBHZlStX+oiRkSJz6ITsGYUyAkVkyIvYzp4920eyjOqJAiDqOBWITpx7RyziuwA4z3w4Io+ws90ZHARGwUQrECzEhsgAeQmDL1myxIWR8g8ePOjCRXmrVq1y4oyAsYW5e0L1pDXBydgfQvJHjx71OhjdfvnLX/byGH0jiPfff39qpB1E2hYuDo5BiCIEURzIhAhjN8Ie1ykgzrQPhwDniH0+RBZKAxeYETlg6/lGVnn7q0OfIN6xHPoMB4EoClMr9Alb+gUHibLhxj5OCQmng+uJAnGOa3GoqJs89AnnsY288+bNc5YXLlzwcvnO74PfQ1FxkfcrNiqJgAiIgAjcTiDr74wIAHPbhOQZISLIHGP0x5ZIAKPFKCSIF4LRcqPFXx9MuB5xnzRpks9Vcx6ng9F+FJVNmzZ1zYv7SDmMkr/0pS/ZI4884ltGzYgKwoXTgIPCKBdBY8qAKAXRDULo2MEHoULYqAdRRAzJz2i8tKzUdoTFkSXDStw2RsaEzLke28uHl7tQUk5XIsIRRDAU0nVooHYQe+b2cXQYscMUxyGm9P0zQXh5bTPTALSTNrto5+Z4f0XngGsRadY44OwRFVixYoWvEeGaGDE4VHfI68RZoB76B15EBxB2jvE7oE6cNuplC2fKYLoIx4189BkOCU4lDuTZM2e9r2I7tBUBERABEfiIQNY/xcDNnxs84oSgIADMzRMpYJ+wdM2YGhsWwvAsokOQEVlCy4g6x5YtW2a1YR1ADGFPD9MMy5YudSGJo905c2YH/S1wAcFxYDSPU8E8NuFunIwFCxfYB2EhIqFqjhOJIHpAPQgn9XIN0xhEGwi/41TwlASODcJKlIMoBO06VX/KnZalwRY+iBp/G4ER+8MPP+w2pwvqR93WP3uIJkxiJOXjSqX9jM6vNl110UWMEXFY0we0lSgM+zgS7uSEET5txrmYPn26O0tFwclhZB8To/rKypE+zUKbcSiam5o9QoNDwJqOttY2F3SmixB2HAPq4zxc4YPY44wRVaBMHED6gfP8bvjgUPKboW9xFLCLMrk2k4xjW7UVAREQAQaK6AD3siSkRPyxJqAyGuSmjrAiBAgKooUYIFiIK1uOk7/xSqO13mr1Y+Rvaw9lNF7xfFFM6CAEkvyM8hmRIj44DVE0EVEEhnIRF/Ln5ef5ojnqi04KZSCaiA1RCuxFxLgGuxFZIgIIFedbQh1N4Rjl850PbaFNlBHbmMkfEfbwpAfOz8eJJPbBJCxTTJkSNrSZa9nCjKcTInfYwYXzHCfxnXLiNamCeBjjhtdLOTHRfjiSn/Mx/B/LjHywl+uITkQ76APq5NrYX3xva2sN5aSiDOSnXBJ5qEtJBERABAaCAFrAIIcBTBJSIhyEJIBMoo29cRCS2C7ZLAIiIALZSCBpDkLWr0HIxk6WTSIgAiIgAiIw2AnIQRjsPaz2iYAIiIAIiEAfCMhB6AM0XSICIiACIiACg52AHITB3sNqnwiIgAiIgAj0gYAchD5A0yUiIAIiIAIiMNgJyEEY7D2s9omACIiACIhAHwjIQegDNF0iAiIgAiIgAoOdgByEwd7Dap8IiIAIiIAI9IGAHIQ+QNMlIiACIiACIjDYCchBGOw9rPaJgAiIgAiIQB8IyEHoAzRdIgIiIAIiIAKDnYAchMHew2qfCIiACIhAVhCIf3wuK4zphRH5vcijLCIgAiIgAiIgAndB4IMPPrBLly5ZdXX1XZQysJcqgjCwvFWbCIiACIjAECNw4sQJ27Jli9XU1CSq5XIQEtVdMlYEREAERCBJBIgcbN682VatWmUXL1601rbWxJivKYbEdJUMFQEREAERSBKB+vp6dw5WrlppBw4cMNYgVFZWJqYJchAS01X9byg/1sLCQrt8+bJVjKiwnPCfkgiIgAiIQP8RWL16td9nCwoKbNq0aVZcXNx/hWe4pJyOkDJch4rPYgK3bt3yhTNtbW3GTyEnR05CFneXTBMBEUgQgfb2dr+nsm1rb7Oy0jKPIOTl5SWiFXIQEtFNmTUS56C9o90MV1H+QWZhq3QREIEhQyBGZTvCzZV9BmBJcQ7oJDkIQ+anqoaKgAiIgAiIQO8J6CmG3rNSThEQAREQAREYMgTkIAyZrlZDRUAEREAERKD3BOQg9J6VcoqACIiACIjAkCEgB2HIdLUaKgIiIAIiIAK9JyAHofeslFMEREAEREAEhgwBOQhDpqvVUBEQAREQARHoPQE5CL1npZwiIAIiIAIiMGQI6FXLQ6are24ob0/kVcvXrl3zNyn2nEtHRUAEREAE7oYAr7YvKyuzioqKuylmQK+VgzCguLOvsgsXLtiNGzesvLw8+4yTRSIgAiIwSAgwGGtoaPDWJMVJkIMwSH58fWkG7wdvbm62sWPHGn9IRK9Z7gtFXSMCIiACvSAQXmXPa5ZxEuQg9IKXsmQHAf6io/5IU3b0hawQAREYpATC37nhXpukv4+oRYqD9LeoZomACIiACGQXgaQNxOQgZNfvR9aIgAiIgAiIQFYQkIOQFd0gI0RABERABEQguwhokeKn7A8eBzx58qSxwI/EtqqqysaMGdNVEseOHz9uN2/etNraWisuLrZbt27Z0aNHLS8/z6bUTrnjb4JzzeHDh23UqFH+yCGhqPHjx3eVaW2tZofrzGbM+ujYAOy1trba2bNn3X6qY/4MG3t66qGtrc3XMvA4T28SZZ07d86uX7/u2flOuZQfE2WeOXPGKisrbdiwYV35PvzwQxs+fLg/NhTzxi1PZlAO5RYVFVlJSUk8pa0IiIAIiEAvCeR9L6Re5lW2QODYsWP2P//t3+y9996zd999195++21DEGfPnt3FB8fgxz/+sa1fv96fEJg0aZLt3bvXnn32Wdu3b5+tXLnSF6t0XRB2EMJf/OIXLnqvvvqqHTlyxJYsWZLK8mG92S/+r9kvfx4Uus1s+gyWw6Zf3qd9BLmxsdFGjBjxsYsUcYg2btzo59m/cuWKizLP83ZP8GCVbk/nuuflO21+44037Hoo90ZgRtk8TYEzEBOPYG7YsMFwVCZMmOCHL168aH/4wx/c7nRnIl4DOxyDAwcOeN/QPiUREAER+KwJcM9ramrSUwyfdUdkqn46uCGI6j88+aTNmDHDIwg9jaYR06tXr9o777xjq1atsl27dvkLiRjNEh04ceKEbd261d9BMGfOHFu0aJFHDCiLa2OEwtuRE0bkG1+zjrUbLGdWcES+lKnW3VkuTgQO0OLFi91uvufn51tdXZ1HFS5dumQTJ0600tJSj4Dw0iUe4eHxSfKwanfu3LnOgrw4ATNm3BuciNR7F+A5b/58H/FTNg5GeoID9dfX1zsjyiM6w3E+OA779+93R4d6cdSI2GAjUZvbOKYXrH0REAEREIFPJNC7WPAnFjH0TiJiiPtLL71ka9euNUa0CB2RA0QJoeMzcdJEF02cAUazkydPdpFtaWmxF1980Z+HxVn46U9/6gK4ZcsWn77oLpJWPdrsvmWW89++azYzTDHwzoIBStjHKB4HZ/fu3R41QfyJhNDu0aNH286dO12IGbUTPSA/kRWmXuCyY8cOI+wPM8rLz0/Zzz4CTnSFsqMTRdMiQ7Y4TUwvnDp1yh0CpiViNIFjlI2TwhTN+fPn7fTp0+6l93aqY4BQqhoREAERSBQBrUHoQ3chWtXV1b7uAIFDwNatW+cCVz683L75zDdd4ObOmetC+pvf/MadB6IE27Zt81HyggULfLqC+X0Elw9l9TjizQvd9J//S7A0vGkjjIyDyvbB6r5dQltxWAj7MypPCXy+j+pnzpzpx3F+GLXDYdy4cR4lIFoQ1y4QUiNywguZ5s2b5+VgDWVTHiN/ruU75Rw6dMgjLDgcRGkQ+ilTpvgx8hOtIJKA88H0AU4JaxKIvOCkBfesb43VVSIgAiIgAl0E5CB0oej9DiJOKBuBRNQQP8LoOA2IGqNdQt+Mrjn/yiuv2IMPPugCSS2MgHEo1qxZY1OnTvVROccRv49NPcz5f2zefj6BgzB9+vQu+xBsPqwXiE5DrJI2cA6hv+eee1ywGdXn5uW6E+BvbIyZw5b8tbW1vvYCVtSFk4HwxzpgyYJNFnkSaWBtBpEDzuNMELGYNWuWRxIoOkevhEwjrF0REAER6BsBOQh94IYoPv/88z6KZcS6bNkye/rpp11EKQ4HArFDwJYuXWp//vOfXdQQMhIiiRAyd05ZJMr5RAfBcw38P9iE3W+99ZbbzKgdpwb70xP5cIz27Nljn//85z0qQGSB6ZSRI0e6w5Cen32ugdX27dvdyaJsngbB8aIszhNZIfEdB4xpBCIRPEnCeezg1aUcJ1JB1AL2SiIgAiIgAndHICfcTHU3/RQMESyeZIgJfIx2mQOPqb2j3eoO1bkw8ige4oWoIpYIGKNxFt3x+B5RBgQY0SOywLw9dSB+6WXGsvtzizizPiKujeipbEQbu8hLiu3FZqYGcHBYA8AUBMdYpEibGPV75CA4STU1Ne4A3QrHRoRr0hNl37wVnKPwH2UzfZD+FAP1U6Y//hkeW2xubrLqUdXuFMQIBkyxg+gN9TL9gEOhxxzTSWtfBETgsybAQJD7Pk+2JSHJQfiUvYSIRbGMlyLmRAvSU1t7m+WGpw84h8gx0o3Xsk8Z5MnLTR3nehwLriEfqXuZ6eX3x35vHATq6am9HKdtJOxln7n/jvZU5ITjtA/hpx2xTfEazpM4Hs/xnfM95Ynls7zA9zsZsR/ti8fZhmpD4ZT4kZ2pb/pXBERABD4bAklzEDTF8Cl/J4hP9/B6T0Ug/DHF/OnXIprdHYC8nNQ1LnDx4izYdrezu0nRXpyBnNyU00CedAYxT0/Xfty5mDeep3wX/nAiHiNPun3px2PeWI62IiACIiACvSdw+7C399cppwiIgAiIgAiIwCAmIAdhEHeumiYCIiACIiACfSUgB6Gv5HSdCIiACIiACAxiAlqDMIg79+81jbl7Vv7zRkSexLht/v7vXazzIiACIiACvSbAYmrutb39WzW9LjiDGfUUQwbhJqFonrDgRxtfEZ0Em2WjCIiACCSNAAMwXiDHe2GSMhiTg5C0X1kG7I2PCeoVxRmAqyJFQAREIBCIT2HxKHtSkhyEpPSU7BQBERABERCBASSQHFdmAKGoKhEQAREQAREY6gTkIAz1X4DaLwIiIAIiIAI9EJCD0AMUHRIBERABERCBoU5ADsJQ/wWo/SIgAiIgAiLQAwE5CD1A0SEREAEREAERGOoE5CAM9V+A2i8CIiACIiACPRCQg9ADFB0SAREQAREQgaFOQK9aHuK/AF6SdOHCBePvlHd0dPB3lJ0I/4Zv/heT45YTcT99y/GByO/1Bxt5C1lJSUmi3kiG7UoiIAIikCQCelFSknorA7aeOXPG8nLzrKKyIvWmrwzUkYkicWoKCgps1KhRmSheZYqACIjAkCegCMIQ/gkQPWi53mITJk603NycVHSA0EBIHSEkkBP207cc736M76T0fDEPx+N++vau84cCqqqq7PSHp32blPea024lERABEUgKATkISempDNiZmlIIBQf1bm9PKX2n3vtcgu+Hf+IWE+L+bdvOE7cd8y8ZzM+cRqfNVK8kAiIgAiLQvwTkIPQvz0SW1pEmtO40hFYwKmc/fUvjuh/7LPK7HcHmTh+Er0oiIAIiIAL9TEAOQj8DTVpxCHz8a47ptkfh774lT2+OxTyZyt+Tzen2a18EREAERODuCMhBuDt+g+Lq9o72VDsYkhO6J8X9sM3Ly7X8gkI/1draanzy8vI8W1tbW+qatPxdjzSQI0OPN3TZ7FboHxEQAREQgf4mIAehv4kmrDxG+l1TDFHkaYPvd4QnHPLDY5AXbfPmzXbt+nW7b8kSmzFjhh05ciRMP+TapEkTUxGIeG36lnIy5CBgczBdSQREQAREIEME9KKkDIFNUrEsUPRP53QD4ft2V98ca2hssB/+8IfG45Ctt27Z97//fduzZ6/V19fb8ePHwtMPuf64YUFhoW+JLLBuoaCwIPUJjyLiJMQy2eKU5Bfk+zE0Pj8/+KkhTyyjMJRFOdjg13Xa81EZcVGlPIQk/c5kqwiIQLIIKIKQrP7KiLUdcYrBS4+imxOEPt9OnDhhZ8+etR/84AdWUVFhY8eOt8uXL1pZWbmL960w3fCHl1+2w4cP2/jx40NEYZJVVlbagQMH7PTp0+5APPXUUzZ8+HDPj0PR2NhoW7ZssUcffdRaWprszbfeDJGJpfb6669bc3OzNTQ02Jo1a2z+/PlG+Z0PYAbrsI2QBOsgOqdF/Jv+EQEREAER6G8CiiD0N9GElcdovmuUHkfqncduhYjBtGnTbNasWfbd737X/uVffhhG+7n2wKr7bdfu3Xbw4EF77dU/27Zt2+zhhx+2d955xzZt2mR1dXW2bt06W7FihZ08edL+9Kc/uaPA2gXWLDRduWIbN270epubr4Uy/mKXLl2y5557zsaMGWOLFy+2n/zkJ3bq1CnLDdGIrkhCN1sThlrmioAIiECiCCiCkKjuyoyxHcExCOGCVOExgBC+BT22Gzdu2Le//W27cPGCHdh/wF74fy+EqYUPrChMA3DNzp277LHHHrNly5bZpcuXbUdwEnAClq9YbsuXL++KQKzfsME2v/WWVY6sDPkf9+kIyicxnYAzMnPmTHv88dS5TW+8Yfv377dx48b5okjPeJttfEk74Bn0jwiIgAiIQH8RkIPQXyQTWg4S6+sNolqntYO1ADt3xrexqwAABAlJREFU7rQ3glj/97D2YNbMWVZUXGx/euUVW7hwoQt7ybASqz9Z71cdO3rUnQOiEry+mW1bW7sL/Or7H7AFYcqA9QbXb7T4VAICf7nhsl29etUjDI2Nl60xRBfKysrc2Rg2bJiXR4Sje+JYDyZ3z6bvIiACIiACfSQgB6GP4AbNZUFlEduw4iA0KTwZ0BlJCH+kw/+A06JFi3xtwH/953+2mpoaX2vwjW98wyMDXPfE156wH/3oR3b8g+MhsnDcowCsM2ChYnuIJFAc34eVDrO8/PBoZPhe1lpmpaWl9q9h8WNHeMVzUVGRTyVcuHDJ/tezz7pjwTqGuXPnpv6IVLAMe7CNLYV0PXkxaDpCDREBERCB7CKgP9aUXf0xoNYwFXDs2DFffJhyD26vHi3mHQhsjx494iP9yZMnW3V1tS80JBrA9fzhpClTptirr74anIE8+8d//IZdu3bdhpeVWnN4NJIoQlnYJ6KAvOcFh6GlpcWdjNE1o60wvGOBBY0///nP7Tvf+Y7XQ3k4Fm3uvNxuF7binFxtarKpU6e6M3J7Dn0TAREQARG4WwKKINwtwYRfHxcpdkUQGOKHxJMD4UXLnfP/Ob5Y0QU7OBWIO39umbUDbN98803bvn27Twc8881v+vGyEDG4FfIWFRWH6IC5k9BVZnurMX1x770zgtPQFhyBfI8i8BQEUYrRo2tC/rCgMSxqxIbOmIHvxzJ4LBPblURABERABDJDQBGEzHBNRKlEEI6GdQPl5eV9szfoc5w2uBaeRmDtAMLN0wqdMxW9Khed96mI8OKl3r4hkQjCtWvX3HFhOkNJBERABESgfwkogtC/PBNZmq9BCCKbEurUqLwj/P3mnPBXHtO3NK77sfbw9AH6XFhY5E88EHsgT3t7ZySiWxmcI6WXG/O3G2sWbq+z5/xcnyrHC9M/IiACIiAC/U5ADkK/I01Wgb4uIIitC27Q3OAXpBLH2E/bcuKOYyGPa3WYKgi+wd/N/2nL/7j8ODVKIiACIiACmSMgByFzbLO+5NSfcg4L/sIiQt/HYld7dqLyp227zqcd+wzyE4RgKkNJBERABEQgcwTkIGSObdaX7I8fhvcYNIWnAUpKioO9hACyPxHtuB6ejqiqqnLHJvstloUiIAIikDwCchCS12f9ajFPDRA9YMFfEub1sRHHhvck4CAoiYAIiIAIZIaAnmLIDNdElYro8uRBUub1cRB4B4OeXkjUz0zGioAIJIyAHISEdZjMFQEREAEREIGBIKC/5jgQlFWHCIiACIiACCSMgByEhHWYzBUBERABERCBgSAgB2EgKKsOERABERABEUgYATkICeswmSsCIiACIiACA0FADsJAUFYdIiACIiACIpAwAv8fVWyx1lirU9kAAAAASUVORK5CYII=;labelBorderColor=#000000;imageBorder=#000000;" vertex="1" parent="iryjkZB7OB2-_eOB0UU8-1">
          <mxGeometry x="740" y="134.5" width="212.02" height="190" as="geometry" />
        </mxCell>
        <mxCell id="iryjkZB7OB2-_eOB0UU8-14" value="" style="edgeStyle=orthogonalEdgeStyle;rounded=0;orthogonalLoop=1;jettySize=auto;html=1;fontFamily=Tahoma;fontSize=17;fontColor=#FF5112;endArrow=openThin;endFill=0;startSize=6;endSize=6;strokeColor=#FFC505;strokeWidth=3;" edge="1" parent="iryjkZB7OB2-_eOB0UU8-1" source="iryjkZB7OB2-_eOB0UU8-11" target="iryjkZB7OB2-_eOB0UU8-13">
          <mxGeometry relative="1" as="geometry" />
        </mxCell>
        <mxCell id="iryjkZB7OB2-_eOB0UU8-11" value="USES" style="rounded=1;whiteSpace=wrap;html=1;fontFamily=Tahoma;fontSize=17;fontColor=#FF5112;strokeColor=#000000;fillColor=none;align=center;" vertex="1" parent="iryjkZB7OB2-_eOB0UU8-1">
          <mxGeometry x="330" y="209" width="90" height="41" as="geometry" />
        </mxCell>
        <mxCell id="iryjkZB7OB2-_eOB0UU8-13" value="" style="shape=image;verticalLabelPosition=bottom;labelBackgroundColor=#ffffff;verticalAlign=top;aspect=fixed;imageAspect=0;image=data:image/png,iVBORw0KGgoAAAANSUhEUgAAAggAAAF8CAYAAACqp0MpAAAAAXNSR0IArs4c6QAAAERlWElmTU0AKgAAAAgAAYdpAAQAAAABAAAAGgAAAAAAA6ABAAMAAAABAAEAAKACAAQAAAABAAACCKADAAQAAAABAAABfAAAAABXXoV7AABAAElEQVR4Aey9B5RfV3Xvv6f3Ls2oa9QtybKam9x7A4ONYwiGJBhYhASS9QIr762sBytZZP2T98ICVhYh8GjGBAI2LjK44C53yVWybLnI6lYZtem96L8/+/c7M3d+mt8UaYpmtI/0m3vvuad+z7ln77PPOXundHV1HZOIS0lJkYaGBmlqapLy8nI5dqzX60hIv51ICHR0dEhdXZ3k5OTYr7mlRRq1H0yePNn6AP3idO0L1B13IvU/mbi9+lesCFqIXr7D96Dpd7R32LefkZkh+Xn5Ul9fL52dnZKfny9p6WmSov+OUYCRKsPw1WbAlE6mXU4m7oAF6yfAaOTbdaxLjhw+IoWFhZKVlWWlId8WHQ/oD0VFRZKRkSGhLAQYzHehdEZSU1N71S6kwTtceO4VaAQfOjo7rK6TJk2yvA8ePGjj3f7GdvnnN/ZJ3bH4d0+HtzFAn40exj+ARL/E51ilqJnGi9WxJ52eOh/jPa6PMGDS2tou31o5TZZOzpcGbYP29nYpLS2NxRmuv5pPS021ZBUUSkqkndKHK31PZ+IiAJGAeWhubp64leynZpmZmd0D5mAGw5AUAx/MdmNj46AG0RCvr2taWpoR6ty8XCPUfYUZKT8GKZgHCMSE6QNap1xlhgsKCgRsB+vAor2jXepq63Tgbj3pdh1svoSDwEK4YeJHm5hGy0ne9O0f/ehHxkR8/OMfF4gs7qWXXpJ9+/bJZZddJmVlZXLfffdZeQ8cOCBXX321TJs+TVJTYozChpc3SPnkctm4caPMnj1blixdKtlxpiSaX1/3Q/kO+4rfn1+XMgRtWr8OSY1/a4ExgKhDzANBh1GI+BnzEHkmk0D0Q7yE5xRN4ph0ElJdPO1IGHxadQ4P4zYWbkAGob+OSCP19z5UaCQbM+Th174RCO0T2iDxue9YPb4MBMweYBKQJoT4PSEm9h24QRQh8okzp4FqDm5IZkpLS5QIDfip9ZscxKitrU3S09MlK1tndvFJTL+R9KUNZWE8I3CIp36DlQgEDGh7CEHiTHCgMpyK7+nXMDy0UW6uMl1at8E4sGiobzCmAgI4WlhQPvoAfZE+ANM6lm7Hjh1G2Jk4XHDBBdY3H374YXnjjTdk7ty5snnzZtmyZYu8/PLLxiyE/vvA2gfkvffek7OWnyW/u/t3smjRIpsNz5o1S1584QVZv369rFixQubPm2dx9yqzcc4558j06dNl3TPrbBy68aM3yrRpymgowzRSjnbuNPoW+2D0Vp1+MdZN4h8Rl+5+o2yFPvNN8T/2oamHhaGc3PQVRt+opKI7mXiYWF7EhzlAbje4/knOw+kGHLVYarjzzjuNYywpKRG4xWeeecY+qksvvVS2bt1qnaK4uFjefvttK9vMmTNl/vz5smHDBpkzZ45ceeWVI9qYwwnIREqrtaNL3tpTIzsPNcpHVETV0NIpz79bJZUqqlo5p3RQsx8+FH45OdljPiiNVdtATBjguA5ltkl5YSqys3NOuugQCNqBMgza6ZjS3nFMXt1+RGpVbHrOgjIpzc/UQfaYvLGzWg7XtciquWVSXhQTJSdL14YnzR+iFMTOycKOJ3/alHE3NvwObgCmDRDBMtMdbSzoezCJp4J7/vnnjUgj7n7n3Xdk967d2s+zZcaMGdZH7733Xrno4ouNoezs6hQYinXrnpbt27fL8uUrJCszSyUMpbJgwQLZ8k6MkYCpuOaaa+SJJ56w8O+8844sVanC008/bXnBPEydOtWkcrTDSLouJdodOnPvzTiqZKGtXdKPdUpnarqkpCnh1/p3adfJSM9UyUhsCY42SqWfpGcYW5DaoRMFfRfCdKpvZ2ubpCkz0JWWof7aru2d+iySpn3rmIY1hgL+QG/1cx0z1zcLZgWMlQkOEZHRTTfdZIPd/fffb5zhPffcYx3hsccfl2effVbOPvtsYwYYRC655BJjFmAM4Cj37NmTAPSY1fe0yri1XdcT69skPytDcjLTJTsjVYpyM+XDo03JcRjcOJk8/oR+o+BEvo3RrCpE7EQGxbZOnSk3t0tWhg5Hylu8tu2o7D7cKAXZGdKmDGRt46lBcEYTy+Pz8k7fg0kci8R+jnf8VW1trWzatEmOHDki6Rnp8vxzz8uBqgPGMMEQI22Ekc1TyUyqMjXHEJHrc7suU6WmptmSA8xOVpZOOrIyjTbAaOCYhPKO5ylTpsiyZcvsGcbjzDPPtAkpjIQxdxZjZP7wrSFB6LSyHzNmIVXr8KlpufLXC0rlstIsmZMh8oW5xfKXc4qlLD3GUIgyQ7dNz5e/WVAi87NS5JyCVPny/BL5/KxCKUhl6eKYFChj8Pk5hfKVhaWyIj/dmI4bSjNkTVm2tGmeHfG82R7Ij3L0colt0+vl8D70KUFISSgQ616IeK5W7u7H/+//mUiIzSqIkJpU9IqUAAlCRUWFNRybGz/96U+bKAmgJ02edEKD2/BW9fRLje85I1XXC7UN9ilT0KIMQ7YSilblVpM51sTcJUNAZwWK5XiDCOagsaVD1r19QF5475DMn1Igy2YWK9OoGw/jg36yGp8O/jbeORDW1GHsD9fQ/owLYWw4dOiQLQOwp4ANrEgL2FuwaeMmW4pbtWqVnHfeebZcAJPA/gImjixFIHlAAn3DDTfYpHLf3n3GCKxcuVJYZvjjH/8oq1evloULF8quXbuM1iBFCJvySBumYaSlN8zaIc7M4PnejY5lp0tDera8cqBRPlFZIsuUEdpX3cCigE0cjupy4qVluZKTnyfrq1vkoulFcrTtmNyr4W+dXSSVhSK7DzbJgpIs2dam36RO3s6bWqybS+rlynmT5TkN1364RSURAXV9pUknTgwS26Yn9InfRbLslUifDELgFENIREQUctsHW62hWftZvmK5/PrXv7bGrKqqsqCdXR3d3CMc5iOPPCJf+MIXbEd0YiVD2n4dQQRodf3VNbXLi0oYGAPLi1Tc3d9gmKynJBQTMtnU2GSbFxH7DcUxm0AMF9bo2SjW1wcfwrHMxX3YQT2UvIY9LPgwYpygY3ZVU1MTG3B0PZ97ZkthJzUSO7AJM6kTzKZXNAa6/JwMWTC1UGdwKTK9NEeKVZK0S5ee3CkCg+zzpwVWAYtwDZXWZ4gljuVjfozpiOA/97nPmf81V19j1/Dn8ssvD7fdV+Ilc6tXrTZJdXgPM4BbsmSJXS+88EK78mek6QmTqnbqF//Wqfue5g6lgVXyV/NKZLsS9yUl2dJeXCD5aSmyt/molHW2y6LcVNmv4+1WXb5bre9/s+OgnJuvy3P63dU3K9OQ0y47Grrk/SP18j+WlsurNS3yYk2rFOyqlTyVQiAtCMMLeXdqvsctMcTboRuMEbzpm0GIZMiGKI69fO9737Ojj5/97Gdt88hZy86Stza/petJy23nKlFyc3Jtly0bs9auXWuN+Pvf/15uueUW4wBHulEjxfZbEIj3tIqibLnwjHJpauuQt3bX6F6E0AVPAiZNAsLN8hNixbCJD2IPAxn8IOy8Y0MX/QKCyCaro0ePmrQJyRQbr2AyiYe0CsaBtNmtffjwYdtMxuwCf8KxBlyiEqtaiKmuI8M4IMGCsJIu4cJub+IziBGGNBFNIsKkLxYXF6kIUcXsNbX2njD9ueH4LikLm+NC/ZiNcQ8GYEb5+FEWyjkcTrdAmSSpsjxPphRnS7qunVbVNPfJJ1LHMCgOR96exsRDIDqOR+/pO9GRJfG5LyQSwyQ+R+PwDhfNI+Yz9L+kFdJLjB0rA8sKOoOPfwzsSUjXkwR/p8sLrTpmrN1WJVPPnC6P7jgkq8vzZf6kImnt1BMxjGHtbVKR2i7Nurx3RWmmXD41X36+ZZ9uLs6WuVN0o3dNo1w1v1g2H2mQdfubpDFF9zNoIVjv16S1fjBe8VJpvixzjJXrk0GIFqe4qFi+9a1v2SwnLy+vez2Iweuf/vEfbbBm1yoDH5tPlp+13Nad/uEf/sEIAgSCeNGONFaVPe3y1U7GcgJrzufMK1PGoEPe31dvG9WSYRFt+2Rhgj9tzux39+7dRuQQI0L8U5UAFRUWGfNA++O/c+dOu8IkBEJMn4DgE4ajYxx/4hlpAkQzzKQJxxlliH1zS7MxortV/BjShilADAnzwSYoysD6KGJJ4nBEiH0wOOKQLgwE5SYsBDk3N0c3TC00/1C/xCvYDAWfxPg8wwTBRJEnzBVlYXNTwAFMYaaGyyGubNBz1IfqO2VpW7EUqiSBAWdfdZMcrG2RuRUFvbKyOobBqdebiftAnU+zKidtzNC/wzUETHwO/tFrYpjE52jYcJ8YJvE5hOPa37touMHck1ay9PCHJtsehHjP6NBxY7Zu8J1WWii1Tc1yc2WpPFfVIDfMKtXjkCJ37qiWbboRuCQjXb44r0g+MrtMHt7XKBdWFEu7Uv5b5k2Se/Y0yHffOywfrciT/Nw8WdCVKjfoJsW79jbIUf1GmzpSbf8BWcb4Enql7kPQv1GXrNzRMEO9T5ZmnwwCM46oC8pz8GOwZlDlahtQIs9wTxZG/7CjNTjCuht9BPKy0uT8hZN0iYHNQSm6MS1dLlk8WYryMpMybIltP1CpaVuOiXEEEvE5M2E2MbE3BUYAws6V2TGMIsQc4g/xxo974s2YPsPKtH//fiOe+EEsSRuiDmOB38wZMy0e+1/Ikx+zcN5BfEkX8fyhw4eksUnX9JSBIR3KCeGlDOgmKFAG4QM9gQOBxi9Td1WTT3+OrwJ8eoSA/YVO/g7mBGZm7969ViZmFnUqVaD8lHPYvhf97LJ0Y+qaRZOlta1TMlQUStrUY6EuN8zRmU9pfvzIZO9PPnnhJ9Sb0KKnZeX7bMnw/YdrCMRzDK3gM76v/dWFd3wnNnOPSxCo/daGNvn6Kx/ad8o+gFaV/b90uDnOSByTPJ0YtarU4D+2HtUlhdj9C0eaTTLA+EuaJempgt8LR/bamEzyaFt45lCTXuN0MqzlGGtwvAQhsW2GoyWSfQF9MgihnCHjxAErPB93DRHiAEce/XYMEGBmWqLMQElelnXONN1BPEuPOOJC2x1XrCHwchC0IDWACPMMsUW6xFp6WD5gtkw4iDVEGMYAgg6zwGwaJoCZP+9gPnGkRTqEg5gWK5MBId22bZstPbBmT5o44oT8iWP3Ko2A+JMn4ZBqhHdcwYZlCcLCMFCGvvZBWAbRP0PAJxotek/9YaDJD+abcsIAUU7Kxs9G42ikE7xn8CnTmQ8JGmPDgKSjwaRCjjb2+J1g8uM6GrXnZ+NdshFyXNfwBAof+ne4hiR4TvQL7ybglXX/3mv/PZXvVCYAp0OHLSNwpftwfNGcXjghZJ4qiiD0cScR8OudQbe6pN5A61JHLNWevz1F6fEbgTvq1DeDwBt3EwIBZVrV9fSopIxBqO0g2x7Cyky9oFD3HCgx5jk47iH2EDqUnrS2qQhf96fgx/4AiCNhAsOABCAwGxxnKlPi36WMQWAA8AuEk70I1IE0SI94SA24QnCRVpA20gLCmQg/zmwQhnf4cy2vKLc02vVsM0SbX79O49hH3wNnv8H7e4miF45xUSaYA+pFHWFkwJPrcLie5u8pdF9+PXnRjj1t2eM/8e5i7EG8TSde9U6sRqHpwzWkos/deAW/cXxF1wD1SebYpBiTICQL0eOvQft2Uf/ofd+hk/pyTLSXS17sXsFO9gF84gxCPMc+M454chst63A8U4uQZshqpJ7JazjKHMp3qqZHuUIZB4spcSIuRIt4HXcLkc1QZSB9OZsF64so4YUYciwqOMJArCfrsVjCQeAh9qQbdUGqgF906SrkEa68j97zHI3Lc6JDqpKsDolhu59D+frBmHr156hjKGsUo/7i9LxTfIAoZBHgOtnnngxOi7sUle+aBIHa0qYBP3vWP4nP+J8qbrDlDXUYbB+JVjohDx75WecbKL14sGhyvfrsGL+n+KEKFCVeMbtN00pCk9v1j9W3V0ALMmp/VM+ZpCBZjQGfkK8WjLKFNubtST2TXvxHvvp9xLZPHpdDpBzxNZhuHwoQdSf7TFonm4bHj7ZI7H6omERT0Lgnu84eTa6/ewglOvH5jR8X/yL7w5jvJvH9sFVwEPmTV2L+Azxbm9v3Hk9/2Mp7aiYED9dTU70bAJ9YLXpijG2tBlnegeqU+L5XpUIesUD0j54+Eg+YGH/cPCcWtKddK3RJ9qYZ+XLntmo5qLpjet70AmdYHjinlFwrjahypRQtS4FU6ukjlkV7uUCbE7wH7Md9hseTmsZ/+sj3oScv+3cDve8/tr8drwj0avdeD+O1RidT7t5DxGDgsDC9o51MAXrFHUz+vSIM8iG2ES32d5BRJkYwBXRImOrIOZCEaKSBGVJ5h1CYaJdNzIPn8BtCkqd00EBzo3VN0+W9GYU5Mq9AN1PrKbAYJtEQo1MlWJNS5SBu1hMQuXo6ItGNRIl6ta8+aK4I2Xq6RWKmPes0IUwI4c+xBhsID0INFOZUed/TBUO7syyQroaG2MhHPXg+nRz7HNjHwFJFrO7haxmozWKbItmgWVtXaxgmLp0MBUfSwbGpMbRNdP4b62PhmyQk5RvaMzUL/0ghOPZEsBzS2tqihJF9H8x7YjkwwJLLACsqFv5U+sPmV/bA5GaoOmCtxPGY9t2+tCF9gdM67B0Jy0SjUTf6IfmzPyXWsn2XsafdT+R9T58JmERTieYbmCT6AL2hd8wQ63hkwhcU60G8D6n2xImFCc8h5WTPPWkkppnsOTGlUFdSqmpolbW766SdPU09h/F4NequSSUYa3dVy4JJqkxOTyFFXUAt5jcQRv2/j6UcvoOQjy4x8GH3OjYR3sVLEqQYPUCHIiYEtAEpvOPq76NoxO5PdUzipbQ+Eb/Xr591f4hja0urdHaoQCyxGsdXdML48G1AlMPGSsay3tXv/RR9m6265tnjwMZMzCUnRBw8RppnRqaefND0bE+FPsdc8ryH/F6TMtmBHrFK6T5mFUuFMeJwQ4ps3q66E1S5C4ZlqAu5F+Smy+LZBXo6JlfrmlieWPxT7i9tqGXlBI1tTKXO3YXsuYt5JT6LndRJ1703KOlq74rZEOiOPlI39AE9M5+dG+tTEWqsOSaW8SSeu/uWphru48lZ/9C8WlQXSa2au4Z5xnHlG2GDMP2ddWwYqF07d9nmWzTxVldXK15tujG3QvJ0H1JvZjmWgek+UaatRsOinbX7VBH9MVqlhP5phegVAJ9ohD6eE15311WDtijz2KJ1aomnEmV9SGl4HQUJQCemnGK2Gera+l7m6P2dJlRooPonvo9ED1hQKt37kFi4eMgQIVytEt0PiTWJPyemlSSYe48iAqHNQtskPkeKEn9l3x/9Iv7MDIGPtfuDjUQ5fW7BrweTwdY7Q41kZWT2VkY02LjHhzuxMhyfTj8+tHm83QlF26vNOTmg6mAlPVcWLyhSg1+pUqFrok2qZ37jBzVyoK5LZk7NlaKCsTVB3E+tkrwCT1y4xp4G+gs82aphlt/ou3gfGKGMeyHRTRtCh4jljUVDmCtOGUHoYRDQltqljADieTpQfX2dfPd735Wbb75ZKisrZdObb0q56iwpnVQqR/fs1iN+XXYM+vARVX6mioem6qme3/72t2YNkuPHHDuub6jXMSdTKsqnSHVNtdSpfpWZM2eZ38lXP1anUDPjhuIP9HmkI5xk4N6cAaMP4RlP/Lqf9aE7jN1YtFgYAsX9usPEXsf+hkSOD8NJil4MSghKxO72iaZ1ovehjFqGeLr4qMYjLXok09gtnrGMEKPROJw7b1cRV52KS1GE0xY/016Qr7qo81GxrNxj/Az7iRbR4w0vAujgx1pfbXObzCjLkw79KFGxW6Tn4tHFf5yzNo81PLPG0AfiPscFd4/BIhBDcLChxypcWF7oEQHHugD26lt1FnO0Xo+D6qJktip7qalPkerGTu1PLaJ7ulTczlrt+Kjn8OA7Uesa6tXTmoEm8IYfUiwkL2lqphipAsssgVngPeFhANBu+sorr9h7CO3efXtNzXjQIIpxvyPKIBB2duVsOXDggIWtra2xeJqM1Oj9+eedb4YBoUWVGu6qq9RIVEHPaSjCDdXFiK7WMV5du8TvqSSqlWPHHGO1j6UfM/ecpowQZpp1bUpSVANsl0pXM3QZFmaJdFFv0KX0MUNx6lS/LqWb0EbbZKjJtaqEIk3VMXeyfKuSKOqlJi81TIakq1+sGMoY6E07aVnmMd/YyxBiqLVOHr53LePhNBtq1Ucs9Yt7H60+Kr/85X/J17/2NVNX+9BDD8kCtbT1pNrs5hz8xRdfJBvVMNNtar1x0qTJ8cr1kaR7jToCja0dsmHbEVOp++kLVINgS6da8zsixXkZ8pFV049vK2vzeMPTL+K3kZtRr4NnOHoIBBEy1+C4syf9s+9Ii6rqVs1xOsB16SiIHQsMtK2cmxcP3hMvxPfreEMgtCHXcE8dwnPUL7FuIYwSNe0b6PrA0BLWG6fPmC452TnygRr8u+KKK2XRGWfI/ffdp8b+zrZliKefftr0ksybN0/2fPihpCknesP1N8jrr70mb7/9tqlOJ726uvoYQe1VtsRyDPZZy9tN/7iPx1M/JAh2xFCJJN5MolmPv2VqjkzJzZDN1a3SoMqQzisrliMt7fLI4TZp0rAwB1NUtdGVM/LkwYNtkqNLUFfOLJCHDrZInSbI+/PVBPTqshKp16W6Rw80ydUatiwzVf6g97taI1ILzdcsSmqc7sJZGbsLyothdKQbfrFbrEn26+CwOuFw1AEahnKuVbPPmPO8Rq8XXHChShbauzmxfhPzl6OOAKp251XkS6Ze87PTVMVuPoyvO0dgSAgwUGXpIDazXA3OTMuVeTNy9Jojhdk6Q2JfirsJj0AgHdAB+2mf4GqMos6AEx2bQM866yzdTzDN9h/AWM6eXSmvvvqq3PmLXxihf00ZgPvvv9/0n7B/4b333tP9OmwKTjNlacSpnDMnZu1Uac8kXaawfSOJmQ3zM4ScPt+h9Wvjp1KOYmVaOrJy5Y9K+M+bXiLTiwpUZXKLzClVleXZGdKM9kQN+/G5ZbJiWpnk6hnBm/R+5bQSQbdCs6aHoadpxYXy+yo1yJaXIzfNKZMMtcuwqSlVLtdwMFboX+CHBAOLkmPlaG9bYqAA3TQj3MTLFR4Jw0a1Y1oBhE+IRegAx7mEeKF6IZ3wTLxEP3+OoRkwOlE8SKU7Db3BKM9dL+40EdjU4h5zz8ctYYVIerV38Wfuw6sTLdNEiQ+2o4lByCu06Yg9xxNmPAptRZ488Irxv6zgmEybuk06Uj9QS3cdkps2VftJhb7rse0R7VOkM1B5ySKECfn6M6j0tMOJ4nEiaUQbv/u7DwWwUoktJ3Cqhk2aONbqIdp2yifeiOWTy+X66663vQqf//zttmkR2oEdEiQEbHaeNXuWGSlrqG8QDP5xSgb16/m6v4GTM+xzKLqiSPKUgGJ0jf0Kc+bMsefQz060z4ROh00FnKUXEtNrX+aed6lBpQ+2VslfzimWnQ3t8qsdR+T6KflSoPuMSo61y6qsNjnYmS6/2Fkrtyuz06oE/o4ddfKFVF1q0O9nabqqfVcsf7X9kKwpUJXqKaqSXl8c1iXgd2ubZUmxqsTX9yY10CtsN0yC8V6RslmBQ5n1Gl6FZjqh50jknnbXUwy2FtMtZglZ91wLVZUum0WefPJJef/99213KSWCQYDbwbXrPZwkLjGpkK+95H24iVwT/fw5Ak4fmA2ED7FDGFqF/QZLZxWbZccPjzZrj4p3oRCICFGX6K/PfXhFY5x276n8RMPE6pTY1lQSP/01t6r9jJpMXXMt02+/Q0Wqao77aJuUF6pBrIAHN3EXuTUffw7IxK4jjQe5DDWP+MjQXcDE+LyAGRhoFs+pm5LSEksnXWfenHIIDmYgOFSMB5edky1FukEx6jJ1kyJu2vRp9ou+4z6xfEN9RuWyuUhENu7bJFjJW9Tcc6pS6q/OKzZad9cHVXJdaY5sOlgr8/LTZVlFiTLNXfKmGmI6WKcm5VVMi2CtRaUK7D2A4Zg7uViydJI9WQ3UXahS3R+/u0/mlxXK1KwUmZTaaVKKNhVdwBikWUNoGsogxKhsrJi9/h5f9MSqDPnZ4NB0SZrtkTE9CJFeEfAKBcnSdaO//NKX5bnnn5N58+fJFZdfYZzihRdeZGpz2aBy40c/atbxLJlIWiENv44NAvAB7cqhwoFW6IHeuuZ2eX+/ruFpp8MFPuG40iW0YdJwx0V0j3GLQGSAjNaBtmeAWzI7XzcjpkpjS6G+1gFeXxzTzVolizpkuh5xLFarkNZtEvpONC2/HwcIRNovfPeBJvAcflCQ0GXGY7uHOsU6bcJYqNN4hkgMLEEkcW1K/Bfq5u45k4qkplHNPc8qkWo113y7EvoOlQT8eketbG1Uo3TKGGDVcX9Tuy0nsESwT++bNP6vdtVaRv901hTd5Jgit84rk8cOIDnIl4/o+PzA3kbNRzPWLGEKOA/CEkeYfFOOqKMthssFPCzNSLq6SVEhQK6R4IIP4oaZM2fYJsTuIOo3d+6c2KPes1vVXCTh7rB+M2YIsP9gslrt262mRFvaOszCWKNuqKmMW3QMbRwKGJ65hh/vgn8I59cJjADfcB/f8eSiLOHXr+sjXr/h/eUpjUDidw8RCT+kx4jCg0N5U3Rzq/knJoBnT5QQNXYNYft639+73qkM+SkkzTX8SCS2t0Jn8xBAddRtm5p7/toreyVDQcCXPQcFulcCnQmc4clR6QCuRSdld+jm8JhLid/rHh7LIFX+71sHTcIAlu0qMXhdjxBn6ZJKkzLcpB1gJU07SRFPiQtJBBe9D34ne7UiRhLRPQjq1V9Ofb2L+iW7j2Tit2ODQHZGmqzSTTD8cNm6Vvbxc2b2FCbadj2+vY69mneScJEofjtREKCtT7S9TzTeRMFuAtSjF31O0p7oPKivrzciShCYhUzVk4L+AlPkFceBPWrPPvusLFu2zJYYdu3aFdtDoCbhEx0WXVGmxJJD1CAb4ar0+CPHHSsrK1UHwjCrNowzAL36vFaKTYr8elxM9J+iU3s70KthIPB1uo7AVf+bf0/4cMcEXBkOAphDv4JKBuJcgJFffW7U2KSTuCmRkxQDLTGElIflSjkjZY0bazo+aS2Xu9MMgWibcx99Ps2g8Oo6Ao5AEgRYT+eIe9B9wDOq2BNF4R988IH84Q8PmhIlmIQ3VVkSCpDQgzB58iRVjjRVtry9xXTosKft+eefNwaCE3JZqoRqkx6fL9V8SHv3nj1SUTFl+BmESB2jYx51iulBiASI3kYGRxPLR9/1dR8J3+t11D96Hw9kmxQj/pHbXsmMzEO3uec+koedcXd6IRBtc+MkvQ+cXh3Aa+sIDIxAmorS7cRCfHhgj0q67kVDUVDUvfHGG3LRRRcKkoPZs2ebEqRHH33Ujizu2rVbJQZHZYqqVD7w6mumQ4cTDEggauvqpEElFGWqnO/VV19XJqHY1FtbntEMhuU+UuZ4+VH/xAT/VDD33KDSmVTEFsElYBy8R+p6vImoeE4R2EYqb0/3FEMg2ubcR59PsaJ6cRwBR+AURgBiv337dpMYfKjHGtGFUKeEv6m5SS6+5GLd4HpM7r77brlgzRp59913TVPiGao8acWKFbJhw8tSU1MjH/vYx0yK8M4776gOjgH2vwwDFmG8q8jLlBun58t/ba+WQ2osKfhzE1YkyM5m8xG/xOc+w8QTC+n0LD30pB38YFJm6TnDmytLJCOuvKa7LMNQ38EkkZRBsMoOJgUPM2EQiLY599HnCVNJr4gj4AicNAKdnR0mMUBqwB4EFBpF3ZYtW+Tsc86WNeevkR07d+pehGekpLjEjjHev/YBJbTHZHL5ZPnDAw/o8dlWWajaeUNaxcVFyljkmAKlVjV0Nle1K46M9CBa4p7xLl03XM4pVmVgBY1SrCrGR5soh1IhNyjRjeZH1OYJJyqQbIz2mJyUQQiF9Ksj4Ag4Ao6AIxAQwGgbipKCCXL2HrAfIWr6+uyzz9bndFsyWK7aFBfMn6/PqbaZ8dDBQ3ZEnv0IbE5kU2KeblyEyYARqKysND0LVVUH1T/XpBC8G0j3QijfyV6r1H7NWj2S2KkbIkuHeU/kUMuGFOFXO47Kskn5Mr8kd6jRTzp8UgZhrLimk66RJ3DCCETbnPvo8wkn6hEdAUdgQiEAIwBx78/1PomgugEiJxcw0hRceXl5uO3FYOCJaejgosxH8BvuaxjvWlQ6gt4CVSlnY+DIztvJNblcAKlKq4oSGjEXr+FCGYe77snSS8ogJIvg/o6AI+AIOAKOwERFAJ0HnEzgJIPS55gzGq4PYfMApBq/8J6H7jABmbhfNJHjwmhYO+uYEIeE7Xxk3Ox0eD3K1+QMglVklEvj2Y0tAtE25z76PLYl89wdAUfAERhRBKDHRu/1img/dsyxmwPQd2g1VK2Kqt8hQxUk6S4MPerQpvQ9RZ/VFoVe0b3YpsYLUV+LKWf2ERyLm4TO1CUXwqBHoUNNQJMYJp7hQro0HcxGZ2sY24uhYfivr0wfQ0wFE4mNKATHJZ6cQYjjgkKMdc+sU3XKN9p60csvv2xKMq6//npTfoElLgxwbN682Z7PPPNMueSSS+Txxx83M50Y3GA36nPPPSfbtm0zMdKiRYtsPenSyy6z4zGEZQ2Ls7XLly8386CUdIua+czS9SkAu/HGG01Mdc8999gOV8yCYk0SFdDz582XtWvXWpqT1dpXCHtcbU8zj+a2Ttm0q1o1KTbKx86ZYaqW171dJXPK8+UcVfN5nOv5FmJfSvT5uMDu4Qg4Ao7AxEGAibzRX65KvBPNPcMc5Kr55pvUmulz1Z1SoMcPL51RpOL/Tnn4YKvU6vt0ZQwwCT01O10eUvPNeapS+ZLyIqlSdcuYhG5R9cwFyol8fKYaedINiE9VYRtH5Aq1lbNX9z48fLhdGY+YMwGClsVUPoexOFxHCfZuxiRZfi26i3TjGxvNGldVVZUdXSkrK5Pf/va38uCDD6riiizTgIVyi09+8pPy2GOPybp16+Stt96S22+/XTi68t///d9y1VVXmX3wBQsWyIUXXmjHV+pqa00JBgo0OCf7+z/83kyBcn62tLTUGuvWW281xuGRRx6Rhx9+WBVsTJbPfvazxqw88cQTsvX9rXZPg/7Jn/yJbYqhXO6U01VVoNhfKCnIFLQq5qomxYrCbKmqYXXNnSPgCDgCjkBfCCBBQJU0xBl7CEgT0H54/cxiuWR2uWTohsvVU4vkYGuHzFRbCuW5WVKvRyKX6PhaVlQom5pT5YoZxfKROZPkqaOdUq6moRfpu3odk6ep3ZKqY1nyel2XXD6jRK5VTbcvKHdROalE5uoRy2DqOeSbqICqr/KOlN+ADAKKK/aoFqsf/ehHxhSg8eqKK66QI0eOqNTgLfmoGmrq0E0dWHu89957pbKyUg6oasxzzz3XiPz5558vTWq9ykx36vEV1HGyYQXtWD/72c/kpz/9qTEYWPi69JJL7fm2226TQgX5nXffsXyxHw4Dggauiy++WGBQeOacLZIHdr6SPptf8K+qOjBSeI2rdBFPpev5WTrY9qoG+fBIk2Smp5rfuKqIF9YRcAQcgVFEgGUA1B7DFPDjHr971KDS64eb1K9LqptaZKVacSxSaUFWR6ssT2+VeXmpJgl4Wydh0KVaPSa5LKdLpmenyuzsFDk7s00+rGuUh3cclNXFmbK1vt2WM96ubZIDaienMFuXLuL5hWtvlc+jCIJmNSCDAEMwZ84c+du//Vv5sz/7M6s0Iv/Vq1fLipXLTfyP0guOtdx0003yxS9+UaZPn26KLziagrpNgMLxzI/4LEt8+ctflr/6q78ygo//WXocZvHixbp7dYq0trTK0iVLBWaBHbMwAjAWKNWgTCjPYAcs8bpUrINfm67rvPfeexo+3/LzP7GVguaWTtm8u1re21dn61m2sOXgOAKOgCPgCPSJAJMq5QFMgoAUAWkCvwY1esdOA9bmF5fkyx1b9subuoS7emqpnD9riuRzZFNZiTJpt7H21X3VcrhFJbkqXchQZU+rZ1bIgoJs+friMtle1ywP7jps6Rbr0kWBxqtXhiLkFcs3ZtGxz0KOgmfyPQjxzJEgTJs2TbDWBaEOR1Qg8DntOUbsJ6lKTCQAhMMhNWB2/53vfMdmrywTwBSUqqKMvPx8u5+qKjZZniB97mEi+HFP2Fy1Hz5NGY0ZM2bYnoIXXnjBpBW//vWvbT8DkohbbrnF9jrk5+WbdOE//uM/jJH40z/903jpT++LSslsg2yZWnS86IxyYU/CW7trpEE7vDtHwBFwBE4EARQjsZ8MHQZIbuerjgM0H+LPEjCTORzGlzDsxEQu+EXzQ48ChHj37t02zicenUTyzLI2dAVaQX74QSOi6bEMznOYiEbzONF75QVMaoCNSlyXLXjH9igc0gkXSwUvHmySj+regVQ99vmrHTXyjlp7LNV9BV+aVyI3zymVh/eroiWlY0uKUqVKzyrevatGdjZ3yMcq8qRClyVU64NcrxsfXlJru59dMEnqulLkndoW3YOgmet/8ibfsRyuVaHV8dnTqDQEjY0jCEQ78d48Et53+2nFGhsajanoq+GSpZnMH0kBZ2F5T/nyldHAhfC85xftOKEsp+u1XkVWL7x3SPYfbZbbLqqUWt0o8+im/WYC+roVMWYuYIPlNTak5miHzs7JVglOiy4DNZre9BDGrxMbAfoA3xYKaZDW0R/4piACo3EOfWKjOz5qhzT28KHDUlRUZEQ5lBpiTn/An37yj//4j9Y3WGpmUzq0gjGZTeaELSwsMJXJr732mlx33XUmGaZfQeRhBFC7/Itf/EKuvPJKkzYThrGHuOw/Y+L4/vvvyy9/+UvbW8bGdva17d+/35aZm5ubLT/SY4/b5z73ObPdUKuMyiQ1BAWBDXSM/puXH+vPTCZDX0bqTPlZsoZGHTx40Ma7fTpO/t0LO2WfajBUwhcg6L7ihSZInexLke7talPGqA0aiWxBryzrZmt69WrpUVOQQg3ToPexlDSU3ujeRVWfnGrSgkZlNgoz0qVZvzVOQcTkvt3Z2RL+Ty+cLcsmFyhNbTD82dAfaHJPyJO7a1bssnXin6LlCm5ACQIBowWJ3odE+vRTOAIRD+Gi12icwdyHRiVsNN0Ql/chTDSf0/k+LytdLlpULo0tHXpaJFWKdQPM1WdNlcIcPVrjzhFwBByBE0AAIggxD5Lhu+66S2p1wzkbzdlIjhVGCDwWHCHyW7duNcYBSQL7yYgPwd+wYYMRZ4j0xo0bZZ1ubj98+LAxBDAdjOfsZ2P/28yZM00dMxPXO+64Q3bs2GGmoUOac+bMMQYCqQX5ItGmXDC6MBycpGOjO8vaQQreX9V7zD1DsBNc3AtCX6MnGIxhsCCxF20qfmhRYh/8a1RyG+6Nc9FgpN/GrgZNg3e1qghJ+Yq4i2cQfyLs6KtIimXewyqEsvl1wiDAmdt83UBTUZwtadr72KA4Re9zs9ImTB29Io6AIzB2CMAIQMiZ0SNh4J4lZ2b2EGtOsX3lK1+xJWBOlzFTZ2aPpHfJkiVyzjnn2IyYY/AcXf/f3/jfxkwgbWDJguUETsMhWYB5IA8miEi2kEKwBM3+N6bnLHt/4xvfkJ1q+2GbLnGT3je/+U0rE1IG0oKxGYwL5p45vdDfD2aHPQOJYaL+0fsQjhMK4ZQCfoQJ7xKv7PHr5h0GU/hhDDMoCcIw5udJOQKOgCPgCIxjBJDawhDceeedJjng5BjLDq1trSYhYAkB4s6PTeWcPmMWzyZ09hRA4CHsL730knDEnbSQKCB54Pmyyy4zHTfEJy+YCq4QUZYFeIYJQTqxcuVK28MA8SefH/7wh7YkVqxLISyTsneBMPhzPD5xn0NfzXAqmXs2RUuKw1hN6ZxB6KuHuJ8j4Ag4Ao5AnwhgZ4HTahB7Zu1YYmQ2DwG/+qqrTXqQlZ1lR9rZY4DpZxgA9i/ABCAdIA7LA0gcYDBmzZpl1h9ra2rlzGVndjMRn2Nvge4R+PO/+PNuk8/Eh/FgMzpLCSwvEObyyy+3I/ksMeCQVCDhQPKAH0sgPA/kynUp9oapebbx8IiePsCFpWxbIuhOIMzrw5JA4rPFjIdOFibEIVjvMEgx0pUx+sS0PJldlG1aGOOJjdplYLRGrSiekSPgCDgCjsCpjgAzeAg+v+CiM3OIdjKHfpzg0LobdWcu7f3M/oGQFsxF1EX3ESAhCI5lheBgGmBOKC/LFJx8G4xDCdLCsjxZoPoOSnT/QI/9hcHEHr4wx3SDQpZuAjhTLTlm6ybGsXBjk+tY1NTzdAQcAUfAETitEGBp4/Of//yQ6nxQVR7fh7lnlZSUxbcs9Bx3JKnYTD/RL/GZkIl+Pc+90yBsOEoZDYP84p49dbJ6SpHMK+7fgiZpDLdzBmG4EfX0HAFHwBFwBMYtAhw3bOo8dcw9N+kxBhQ0BcZkNIF1BmE00fa8HAFHwBFwBE5pBNgVoMv/Scw9R4qOEKB7C4E+mFBAPaJ+Fjx49BWGAOE999Ew3OspCf1FQxBqtJwzCKOFtOfjCDgCjoAjMC4Q0JOFduzQlBRoiSHQqFhuUX0F0qU6EM28c6qe3mizIInmntmwmaEbIvUchpp7Vo2RutkwMQwmoYO55w5NRzdLdJt7hlGgDOTLVbcijIkbkEFoV1vWu3busp2ibPbgKAmbR9g0ghEn7CZwphVAsIPA2Ve0afHMMRSOqpRNKpPK2ZV2v2XLFtPSeJaGydYjKMFhRwGlGCjE4NgLO1DRzkV8VHFyrhbtUWxaQbEGu2ejmrnYqcouVfIlHcrI2VnOvaKKE+1aDfUNdkyGozJsYCEsabErF9XQPOPPERz8Wb9Cs1XVgSo7Q8uO2/HkOE97tL5Vjuqa2tyKAmlXbV571GDTpIIsKdOfO0fAEXAEHIHjEYAWJJp7Rt/B1WWZsiA/U5473CxHVOx/9WzV6KubCR+uapUj+j5N6dXNU7KlQvXP/PFAs2pITJE1ZYVqi6FTHjnYpuqURfLUjvOt03P1Xao8fbDF9h5cObNIPtRx+tEjHceZe0ZfAgqVxsKl/ZO6xIw508oPIlt9tNq0T0H0IZ5f//rXjXBzRIV7/Dii8tDDD8mG9RssKSw7QoS5snMUDVak9cKLL8jbb79tBPuJxx+386kQeZReoFUL2w1Ya/zwww/l6aeftvcwCz/5yU8sDGdkOU7DURmzBaHE/ze/+Y0R9n/91381A1IcR0E5BmdtOWdL2qSLiWkMPBEXrV3swCVt4sOEPPXUU1bGZ555xow+UZ7ZlbONOfq3f/s3O5YTVE8n4nWqPjeoBsX1W4/Itqp6Wap2yxvUNOmLqnr5YG2rLJxW2KvYYACTRnuk647ZTm2/trb2QZ0b7pWQP4xbBOgDfPcwwjD99AcGSs6SMzlwN/ERYEKEtkImTdEjgYyj9Af8x9tEKVmr0d+hAZzAgG4wKeUes82Pf1gnTUrwdfKuBFztMuifWTnpcpmaZ15f2yHnlxfIGXr0sLqlzRiJ/aqWeV9rp6xURXRnqErk9xuPycpJOWqLIUteONomqzR8gx6IeF/tNRCPieuupk45f0qBLC7Nk5dqOmRleZEcbm5Xuw0aUDMmX/38VNVyp1yn43dFXpa0axtQbuL3HL1MVsOh+XfoRDpdv/VougN+9RQGYxmbN282ws2AQeFQmXnFFVeYPzP11159Tb70pS+Z+k0sMJIJYCNpIDw6tJFEfPWrXzUjSzAWEGsczASMw1VXXSUYZYJIRV1ICz/y5xd1PKM4A13dSDXo2KFzM7BRhrVr10ajHHdPWWE6uFIeXKfOuDlve9FFFwk6xcejy85MlcrJeaZFEdXL81SSoAoV3TkCjoAj4AgkQQCrCJh4Dj/sLRRlqk4FJd6bjjbpjP6YzFZmYIYaXZpdnCdlqZ2yJEXNPeekyp6GDtlU3SQ5aenyq+3VIi3NkqmabGvVPDQmoffUNcrabVWyvDBdtmtYGIE3qxtlv9rOKYqYew55o2p5rNyApKJTgUGpBbq2n332WVm1apVxXejNRgzPrB5d2xDkwFlCYFmagCODsKIec82aNd2El8oSnnAQdxRuEI5lBGbwDWqQIhB4wsIgMIuBCWC5AaYlzGhIg/dYFIMJeeONN4TztYHIEw7rkijueOyxx4z5IH4ob4iPZAImiCUS1H/CLXOGdv369bZk8frrr1v5KM94ctqP5WBNi/z6uR2y9uXduobGud4xkleNJ+C8rI6AI3DaIgBdUjKhv5gqZb1InU4YM3XfAKaZOYpYr1KD+7cflp31LbJyaolcMqdC7d3kSN6xDilWc88tGuncgjT5k7ml8ut3D6jlBV1umD3FzD1/7YxS2a3Lv7/fecjyKIybe25QC1BR89KUgSWGsXIDLjHUK+F8XxkAlhQgoKtXr7aZek5ujvzZZ//M/CGelZWVJtKHqD700ENSXlFuBB1pAiJ9AIcYkwaEHHH/xz/+cSP0jz76qOnlvvbaa82i1q5du2yvA2ItmIsPPvjAljUg2vxQq4nubpgW0lqxYoWFR/zF8gQMDUwAZUGhBgwH0on777/fGAnARnqxU3V2I0SaMX2GSTluvvlmY3aIR74NjQ3dhj5gQigX+sPHi2tVK2H7apolR20vXLy4Qmao8o96NTfaomtn86f6EsN4acfRKiffjC8xjBbap2Y+g1liYNKF1JhfWI7GL0VnyfyLOvoUP8ZPfqeSo1zJlhj+uKdW6mzqztZEJP7HpFqlB0uLs+SSilzZWN2qkoQWuXZqvhRkZshvdtbI7/c1mLnmCybnyjn6e/FQs1wwrVjyVGRbmZchb9W2ya/21ssCXSq4SJcq0pTZwNLjrqYuuXF6gbSlpMnj++uNsUCqwBZFnc4Zfh/VPQpjscQwoLnnFu0E+/buNUKJzW9MZ+7VZwgvPzoImxFZ02e2DdFmxk6HYS2L5QnisXGQWf6LL75ojYJGLTYBduqO0O3bttvGQAg8UgmIPkQaZiCo42RzJPsKkGCQNvsLkFAw28cfU51cyRNpAwwJ9ywv0AnYTEm6SDnYD/HS+pdsV2nQI07YKVOnSF1tndWPZRFMn5aVltk+ChgG8qAO48Vh3vmlrYd0qaRLblg13ZiD9frcpgtqHz17Rq9q0I7UkXq7uede0Jw2D/QBvimW+PhG6A8w6W7u+bTpAjbmDWTumfGUjd/GFCjRh9Di2G8WlofpOxhIYnLGmII1RWgBcXBsVm9ubtK7FDMFzdLuaDsmrNAblrspV6K5573tuukwzvDAJCBFoPgFSvBrVRKrw6oUK4FnKaAVJgiCrvdZyijlqD3nWh1nMzUCywup+mtRCQQbH9MUM927qBZ2UywNzEKXajqNqnuBI41gggOpTr1lP9hYmXsekEGwkvqfcYlAq3bi95Uj3aMqQ69YViGNuknx5a2HZZaq7lyqHGnUOYMQReP0vHcG4fRs92itmRQNxCAwcWMSFl0GhrGM+rFsjMQWs83Tp0+3yR4TSJZyFyxYIH/4wx9s0sZEkM3fSI+Z1L3yyivmT5zndT/aQg27atVK3Rw5OCuM0boMdN8fg/C3z++UfbqEEKfVvZKCUUAYAhmP3kcDBf9UDQv7ZCTf/sRCsfSLC6cTjPmIvI+9jf1lk+LPL6qUsybnS6MyXHynnOgbbolMs07ks3UfXkqciSP3AY85Rgvq9+MLgSzlSpfNKrYfJc/W5+tXTh9flfDSOgKOwCmFAIQJYs6/sKSQSKyQ1CI1vu+++0xCEGwksKyLQ5qAdBjpApJkNr1zTB5/9rchnYaA85yRkWlxRvNPMPfcF4NAOWyiHy9Q9D5aRvxjspUQMPr2eL9kmxHd3HMfuLmXI+AIOAKOwKmJAAxBYA76KiFLUxx/v/76623PGEfeEeHjiBvbJJ5qYRDxs8+MmTHLWXPmzDEGhGVhNqaHze995TMSfibaV+LertN6Y3xsZh+f8vfiGBL9Ep8pXaJfsmfCBhFCTxjsMziDADbuHAFHwBFwBE55BCCaYYMi9+xBgCEwYhovPXo0UHrHsgMOQo/0gKPkSAdY+29oaJSpKiGAKaisrLSlCI67sx8BpXdcR5s5oKwVau75mil58tudtXJENxpAtgPp5v1oOTYocuD/42p62s09jxbqno8j4Ag4Ao7ACSPAZnJm+ywz4NjgByOQqmaSg2ON/Oqrrw6Ppl132bJlFrbbs4+bsMG9j1ej5pWhyyPLJuXJ60cb5VCLLhKMBXegtWV5Ils3K6wqz5dcVV43Fm5sch2LmnqejoAj4Ag4AieNAJICJARDdeEEQ3/xBhOmv/jD8e5QU6vcu6tOOrNyZHJ24A+iXELPEkBPfvgNJUyyNEgxpHPMjjn+bnedrKhwc889WPudI+AIOAKOgCMwBgg06bJCoy6ZNJs6pLDTIhD0aIES/RKfCZvoN9Bz7zjKi6mK5nFg7jmcdY3C4/ejgwAce3R9b3Ry9VwcAUfAETgeAWgBxxrZdxBctp5GyFKpQhinCMMpBOy6pKak2j3vkBCEMCEuyxVsWkz0D+9H+8r83U4g6B8IdLeDtuuzve/2DM9xwq/nFolDmF4nGCx8YA54GwtzfLiEMPrIUk4shkUb1T8DLjHQCbCUSGO7GxsE+KhQAsVmHneOgCPgCIwlAihBMuIfJ+owA2jcTYsoSkK/wb//+78L2mnZe/CDH/xAzjrrLDlfVe7nKjOBe+311/Q+1zTzXn755baRcSzrFc3bGAQ7xdDjC8FvC+ae1c4Cey7a1aAdDEEvU84a5phikq4Kx4jTpQyQckm9TDlDTcEwMz3NlCV1dqi5Z937kJ2qqpmMKwmMgipK0tue3R095RmNuwEZBBRbsN403iwZjgZ4o5UHikn4KNkcFDSVnUzedL2x4khPptwe1xFwBMYeAWb7aNqMKkpCE21UAsDEkjEL3QacXNi1e5cdX/yjWvZFHT72cl5++WWjKxjY2759u8ydO9c05aIsifSw34NKfTZAopYfTY2j5dCDoIoUBYVGjJUoNEpVvxsmZcoMVZu86agaXVJruVfOwtyzyMNqtrlauYFUZQw+NjlTpqjlx0fV3HO2aku8VNUo71ettk8cbZc2Ta1TE5ukthou1pMSfzzcJguyj8lFkwrN3PPj1Zh7jrED5E2+Y2nueUAGAe6QznAqbB4Zrc5xquXDhwhjQFsMxTWp5sQ3dhyVnYca5eZzZymXq51T2dEte2vlzZ3Vcst5s6Qgt7flzKGk72EdAUfg9EMARiBRUVIiCsyOUb+P6n1s8VTOrjRLuyhGgtg/9dRTRvCxbcNyxZVXXmkMQ7C6y6QI5gBJxKc+9SljMhLzGMlnNBtiqCnMpLiflpOh5SiQF480ybWzSqW5rVOq6hslDdXKOkbvVibg/JJsmVaWL1vr2uTymdkyKTtDHttXLxdXFMsZHXWyvqZN8pTy37ZgklmBfPLofrmhcpI8uK9OrlaDT7s0zGaN2z2Bg0lAnDFGbqwkF2NU3dMr23ZlBppU3fKU0hxVs6wc7JsH5EBti0xWe+Rpqk+8Ebvj7hwBR8ARGCICMAn8S+aQIDDjZ1KDtd+S0hKTgLLfAKYBfwgfUgb2KXAsEkk1kyEkDuhQQNMi8VhaHe0JaqK5Z0bKPWro7sfvVsl8nfHvb+qQ0hzV9VASM/dcnNIhC6VF5sTNPW9UJiJDlyCadQyek94hkzPUKKCacl6U0ix5ejbhlzvrZXudGrtSxqNObTDM0zBTM1PN8BN+wdQzV5YYxsoNKEEYq4J5viePgK2N6f4FJAlPvlUlT719QG0z1MnFZ5Sb2mVb6jr5bDwFR8AROI0QwPAQBpvChsNA7KNLDBD5xUsWq0GidAsLxYM3jwAAQABJREFU8Wcf1e7du83ewtlnn23MAMqTFi1cZFJqJA4XXXSRYB0YxoFnVC0jdRhtB/NiAlvk/OZQCNUhX9AlhfzMdPnF1ir56rLp8sAHR+Tcinw5d1qJ7jsoUkzSpLa5VfKPtZudhvUfHpVStaaLOoU8XSq5cu40WX+wUbY0tBp7hcGnVzTMJF2SaNEM69TSLssbKawt2AkINeikz2PlTphBAEA4Q9RnskZEYx46dMi4QFRnButcGP/Ys3tPXKf28eJsOhfrT2jOQmsWliKJSxrD5eBmsQbJPgrW8U8nR2fLy06XlWqTPFOlBmeqkaY87eAwCu4cAUfAERgqAhhOysjoNClAiMvYHZ3lIz1YUbwivO6+YpOBDYnBLV26NNwKTAMOWjDWjtUFZu965sKK0qZ0alF+pqyeUSYHa3XJdkaRvHKoSW6qLDYz13fuqJF36tulPDNNvjS/RP50bpk8WtUkJXk5siA/RQ61dsldu2qkShkArDsW6t6EoyrBbVVrxmXKTC3ISZHdjR2yRSW8MASpcebAVC2PHX9wYsaaYA4wncwPc8tsOoGwIzqaOnWqbTDhGZOg6OPGoZoTfdt0Iix1ERdxE6IkGIsZeuVdMPOMiWjis/+BNSrC4cemSdR2wlXCjSKGgptlzYq8OHFBGMpBnqj0RLUnjjDEofykh8Ux0iY99H5POKcdi77FGll5YbZcv2KaMQlV2gnZejuG/W7CQe0VcgROJwRgCMZCDfJoYQyNgFCnxQdJ1uK3KQH/2oa9kqlLBxDu6rZOefFwup5C6JImXSbI1XEWM9Dff/+o5GmYamUG2MTwrEoQ8IfhyEJsq2mi2+AnH+jpQJUg/G5XrUzSMDUaBnPRxGFJAybBzD2bn3qMgTthCQKEHCLMbH/hwoVGjN944w0j9hBsmAaIMLtYIfwQbtaXmMFj5Qs74YiR2MwS3ZmfqgBCyIk/Y8YMk1IgZtq2bZsRfpgAJA5ILdjpSidFOoD4ijJB8BFvwRiQBvkh3oJpIN9Qhs2bN3czHjAuMAm8m0guRTtsh7LCu9Tk89nzyiRHuds27ZH7qpvlkDIJmcrFunMEHAFHwBHojQDr/kr3pat7iUHfK6FugX7rGAqdZ/Q8qsu3tpHPhlJeirQos4CypViYY1Klpx1CePY2mNNLVHHAAQ2jw3XcxcLYDjG9pSxjpQnhhCkiM3tm4HBaEGgIchAx4Yc4H0kBUgWemc0jXmLDCQQ+rGEh/ud9cIjEeWbTCowB4ZAA7NS1KpgR/IJeBpgF0iVfGIQQj7JUV1cbg8F9YE5gPGBqkD6wNFJUVKRMzAwLGy1DKMt4v+Znpcslut+gGbGWLi/g0pUpWDy9UObpulmRn2AY703s5XcERh0BJL/1DfXS2RHb5MzYydjML9AACtWkY/denaQxlrPkwOSNsIzVTMYYu9s79Ohfa5tN6k6lCRrl7GSdoZto94ZZX3e7QMi7PeI30TDR+8Rw4TnZZsRxZ82RzShhaeD55583jVqLFy82oksHYdYeNqxAjPFDhM+eBWb8dBAYA/yRHvCzdtA/hCcMexdIg7QIhz8SgA0bNhiTQaejQ3GFAUAiASPBPfFycnPMjz0OMDPkQQeG0SD9OXPm2Ht6AP6hvKGxJsIVrhWpAb/gkNDkKeOQlxV8/OoIOAKOwOARMMmtbsbLzouN84yxLAcj1WWsxjUoA/Gb3/zWxl3GZDYfMsa+8847gkEmJotvvf2WHDp4yOKtXr3aroRhrCZNJnRIfxmvR9NRgw5lAGLmnvUhCZMwGmVSIcb4NPcMcT733HO7OwYNy36AqMMPhRg47pm944hL43PFHxeuCxYssOfgB+PBO4g8HZNnGAwcXB7v6HAwHHQsNriYhirtWLwnHzpuCMuyBffkHfzYKBPyt4T9jyPgCDgCjkCfCDDOhiOJIQDjZ3QM7UTMruM14y26DpDWMjlD6nz//fdLaWmpSYOJ39LSLI8++qjpSYDRuO6664QlYCaExPvkJz9p4UNeI30tV3PPl6qVpt/tqZP66DrASGecJP1rtSyzC5X5itPKJMFGxPuElxhCaZjhBxftIH35QZSDo4P15RLTCM+ER2UnxD648A6uNXCuXEPavA/hQ9goNxr8wjWk61dHwBFwBByB5AgwueJfMl0IjLsoRNqyZYs88cQTdsqtXqW8TPQ+8YlPmFKkPR/ukYryCtt8DmNw6aWX2nL1+vXrbbL5mc98xuIy+RtNl6kSi/+xapZ8bE6DNNlGw9HMvScvVjEylZ7NLcuT3Ky+6WVP6JG566HYI5P+sKUKEY8yI8OWsCfkCDgCjoAjMGgEYA4SXaIfJ9MefPBBm9SxH40N6RB6rhs3bTRJQo4el4TJYDmBiR1MBVekC+wd26CqmMMetsT8Rvo5U5U3nVE+eqqdR7o+J5r+oBiExMY/0cw83okjQBu4pOPE8fOYjoAjMDwIIAlmxp/SSnooEIoReE5NBccetWuuuUbefPNN22/AUjPMAQSf02WrVq2yJWeYBjaiM76xh4xN7CwRb9q0Sfbq5nfGvCAdDmn7dfQQGJBBYL0f/QOs5TuBGr2GCTnx4QQRW3SJJrz3qyPgCDgCo4kAM/2MTFV6FxEkwBwkLjdw/J1fcGGPGsxBMof0AIYBxiJDGREMNnFs3d3YIDAgg0BnQKshR1LcjT4CMAi0AT9n0EYff8/REXAEjkcgNUX3+vcIDI4PcBI+nFjDTLS7sUdgQAaBIjJz9dnr2DeWl8ARcAQcAUfAERgtBGKHVkcrN8/HEXAEHAFHwBFwBMYFAs4gjItm8kI6Ao6AI+AIOAKji4AzCKOLt+fmCDgCjoAj4AiMCwScQRgXzeSFdAQcAUfAEXAERhcBZxBGF2/PzRFwBBwBR8ARGBcIOIMwLprJC+kIOAKOgCPgCIwuAkkZBD9zP7oNcSrk5m1+KrTCGJaBc+0JBmHoE94vxrBNRjlr9Bska+9k/qNcxGHLbjzWZ7TL3KceBAwa1dXVmfbEYWsNT+iURgB1qTgzfa0aUFQ/kzQ0NpiCrNHulKc0UBO4cGjs5NsvLu7RQY96XH6u7nYCN3ykaowD/AoStBfS/mg45DdR+gIqnYPxPsY4nrEgeSrXD4WFJSUlkRYb2dsU1dQXUZjZkxlgJXnVE8jvJhQCfBjhg6HtIRjeByZUEw9YGfpAaprOImESMaSjZnsD8zhgZA8wIRCI9oFohegHnV1qWbFPihENOX7uGe8CQ2D10zHvVHYwMpR5JCZtzWpSIVsZwxQdA4LrU4LAS9ecGCA6Pa90QO8Dp2fbh1rDJDAYBaYx+Pv19ETAGIcI8ZhoKEz0+p1Ie/WwCicS2+M4Ao6AI+AIOAKOwIREwBmECdmsXilHwBFwBBwBR+DkEHAG4eTw89iOgCPgCDgCjsCERMAZhAnZrF4pR8ARcAQcAUfg5BBwBuHk8PPYjoAj4Ag4Ao7AhETAGYQJ2axeKUfAEXAEHAFH4OQQcAbh5PDz2I6AI+AIOAKOwIREwBmECdmsXilHwBFwBBwBR+DkEHAG4eTw89iOgCPgCDgCjsCERMAZhAnZrF4pR8ARcAQcAUfg5BBwBuHk8PPYjoAj4Ag4Ao7AhETAGYQJ2axeKUfAEXAEHAFH4OQQcAbh5PDz2I6AI+AIOAKOwIREoF8GAVO/r7zyinzta1+Tv//7v5ctW7aMCAiY2fzwww9l06ZNlj7PH3zwgdx7333dzzt37pRvfvObsnv37u4yYJv8v/7rv2TXrl3dftjLfuyxx6zc3Z5+4wg4Ao6AI+AIOAJDQiCpuWdSqa6plu985zvy5b/8S9m7b58R3RkzZsjvfvc7s0d9yy23yIYNG2SfvsvLy5OOjg4pLS2VJUuWyHPPPSdNTU0ybdo02bt3r9xwww1SW1sr655ZJ5dcfImFX79+vdTX18uaNWvkPmUGSOfb3/62ZGdny1tvvdVdkfb2dnnyySflqaeeklmzZsntt98ur776qhB/48aNkpuba0zCqlWrLFxbW5vk5+fL66+/Ls8//7ycffbZMnfuXHnkkUeE8l9xxRVuwrYbXb9xBBwBR8ARcASORyApg3BMjknVgSrJyMiQyy6/3GJ2dnbK97//fSP0OTk58sMf/lCY2S9ZvFgeeOABufrqq+XRRx+Vj33sY/Lggw8KBBtGYf78+fKzn/3MGIWS0hL53ve+J5drmk888YSsXLlS7rnnHpk8ebLACGRmZgoSBCQFpIdDUvDSSy/Jpz71KVm/Yb0R+J/+9Kdy1VVX2fuUlBS56667jMF48803ZUpFhezfv1+2bt0qF154obz//vuybt06SxOGoaioSM4991yL638cAUfAEXAEHAFH4HgEki4xpEiKTJo8yYjza6+9JnfffbcR+ZqaGlm4cKEsWrRIDh8+bLP9Sy69VKZPny6XXHqJwDgg5ocpgEFYsGCBrFy1UoiHtKCstEwqKyuNCVi6dKmcv+Z8kzxMmjRJSkpKJCsry+IjbUBagFQCScCePXtk27ZtcrDqoBF7GBckFUgbZlfONsnAz3/+c7nhIzdIalqatLS0WB7Lly+XsrIyOXLkiEka5syZY0zI8VC4jyPgCDgCjoAj4AgEBJJKEAgwqWyS/PVf/7X8+Mc/NknCV77yFUlPT5cf/OAHJqL/4he/KI8//rgxBTAE2VnZxhBU6Aye5YXCwkIj8sVFxbJ69WoL9+KLLwpEG0KdpoQ8LzfPxP8sAbz88svGdMBgzJ4925YhWvSe/Qlf/epX5brrrpOnn37aJAIXXHCB3HHHHSZ5YFmDJQzirVixQg7sP2B5s7yBxIO8b/3krbL2/rXGUMB4uHMEHAFHwBFwBByB5Aik6EbEY8lfx94QBDH+cDiWKWAM+nIhH5YYcKmpSQUc9j6Et4ckf6L5DSZ8kmTc2xFwBBwBR8ARmLAINKuUP1sn9SkRutuvBCEgMVzMAeklYw54F/IZiDEgLC6Ejz31/Tea32DC952K+zoCjoAj4Ag4AqcXAv1P0U8vLLy2joAj4Ag4Ao6AIxBHYEAJAmJ5d46AI+AIOAKOgCMwfhE4EQl6UgaBUwQNDQ3jFw0vuSPgCDgCjoAj4AgYAjAIpapmIDs7Z9CI9MkgoGiosbFRysvLB9woOOicPKAj4Ag4Ao6AI+AIjAkCnPKrrq6RKVOzVYnB4A4d9MkgcIoA/QLoGnDnCDgCjoAj4Ag4AuMbATQO26oAuwYGxx+Ib1Ic323upXcEHAFHwBFwBEYEAWcQRgRWT9QRcAQcAUfAERjfCDiDML7bz0vvCDgCjoAj4AiMCALOIIwIrJ6oI+AIOAKOgCMwvhFwBmF8t5+X3hFwBBwBR8ARGBEEnEEYEVg9UUfAEXAEHAFHYHwj4AzC+G4/L70j4Ag4Ao6AIzAiCDiDMCKweqKOgCPgCDgCjsD4RsAZhPHdfl56R8ARcAQcAUdgRBBwBmFEYPVEHQFHwBFwBByB8Y2AMwjju/289I6AI+AIOAKOwIgg4AzCiMDqiToCjoAj4Ag4AuMbAWcQxnf7eekdAUfAEXAEHIERQcAZhBGB1RN1BBwBR8ARcATGNwLOIIzv9vPSOwKOgCPgCDgCI4KAMwgjAqsn6gg4Ao6AI+AIjG8EnEEY3+3npXcEHAFHwBFwBEYEAWcQRgRWT9QRcAQcAUfAETg1EGhra5P169cL12P6b7DOGYTBIuXhHAFHwBFwBByBcYZAa2urPPfcc5KXlyddXV1DKn2fDEJKSsqQExpSrh7YEXAEHAFHwBFwBEYcgddee1XKy8ulqqpKOjo6JEX/Ddal9xUwMzPTvI8cOSKpqX3yEH1Fcz9HwBFwBBwBR8AROEUQOHbsmMyZM1c6OzslNzfXGAUEAIN1KZpA0gUJRBOIJIaS4GAz9nCOgCPgCDgCjoAjMPIIQMPT0tIkPb1PmYAVoLmmRrILCyUlIhRIHlqjZGVljXzJPQdHwBFwBBwBR8AROOUQ8PWDU65JvECOgCPgCDgCjsDYI+AMwti3gZfAEXAEHAFHwBE45RDoc4mBnY4NDQ22XhHdopC4FyH6jpoN5f3JxCWvk4l/MnGHmvdQMBlq2oTvL/3+3g0Ud6jvRxPTxLKNZt69MdUTxQk7eEby/cimbajyR13vesX2NPVsbDoeb+Kc2PuRTNtKZcXqu2y98Ty5MYW8jsel73xj5ep5N1Dck33fX7lONu3E+KOJ6VjmPZqYUs8orieaN/HYU1hUVESSg3J9MghsZsjPz+9VqEGl5oEcAUfAEXAEHAFHYEIg0CeDALfS327HCVFzr4Qj4Ag4Ao6AI+AIJEXA9yAkhcZfOAKOgCPgCDgCpy8CziCcvm3vNXcEHAFHwBFwBJIi4AxCUmj8hSPgCDgCjoAjcPoi4AzC6dv2XnNHwBFwBBwBRyApAn1uUgyhm5qa5O6775YaVcE4bfo0uenjN8mbb75p9hlWrVoVggnhDh06JLNnzza/+vp6Wbt2rZ2CuOnmmyQ/L9+OV7z77rtSW1sra9asMaMRGzZskLKyMsHmw44dO+S2227r0/YDeqQ//PBDmTZtmmRkZFgeHMV85513pKm5Sc4797zusnDT3t4uL7/8srz66qu22XLZsmVy0UUX9Zl2r4gj8MDRkuqaannttdfk8ssu7978idnNgwcPCnYv3nrrLQHP4uLiESiBJ+kIOAKOgCPgCAwdgX4ZhLq6Orn33nvlL/7iL+TJJ5+Uuto6Nfwwxwg/xO3111+X1atXy4MPPmgE+dvf/jc1CJFnxP73v/+9FBQUyJIlS4z4QeQhkjt37jQGAcJ5+PBhOXDggNx1911y0YUXyX69fztOLLOzsy1NDEyUlJTIt771LWMgyH/hwoWyadMmYwDalBmYq8YoNm7cKGeddZZUVFQINiReeOEFY2xWrFgh3//+92XGjBnGlOzbt0/OO+88M16BfezS0lKBgdi6davs3btXzj77bGN49uzZY+E5M9rY2ChLly6Vbdu2CcwP9Wpubpap06ZKRXmF5U05Kdd7771nOiQo87x58+Ttt982pmrz5s2y+IzF8v7775vZTY6S/vjHP5abbrrJ0iQ9rG2R7/Lly+1M9fbt243ZAUMYKXeOgCPgCDgCjsBoIdAvg8BxRwjdzTffLJWVlXLHHXdYuSDAMAC8f/TRR21mjxShvb3D3jM73r9/vylkKCwqjJmY1LAcnQwSABQ2QAC5pqWmGdH8v//n/5hBiT/+8Y9GXNetW2dEH4kD6UNAH3roIfn0pz8td911l0D8m1Ui8Z3vfMcINozKv/zLv1i5yGv37t1GaBcsWGDMyH/+53/aLB3pAraxd+3aZWVEOkF9qONTTz1lzMQrr7wiOTk5lhb1vPDCC+WJJ56QKVOmGBMAw9DU1KgM0tlCeWEazl9zvqx7ep3hAQN1zbXXyCMPPyKzZs2SlpYWk3gQFsYIRgS/o0ePygcffCAwRLxDSkI+Z5xxhjz++OPGkMEMffWrXx2tPuH5OAKOgCPgCDgCMuAeBGb+DY0NNnsuVEtPmH8+fOSwifyZlaNQafr06bJ48WJjJhD9w0jcfvvtAqPwjf/9DbuqbjYj1qRHmHAlLoSZ2TYzeJ4h3kgKZs6caRIHmAieb7jhBgv3ox/9yKQSMC8sf8AIQFiZ7cO8BMeMHoeUgLKwvEGa3LOkccstt8gnPvEJW+KgLl/84heNCYEZufjii+X88883aQfMAPnAHMAsUdaPfvSjmlebMQsQ96lTp0qbPhPm1ltvFbDavWu3zJ071/IAt+rqamOQwIzlBN6RNowCkhTiIq1BSoH0BknHtddeaxKJUCe/OgKOgCPgCDgCo4FAvwwCs3CI8//6n/9LHnvsMfnMZz5jM905lXNsRs0MHMIK8WZvAuJxCCHLDszSIZwQewh/iv5DDP/Kq6/I3/3d38nPf/5ze8caPGEmT55saYa9BkEtJBYl+VEWZvdXXHGFEVMIONIICD77C1g6II2CwgLDDSLMksPf/M3f2PIBzAFMDIT4zDOXWhwYjZ/+9KdG8Hn/z//8z0aU2UtBuSzv7CyrB+nxQ5pQoFfqOWnSJFlzwRorB0wHBD8vP8/CwLwsWbrEJCk/+clPLA32WiAxABeWGGCUnnvuOVs+YBmBZYZvf/vbVk6kHuRPPkgn3DkCjoAj4Ag4AqOJQIoS4gRt8j3Z84rZLMQPIgXBYrYL0YI4Q2whyhA7iB8zePyJh4gdws8z7yHwpMN6PtID/AMB7NDnbE0bxzIChJc4iOIh1KSLbQhm4L/61a+krr5O/uX/+xcjsORFWmyShCgTHj8kCRBznimz3mq500wSQJkJQ3oQaxiX1tYWnbXXW33Y5Mh7HGnAJOG4kh71CFfiM9vHITVo0XwztTykQf0g+oTPyYEpSDcpBksX1A8cQjjSIRxpUf8gYSEcjARx3DkCjoAj4Ag4AiOBQLNKybOVhqUofQ+uXwYhBDpVrhD9N954wzYDsmzgzhFwBBwBR8ARcAROHoFxzyCcPASegiPgCDgCjoAj4AgkItAXg9AjS0gM7c+OgCPgCDgCjoAjcNoikPSYI2vnrIez7s46vDtHwBFwBBwBR8ARGH8IsKeOfYDs0+M6WNdnSDbFsdueo3hsknPnCDgCjoAj4Ag4AuMXATbrs/G/YkqFnSocTE2SMgjsqucUgjtHwBFwBBwBR8ARGN8IQNM5JYg0YbCrAkn3IAw2gfENmZfeEXAEHAFHwBE4PRCArvNvsC4pgzDYBDycI+AIOAKOgCPgCEw8BNL+SV1itdiDgAKfROU8bFjE4BIGh1B4hEIftCkSLmx8QKUy71AklOiIj/2FomI1gNTQaDYIUFqUKK1ABIK6Y5Qtob0QDY34ZWZlmnIjNlAmli0xL56px5YtW8yoFIqHUIhEmig0ijrSpswoW0p8F8J1dnWqwqVWU8oU/Pq6kid54PrCAH/KQhgMRLGMc+xYl9ppeNfKgEIqtEKiCpqyoARqKI5y1tbUmuIqU9yk604Bx0Sck6WLwibyxxgXuicwFBXi0oa8x6Ewqz9HPQnLPpYQP4QHJ7RXsi6GQimwx+DWTjXmhR96LohD2xCWX+hjIY1wJR/igydrbDyTBvZA6Cf0Jd7n5uWa3Q/iUS/22dDP6U9BKRd+1JEy8Q4V27wL3wMKu/Dj/VD25xCfcg0lTqjfcF8pP/09S7WEpqb0bkPaJHy/A7XvQOUCS9oB0SZXxgr6A9/0QC60O2VBWRt9YTDfAu3KGIR9F9qRPPme+BZ5h8E1ysBYkKx+lJs+kZ6R3t1fEstLf6JslIn0wDQokEsMm/jM5u99ql2W/kx/AhvSSSwPfYY64J/4/ZAnyunoT6RDeQmXmEaXji0otCPMYPBLLGt4Ji/wA8fEPEKYoVzRmEuZ+CXWDdX51IvvGb03fDf0oc2b3+zWisv+OLDBYi8G8SgXY2mysoExhvTQ6gvmpIc1YPzpj8ni9VUnxhXiMbbQN2l78GHs5sozZcdAX0wJX6vRMMpMPtAk6kd5+MWUA5bpuzTBBhBaiSkf/Ys+wH0iRn2VazB+pAlOfaXXoXVK13Et+m5IDAKdEPPPqAXGdDMfHw0DAeGDqa2rla7OLvn1r35taocBJ+qoLEaRsLiIYSVsD0AIMFYEcKQFYaIBGdRffe1VU4P87LPPmilpOg6Gi8IHzjNxKBcDNo2Fo9O1d7TLW5vfsg6G7QSID4Mf5c5WrYaUjYFk546dRnyIS9qVahdit9aL8tCIO3cpwWpukT2798gzzzxj5TnI4KBlJA20MRKXj4eOQxzSoVzsGA0Owt3U2GQfKVhh5Io8KFeNEnQGLj5kOhh+EESwQOUygyVl37tvrxzrOmYfDGnQEemolIHOScM2aQegjgwMpAEzB77YiuCjpA1Ij7x5T3zKGhzvCIc1TIxMmZpsTZePlI5M27z00ktW5yI1xJWiBAb8+YED7ykP5aWMqJIGB+LDqPBRgRUfEGXjnv5D/flhP4MOTHjwJF0+KMKiAht8cZSTutAX8CNv+gOYgaHhpYNBrH3qTMPl9GnTQzUt3fe3vm/Eg3z4MMkXBhaH/RH6IMwpHzrl4QOnTpQJrMmHMHzA9P2wvkdfpHwQGvwoI2nQDtNVNTnvIBKB+NGO1IH2oCyEJw3woh60D2HJG3zRJApuDJD4UXd+lAuif/TIUYtHmuRz8NDBbkJDeeifhM8vyJcjR490vyO/WH+skUmTJ1kdCU8aqakp1k9JCxElZSLvOk0nS+9JD0Yq9CvqweBOG5WXl6tJ881m1px+ih+48Z0Sj7pRVuJSBnClnrQJmHEPcSNO6K/kTTjKQfnIm3D0TSYfTDzoT8SnTcmHPkT69Gn6IWMPcagjadNXwJXycG1va5dDhw9pZ4v1NxgNyk7bYKKdPkCbMcjTTygLbUn74U99LB2NQ/3CwAvj/bgaZGOCRd6UgbjUJ6TJ/Ysvvii79+y2iQJlI92AO98P+QZG+pFHHrF+S70oJ45y0keCZVswpFzkQR8EE8pLGSgfaTMG4UefpuykxRXseEf7ES60BWNFarztwADsKANp0CZZmg71oz+QN3mRP/0Iwkw9CZejYyn9gXryrZAv6WGbB4JJGtQX1fo8Uwb6B+P81ClTbTLDGMeYHHAGA8pDuiFvcCNtxgrS5FugrxcWqBZcHQspH/2Jd5SFMYG6UH6wBBfGNPo05aYf0Kco2/z5860cYMW7eap6n+8JrH7729+aGn+w/O53vyvTpk+TDes3mFE++iljBWUjL0wXvPjSi4Y16fJMXxoOBx5DYRD63KTYX0EYJFeuXGlMwp133mmgYtVw69YPrGEY7APA3Cc6BjFsIFx55ZVmc2Dt2rXWOfnwsGUAWDQMdhSys7INaDoSHz4NSKehDDQSwGPzgQ55wQUXCOabSZcPo6O9wwYGbDdA6DDpzEBBp6Jz0clyc3KtrKRL3rinn366e6BAxTONz2ATOjMSFNKh09Eh6QDYo6BDUV86QPhoSY9nwvOjc1MOCGswwkRnpdEuueQSq+uGlzfIooWLLByMEfHpNFh4pJ6Uh45IZ+JjoOPz0WLZcuGihYpRq5WfwQAmhDAMBHwIfBTgT3mpG3UAK7AOjo+LfIi/bfs2WTB/gbUPZaGNIJR0VgYryg1ulIUPgh9l44oDZxuYt74vVQdiAwPpB8aK9ErLeiQFEEM+RNqXNBnIyY8ObQyB1pWBjP7BRwjmS9TY1XQ11IWxLtKj3MHsNtgxgPFRL1q0yMLTjjjKUFxUbMwHDCN4EBY8yZd2Ia2pysRyBTvyBRvKBNPCYMJAwXsGD96T7lVXXWVlYaCjv1L+8IG3K24HdFBk0AY/pDzkSRjwYqCg/5gkTgkd8Sg/9d9/YL+q8Y4xc4HQkgaYUCb6KWWhP1N34lIuvhPeEQ7MiEN82oZ6gjdUsKOj0+rAoMxshsGP74QyUrbqmmr7rmDwmV3X18WYEtLChbJTFvoH4wC44pqVyaYsgbCiyByV5MShP/L90reZ1YEZ8Sgn+ZI/5aDvghUMp+ER7yvBnz4AEaMNCAdDSdkYF+hbSJDOWHSGtSX4UM4XXnwhxnjVN1gbgDXxyZd+gKM9qAvlp70rdRLBtwN2YEg/AEP6BGUhbcrHOMk7xgm+C9qD97QHZSMufZZ0n9XxrFXbjf4FJuRPO5Lu888/b2XlmbqTBuUJDAD5UT/qzuQAB/7YqwGTQOxglsASP8oHkd6xfYdN1CgbWIE55aJ8vKe/ke4U3fne1haTtlEfvlPaC7zou6RLufFfrBPIA3qlnPS7MGaHsZQ+Sl+EAeO7Ig7jFz8mnXyjMPqXXnqpYYc/aYS+QfmoMzgybjI+hjahXuDJJG+L9iX6KmMuuNIepHPOOecYptAGxm/KzeQB2kB5wJY2J5/ly5fbWER8xjXGbe7px2BFeMYW6gSzQ7mIw2Ryu9aBvJlsgAN1AxPwS09Ll07to5QHZpfJMnW+7bbbDA/GVdqJOhMHZn4oewesEwzDnyEzCCFPGodORYMgHudj46OmYwMYHawvR/jLL7/cOC7Ckc6f//mfG7gwBxg7YqAFFBydmsaHQfj0bZ+W1159zd7RIDQUDQIDQINAoMOARFyIEekzWAA+jUnjYdzpvvvus3efvPWTNtOB4NDRaUQaiw+MtIjLR4wf93RG3vFh0JGoJ6aZIS5Yf3zggQfMX1vTykm5IXY33nijNTjl0pJZx2CAoZMysIAfUgY6AR0cnMKPjsqyzAVrLpAnn3zSOiPmohnI6KTgwCCANUk6Kf6UkQ+LwX7dunWWK+GoCzMXOFPwwox11JE3Aw8fEWViYA5EnTYhPhIZBkjqTx/Aj7RXrVplAyj+pMOgwYBKn2CQoZ0YdGg78IBpQtJBPRkwKBdtTVwGPMrR2hZrXyuD5sGgDbNC2pdddpm1GeWnXXhH3WkrrgyWO3XJgri0AViBG478QhtSB+KACe0ZiDX1atc2p4/Rd2DweM89+cPZkzZMI3156ZlLTdIEbtQBjKg79WVQ4MogzEADFqS/WwcI7JDgR3vAXFCeTW9ukinzplh42qC4pFjOPedcyw+8wIfvhL4X2oB6URbyYUBpbmq28pI3krDqo9XW/+lnW97eYgSOOPQd+jZG1nDg1KVhGNQYYBng6E8wiwxc4EQ+fB+0O4McdWVgZ7CjjnwLEAT8wYh+QH3py0jFuIdppX8ycBOH+lB22ob2C8wX+NO25AWe9EPaiHrTR2gL8uJdpfYfsCUs6dHGPDOOUEcc+IUrk4Rzzj7Hyk1+fD/0VdoP3CgrBIx0Qv9njKAvEBZpKv3+A+1fTVouwlFe4tK/qSdtRL1wYMU416JhIUzgS32rNE+YAeJSLwgfbUyZwYn64B8IJ/FgQMEWpoFvEsw6OjtkxfIVNpO1MSE+jkGo+B4Iy1hFGxtO2THCyUSLduW7BEeM85HnxVdcbISTuhMehgeiRV+FiK5Zs8bwpE7UnfLs1LGW8LQL7U2eMCsQ47N0/N2s/Zm6hXEUbKg3mBOP/Ekn+NF2fB+kB5a0OW0Ew4Tje0Mqw3uM9b284WUbt66++mr7RsEXR7m5Jwx54YjLmBsc/Za+RvvS7rQhhJpx8qGHHrKJCd894zrWgHfq+EJZSBcaQjzqg7Vf6siEc8bMGdZPyJ960Vbkn634BivIoX/SX3i38Y2NahSwwNqcetrEpqeYobgjfh3SEgOdFULMYEyH4sNuVOkBMwAIMcAwgNKJC3WWXFrS214CFQfE66+/3oCCY6MTAg7rSKHT0EkAnDS5QuhotHe2vGONzMBEHnxQDEh0PhqC8tDJEd8wMFEeCCphSJ/Go9PR4AzyRYVF1pHo9DQa9YNI0UjEp8PTiSkXDcTHDSGhfLxjAKVOdBjEqQxSKSqK5YMoKS2xtPiQGcwoF2mRPnV5+OGHDbdAHFlLIx8IDXWDeSBPnikX8SlzmJGAS4aWEQLGPR2PfPhQiYMDX/Ki/uRNWbnSYetq6+xDxNw09SEeAx4fPnkgoQErwpM/76gzgw5txgfLOwYdBjrqhT/MQSAYobNTttAefMQZ6RnyxsY3ZP++/YYnAzN9inC0NWnAoYfy0o6I8GdMn2FtbkRLy8HHiWgS65qUhw+6UgkE/YOBCT/aiwGFZwZQ+lR9gw5axSVWvypmQfqecNSbPkU8MKF+DFb8IIwMiLQDOODHFewJy0cMFsShL4EJTAnP5vTjZlCmzxCWOOTVpQMUOIE7GNFPEft3duiSjLYbfYp86FMQCDCiz4S2gbDiwIr4EP+83BjxJB5YUFaWpsiTwYz+xTvKQvloO56pP98i4efMmWs40O4wGrQ7/Yg6kQ940S6UifajHKSFP+WjbSCklBvCQjr0IwgY/QOM6S/Um/xpG/L+cO+HVk7yoLzW37RshM1QqUWGzmhpQ/ICR36UIVzpO7QJ6fK9QJSoM3WFGDDgE3bW7FkmQeL7oO7kRR5c+ZEGZaCN6Dv0T+pLHyM+3xj9ijaHgWvUMsGQEI8y8560qT/lxfF9Eham42qdibIcyHdOfyZtxg5wJA3GKsrBe8pBm1BPxi7KwPfR0vr/s/cecHYVR/5v3clJOecRCiiChASSyFFgojHBmPXHYVmHtf3Wu2t7/fzffe/57Rqvvbxde+2/4xIcsE0WIIFAIIQyykISiijnNJJGk+7MDa++dadHV8PVJAlLRtVwdc89p7u6+nfO9K+6uk9XjQwsHWj9BM8NzwY6gC/PGl4L/t7AAYzBnHvBN88LxxgZ6MkziLFGXtpUqn9HUcWY33y4P9SNDjyT/J2iG3jyjQzqByeeB3QmL/eBumgjz09X/c0394L2kZ97SX70AVs+PEcYobQFzuDd/R3bd5ielAdD7hfGE3LIB+Zdu3Q1PcGdcmDP3y3y6aMx3JDN32doO23h7wQZ9Lncb3A7ekyn2lQezyT9I88094FBBnm4B9SPfPDmXDAw8PqAB3+n8Az4ozf3lzr48HcINngGe/boafeccpzjGv0I94o+mmftTCT05DlEt8Yp0xqEjMGauEEB2HQh/OHzx1ZVXWUdLCQI0dBoznOjMRB4SHk4+ONKT5SHBAEfBWk8QGHR8gABQrhJlCcPfzjI4QHmQeWh4IbwYAE+1/mDhGBvu+02e6iwvnkgAJoHgQeahz81qqpSGSmioGOgbvTngeJB4wFAB36jG8cAyg1GFsfUTVvQGaw4R7toN/XEtd4c/SNHVkj8QaAnbUdvHhbaRFnqAj/az3wYiwwDIdIO6sNNGkjhlltuSXUoig96hJsdOifwoiM+fOiw6cdv8qEff+joyh8P3hT+KBn5bNMHkvL8kYEbHS06URb9QqcC/rSLew32YBJIKGAO3rSF63yomw/1ghnHgfiQT17aBkbgAZHQZv7guAfIpQzHAVN0RAe+aRNYIgP9aAd/CNxPOiiO+aALbSIPRh31UUYBtPsV2sR9om7yhTagA1HOWHvCMefDMxo6Su4pWOGhQk/w5u8IvdGJaQNGrBxj2DF3T13gAg7IBU/qBVOOwYLnnQQGqqp+pwwC2o4eJ66l/ujRnXYhw67XFyI/daXLDM80fwOQOOWoD08eRgptol6uYUBw//gbp008E+DO3wZ/Bzwz6e1AL2QVFhWadyulf2rtBhik+gHWDOVa28GfesLfBc81Bg9TjbmKVZleA3N0De3gealVHWrr9aapMdWb8+CJ/uiGjsjjN7rjkWHkyDNCPjAJ3zwX5OUDfvxGJ7DiN88b8jlGHjLAmnzcb3TkGPJghMj94DmEYGtq6GPy7fmgHPmRx71hvQPTXujB3wQJTOmnqJtnCjx5rigLDmBIfvIl9D5la90YmMgJ/Sx1pP+NQUL83YMDhkXPXj1l8KDBJo97jO7UA6FSFx9G0BhZDAzRl2lJ7udB/VvvpgYBbQYLdEEvPH+sBcFYoG2sjYnWRBv04BztoR/gWeCYvx3uFdNvEyZMsHuCzF6KG4MAdKPdYM/9pC76Z86BL/VyT7hvJJ6diuMVDX9/YAQO1EX9oW9nmpNFreCELjwLyAl9yqJFi0wv/lbx+GJkUAd8RLvRm2cX3NCDcxhx3IcB/QeYLLDiE+SjO7jSL6EPvEE5DC2eF3Dj7wsDDK8i+c9EAm/uY8AoXWamWAytMhDShZ0rx9xMRh487Hgywh/6uaLfmdCDThsLlgccq5Ib3NYEPvzRIQtjgMSDyx8MD2imB6etdZ1r5Ww6I5FaoHkm28kf+TYdXdBRQZ6nc3/ONcyCPjwvdJiQDp2np6YRYOABaTBahZR43vj7OtsJUsJIpq+ErCA9jJtgkAT96BMgQAgL8sK4CX0t3hczPtTA+jAShgBkj6F8Jv9O26Ir/WLwktp0gA6KG7/50xa5LSlDP41xCLedKRzOOwOhJUB7HkfAEXAEHAFH4HxHoLUGwtk3ac/3O+btdwQcAUfAEXAEzkEE3EA4B2+Kq+QIOAKOgCPgCJxtBNxAONt3wOt3BBwBR8ARcATOQQTcQDgHb4qr5Ag4Ao6AI+AInG0E3EA423fA63cEHAFHwBFwBM5BBNxAOAdviqvkCDgCjoAj4AicbQTcQDjbd8DrdwQcAUfAEXAEzkEE3EA4B2+Kq+QIOAKOgCPgCJxtBNxAONt3wOt3BBwBR8ARcATOQQTcQDgHb4qr5Ag4Ao6AI+AInG0E3EA423fA63cEHAFHwBFwBM5BBNxAOAdviqvkCDgCjoAj4AicbQTcQDjbd8DrdwQcAUfAEXAEzkEE3EA4B2+Kq+QIOAKOgCPgCJxtBNxAONt3wOt3BBwBR8ARcATOQQTcQDgHb4qr5Ag4Ao6AI+AInG0E3EA423fA63cEHAFHwBFwBD5EBGKxmCxZskSi0agk9b+WJjcQWoqU53MEHAFHwBFwBP7CEKirq5O5c+dKfn6+RCKRVmmf0UBASCKRaJUgz+wIOAKOgCPgCDgC5xYCS5culS5dusiBAwfMgxCRlhsJOZmakpeXJ8lkUsrKyiQrK6MNkamYn3MEHAFHwBFwBByBcwQBeHzAgAE24C8sLJTu3bu3yosQUQGnnJCoqalxT8I5cqNdDUfAEXAEHAFHoDUIMBsQphVycnKEz6lS9dGjUtC+vUTSnAKnzq1SCgoKTiXLzzsCjoAj4Ag4Ao7ARxgBnz/4CN9cb5oj4Ag4Ao6AI9BWBNxAaCtyXs4RcAQcAUfAEfgII5BxiiEej8vx48ebnK/4CGPiTXMEHAFHwBFwBD5SCLDckE97XWfQ0pTRQODNheLiYnuDISxwCGsZw3fjCkK+8B2UaZyvNb+Rlam+UAeyMl0PdYR8TeUJef3bEXAEHAFHwBFwBE4gkNFAgFhzc3MtV21trbALE68+NrUCknyUY/8EPrxScTopkUxIXW2dbe6QSQ46QfxBz8Z5uMYGERg7TenduJz/dgQcAUfAEXAEHAGRjAZCAObIkSPy7W9/20iaVx7vu+8+mTx5crjc8F1ZWSmPPvqojBw5Up544glzYfTs2VO+9a1vSVFRUUO+lh5A7ocPHZbnn39eHnrooQYjAKNgzZo1Us70R3a2HC47LHfcfkdGsUyTrF+/Xtgk4q//+q8z5vGTjoAj4Ag4Ao6AI5AZgSYNBEbgR/XdyH/+l3+WGa/PkDfeeMPWJiBq3759ctNNN8ngwYNl8eLFggGBl6FTp07y1a9+Vf7pn/5J3njzDVmxfIX06NFDBg0aJPPmzZOrrrpK+vbtK88884x06NBBHnzwQVm0eJHMfnu2TJo0Sdq1ayezZs2SIUOGmIdg5cqVMmPGDPMGTJw4sUGH2267za5T93PPPSdDhw6Vj33sY/Lss89KVVWV9O7dW8izceNG2bNnj/3ODIGfdQQcAUfAEXAEHIHGCDT5FgNTBhD/I//xiLz99tvyxS9+US655BL57//+b9m5c6dccMEFRtKQMKSPu59R+09+8hOBzIuLiu33ZZddZh4G5P3hD3+QOXPmyKpVq+TYsWOydetWmfLCFHnggQfM87B69Wqbqhg7dqy89957skPr2bVrl1xzzTXywgsvCJ6J0aNHS3V1tbz77rvyxz/+0QyVbdu2yZQpU4TyF110kSxcuNB0L1YPxo4dOxq32387Ao6AI+AIOAKOQBMINGkgsJaAKYKHH37Ytmhcvny5lJeX25QD5M5InQTxM9ePx4GR/COP/Id85zvfsY2W+vTpI8OGDbPrrEu48MILpX///jJq1Cgj82XLlkm2ThcwnYEhQJ1c69Wrl8nLVrlMFzCNgYeCxZPUy7lQN7+ZfmCtASs0qQ9jhTzZes63izao/B9HwBFwBBwBR6DFCGR/V9OpcrMWAA/ClVdeKSNGjLARPVMO99xzjxkOefl50rNHz4bRPF4DjIAxY8aayLpYneTl5jUQPqP8MWPGmOdhy5YtRuSf+MQnzPiYPXu2rWEoLS21KQk8BSx8ZDdH1hFgRFAvUxqbN282GUxbUCfeDfS79dZbzVDAQMDQwDhhCuKWW24xw+JU7fTzjoAj4Ag4Ao7A+YxATLk+p1HExyZjMbQUrLBI8W/+5m/OKBHjFcA4WLt2basXGlKW6Q6mIf7qr/6qpU3xfI6AI+AIOAKOwHmHQKZYDGfEQABJ3PlhquFMIosXg4Ts1iaMBDwPbSnb2ro8vyPgCDgCjoAj8JeKQCYDocm3GFrTUIj4w0inQ+6+/8GHcUdcpiPgCDgCjsD5gECTixTPBwC8jY6AI+AIOAKOgCPwQQTcQPggJn7GEXAEHAFHwBE47xFwA+G8fwQcAEfAEXAEHAFH4IMInLE1CB8U7WccAUfAEXAEHIHzE4FY2RapWvO0JKoPS+uX2J8+Zhq7UbKLukvRmM9JdrvuKrD1WjRrIPAWwbp162wPBPYWSF80SOwF9h9IP3f6zXIJjoAj4Ag4Ao7AXy4CSeXKyuWPSaJsqW7UR+DD1Nt4KZKGqBPWuKS+nRdJBuJOnWuc58RvirQ8j0qWusNLpUrrbzfp6yJZrX+RoFkDgR0O2YsgbKUcjUbtlUZ2WGRb444dO9rmSE8/rZaSgoJBgeFwXAMq3X777RZc6dChQ7atMjsksgHS1KlTLTYC5Xn7oV+/fraZ0e7du+XVV181Oddff71069ZN3nzzTbnrrrtkw4YNJpsYDS+//LIcPHjQtlxmo6RXXnlF9u/fb5sqTbp8km3OxHbOd955p22zTICne++91zZ32n/ggLz+2mtW73XXXSebNm2ybaOJK0Ede/fuFTZv4hXJ+fPn28ZOXbt1lQP7D5jeYfMmNmliE6kbb7xR2AAKObSbuBG1dbUy4bIJFpfiNa0LTNgFkk2eOCbmBDodPnzYNoPiNztUEneCWBZcY4ModqVkm+rVa1bLooXvSOcuXSyWBXnBiu2oFyxYYJhWVFRI165dBaytjGI7YMAA6aJl2AFzt8ajuOWWm6VD+w72YPIPZdiwijq5B+kJPQ8dPiS7du6ydqE/O1aiMxtQhd0p2VETXcAjXzfZIB0rPyZ7du+xZ4bYGumJOjE4wwZczRmXPG/cW54tNtFqSeLZAAfwQz/20eB5ZZvwxqlG5ZdrHtrHs+zJEXAEHIHTRSCZiEuiRj0H2o8mE3VNigumQ5OZ2ngxEklKvGK/lm5bLU3upIhOZWVl1qHT0UMkkASdLoGWuMY5SJ8dFGfOnGnkR3AmSBvyXrJkiQV2wsB46aWXjLCDJ4KOnF0aidoIuRFLAaIZOHCgnUP2k08+adsmU+8BJXcj8X175aorr7LATey/QFwHOn9IjUBP6Pb0008pkfW1+iHIa6+91uSsXLHCYkFA5hAaBgnbM7OpEu3q3qO7DBk8xLZ2xhAh3gR6YDjQPmJCQLwlJSVWP9tGY0DRFoiIraAHDxpshgL5KEv9GAGQIXnZ6ZEdHsMW0XPnzrWYFJA5Bhn4YExgbJDmqrEz/tJLJVoblSWLl1j5119/XZavWG7XwR95YIHxhRyMFnAgaBX1rNINo5BJW0OCpJeqvGfVuOvcuYsRP9eQQ/mXX3rZMBkzdowR+grFDoOkc+fOZhyyqybba7MLJnXwjEDEGFOcA0/wwKjC+CE/Bga6du/e3TCFyLkPGzZusGeDPO+//75tm408jCG24+b+YDSBDQYUeBMwjO25qZNjngMMCjbu2r5ju/1N8PzRloAJBgrbcBM/BOOIQF7IRzbPrSdHwBFwBE4XgWQyIdH3X5VI9KA6ACBnRv4nPpG04/TzZ/w4XiuR4gFScMENqkfTSw4z7aTYrAcBUuMD2RMgCZJmBAmJhyBIjL6YaoAMIT86W4juxz/+sXXklyq5UX7RokU2VfG9733PiJxATXTYpToyhLggLCIwQlAEWyIgFNfowPEmMMqFEIjaiCeBzp2OnrkWCAnyuPrqq41wevfuY8SMzuhLHgwI8iALkuEaxIFxQaRKSKtb127mXeABgUjCRkuMmCEeyJzyN998sxkKeCogwvHjx5vHgaBTlGE7aDDAawIhEoOCkTCk9Mtf/tLajZeEwFM//elPLT4FkS4xSjA0IDwwRhaeA/KCB54aCBHvAcbAJ+//pEQVN/JhpGEUgAUGF/tAcB5sMWhCQl+ibELGYFBZWSHf+9d/lf/j778uN9xwg3kHaCOeCO5Plj5Y3JNIRIxEIWfuPefADCOAejCE8KhwH8EOPd966y37PqZET+AsdOT80WNHJTcnt4Gs7V507SJ7Vu4xAwTDYbJizHnq4T6BC88iuPIbow3jiG/aDT7ohSeAZyuZSJosvEF8MBTIy33gOUIGzwVleUY8OQKOgCNwxhBQvpFkTDn/ZGKO6UAvYQaCcoy6/SM5+Vpl20b4zeqK9wI92phO1vwUQuiUIWIIBdIxUqmqtM46FIF8Q0dMh46x8LWvfc0Im1EdBHLxmIvN7cuIkZEnRgUfRpgQEuWYdti3f5+NNOnAISBG/wsWzG9wA7N9cpmSBDox6iPeA3kgJYwVyJxgT5AB5yBHyILzEModd9xh+kEStAXCgLjQEQMiJNrDCJZP0PFTn/qUTV3QPkgfgwG5GCwkRrGQG3VD0gEX2ssxpE9UzIsvvthkQpYYESG8NfhiNOB9ICGj7EiZGRaQHjpB2ozIwYwRfVTxQ2/aCp60EQMIvUKibhKESFv2qxdmuxLmNpV56OAhbeMxc7UHgxB53Lfgdkf/WCxF1BiJIWgWMvGiUCf1hRF8r969jHQxFsCvs+JF2yjH/SDSJ14cyqAPnpr+/frbM8V1jJpczY+80C7azj0CH/KAHdd4bsCce0h+8EF/6oP8MVgr1AjiueM6zxUGAQYf9eMR4RMwok2eHAFHwBE4LQS0z2UtAtMNyUSs/qP8csEDEhn5d/r5utR2vVqS8ZgkaiskXleZyqPfidpySfId1e9YVPNEJca5WLWe14/KS8Rq9KPXLH9Fg/yT6tJ8p5Oa9SDQaUIadOx0yB074rbuYwS7csXKhk6VPJAEBE3HTAdMJw/BB6IqKS4xwiMvHTd5mfv/xS9+YSNugjG9+OKLlp8RM94IiJaR9Uad40ceI/Xf/e538ouf/9xIlBEvZcL6BqYMyDNo8CDppe71rkoGGDYQCwmyIg8GBGsbWOOAGxrPBaQa8vFNe5n2wNUN8aL373//eyOi4MWgXkbzEAxtYVRPewk5DQEyDQMGEBlERb3I41yenqMeSBjC4xjDA08JBgPhrSHFiy+6WB5//HHLd+111xomGBpXXHGFTJ8+3UbDYI8MyjJNA6GDb0joTlJ/kBkWn1RDh3Uis9/W6YHqKrldjabLJkwI2Y1gaUcPlRsSukCwyOaDrsjFUGNUj8cBsma6YdvWbVJdVS2XX365eZHw9mDQgBP3EaMATwfPAYZWu/bthOcDLKiD9iMbeXhTIH3q69Spoz1/GAPIBDOmr5iW4Bh5GFfgjzeBNnbr3k0Nov2GJdcxCnmuqCtbLXiMi2BwIcuTI+AIOAKni4ANOCBo63vpf9U4yNJBUq/hUrX2OUnq4sEOF39Wji9YL3XdLtbLcck9vEDiXSZIoqCHJKr26/RAL8k5uEhL5kii93iJHF2r/JIrOVWbJVHYQ42CuMSL+0syTwdU+9+S3KQaGdrH09NbfXo9otMdbU3NxmIIhEpnSmcNSUB0GAF0vqwhYJRLYtQWjIFwHEZldPYc8yFP+jFlkYtM6uATyC3ISZdPWQiGEWE4j/xAKJyjDn6H60EvylIXZBL0SBFfjTz11NMm96GHHjLZ1I0uJPIz+k7EU2Cnlw/1hLogz6BbOBfqD+1BDxJlmzoO+dERGXw4R/0kyqIj502W6siUQLgGGbLYkrUPn//8582Is4v6D0S+fft2aaeGRV81LNITbUV2kMW1UBfHdo80mieeGfThGkYQKeTjPPeRvOgfMOE61+o4p9cDBnyTL5QLsvht9WleypIvnOMYLChH4hkihTwcgw3X02Vwj50odRUAAEAASURBVMgTnrkgh29PjoAj4AicDgKJeJ0cnfZlkaMrtUPUPsW6Fe3zIzlSeMW/S1VluWQVdZXcI6u0L0tKXVE/ycorkZxDK6RgwJUS27dMsntPlMT+ZRLP66RzEcUS2btQIr0nKVnWSM2e5ZLb9UJTsa6gpyTqaiSveq/Urfnf2q/lNlSZiFVJdp9bpePkH5hx0lSb2hSLgdEeo3RW6YfOmW8So+pgHPCbjjikcJze4XIcfqcfUyZ07HT2gfw4H+SkH1M2kE36eY7Ty/KblC6DsoHIuBZ+U463F6rVJR50oVx6WfIz4kxPlE9P5E/XjWvpMsJxermmjkN70nUO55BN2aCv/U49iRzaNQiaNRa45dPvFdfxkAwfPpzDDyQ8Del6kSG9rlBnJCtyUvsa5+M3+jbWOdM58ga5HJOoMz1v0AkcA5bkS8eH36T068gNspGRfo/S86VK+r+OgCPgCJwmAozc1VDQUZYaCSoL3uQ4Vil5O6dK3pC75HhFmRR1H2rTC7Fj+taDDoYS5TukZtsb2kd1kNptMyV/9Gd1iiEhR9f+Udp3HimRsrWSN+hmfQ1tt2TVlEkiv6vEtEwsyXoDHaxF+E5VKclaKm5zQ5qdYkAyrmE+H+UESeD+/qglSJE5d0+OgCPgCDgCfy4EUkYBbzOIOqEZRib1bYZIUn/UHJHY0a0SX/xfUnzpP0n84CqJtB8iuUUlklW2UhLtOkuWGgoRXZfACxDJss2SzC6Q/In/rnJ0bdjWaVLSa7zUHlwtdWXrRIZ9RjdC6i05+xdIrS5KjCRP0HoSD3j9gL4tLW92iqEtQr2MI+AIOAKOgCNwviKQ0IWHx156SBKH3zEIgqNZJ211v6JCHejXKG/X6pKEDrYAMStfB6dqRSR0mkCydO+YZFTfSmRKVT0AOi0hukgxW19XjOv1ZKJKPatFmofFj9WSpesVIjnFEq/crnUx1XwC9UTsuOQMeEA63vwfeumE4XAix4mjNk0xnCjuR46AI+AIOAKOgCPQMgR0+J+A4FlzF1hbN1BSsg97EiRqj6gofY28ckdKpBkDR1Nl4tV2TST1HSvfUF9O5UlF/TVdk1bNRkjqqaCsuivSHQYR9SiEJQF6sdWpaZOi1eK8gCPgCDgCjoAj4AhAzEmmFCDvZP36PNs0iVP16wIaNlHScxgR5Ld5BcpgVNT/RgbJyqWdC4YHWdlzgdRwjvmJP8MahFSt/q8j4Ag4Ao6AI+AINI+AMrauIxDdyZAYCJFgIDQqmFqXALuf+YTsZLz8tAS7B+G04PPCjoAj4Ag4Ao7AyQhk8eZW6fVSd0BfTazdrRfrPQaSehVcX2WoPxd+U77xuca/yaNvKFgK5Rr/5mL9OfUkJLL7S0HpTfVTE6mSrfn3lIsUec/ckyPgCDgCjoAj4Ai0HgH2XYnuW6tvNR5qfeEzUiIpOe16SUHP4fZ2JSJ5xTu8Kt64ikyLFDMaCBgHbEPryRFwBBwBR8ARcATagoCSMW8OpL9W0BYxp1OGfRHqt1tmTQSvvbP/TaaUyUDIOMXAngBsB+zJEXAEHAFHwBFwBM5PBDIaCOcnFN5qR8ARcAQcAUfgzCAQP75fqjdMlURlCPmsctPfMLBqdIFiWJ4Q3nBonCf8Jn+r8ugutjrFUDjyE5KluzK2JTVrIOg6SI36t90C8jD1kD5/MXToUBk4cGBb6vUyjoAj4Ag4Ao7ARxIBdlCsWPZrjaUwV1k6J/XmotoCWfVkb28YaMt1W6MGA6HhXOM8aQZCS/Ik1IjAjoCra3YRFbJaSi79kr1N0VqwmzUQyo+VW0hjtiFm6oEgNxgKBYUFsnjxYotsSGRCoiISNpnEvv9VGg560KDBdn3ZsmUyTPf8n6PR+yjP1r9EIuQ8IZdpCDEBmB8hlDPBoIgMSETI+fPmaTS+7hYZEdkE3Vm/fr0ZLNdee61tjxzOcZ7wz5RDznXXXWcR/zZv3mzxJLZt2yYLFy5MRUXUso23ICaK4NYtW6Sfhi8memV6Yv6GiII7d+40XdGZthw+fLghABJ5WLtBm4hEGRIhj6kbgwoM0xP50ZWASaM1AmFzCVnIZ+trIhM2lVgkQ5RFAm4RTtmTI+AIOAKOwIePAFscJzRWAvwf0YiKJEg7OAs40EuWGp875W9y15drKk9wMpAXvokd3Z4qaLW17p9mDQRIEVIiYA7kC+EQPrljh45y6OAhC2cM0c6cOdOCAoWww9OmTVOSLTESxngg6BMGxcc//nF57bXXjGwJANVfyZjwvKx5IPwvJI2h8MQTT8hDGlXxdxpeGXKDcGks9T/zzDNGkM8//7x84QtfsDKvv/66ETY6blGSJywz4YFXrVplBIwR89JLL1n0ScL7zlPDg3DP6YkIkbPeekt2axjhv/3KV8zQ4DpEC8FTHuODIFVgQnuoa/LkyUbahHImeuKsWbPMiMIgADfwekvlVlZWqHExwvSlHFgdPHRQFi1aJHfeeaeFHAan3hqmmiiLGGKFRYVypOyIDB482DDiftCmMWPGmF5ghZFhHzXKevXsZYGICH8MpoSb5pi2EQY6U1CjdAz82BFwBBwBR+A0ETD215G8hXtmUBgonQt8Um8Jao763/oVNkNqOBfeJEwfVDY+1/j3CTls66xhHk9YIlxqZWrWQAhTCpdeeqkR24EDB4z0ITdILlyHCBnB792718ibaHmcg9QhJb4h1RUrVpgBcMGgC8wLgJFw6PAhuf66643Y8EJAyJD7ypUr670RVbLp/U0ydMhQI1s8DDfeeKO8+OKLDdtIQqaM4BnhoxtkvXz5chs9c4wXAWPkqquuMgInfHWYMqlU0t2wYYNFcuyvxsqC+QvkO9/+tnznf/0vGa7GABELGa3jGQmLN/FaHDt2zCIk4gGAuPmGyGk79WHsUAajBt0OHy6TV155xQwZ2rBmzRrTE+/M2rVrDSfK8Vm3bp3JwlDAKNm9e7fcdttt5kHBc8F55FLHvn377IMhtWb1Gmnfob3kqFsLTwN5wZO60GvgwIGtfEQ8uyPgCDgCjkCrEdA+X/dVVoKGxDEEUikeq1Y+SBF7TpbuZ5DNngYnrod8J76DEXDizAljIpw7RR4MlGCbhKyt+G7WQEAWRsAeHVUXFhYa6UN2JEg/JIyBm2++2bwBuOchJUbOkFIgYki/b9++Rnb9+/U3uYSSHjJkiMlesmSJlKirfdKkSSbnpz/9qRFcVVWVkTYGQo7Ww2gY2YyeYxoUA/kYDJD+Y489ZrKoBxLFu8F55EK8lINQGf1ffvnl1oby48dl7pw5ckSv1dZE5ZCO6st01E55DIQs3UubtmMU4IlIJbX9FBfIe+PGjTYtQpvxIFxzzTVy8OBBy1+rBE2d48aNM2NixowZZizQZsgbDDFcjqsO6DNH9WDagvyEat6xY4e1s0jrJz9GCWU4pl0YXBgteFj69etn9fJAgGswNsaNHyebNm4yDML98m9HwBFwBByBDxEB5Ul7xVB5It0AiPX6mCQKeyhxJ6XukE6pV6zRY43PQMrK12PiJ8SVX/AAKPGbAaHXLHR0PWVHsq28lQnbOWtwJxVgpxr+semNtlsIzRoIGAMQIaSMuxuixY0POUFUgfwZEb/66qtGlOPHjzdX/gsvvGAkx3oDjAbmzW+//XYl4EOWl/cxZ7zxhixYsMDc9shmBE55SJffTCHgVZgyZYq50VmPgJypU6eaQTJ3zlwjXNzoGDGjRo0y/SBS3PXkZQ7+4osvNvL81a9+ZSP1Sy65xIwd2oZL/+//8R+N3KdPn2713HPffdqGK07grDcKA6Fr1652LqF7YkPqeFT4Bgu8DNRLe2jv5Mk3qQEZNzc/nhVG9ngw8A5QBk8H+GHM4MFg6gVDC48HH1JRcZFiH7U1GNSPsYSRghFBPRgKyGnXvp3JHKgeggMHDwjTL+CHYZOfl2/5wB1jBePEkyPgCDgCjsCHh4ANpG2KIRgISvbqMegw8HKp2TxdbYZcyR/7Walc8K8SLb5EjYGY5B9fLdGiEZLM76YxmnRNX2EvyS1frSEYIhLrepFkl2+SiBoMudHdEs/pZIZEPL+XJHNLJO/oYsmNYFzUeyNs0YOGf26Yumh9WzNulJQuBkLBLY77mhEy0wQQD9MGjG4nTpxoZAZxYUQACl4DiAlihtQYxVO2rq5WDYhCOyZ/tnoAatVFHspAjhA2I+d0WVxnZI5c8iAL2RgpuNg5B0FDzrjruU69yOLDb8oiB7c8nodMC/zQabGuBygtLZVSJdr0RFnIGN1I/KbucJ63PQq1bRA+GBkx19dJOfKiI0YRx7QH/YNMvmkTXhZkkJfE2gISXgLqCu0ymYo3ngXaSH6u88012kIbaTv4cI5E3tAGO+H/OAKOgCPgCJxRBBI62j867cuSPLpS+1xER5Qh9C1A3Wq58PKH5fiRfeosaC+F8TKJVeun3RCJ5BVJ9r6FUjjoJokfeV8inUeIHNmgfb5GaNS82eWbJdlpqERiUanZuUByu41UebqxcmFv9VRo6OjyLZLY8LhtzsSEAwySiFVKdu/bpOPkH+iJpv0BmTZKatZAgPh27tgpq1evbiAgiIiEW5uFb54cAUfAEXAEHAFHIIWAGQhTvyRydKme0OkA5n35qNegcOL/K/Gdb0nekLvk2PrXpLjvWKmN6+BPB9C5NQekoFN/qVr7Bym48F6Jvj9V8kd/ToMuxaR85hek3VX/JVK+VZLdJ0gkWiZZtUelrniA1B7VqWiN3JhY+ws1BMI0gw4aY8clu+9daiD8sE0GQtMmhTZJx+A2R848uSdHwBFwBBwBR8ARaA4BHdvrQDoZZyyP50B/qss/AnnrqL52/zKJH14nxeP/URIH10pSvQBZOk0QKXtXku162P4ISfVCRHStQfL4HklmF0rWOPUC5JRI7ZZXpLjP5VK3b6PUHVkvycH3q/ehg2QdWSVxnaaIJDFISOp5UA8yerQ1NWsgtFWwl3MEHAFHwBFwBM5XBNQ9r67/1B4IWAgR3lxgCnr5/9Z5AaYWaiT5zvckWauj/JJ+ZJDYsU0S3/eOrlMsl8TqR82YiB5Tj0GiRgo6DpO6DVslET0gFXP+Wflf34aoOyY5VYckN6+dxMrW1hsD9XUCvC54PJ3kBsLpoOdlHQFHwBFwBByBjAhgENQo8bM+DB8CSUf1VTv0XIp64xXb7Dheptsxa4pE8vQ6Gyxpmbrj9i3JY/Zdu39+ygOh6xiS1XtT19TyiB1bp/LVS2FvMZzsMIgkUuvkTHgb/nEDoQ2geRFHwBFwBBwBR6ApBPDs87oiUwySrF8XELY5TPMs6EIBzaPX1Yiw/Pb2AWWYptDy4beudkxtn6BegXDODA/cExghyNEUjBHLU8sJO92Wf9xAaAtqXsYRcAQcAUfAEWgKAYwAe80R46De7d+Yqxv/Rl7jc41/tyJPUqch6q0KSrU6uYHQasi8gCPgCDgCjoAjcGoEsnQn26ye4yW2d4YaCYdOnfFDvpLQNyjy+0yqn45ofWXNvubYepFewhFwBBwBR8AROL8RiNVWS9W2hRLTsM/q/z8LYCQlp2N/KRk4STBYmkst3geBjXrYoCfsd9CcYL/uCDgCjoAj4Ag4AicQsK2SdXOiZGqnpBMX/oxHvElBwKbA5WwSyGZ9mVImAyGjWcFufCEoUSZBfs4RcAQcAUfAEXAE/hIQKGizkhkNhDZL84KOgCPgCDgCjoAjoPsVHJeaLTMlUZF6hfHPDol6D3La95b8wTfqW5VtMxJaZCAQLInIhsFNQUPZ03+AhkYmcJMnR8ARcAQcAUfAEahHQMm5cumvpG7nGxpcKcveSqzfTjGVgVcQLfEqYzisP0h/TZFL4TfHoVw41/h3yIMo5ehobaXEqw5L8dhP6++wwyKZWpaaNRAqKipk5syZDQF+CP6DoUDAH4yG6667zoIxEUKZcM0ESxo9erQds5aB/MRrwJBYs2aNBXfie9euXRbwiSiQl112maxcudKiNhJ1keiGhDEmUiLXkRfCLCNv586dpgPhjYmMSGCiMWPGyHvvvWcyL7zwQlm+fLnpUlpaasd79u6R4cOGmy7vvvuuGThEjSQRPAmdiOpIMCTiThCMiqmWsWPHWgREZBNh8aKLLrJ2b9q0yfJgJBEMCUw43r17twWaIhDTzp07VK+xhgHRJvkMHDjQsKC9JOoYPGSwFOQXCBEfibSIfgRuYr6IiJTFJcXSoX0HKTtSZvpXVlRa5Er0JrgT7Q0JPcCD8iEiZLjGd7hOEC5CVZMI5ETwKOoicd+OVxyXiuMVDXnsQto/3AcMR+4FgbzQA32bSuhFGGzw4r6GyJhNlfFrjoAj4Aj8pSGQ0NgJMQIu6RuOFk3R1iGwX0GwBlItIoRT4PqGNjbK07iM5WsuD1WpbAved6h+h0U919qU/V1NTRWiQ4eEIWjiMWTnpMgQEucaaxUgh0ceecQIYvNmjTilJAV5TZs2zcgAkl6kURIJtQzBQkjvvPOOESGEuWzZMlm4cKFFNyRyJMRFeGdImhDFs2bNsvDREBfE/5Of/MQiFRIx8be//a0ZG9SHIbN48WIj0R/96EemB+U5j/7z58/T8M/dLdQ0v6kbokPn//zP/zRih+wwTmbPnm2GCgbSM888IyXtSkxfSBxSJBw1ESKnqb7IWLpsqQwfPtz0Bs9Vq1bJs88+a+GnIcZHH33UsAJLiBhDgnZx3KVzF5kxY4bpRQAsDKP58+db5EmugxWYvfjii4YrkS4xxqgXQ4XQ1elp166d8psnnjACH6rGA4RMQgb1E4Y7oTtuDB402EJEL1L57ysG3Ef0Im3bus1w6KLhrdtp9E4SGHMd44JFrHPmzJFt27aZYYNhyPkQdZM28Juw1xhd/AazEMabZwRsMWS4z0TZ5HniPInQ3emyiNTJ/Q5tsUz+jyPgCDgC5yAC7GwYfX+6BlTiFUft0+jX2OXoz/2J10ikuL8UXHCDWgz1mzWdAq+YRiHOUU5jdiCkpod8movMEDOjeDp6PAV01BBXEISVMnToUBuFDx482EgRwli7dq1cf/31NsKEZG+++WYj3i996UsaErlaCWilXHXVlfL97/+7PPjgg5YP8sMIYIQJsZJ69upplhDkASmjC2nX7l1WBg/F+vXrLQw1hLNgwQLTD70Z+d9///32G2MGnfmGzEmQ3rtK5nggMCYIZX3rrbcaYU2ePFnefPNNoU0PfupBI7enn37aDCXIFv16qmcEoweiXK1yOIcnASNjwoQJZrDccsstZqCQBw/JiBEjTAaEiAcGnTjmGpjdcMMNRp7tO7SXi0ZfZEYAJAo5Ll26VEaMHGFeGzB/d9W71g4b9R8/LgeViGu0TYMuGCTPPPW0Ee3nPv95M76ohxWspWqw9e7V28pBwge0bu4pRlp4e4X7B5bv6Dm8KH369jHPCXnQhfyEtcYLUFZWZh6gw4cPN+CM0QWmhPreunWr6Y3XiTLbd2yX6qpqM2DwcuB5oP1gj47IBCsMlsKiQosmOmr0qAYvkinu/zgCjoAjcC4jgDFgGyVBuCdINxGPqqHADol4kPP0mwHcietntEnUf7LTolXimzYp6kXRaUMcGAgYA5A3nTnHXOM8o/7Pfe5zRhbTp0+3koxw+UB6W7ZsMUJgZM1oMK5RrrgGMBAHJJNQA4BryA9ktnHTRhl3yTirC4JkhM1UQEJ3qSLSJESNUQFp5Ws5CGfevHlG6ujHeYifESyjdKYSkEPdYRS7RL0OXMczAAFDtlynXejGSJffjIgpC6FBkHgTaDeelZ49e8qUl140Ejtw8IC1l9E20xXIvvTSS+Wmm240ImV6gbqRCa5gsmPHDhudox8kig4JiwSm91fz0hbqwjiaM3tOg47hboPD+nXr5fHHHpcnHn1M5s2dY/q99eZMaxf5wpRFunsfnDGY8AhhLJEHo4FvDKRu3bqZ0VOjgUUwAMCjVuviG6wxtJg+Ahvkghn6c58wkDjGO4Dxg+48N1WVVfY9adIkk09bS0tLhSkfdOA+gC/41EZrzficOGGi1Rna69+OgCPgCJzTCGi/nVSCZgtk++ZYP7WdJ0h177ulusddUpPbz85FdMdDPkl9JVFXN9oxcRwicR0kJ3S7ZD4NxxrkiVcXw3nLx46JvM7I+fr67DfbL7fdQmjWgxDICc8Bo0FGoB06amhJJSw+dO6QDKTH6JIOHjc9CTLlOtMLd911l40oX375ZXOZM0KFhCBwRszPP/+8vPXWWybrnnvvtREko2uIBtc68+wQWUhZWdlSOnCgueXR7Y477rB68Cbwu3RgqZQfKzfS+dNTf5LOnTobKYWpEXSDVFkXAAned999NtXAyB+yQi/0wzvAFMgPfvADI2p0wuDAq3Hh0Avl8ccft3YxWiYf9WMQ3X333SaHNjFFgMscvPCAML0BZsjH+GCEjZeje4/uMvvt2Q1rKchPPnQl4a6/4oorjPjBNZznGnInTJwgl152qY3Gp7wwRQoKi+STn3rAPBbkIUG6tJvROQlCpz3Ig+TxDCGLNSIYBNSJBwHPCLhSPq5lyEMZ9EcGo36OwQ3ZHTp0MPkYErSDKRGu0XYMEM5jLGBEUQcGAXVwnfwYjOTnmSMvGFEnxqEnR8ARcATOdQTgTvMg6EDWEr+zcqXjsNukbtd8Dc+QLzlDvixVC/5NqvJ6mSFRULNVorm9JJHbWacnDkuyoKvkVTNtL1JbMlojN27XmYJcyYsfkVhWsXJ/QmI5nTUcdLHkV60VXQFwwhzALsDgIBZEG1OzOylCEq+++qrNc0MOkADkTqfNYjpGfSwWhCS2qVsYA4JOHHAYOdLxM0pm0R7rF3At10RrpEjP19RE7Tx5IQQICgJHNmUhEEgU9zPlIQjyIo9EXeTDg8AoNngfIKAwmkUGcmkHeSjPGgZGr0x/IItzECPtQw8MEciKOiFojB68BeSB/CgDiVEHbniIGl2on/rAqGMnLav/oQvYkJ9FfRAeMjh3XKcEaBOjbOoiITtF/hgHKYMCeWACsaMb+fFKzNM1FVHF8KGHHrKy/ENZjJGlSsiX6Qi+MaFSL+2BlEnIRA/0o82hLXWxOsFrgF60LRgDYIkO6EMZsKONtINrtA0ZfCB4EvqCP3mQBc7hOrpwDM4kvrnOfcXIQAZ1hzI8T54cAUfAETiXEUjE6+TotC9L8igL4vGT23JEPciRgon/Ksf2bdTDQlt8Hj20UeKdR9nvrD1vS+GQ2yVeobsvtu8rkYq9UsdxXgfJiasXP7+zZOkURXTnHMnpNlql6iCvuJ8ZCpHDqyS55Rk1IBj3p/rTRKxSsnt/TDpO/oEaJ037AzJtlNSsgQABsLCMdQEcB1Lg5uAyHjlyZEPnzrlzPWFMsC4hkhWRMRePOdfVPaV+GA14KjDWWCPhyRFwBBwBR+DcQMAMhKlfEjm6XBVKkbWN7dVAKLz83ySxf7nkDb5Vjq54UkoGTJBoPEenlOOSU7NHbYF+UrP2D5I37D6p3fiy5I/+rC5ZqJOKWV+UkiseEak6ILH2QyQ7US3ZGhK6tqi/1B7bI7nJGomv+elJhkASA6HvHWog/PCk85lQymQgNG1S0DQ1f3Dvp79Kl0n4X8o5Rr64zP/SE54KXg/15Ag4Ao6AI3CuIaBGgQ6ok/q6Y4RQzur453XGiHpdI7Eaqd32hsQOrJDii78icX0dMpHdQXPoG4JVByXSvpfmV5+DGgwRnUqXKn0TIkffBhv+HUnkdZHY6iek+OqHpXbnfKk7slESA3roJILKrdqvVWp9ceYWSOrhVcMCPdqamjUQ2irYyzkCjoAj4Ag4AucrAsRBSOpiel2OnppmsDUB+vrjqsckGTsmscP6SvmKn0iiWtdbdRyE9SCxQyuk+sByPbdfatc+qesVD0t0jU4x6OuK7bqNkdgKfa2+cotUzv2/dU3icb1+UHJrj0tRfkep27+w3hioDy1NiGldqHg6yQ2E00HPyzoCjoAj4Ag4AhkRUIsgqW8fMJIP0wz6emPs6Bo1BpR61TsfO8wURI5ElfRJEV24KNEyux6rPZzKV3NAr6jxsJWNl/S1SF2kGC/fQGb9ZEvt/rlaj74skMV2ylpXmNFAIG8y6H9tTW4gtBU5L+cIOAKOgCPgCJwCAdbs2WuLrFI8ibW1gE4FpHib6Qd9ywCDgdPsj2AHvJ6oiXyWNI8aB0b19mYC1/QcHzUKMBaYXrCUbg/oK5CnYR+o6eLJEXAEHAFHwBFwBM4sAjq9kNoo6YQHgXcZSMGjEH5nOnf6ebRe9koIhoPV3Lp/3EBoHV6e2xFwBBwBR8ARaBIB9umJdLlQEruf01AKStL1bv/0wT0CGv/OdO508rDXXn6Xi1Rs+rwDtbQsuYHQMpw8lyPgCDgCjoAj0DIEdFqhZOLXparTUImV71F6zkTzLRPV5lw6xZHX+QIpHn6rzkLo2xBtSBn3QWBjmrAZURtkehFHwBFwBBwBR+D8RoB1Abqg0EyDxmsQ/hzIaMRHDJMIrzrqN2si2HiQzeoypRbvg8BmSLxn78kRcAQcAUfAEXAE2oKA7mXQNs9+Wyo7ZZlkUt98aGM65RRD2Pq2jXK9mCPgCDgCjoAjcP4iENMtkXctkUSVvq54lqYYstr3lvw+49s8xXBKAyH9rhJvgDgCuChCwoAgsE4IyhPO+7cj4Ag4Ao6AI3BeI6BcWbH8CYlufUm9CPBmypVgh/orfcah8blT/QbPUK4leXiBMl4XlfjFX5WikXfbq5DIaE1q1kAggM/rr79uAXkwEFifgHFAgB3mMm648UYNONHe4jWE4ExEYCQIDzEcCA5EwB3C/SKL8MdETxw6dKgF4Fm/fr0FPCKmA0GACJa0bt06Mz6IjLhNA0ARVpi6MVKIGojBQlAndCHCIJEHOSaYEuGHCexD3eQjQBCGDKGSQ0IWIYeTinJJ8QenUpBFACPayFQL+YnhwNRLCEBEHQQnInjQqeZ0CISEbuRFX4I7ZUrIJ+AR+NC+liRkgzexGEgEtEIfsG/s/WGjjHgsFb76VDqEgFTcr6Z0DbqhcwjlDCYEdQrYhDz+7Qg4Ao7A+YhAQkMu1x14V7JhaU0NMw0Ncw5hsK1XGi7Wn2ucp+E3klqRRwVnZyt37VkiRSPuapOBkP1dTVR7qgTxrFmzRvr3729BgSBM4hmEsMr8hhx+/OMf28JGAght2bLFyPV3v/vdSdENf/GLXxiJzZ49284vXbpUZsyYYdEPZ86caWGi/+d//sfImfDARBwkPPSAAQPMcHjuuWe1XDuZPn26XH755WaETJ06VebPn286QewDBw40o4Tw0+hNGGkMhCFDhjQ0ERJc+e5Keex/HlXjo6d00+shYQgQnnrKlClGtrQP4iWiJd4S6iBQEgQ5a9YsqyuErkYGxI0hQyLiInLIT4RFol6CJ0YLieiPEDOGB0bR6tWrVJ/e1hYMlBDZEaMJIwS9KR/X92u5tmDBAiPz7Tu2W5hoyJ98EHcIn0xZojLSJmSmR3ek7hDqee++vdZG2orefdSgIQIjumFwoCvYUAfftHHTpk2yectmjcxZZItfMHDQEcMK4yxEoSQ/sjAgwI1r4BRwMDD8H0fAEXAEPiIIJJUnou+/qiGbNY4CGyFpv9ewsVHY4Mi+Oc+WyPWbHp3Rbx0a6hbNkeL+UnDBDc0aCDHljRzlpvQBZrMeBO4XpHjBBRfYrYPo6ORZDZkuCCLhHNcgkSw1nQK5QLJbNm8x4vva174m5cfL5Xj5cSP/L3/5y9KzZ0/52c9+Ju+tfc/CBR8uO2zkjOeARD2pT4qsGtcb6sEDwTHEc+2119oIe9y4cXLDDQqOJnSrrKiUquoqC/3cSQ2b/+df/i/52tf/Tq686iojNtoKweHlIHQxZSDN7du3mxcC44dzwUBi5L9jxw654847pDZaK4sXL5adO3caUQYyhrAJnzxt2jTTA/3waMyZM0duuP56KVWjhnDSe/bsNeNn4AUDZdE7i4z8KyorzJhq3669GWJEoqSNBM+C8JGBzpAu5Pzaa6+Z/nho0JVrefl5Una47CTvBGWJ0Em7kEcYakibD0bDzDffNPkYGlwjtPc111xj9wHjC+OAvBg9eIGQRTu513ggMP64r/xGB4wFDD4+eHeuu+468/gYIP6PI+AIOAIfJQTwCihPpDZK0uPgJdA5Atu8SD0BTD1EIuyOGNwM9d6BU80jgM+p5hZCmfQ8yG3YsZELrU8tMhAg5DD64xjipPOHrELiPISOixzCgABx+ePyhmQYQUIUkOuRsiNGGBAT7ndgse9EUiZNmmSjaoiOkMyQNWWQn8S6wiOjxw1JD/EQUE9wtzNinTt3rmx6f5N865vfMsOE/BDYa+p9wIOBLlH9vU51/e1vfitjL7nE9MU7MlAJG0MIQwe90BP5kBvXMRj49OvfT6684kojZVz4jMgZaTOKh/D5Hj9+vI240XnFihU2BUJZ8LhKjZLRF11khgxtvPvuu20KZueOnZYPnPGO0C6mE/AcoANeBPTD64An5RLVHflc4z4xkkcexA7Z9+3T16ZSLtK6SEw5oCukzb0pO1JmXpoxY8ZYeQwNvC+QP4YEhh/3ZdSoUbJ7924rd+utt8qyZcusXnDFiwRGtJHfTClhsGE4cD94Hmg39/Pqq6+2KSZTxv9xBBwBR+CjiIDy1YntjzEClL801RRdKPG8rmooJCTn+EYpTBJ7AWNCL2psBWVD7aThOj2273oDIu0YzjQWNJvC/rEzqZ+p/BEE6lQHPX5bU7MGAkQDQTLqY1QNaUIYuLhTpJ2qHCJ9/30NW6mNZoQMEeDeZrRJ/iuuuMII7kc/+pGR5wMPPCATJ06UX//61zaaZyQ+YsQIYVoCYkN2l85dpLp3tTz22GNW7+DBgyU3J9d0+dWvf6VrHzrYqB2ypB4IFSMF8n322WfNiPnTn/5kZAQZo/sdd90pt9x6i7rID8jvfvs7uUZ1/dLfftnIDBAhR9Y1YNyQaBftgNwgSwgVwgOXrbo+Ils3oMBAoY0YB3gTmBLhN0QNZky7lJaW2jHlMK6QAQHzu0bJepvKAmfqof1hzQTEm9DtsDAStm7danUFjCdPnmzTARs2bDBix2OQqwZMnepBO8ABmZwn8Q0GeDaOHjtqng50Uf+MeQO4hmHDOerD2AAH7mfwhiAPHJjewPhg6gmjiQ96US/3Dr3BjesYNDm5OXYOWRhOPCuhrCnn/zgCjoAj8JFCQIdiEDRBlYz9IX3tBy/6lCQOrZNktk41D7tFoosflupkB7UR4lIQPyBRaS+JnPYSqT2q4Z07SX6dviCg5Wvz+ktO7V59IyFX8qRSzQh9fVH5oy7SzmQV1O1S3lUvvtWVApJokmYotBHXjBslpcuic3/llVfMJQxZQoIQIh39nLlzZOyYsUZ+25S8jqmbG8MA93tCrZ2tW7YaYXAOl3hdXa2OetdbeUgUQoEojuuUw4UXpkboyIfwICjWDUCe65RgISYMCEa+ECW6QNYQmM3L62+IhzKQ7zYl3GhtVG9QaiQNGYeEa/w9HSEvX7pM7r3/PmmvawtCQidG1pAcI2AIHKJnXp4ROnPvkB91Q5TUNXjIYDMUkMt6gFhdzPJAmqkR+hHJ12NG1kwZlA4oNQOrY6eOkqUPDzKQSz09evSw6ZmC/NSCRqYraDtue8ibPKyFgMxpLzqABa58jDawADtwIT/tQCbGAvpQBv3BdY96A9AZedxPrjNVAZnThmPlx6RP7z4N8jF6MAAwDCB/DDLKkbjHlEcH8nGee8U56qbtGG+Ux/AgH3qS15Mj4Ag4Ah8lBBK6OdHRaV8WOfqu9cGp8b56FNRAKJj4XTmydZE6CPKlU79RUr3jHUn2uFTtCCX8na9LwdCPS6KuWpJ5HSQrViF1B9dLMr+Drg8o0kG2DtjV6IjtnCXZXUebbyBeUqri1duwb4FEduu6Bwv8lPKyJ2OVktX7Y9Jx8g/UsGi6r820UVKzBgKEyfwz7mTIEiLgm4TLmjl+CMyTI+AIOAKOgCPgCKi/AANh6pfUQFiucKTI2lz9St5Flz8siWPq7S29Xo4t+oUUD9AF9+oNSCR0Kr9ml+R16CM1a/8oecPul9qNL0n+yE+bJ6Jy9tekeNL3dY7iiNTlddNBqU7Bxyultqiv1B3fL7nJGom9+6OTDAEMhOy+d6iB8MOTzme6R5kMhKZNCpUC+Y8dO9Y+mYT6OUfAEXAEHAFHwBFIR0CNAh1IJ+OpKVeuMKyOKJ8m47qB0rqnJL53iRQMf1AS5foqvC4mTKh3ILvygCTb6Wv9eqybGFBCJFquUw76dlr/z0pBfleJrfujFF35bxLbNV/iRzdLoncXiUerdPqBvYq0vnhqAK/krb+J5lj/GyVamZo1EFopz7M7Ao6AI+AIOAKOACaBriuAn/EhmB9BPfJ1657W05VSt3+O5OjJeMUejbg4mtG4xPbMleiRDZKs2KnegymS0GvRtX9SgyEqHXtOkMTqRyVxZI1UL/yBJKrVmKjeK7lqSBQXdJI6nXZIGQO6yJGkU8+6AU7quI3/uoHQRuC8mCPgCDgCjoAjcCoEdP5eiV1H8Pq6YVLXgllSg6F2/zxdMgD16vqz3W+o4ZCrRsEq27gvklUkycrd6mnIlUTNHrUqdOqhepcVjZUtTa1TyCrQTZgW6loDXXegi+Sj2543QySSzaZ/ugSgvqpUfXVqprgHwbDwfxwBR8ARcAQcgXMBAdbq8RaBvcKYztFK7DaFwOuMahzYJSV9kq3v47ou8hdRI8K+69f4ZRWn8ppMzUMBO9ayahSk1gaqxyC9Lt6iSP9NmVYk9yC0AizP6gg4Ao6AI+AItAgByNtec4Sj2d8AHof4GdOH35zFUGgqT+r6yXkal8mUR2UmqvSftk8zuIFgt8b/cQQcAUfAEXAEzgwCEXX9SzuNF6R79GSFRQgqOtNgvvG55n6jYUvykM/sk/YX6FH6vANXWpbcQGgZTp7LEXAEHAFHwBFoEQLsP1My6e+lsri3xI/vUnpuTOknxLSNuk+UP+WRGiZ5HQdJybhP21qFU+Zr4kLGfRDY+4ANeTw5Ao6AI+AIOAKOQBsQ0LUEiYb1BG0ofwaKZLOLY1Jfl2Q9hH7YmI7N+zKlFu+DwN4HpxKSSbCfcwQcAUfAEXAEHIFGCOjGgmczEeIhmTihA56N1qRTTjGwY6InR8ARcAQcAUfAEWgDAjpirzu4ThJVRz64aKAN4lpfRJdClmicoK6DtWjrDINQ1ykNhJCBb2IFEEQoPeGuYE//sBd/+jU/dgQcAUfAEXAEzmcEKt/9g9RsfEYXKfIWgRK0DefriZrjkMLGBeHcqX6Tv6V56mUk9E2KonF/L4VDJmvZ1odEaNZAIOAOoZcJVkRQoOCiwMNA0Kbrr7/eAvJs377d5jfIQ/AfojMSoIcARxYJUHGprqq2YEBECyRhZGB4MKVB0CBCGnOOQEMEFQqyCPZDIi+BhIhuiEwMF4L/EP2QRFnqJZAQAYGIpEiiHO0gaBHXkNutezcpP1Zu4YvJR5hqrhGoCcOH9hGsibycJ+gQ9VEXgYaCbqzV4DdYkKgHLMhPOOi62jrTicBGlCG4EnrSXgIj0U6CFhFBkrUfJAIxUZ5v2tO5S2eprKi0cuiEjmDVTessSptPCnLBM1MQJORTb5w1JqozMrif1NVd8aiurpFC1SdbyxP0ibbRXnRvnJBFWwiuBa65ebkWeKpxPn5TJ88CAaXC85MpXzgHTuTnHoBBQ3vro4mGfOEbXWi7e70CIv7tCDgCZxOBhO5gWLd7ge6UqPP/TfJy20b2zbcNA0Rl61bLtdtnS+HgG9tkIGR/V1NTlUEUBGsiSuLw4cONLCCpYcOGGbliAEDGzz//vLzwwgt2js76j3/8oxxWYp05c6aR5gUXXGDXCd185ZVX2hoHyH3q1Kmybfs2Wbx4sSx85x05rJECOU9Ex6eeekouvfRSefLJJ42EZ8+eLVNfnmrERDhkzs+ZM0cI5QwpQs7Tpk2TF1980cgXfSEnQj/zGT16tPzqV7+SVatWGan9/Oc/t/DM8+bNM6OA79WrV1tkRcI200YI8PdP/t6MiT+pPp2VLDEAyEdEStr83HPPyWWXXWZk/pvf/MbawnVIP64PyowZb8j48eNN7xlvzJCNGzam2rtwoYWppi5CMb/88suyadMmI+aFeg2SJFw1Bss2jU5JyG3uAxEwqRPjgiiPIWFMLHpnkUxTOUSvbKeGVkjIIuAW96O3RlXEOCBk83vvvWeGEL+nTJkinbQuCHfGjBlGzNSJwYfRxnnqqNP7Ay6zZs2y+4QB17tXb7tv5IGoMaZqFXuOd2vUyCVLlhjmeJy4v1wnL/cMYybI5hqy12i0TYwJ7h9laT9GIc8WBk0wOmo1Yuf69RvsPvJMtMQACZj4tyPgCDgCHwYCbJBU8/6rOmI8pOKVrImtYJse6SCQb+37Tvqd6dyZyBOvFinqJwUX3NCsgRBTjsjR/jm9D23Wg0CHzIiOUTaGAKNx6/zrO3iuMQL+yle+Ig8//LB8+tOftlHfm2++KZcqKS7WRkI+lIFsINV31BC49dZbrbOHGNhVinq66mgVYuvfv78RF6Qw/bXpNntC5MiJEycKpP7FL35R9uj7pchlhLlu3Tojf8hl8+bNZnyUlpYakUBoJL6XLl1q5MNoHwJG5u23325kBHFBZtSBbPQNCY8F+lXqyJ3Q1xdffLGBiEx0ZAQNieEZYbT7zW9+Q0lxj3keotGUlyPIUjFGhtQ3bvw4OXb0mBkODzzwgNU/dOhQQXcMLLbTgCzx4IwYOVJyVD/IFCJMhc8mmIc+ZyoUwiT17ddH3p71lnz/ew/L337tqxYiGwAhYmRBrnhLuGfBE4LRgbEA7uRBN9qPYUJo50D4YIshB+YYDTt37ZSOHTqawUIevEyUAd/ly5fLqFGjLNonBgSGCCGmu+tzRBhqcMLAoRz68KEMxifPAM8Z+OK9wdPCdQyS8CzSZu4Ti2mrqqvMQOFc+sNtgPg/joAj4Aj8uRHQPlc7Zv1fgydplMZUwkjgrQKmHBLaLet53nJocDGkPMiWxwo0/s3Jxuca/z45T1I3QgizEiaylf806fwIsuh0MRDwFjBS76Uj0IEDB1rnHvLQOZOM8PUYwnrjjTdsRHznnXcaCTOShHzmz58vkAYEBUEk6stigEA+fFPPtddeK6veXSVbtm61jh8DAEz5XrRokY20qQd5JGRPnjxZqA8DZf/+/XYeUoV03n77bWsHpEI5CIrRO6QPwVNnqKOxix4MMG5wuSOb3xg8eAloO8RJeyhXodMBjMDJB8mly7JHRf8xg2XJUsMLIwUZYMcnpNycXKsT0pytuqfLIV8gw2NKps+ph+T//NY/yY//68eyVfGC8B/99f9IhU4D8CAiY8SIEUa0YBzIl+mDnTt3mlcFTCBvyBlsyIPngfuBwQBRowPnqfvCoRdalE9G9uAIfuSBuDE6Lr9cw5iqUQCpX3311TJCPTp4SpCNdwfjA9kYFjwPyGZag/LBk4NnprS0VHHob3KQxdQGzw33G+Osf7/+ZrRRvydHwBFwBM4JBMwrENMBsO5yqJ+kDYZjUpXVQ47nDZfy3CFSHcvVjRR1cEfMBiVzJYD6Y35rH2/nOM8ndY7zEP+J3+GYujhGBh+ME3ZYTHFzWzBpkQeBjnfFyhUNLmLIgs4dkgiGAZVDMIAAeTHf/I1vfEN++tOfmuua/KGzx3BgegBSIC+kvldJATKh89+1a5cREsSDm//RRx+1ujAkYnUxG1UyTcDUAgQzZ+5cI2pIkFEoOmEE8AnEiyse8oPkISS8ALjpy9QLAdlATrSHY9YNIAdjAdc6pISejL5vueUWc6szsoXImDpgxIyBENYXIBdZ4Eb9GBJMcaArBMh5SPqee+6RMWPG2H0DH+qjHspwTL0YZddcc42RPviElE6GTCXcdtttco0aVPu0jVNemCK52bly/yc/KcV6H0iUpQ4wQTfuFaN4EtM5eHQ4T7uZQgFL8oIHdUH8TG0U6DnaCV5Rde9jTHAdnNCV9nHvwzoTjAnuJ+0JHgZkY5iEtSbogDEHvngwIH2mpPBGgB0ywCUYK+BCPWCI7hivlKNNGK+0w5Mj4Ag4AmcXAfUgQNLaH6lvUz9K2pEc6XjJ32hAJh1YakCmeE6JxFb8fxKtIyZDQgoiVVKb0PMR9a4mdK1bVjvJl3LlBJ2OzeoseQl9I0Jl5GTFNUS0DojUGxFPamAnlVUgxzR2U47mPdH/Wf3B69AGMDJulJQuh457+vTpRowsbjuixAhxMwp89dVXzU0/ePBg68CZN6Zjh1SYS2fOn2mA9evXW+fPb0iSES6dfDAyWGcA+eBhgByDyxk9IBpGk7jUs7IiKvd9m3ffsXOHXHzRxUY8TDFADLjNkbF23VoZNXKUueIhJkbI1AuJkAeyGzRokOkBAVFHqY5SWUfRq3cvGT1qtI10qZ/8BYUF0q6knXkI8JwgD8KFtGg7BIk++Xn5hgsky2JK5NCetWvXGnlBoLQNckWv9AWAyINIIU0IdptOXUCikDGuf9pFG/r07SO7d+027PEIYCSFBJGu0Lrxunzink9IdyXakOpidTadga60CYIFf+oDFwwnCBhDrUI9IRhAGAi0FwJGP6YUDh44aHpB3mZMKSnjOYHceVYwxNCTtvKM1NRgIOy2OjAMkAVuyOY5gNRLtQ7WnrDehTYH2eiObuBBGTDhGh+MS8piTARPFAaDGwjhjvu3I+AInC0EEuoVODrty7pC/t36AQukrYO/SJ7kT/gXObr+TdvdsMuIW6Ry46uS7Hm5Er9uLbDjVckbcrceE7VBB2daKrZ3qSTz2ktuh75SV31UsjEKds+WrC4jjV8S7QfpCwr5ktw1U7IPzk3JUYOElIxVSlbvj0nHyT/Q+pr2B2TaKKlZAwEiY3TMQkXIDlKgs8YqGqnz4szZQwh/6QlyZG0EJHX33XcbiZ+LbeJ+4KZnPcWkSZOMwIOerFngHmW14XWWIMO/HQFHwBFwBE4PATMQpn5JDYQVKkjJWvlS3QlG3kVX/rvujXBQcvpcLuXv/LcU9Z8gUVFvt3oG8qp26PbI/aVm3TOSP+weqd34suQOu8/KVs//thRc+s/qqj8u0USevjmGl6FaagvVcKg8KHnJqNSueMRCRdfbB2YgZPe5TQ2EH7bJQGjapNCmMdplLhlDoHFiNPpRSYw+r1UX/bmeuB8sZOTTOLHWwN3rjVHx346AI+AInAUEdLCW1LfYQp/M4C2iA+xkXY1E3/2VBnJaJPkDb9alBGW6XKBc4jr4y6o+IDnteurvKj2vn7iuO6irknh2kVR2vEYH450ksfEFKbr8X9SL8I7Ej22TRLdOEjt+SPdbOKaGBOsdtK0sO2AGgnULbV+CQMDplqWPkjHQshZ7LkfAEXAEHAFHoC0I4OJXZlbCZk0AvyzUc1zXl22ZrgsTdbS/8zXJy86T+NGtkt/jEjUedOp57zyprdyjaxT2S922mZKs2K1ehBeV6Ouko3ocku+/ILFDSyW67OcSr9gliQrdc4c1CYWdJbZ1ttanixSDQcD6RJ3KP3FCD1uZmp1iaKU8z+4IOAKOgCPgCJzXCLBR0rGXHpLEoQWKg5oHWAgkbAadFohkF+gPXbiYqNB/83TUX6NTDDp1r4sSbWGhLjqUZI1myddr+paDThtbuSzNm1WkdkeleiY4Vo+EHmOIRLKK9TfT/cFC0KPYMckufVA63fyIXmvaH5BpDULTJWiQJ0fAEXAEHAFHwBFoFQJMKTDyh9zTOFt/6xsL9voh4gpSl5T0SZRhsSJvLQiGg/2up2k1AIz6TWZe/bF6CCJqbKgB0nDNJNX/w2uPJ+yF9CstOnYDoUUweSZHwBFwBBwBR6AVCNj0gq5B0NcRec2RlOZISP1mF6P61xIDj38gj+VM/dOqPCrbDBSmHdqY3EBoI3BezBFwBBwBR8ARyIRARF3/UtBZQyHs0amAbPuk5wtGQFPnzkSehO5VEykk9lEmaem1Zz52AyEzLn7WEXAEHAFHwBFoEwK8uVA04etSma17uOhiwtNx87dJAaswKTkdBkrx+L/R9Qdte+Mw4yJF5kHYdMfmQ9qmnZdyBBwBR8ARcATOWwQiuigwrlyasDcJzg4M2bqjbpYufgxrHtjHiFf6M6VWLVL8KGx+lAkEP+cIOAKOgCPgCPw5EMhjquFsblynmxom2RtBd2UkhT0Z7EcL/sk4xYAQNxBagJ5ncQQcAUfAEXAEToFA/PhefVux/BRXP+zTuqtuYRfJKumqFX2IaxCYamAr4vTEOVwVvoFSOip+7Ag4Ao6AI+AIaMTedS9L9dondbOiGqXnthH06eKY0AWSJZd9Q/L7T2qTJyOjByFdKQLiELaYQDkEWMK7ED4DBw607YnZ/pfgPsxvkIcgPcQMIOojQXlK2pVIdVW1BdUhjgOBfQi4QyAeggARcIe8lCERfIc6CCqEAYIxQuRB5FIHieBD5cfK7RzBlIjASGAjErIjGtjpeLnuWa3ySQT8IR/nCFREBEZks9YiGDrUjyFEoCG+0cEiB1ZXSV5unnTo0MF0RG/Oowt1oV9oPwGYSFwnHyGJkYds2kVwJK6FY+qgLWWHy6wt6Anm4IFeREsEL85XqR60Ez30BRap1LDStI/ryKUMGIAxbeO+IIvjgHvQhd/oBhbojxy+OYf3CP1IHHMP0Rl9yEe7qZOEfLAqKtbw0CqrWo8JWoW+nEcm5exYdS4uKjZcrXDaP+gTdAUT8lMPdSOD32DIM0A+PuhGORLt4Df1JvQdYqJ+0hbK8AEDEnnAiPLcOxLHtAdZtI/8tJdE3eCIHrQjPYW6g+z0axwjgzzUyXPG7/C3QRspR13ID891kIFOtInzxSWKWTMdDM8DbaYccmnPqfQKdfi3I+AIfDgIsFFSdOsMjZWgnFTf92SqiTccedPxQ0ux41Kzabrk95vw4RgIRM0jTDKRGIm0B1HT2RGVjyiLRDbk/G9+8xsLE8x5QiDP1RDMIXIiIZKJHLhgwQKLttenTx+L+vjSSy9Zp0sESM4RZphOfcWKFdZ5Q4Rf+MIXLKzyD3/4Q3nwwQfliiuusI5208ZNVufnPvc5GTJ0iAUveuqppyxaIiRx77332nU6SaIIEtiIDvrFF1+0zh7Z9913n7zwwgty//33WzkiO7711lvy+c9/Xl5//XXruIlGSZRKZI4aNUqGDBkiv/3tb01fSPn666+XefPmCREl6ZTHjRsnd9xxhxH7008/beU+85nPmLFAXRgQgXzQEcOC80RrhIQIuwxpvL/5fYnWROW9994zUrn66qsNB/LTZiJS/v73vzcipxyRHbt06ayypphutLl9h/by7sp3jWiIWIl+EyZcppEzN1u9N910k7WT8txHonRirEGKy5Yts9+c69ipo8m58847ZcPGDdK9W3e5TOUQVXLq1KmmA9E2CedM+GWeB+4pBMc5QlGDJ5ijO4SYniBlImASgIr7C+YYpUSxpCyYcV/Q6WMf+5hFCuVZGTd+nIa33mf3d+E7Cy3iJlE6Bw8ZLEsWL7FQ2pA69xUZ1AMuyIKgyYveRNGcMGGCRaNEB3DifvIsggf3a+SokTL5pskNakP8qzXk+Hv6bIy/7LKTYmOQH/14boi+2bFDR1myZIk9C127ddVFSwnp3ae37r0et/s+fMRw6da1W8NzwTNLBFBCmmPEEHeDqKGkYEikGyfcL54HIqhi/IA99y0k5KXnD89fJlmhjH87Ao7AaSCgf5PsiJjaBRHvwak9CB+mfUD9thdCG5tyck+dQQgdC4QFidCp0nnT8fOba4xYCGH89a9/XR5++GH57Gc/qyP1Qnn77bfl9ttvl9mzZ1vHxcgmaIQLAAAxZ0lEQVSJzpbQzhgRhPrF0CAQFESLTEaJpH79+ln4YQwF6qbTZuRLJwvRkzgPgUCM6MAH8v7MZz8jjz/2uCxcuND0JeIk9WKsYEBgDJSWllp0SggDgyd0nnSc6ESHG0aS3DxICm/JY489ZuRBWzCC+MaAggy+9a1v2TGGECNYiIgAVxAfCXKkrb/85S/Ne/HVr37V9IvqqJ8wyXg0IAFGm8irqkyFY0YuRgG409FfcsklVu8R9SyQhg0bZrqiB2RCvegWSHpA/wGmA+2GGFeqwYCOtA8SgiRoB4SCccN9hWjQh3uF3hgvEP/MmTPtXoN1bbTW9MSwIB91oyP3B/wwbDhH24gEipGJkcW1xoly6BLuBfcRnZCxb98+u3fcb3DAKOUc9wodeG54fiZOmGihx+fMmSNrVq8xnY+q3NEXXWSeFbwrRMEkL/cTgxTduN/IW7RokdWPzhh94IeBcOWVV1o0U9qcnrgXPXr0lHlz58kvf/4Le67GX3apGT94X7apxw0PEoYZRhJtAltIn+exfbv2piPtKikusSiiXEMnnlXKUo6/CdoKzpzjmafNu/fslgmXTTDDB3wJqY587iPPD7J4Jgjjzd8tbade7mv4G0YWefjNs8pvT46AI3AGEMAeqDcS+Ps72UBg26SU55PFgx/sEc9A/fUibNvm0xDXrIGA7DDaorOio6IjocOD5EMiD52mfesxef/whz/YiOa73/2ujSAZ3dAZM6qD6Oj46Nz4zUgulIfAOAdxQywYBhgNEBcdb+j0Qt18Uy9kx1QABgidNGSELBLEiTxGkng3MDomT55shB9GtMgICV1IWXouLy/luoYwaBdkQUeOTIiMjpm2TH/1VYnpN94WRqHUF2SiGwTJb+RAvKSO+s2oeOXKleZhgbjRHT0hBAiLchgOmzdvbiBYNIVc9u3fJ9m6Upb6KMsH3UKiHXyKdQqgW/duMn/+fLt/EAXGy2U6+oVwAiGBHYl7BUGhL20Ec35zP7j/bAUKDsimPIQU7uegwYOMWDEsuN9cA6tgIKAfRI7O3ANI9MYbbzTdaCfGIPWAK1jSTo4pzzOHThA895djdAh6kgfC4zp6YShiRJHQl/tAHTxTPEt9+/Y1zHiuqYfnDHnkY5oKubjvQ8KgwJiY+cYbZnhUKE4YJBDtt9q3My8TRgjGHjpTF88B9/HQ4UNWR35+nmFaq5uYgAHPOtiGaTby9evbTzqrR6iwoNCMB0gfDPkboI2jR402TwEGE7pyH3fs2GEy0IX7i+GOXNqDtwQ9CN3O/UQGRgW68rfoxkG4w/7tCJwhBBgMqRchqW8xBGahJ6lJlkg8q0QNiJjkxg5JPrPm0M2JbiZlT/CbguF8+rGePinVXwtFwrUI2zKjRxtTi3ZPoIOhY4GM6NAgDzpwzqcnOrikdkJ0RKw7+OY3v2lEBynR+dLxQwakt9XDgBsdt/3BgwdtJEcePnRadNzMv7/zjoa0VNLt0bOHlWUUnCmRhw5/xowZNhqFFCAEOklIj04Umc8884zEVT86euqiDnTBaOAco9RXlegZMVOOc0uWLJXp06cbYTAKI9EO9KQTh4hee+01nSsuMaIN+kEuIUFa5IGAMEimTZtmOGHA4E7HYAAz3OEk3MqQ9u+f/L387Gc/M1KiXJAJOfLBNc1oFyKoidbY/UFHyAndycN9ycnJlS6du1ibwaG0tNTc0ubqVuwgH9pLfowM7hW/s7KzzCjq1auXeQe4V9xf5FEv9SCfD6Tz8Y9/XL7yt18xUkZX2gXO3AfKkZDN/cHIDMYZ7wqTD+PobfU64a1AJ1znlONZg9gCofLN/aUM7WRKgDIYH4yi0Q2PCAR9XGXQLkbm1IdxAraUpa3ghd6MoslHfVxjCoCUPv9PvaP1mf2rT39aPqFTRAPVnd9Lpwuuvvoq6ZPm1scbAia0nzref/99qxNMD+t6EwzCPXv2Gi7kw5iC2MGTtQR2n/XvuqKywvACC4wMjAnahgFE58FzT1swxPimHDqCMXl5NinHb/JSP/fJZBUWWP1c47mnzZ4cAUfgTCHANIP2eRp3gZF8AmNBB1Yl474iHUffKx3GfEbyRv+tepx136GaWu2/69SeiFo/XlWj66FqKoXvWF1U157pGr6apH5XWb+SiOM1r9VPjeaPanmVH69WYyBVF/XxemPStlluu4GQraP77zYFBx0dnRtz4HRSdNTDhw+3tQSQGZ0rnT8dEx1SqRIPiwFxm+IVgATo5BnB0AEhj47t6quutkV2dGp0zpAWo2YINIzScfVCTGPHjpVrrrnGphPovMkDUeGWxp0OCfAh0cHfcMMNwtQCumLMhBH5VVddZbLRhzwXqfsZwwGCQTdIGT136pz0mDFjbF4aQoGI6FCZMglEh9507LQROXv27DECC3kow4gfPSEq2kQHjXubeqiTTp7OGZnMgw8cONDm4CEyRqC088D+A3bMKA+8aSf50DvoDgkxAsdooQ7axzfyMWIglF69e9loFPLEKEM2mEPUEApt4d5wD7kGzmBHHXgPKEde7i/lwIPnAbIBZ+4P9ffU+9Vez/M8cI358BE6xz5s2HC7DkFRB88Nx8gnIQN5nTp3khwNe4p8yBJsaB9lmM/HowB+6IhOPB98SLSVNQw8cxyTj2N0Qmdw47ngXvOcMB0yUrGgLrwrGCA8g4y+qRsduf88/+iHPL7J11V1P6Kkuk8N5Tvvuktu1/UZRXovScim/ejAPeBeQNSU577yLGAM8OxwDgwwxNCLtqIn5XgOaDf6cN+pl/LgxjU8R3ijeJZIPLtggt5dFDfwRB7n+OZcX5VLPbSZe4Ms9EUn7le4HybQ/3EEHIE2IYAhULNxqr7KoFst63SCUbSe045B8vpeLUfXvSLRQ5ulw6ArJVq+X7IGPyCRnhN1tfUhyR35ecntd4P+niR5/W/UDkWnITpfLPmDPy6JkoGS03W0JKIapbG7LjxsN0gi/W+RrN5XS7K6XCLVu60OLaT/a328QVEyWAoGqZxm9mOIaR+Qo/0JfVdIGXdSDBf5hugYcUFOkAYdCB0KHSUdDKRLJ/bnTOiBO3XKlCnCAkgMlnMtMSJjAR+dO1MIp5sgaxZD4nG45557jCxOV6aXbxoBnnNc+njPIHLc+OmJvw2eRUjakyPgCDgCAQFG+Eenfknk6Ip6woZ08aDqmq8rfyjxaIVk97pEqhb/RPJ7j5XaiA4uNAR0buUWye88SKIbXpC8oZ+Q6PtTJeeC20xG7eLvS/7Yv1NSZr2evrVVpHscJGslWtBLYlVHNC5ktUSX/1DtgBytJ6L/McNRKdl9bpOOk3+oozDOnzq1aifFIIaRCyP5sPgsnOcbw+BsjDgwTkp1JPsP//AP6eqcU8eM8FiweaYSo8EzYWicKX3OBzlY0hgGfDKl4LXKdM3POQKOwHmOgA4wkvq6Y4SRO5EVgUO9fslYlURX/FjyD1ypRoJ6AZL6pkH0qE0ZRKKHJaekhxL+YcmuLpNEzVGJJGp1zUKBlEd06lQNieS2aVI44RsS37NM4zzsFOncTmJHd0hdpNamM6witQ50GK9OBD1nFbftXjRtUtTLpKPEvenJEXAEHAFHwBFwBJpDgPE7zMyaABarM6ZnPYKe2a1v2ClxRzc/L/k5RRIv2yh5Pcfr/jG5Etu1VKcAdefFmjKJ710iCZ1yqNsyQ+XoQudh6oneM1vq9s+VrLX6mvTRzRI/tllyc0qkXftOEt8yVdczsG5K67UQ0nqsaxFOx0JodopBpXtyBBwBR8ARcAQcgRYiwEZJx156SBKHFqhlkHpFIbwPlUzougD1CGAyqAWg3zpOt8WESuh6nsBKdj2pr/1n6do6na5IJbUu1BMR0TcgEnE2E8zT6yojjgy8FDrVSf4Gl4F6EGJHJLv0Qel08yN6rWl/QJumGOo18y9HwBFwBBwBR8ARaCECTCokdfqA1QBJHdHjTzBPQiTXjADEGMnbQZ7m0QP9pNYQ6EJqDIcEBsEJYicPGx9FstQ4ILtelwh7FNlPPaHTFcjRxDnqt4pTp1r974maW13UCzgCjoAj4Ag4Ao5ARgR0asF2U1QPQj1nN5B149+Ub3yu8e825bF9EFgc2bbkBkLbcPNSjoAj4Ag4Ao5ARgRYmJjM0TcT6o7Uj/Yb6N7yhwG/bu+nhkHYb+VkUSFP+tnG5xr/Jm84h88iUavbCuSzKV84my6t+WM3EJrHyHM4Ao6AI+AIOAItRiCib9oVjvuSVMb1DYQK3ZvA/AOQdCDqYDCE34hufK7x79bm0Q3m2pVK0djP6fqDkzc1RFJLUsZFirz/ze5vnhwBR8ARcAQcAUegDQhoqGXbK0V3O2ywC9og5nSKZOXpdu9sRqebJsHrbEvAxniZUqsWKfJqIwI9OQKOgCPgCDgCjkDrEOC1xrxcJec84i60ruyZy81CydQahPQdElsqP+MUA4J8d7iWQuj5HAFHwBFwBByBjx4CbZuY+Ojh4C1yBBwBR8ARcAQcgTQE3EBIA8MPHQFHwBFwBBwBRyCFgBsI/iQ4Ao6AI+AIOAKOwAcQcAPhA5D4CUfAEXAEHAFHwBFwA8GfAUfAEXAEHAFHwBH4AAJuIHwAEj/hCDgCjoAj4Ag4Am4g+DPgCDgCjoAj4Ag4Ah9AwA2ED0DiJxwBR8ARcAQcAUfADQR/BhwBR8ARcAQcAUfgAwi4gfABSPyEI+AIOAKOgCPgCLiB4M+AI+AIOAKOgCPgCHwAgezvamp8liBNs2bNkurqaunWrZscPHhQ3nhjhgwdeqE0DviQSCRk+YrlEq2JSkVFhXToQOxpEc6/99579jsnJ2PIB8tXF6uTt2a+Je3atbP4D0uXLpUePXpodEq3XQwg/6dZBCorK2XVqlUye/Zs2bZtmz17PLdNpbKyMtm1a5cUFBQIzyflNm7cKJ06dcoY7Yxnm09hYWFTYv//9u7nuaojyxN4IiT0A4xBgI2MAfFL/DBQdpV/FG67Kqoqol2b6ZjoiF5MbWoWM9HRq17OdrYzHbOYmPkTuiO6pqKmf1RHLyq6HNWNjW1oXLZxgzHYGDC2ABskYUAISUx+UkrmIT8sPUnvWdLLhKf37r15b37zmyfPOXlu3rzTHnONixcvprelkvmZpsuXL4cvv/wyrFq1qmF9A6/Hjx8PR954I1yKXLW1tQX7bt26lXDMFHsj8o2MjAS6442IVTvSH3SRt9dVpsHBwdDf3x9u3LiRdNnnn3+e5GWu7VpZxnS/R0dHI6dHwtGjR8O5c+eSDM6kXb/44oswNjaW5Ee9yG5JX2fg9ddfv2+LKtt/cGgwjNwZSf2efcLfVHv29as1z57R4eHQ2t7+ACcPtdwffPBBOHnyZNi7d2/qeEePHguvvPLTpIgpiqeffjo5ADobIf/Rj36UOuPZj86Gj85+FPbv35/eBqkD+ujAL7zwQtBBT506FXb19YVNTzwRxsfGwzvvvBMuXLgQfvazn6XOvXPnzpQnvjMq7Nv3VFLezqO8KfZ9+/YlJc4oPPnkk6G7uzu8++67Yc2aNancSqFonuZt3ppyZCn83t7eZMAZCB1/OAo8xe+4V5xu7NkYzn9yPtwZuRM6OzrTOWSF4v3oo49SHkbFNifVuYw5RcJJJnuvvPJKksPZsg3LZ599lmRWGQMDA2FsfCyVff3a9WR8lbNx48awPjo5H0dcDAqF9umlT8OZM2fCrl27wpYtWx7oyLPF803ncQTg3RZ5NWigD9avX5+ceQ4Lznt6ekLL8pboQFxKBnnL1i3h6pWrqZ8/vvHxMHx7OF1DP9V/65W8nn5oaChs37496RocL29dHoYGh8LKlSsTTm2JP3xqYxzC5Vw6zGDFW/fIxLZt25KRuXzlcti6ZWt47LHH5s0xowu1tXZk8Ok/8rV7d19s/9sJHxm4F9v8bsTKKSMrb731VsIBy+rVq8Pvf//7JOO7d+9OcnTp0kQb0J9dXV31onpBX5dMsl36u7bVvwxUcXb27Nkki/jBn3zkmK3C8WefXYqDhbZw8ODB4nxNtvJDHQQjsOvXrycFaeSyZ8+e8OqrrybCc4eigA8cOBBOnz6dBFyn00kRriNqHGnk7khY2bUyHDlyJBl7SubXf//34ec//3kavW3evDk16FtvvpmU8pUrV9JoSeN99dXN1Hld8/Dhw+GZZ55JI0UKkxBQWhwDDbxp06ag8SmEkpqHAaNFxuz9999Pbc+wU/ic1xwBM0LjBHBuKRFGwnkff/xx2LFjRzIgt27fuq9o7adks9HJI9I5v+U0Or2uxYFJRj+OzPUnjgmFT6YdV65+Jd+6deuCPtEWlReDrR5kPkfr6tnS6qus9RvWhxPvnUj9V3lwStcHroebsY/iXBtQwhKODQToCPwy3PVMOKMDkqG/ezf0RqcGXsb4btxmiOkH7S+J3pAJui07bIwyTuUnO7hWpyuXr4TnnnsuOW3zVQf8KQsmevPEiRPJaVSuKNP58+dTHZRnH2zqCDe9iGdyAePxt48nB23r1q3J6LluIxzI+eJiPq/DHnBaDUo5TAaO5A9nHD+caXP9Cc84Y1fYKvnOnDmbnAk2qQw0o656WONQXkbqv/rVrxLhjC4vVziW0tUZfT/11FNJaI0wKDXCefA7B8MTMTqgU8q//6n9yXBTGj46Zve67qQgnaesH/7wh+F0HPlpVNEC+9o72sPo2GjQWBwU37xl19VhulZ2JQyUgQ6hIzm3pOZigKxQnC+99FKSI0aVU0p+jf51dDJH8TPGjJ5RO+PBUWA0yHJHe0cyaPJzDshbHuVjlGPLEM4pxREqma9M8MMmiRyI2ikfVv2IzOsvfvfFyJtjcDciwQbvtS+vJW4yn0ZncHV1dqXRGMw4pHThNkKTF4cw19tph1OZL774YvjpT3+asLqFRP/QSXSGUSQ9oh3tE3l0vG1FWzLGnBijekabY+NDrmBnnOczwSvRWeQwOy5ZJg10cCzBSGbVj4Ejn/Rv5vbuyN0k39pA3ch/MyZtzHFiY/DLcbKPnJJB3OGHXLIT5EG0QB78Hzh4ILW9vjW1jzYjn+r80AgCYUSs8AxFyxMzijfKIZwv/sGL4fi/Hg+/+MUvEsEUsM7nVsFf/eVfJeHWIBLydTAKzmikP3pzq2PH01Aa0j4d8Sc/+Un47W9/mxqHs+EcIcos9MqQNCxvL4/ydAheoevpTCU1FwPkS6c+duxYUqJkiawxpMLaZIMSINOcXHK1LP7b1bcrKVaGRKKEKReGgUxR3kZojIljA4MDaeTBaZhtgvX28O3gPillRl7JOnzkm9Nrn75jlCkSJ2IA+9o1a1NfUq9GyDms+vprr70WVkVO90R9YJ9bHbmvMZ72wYMjOoOTYFTMAOvbjcCqDLcIzENgQHvjoIGh7+//PLW3gcyFixfSAMQtAxwaRZIFvOJandTFb46COpAXdZyzY1ghMPBpb3Nm/Ha7VqTi2L8eS9EY2MkwGbSfbJNJuEQ7YFYfETPyKoqrnVwrt0dFcU3zUz/XN7///e9HmVse/umffpvsy69//evUtyptBmfg9Aenwy9/+cs0eMVzy7KWJBfkuFmdrKnCsix6Sg8OZyZzMNwEMae8zcN1ChJ9U6C582RSCStBfcil0zk6aE752rbzObdjh2iPHcIxnd+1cz7ftnOngRMOndunpOZjgMI1CicLFGmWI0zkEUFrW2sYGx1LckSZyuszfi+Oksfvpd+uIz85cg3b8pDBLHe255JyGa7vuvfc+I7//b6f4iCQE6NOyl3RPhHST8f12Mnj9/PX6UfGChvOYPYv93W4U4p48u/7fMdzlrU4MFGX9KOOfzLW3F4wimbY1p6ZS78dkx++9C9uT03kYvTuaGoXdZ/PlLFmXl0bVuXksmCkbzPX9lfKoPo49oDcTILM58wn5oV+rcxNrrttbc82sFd+k01tvrxlgkv8ZlvmOPnO5y/0+s43vtvxNktHHIgsizzk9FAHIWco34WBwkBhoDBQGCgMLG0GqjkI/99VWNp1L7UrDBQGCgOFgcJAYaAGBoqDUANZJWthoDBQGCgMFAaahYHiIDRLS5d6FgYKA4WBwkBhoAYGioNQA1kla2GgMFAYKAwUBpqFgeIgNEtLl3oWBgoDhYHCQGGgBgaKg1ADWSVrYaAwUBgoDBQGmoWBigevH6yy53QtHuFZ0pIKA41gwPPc1tTwPHKtibxaF8NzzvVOnpP2LL2FdWbzzDSMsMLciGRdiPwceK3lNRorXmHNawHUghdWawk0Qgbgmguv9Kpn7uuZyGZe56Ge5Syka4/EdSs+ON8fhr66E2HNnV9N1P1oV+jb8nhc6nx+18JYSLw9DEtVB4HwWrtaZ9VR6y3IDwNX9jcXA4wmBW/1w1oMrwVjrEbIMJDZRsirxVfuxEVWHrWwSFTEM03qZ/U7zkGjsOKV0bUaYy3Ol0VkMtbZGOyZclKZD68cLysJ1lKmtk8vvoq8Vls4qLKM+fptAGVBOCtg1sIrWfUhp7WcVytu/WL1o6ujjE681ZLM1dMxsSZWZVeISw7F+k0sSFYr9tnkH42LoP2v//tm+Id3L4dbY5a/krKTUNlHp+6buv3geS3jI+FPf7wr/MmPD4au9uZaiK+qg0AxUF7WVi+pMNAoBsidVTgpNqOzmSaKj6K1JHctRmWm16+Wj9EdjsZe2bUYpOwYWIa4nsahEnN2vBjRWnjVDvSA5ZIbxSsHCl5YaymT7KibCBTMjUiz5XU8OgaW77aabC11rLVOlrwmbxwRfPrmzCozRxbmy2HgHHw1siwM3ArhbgyMRb8gdHfGFXeXR6c9RgYbIevXhm6GNz/+MgyNx5VUKz0VxNmO9Z9Niutbht+9fyn8u5f2FQchE1hPwc1llO/CwFQGZqVIYue3PGgtI/mp5c5mu2WqEprhReBsJNa5lJdwVg6+ZljH2WabK9bFwmsjoly5jPxNp+tfnIVPL34avOTJC6HyUvmzbTPnfXEzhP/2zyH88/kQuqJ/NjAcwrM9IfyXl5aF3rVxSeu2+st8WrJ8bDyMxw+HYL7Edjy+2G18PI6lZ+dfzIXWb/3cqhGEbx1VAVAYKAwUBgoD88ZAdhJc0KuQXzv8WorUiQ55CZ9bO367ZcKJEB3xMitRZC/Hmy5KduF6CG9dDGHHoyH8YV8I//JxCEcvhXB+IIRNq+M7R9pY1/ky2Q+nJdUzzZtTVnxT8GRWvvxYhFA5u0mO+AqWFFzIVxRkiNW/H2xwXnz1a/xTeWbOvfS/a3YQ3JMUzpPc06wlnMfD83ZGwuY84S2CyIOd6vnLO3JnohwCm8shAMKQwomzGm0u/TYtNZxkQHiV4svhZ8pvqpxNJcs55JKMykvWjLiEg6c7d+q1atnO5eZR3kzO1Ue8fEqaToHP5HozzZN5dQsCL/oijvDTSBwzwastzRUgA+ZhmN9QLToKv+RYPV/SNBPM9chT6SBovy1bt4b98Y2Qhw8fTm8VPRvfGNoV9bBbHzjAmTdZPvvsszN6Iyfjyxp/Eh2F/30kTuCMtxhQylankX09KlXlmvfSi9fi7ZT7zghg0crHr8dWtoTBO/HV6rHLTMIN3R0t4cbIvXA3egrty5el6Mdg3M58pTgEB+FezaayCrrFt6smt0gnO/LGkeD1uF47yrgjkqLQqbwaenBoMLGQnQgb8uiolNnRo0fDO++8k7YvXrwYfvOb39w/njupczgSrsfbNfmIkKVy4nXs8zuVHV/xKmUcaaPij2sqW9IxchlJCcRjlef5nY9XXKL8XKQMkBsy9OGHH4Z/O/lvSRFqY58kj1Ee8rZ297l27Vo4f+F82u985166dClt15MG5Xp9OQdcIu+V/+CFL+GNR8iy/mQysX7USLn1Wl18njx5Mrz99tsJt31fxfkjCRde/ZvsT5X9z/FcP31QnnombXjq1KnUjl5Vn7mCI+PCHX32ySefpHyX+y+H69evJ/2W82U5mResda5zNYyVzq3fV6LcvPHGG8kBJt8343wFDrT6Dg4Ohr6+vjRZ+MKFC8lZqHbNyn1U7M344MDmR0L4s+dD6FsbQryDETmuzFX/3xwEtwTCOO9kwkMZHRsNG1YtD3/xH18OP97XE21VlM/R4fBo693wH17aGY/FAev4ndC3oSP88aGdoS1axYlrTFzrnuukNquvrNafndpLqMkt0km8JtM7t40UTII5duxY+i0Ude7cudThL4aLSdGZiOUcDsUzzzyTPFGRAO9ZZ+B1SqMPytE77+Xt7e1N+Y38zPQVpTBxTcemPNetW5eiCYRah4Zja/SGjfQoKfn37t2bFCblpRxluq4yJPfdzp8/n0Y8lERbfA3w+vUbEhaYulZ2Re96/4IbDdXevOUMbW9GPDkgT++++26Sp9Vx3804SjID3Si4v78/jTApSc7t2bNnk1xygslLpYKtB6tkPxssZeojRnLK7b/cH27fup1kWrhXnci/yJvzKHRyu3nz5rB5y+Y4XhIXrV+Cs3ttd9IDOIUVZ3cizls34yy1mIxE9UkGeuPGjYln/dO5RvHOk2fbtm3zcg/8YbXFD76Ez+kPcsARo3Py0zL44xDARe/QMbDhWFs4Z/2G9WFb77ZkRB9W1kz3a1dl+tQzCgq3epAhPOREhsiKKMFzzz2X6qiu9nOmyHtPT086h653jelST3QMtq4K4R/PhvDhlRBOxHHioTjHfcMj8fZCTcPQ6Uqa5rh6cv5inSV/78aQwfM7nwzvnLsS9j65Jhw/2x8dgz1h7SOdYeO6R8K5/oHwvR/1hcfWrgyXrkcvJ0YM7o3GzyRuMlvJX7pwk/ypyUEgaHmUpdO1LG9JnYmwMda+CZMIASHLSmzHjh0pH++UQ8BxOHPmTOocOqNzORsU3vvvv58686FDh1K0QYfVsXXel19+OYW9GHeKnUAT4NOnTyelz0kxoqJ0dEKN+p3vfCeVxclgCLIy8BsuI0TestGQshiTgWvXUz7YSlrcDFCS2lxisLQvw2CfYwwVuRR+ZuR8GAsGhVzI53e9HQT4lOFDIcHB+bXNOfCEhv7BkdH3du3alfqAEZ7+JK9zTNAi+/VOWWEqV7p1+1aa9PbEE0+kbeHpzq7O1Mf0K0Y51wen3eu6w6ZNm+rqHCQg8Q9e6C3tzeDbxhEucW1AgV/HyALdArN8W3u3hoHrA2Fd97qkP/I15/JNBpWROZzLtb7p3CxPylF3dSM7ZP35F56PxjPKWhxxy7dly5bEkePd3WtjXVcmHe5cHE0Xodr06LLwF38UowdfRHmNd4YtGbB9/XjoWXkn6nlPJNXXac08JE5jBOHeZHH8hc6I5aV9T0QZHQ7be7rD4LNxQBmDDP/9b46H//zKgfDygc3hb14/E0Zi3/mDvZti+CCe7xPPjdQIJ8QIQoNDIblC3/J3TQ4C8nm8OpPHZAYHBpPBz16wUI6OZRRGOcjvYzsneXo29qTIwzPffSZcvXI1dTzKO4/mOARuI/jWmQit64pEGIXkZL+ydXYGnxPBQbFfufZnpcRx0BEcowh0Eufm4/Iqv6OzI06oaU3Hcznle3EyQAa0LwNKQZKp3M6UP1kgE5xHeW3Lx/HkyIpakd2sXJ1br6T8m7duJgeXIwATjGSUglaPLOu2TSBjaI0Cyb5j6tKIlLBGfJ99/lmKGOCls6MzOQhwOg5L6/LWxDds+mbbira0T56V0QDhuN6JAdSuIou4wqtteOCwLcqBS/sYUbqGQUx8x4ip+vnMJ7+uNZ/X+yYeldPe0Z5u2w7dGJqY5V/lBPno2ztx7tfwsIWGakvd0ZpseCJHKtSvNaxo77yvY2u72mxyxzJj30i3ByZPvxsnR7ywuycM3LgT/u7Nj8Lze26H3Zsm9MGL29eELd1d4fLgcNi3KdqZKKerOqL8Tt6e4GSkuQxRJtwya8ZUk4OgY/X29iblpPMYielUHVGhiR4QMJ3rwIEDSRnnfV2TDoJztvVuSyOyF154ISnirs6uFF0wEqIQt2/fnkZwwpY7d+5MZThPR74WnQPl67w6rP3K37lrZ7r1IWJhBAOnju7WAyUEh2RU4xjFkJyBeK5jOZqwon1Fevxn7RoedFczysOSqvOqVSuTbIkSaE+ztckNmdH+jCwHgLMo5OwY+ZhwMluj4RhMI9xsgOtJDsXMkbkxdCP1Ixj0JXiEexOGGLGDl/xf/eJqqoeomTz6Hpn3Xe8E23DEdit+Ho+3D7qjHtB34cerhGP9DDbGmdPFEMPolkN2xOuN9ZFVExEjgw2OF/0BK12gHnila/CPS9xywODm6KgP+aDjFnNqWdaS6qq+Szndi/MLzD24P0kxOohDMXLw1/9yMnxw6cvw6RcDoS86CJ0r4q3px9aEV9+7GI6e/iwc2rMpPBKfz3z3nXNx7kQMgcS2j/9TEk24v7GUyatSt2WxE3zNNTLC5m3r8CUVBhrFAMXNKFLktYwuLVhEZs0r4DQ2IikPXgqXIZxp0q8YIQapEcYcLtE5H0a7Fl455YylOTnmHjUi4TRH+BjmmSa8cj7ITi3tMdPrV8s3W16rXavsmzsDl68NhT/9H38bPrx84/54322U0SgXbnG0Rgd7LMrzWHxigdmzYJXjK+L9kJGYx3Zr1B8r4qSJZdkqRod7OPbXF3esD//zz/996F69dB2s29GB74jOvDVlcpq5ZstnlO/CQGGgMFAYKAwsQAY8xTAx4p+IpLk1kFzbuHkvOgFMXwvrnw5PGsIYdWhPPye275mkmF0MEbl4XpVx9AKs/fxDKg7C/HNarvgtMKC/N2pE/i1U71srEqf+NSrNpQ3ncm6j6lfKqScDExMqJxyEKeUQ4RwVmHLoGzfjeeYkmPzbjE5CVQfBvVgTs4QXGxWy/cZGKgeXPAM6nxCxT60yp++TVTJbSwh9tqSm8GQsT5m1GiX5naeejQiFGwm5pQFzrVi1g5C/8xvFqzacE9ZG8Rr5hFWqVV5nK3flvG9moCveklodJxneiRMsyf18Oba34qTNdY92xjlKkxGHb4axpI5WnYOghib1uB9cUmGgUQxQtCbhuY9cS2Jw3bd2z5xxaUTiROcJbLWUB6v75T6NSPjIWM1BqCV5AsC6BvRAo3glAyaXdsSnImpJ8CVe4+OW96yf24AEq7kktcyVaACspi7i6Pvnwv959e1w9VqcPzOrkMGD9JGrjetWh//0R4fCrs2PL2knodochIc6CJmmRimGXF75bl4Gah3hfhNTlXKbr1u5r/Lc6Y5X5s2/8zl5ey7flbhcN93/rGbjYqjEqOihx6uBmDyn2qFa9z1Q7nRYpjterfB5xOrymdfcVnl7atHTHZ+a33Y+p9qxsm8BMBCd23lL8QmQZkjVHISqtxgqySgdoZKN8nshM2B0LhxOZj2mJtkWCra2RVvr118DbHRs5Gkk2IgweubPLQbYjO7zrQb7YDUyrYZFhMTMeVhz/fL16vkNZ74lAq9k2+0H2KthsfCZuogIVatLvfBW8gorWZgOq/YXgcqPvNYLW7luAxloEqNeb0andRDqDaBcvzAwVwaMDCl46x3kUaKwr+fc8zLensO35gVjxeBlo2fpZc/n/+AHP0hzAxg7BppRkVyP4zFfYWTXY+gZ0Jw8Ksnow2HFQbcurPIJKyObHZ/jx48nB+HQoe8nfNm5yFjlk+bLILsenPl2CGPLiPpYbdLS5Ti2dknGqn64feutt5Lz8N3vfjfhr8TqOvL4ni+s6g0nvHDDgVdc4tVqq9Y56O3tTQ6N8uWD4ciRIwmrVVedx+mB16JuHu/MjlB25JRVUmGgGRiY9hZDM5BQ6ri4GWBEGQfGxvwFyl9kgKFnMA6/djj0f96fFs7qjYtnXYvGzSJJ8udn/TkQVlpkRFzDKop5+V1Ow759+5LRnitTIgDDd+IbTOM9duXn5/6VoQ6vv/56sGiYpW8tkASfRX3MH2DofFufBD7HGTJLBsPMuDn+VHxL37Zt2+YKNXGIW9eGLz/3z1mC63e/+10qm+MFCwfNokMcCPzC6Vy8WlaZI2MlVM4Q4+xz4OCBsGP7jmSo5wIYTm2OUxwoS9vDar+XwuHPIk0cGjjwBuMncal37Y9LDqX6cDitrgjraHwh3Ficxf69730vtQu5KqkwsNQYqHaLYfl/jWmpVbTUp7kYYGgkxsiIkAL3sZ9RY4SNZI12Xzvyehr9Mnj2W3nTOQyB1T0ZBcY3r8jJWDM6FlFhtOWdS4LJqnaMmMQoTaT4evOIh2Fi4GE1smV0c5mMW8bq5WfyGsUzvvYzepwEdcv1mrx4zV/mGzCyRs3qL2WsykqOTiz/4MGD6fjRY0fTxGb1k4/Blc97LGBlrEVHvEMCbhEI9cWDvHMdnXMKzTJvi1jxm424b1g5X2QgTuEIJ947kRwB9YPVirDy+fbyIg6ZdrfyJk69Z8JkTdEITuNcsdbcGOWEwkADGBiN/bI1OtT6bU7lFkNmonwvWgayQGfjxEgmQxzfF+K3UaGRrSV/169bn4yCkSWjwJgyEgzIiRMnkiFjKORlCBhq22vidy5nLkTla0zgm3BiLO6ybPKeKcNpxJ3LNRqHj/MDD7wMrJeaMXBwystAqoPf9nlXylySyZCwwuZpBkYXZnxm44tXHw6E5clhlZSf83EMYHWu/T5Sdj7gVb+5JphGvYHPEwxxgK98H0k9tD9+lKs9JXXzQjbREHXgjMEqwsNh9BFhyFEmWItzkKgrf5qEgXKLoUkaeilXkyEwShRmZkCzITM6te/TS5+mWwxGs8LLRoiMsBE5gyW/840avR2UAbGP0fAKc0bFnIBs3ObCZS6LQYfVtRmwjNULkLxTZM2j8UUyMWJhBCtcL4TPADOEQubeaGrkzWjZtzwuF3vu43MJmjrOB9axuAa9Z8o5CK3RiI+OToy4vfhn9O5oenma10wzosLycDLEIhocsGx0vWQNfnMC7OcQiCbgAFbtMtdEBjhO+HR9PEvK81vbanMRAO9o8fI2H2+dZfRh45ypD/wiEasi39rGm2el+ZKBdLHypzCwwBiodouhOAgLrJEKnNkxwEAwDowOg8n4Uu4LMcEKZzZmDNRiwAonR0R0YaEmvGYZgJcslFQYKAxMz0BxEKbnqOQoDBQGCgOFgcJA0zFQzUEo7nXTiUGpcGGgMFAYKAwUBqZnoExSnJ6jkmORMGC+gbkErTEM3t7eUTVsb9Kc+/omoM3XBLla6XGLAVaz+N0Kca++2i0Gk+NMAjQ/wX3++ZjMNxuscN6Nj/qtaFsR783HWzdVbjFkrCZTmsPxbWBVt8yr8vFa7RZDpQyY/1AtT608lfyFgaXIQHEQlmKrNlmdGFwz1Cn+PEFt+fJbafKbbZP6PL7IYJgcZ6a6CYqcBM+2O1c+kwD9ZjD8rma050qtCXNwwtQSH8tjWE2kM6lQufabTQ+rRxhPnTqVJtCZsOixO8fdW2eI/YbbBLt6YDVHwjtZOF2w3Ry/mcpd9ciq9FQDrhyHFU6TQVuXt6bJlXv27EnnqZuPvJyh/CjqXHmcej4ZyLziAs/K08a+lY9X5Vscy2RKcxU8dtnX15cmOMKpLpUcF+dhKtNlu5kYKA5CM7X2Eq2rUSNjZuRKwfttRrsPI3Dy5Mlw9uzZidF6+8TiRGasG51Ln8SFcjzjzqjY51n4AwcO1IUtWBkwEQGGCz44GWHlw8rYclDyMSP47AR5wgFW+Rk9z/ZbN6EeDoJyOSOMLEcEdljvjtxN2N577700w9/xm7duxucGQxgaHkr8M8A4TseiEwTvs88+G3bv3p2uNd/kwiaJCJCB7DCQBcfefvvt9EQKRywvOOUbn1euXglDgxNOmTpzNDiOe/fuLdGF+W6ocr1FxUBxEBZVcxWw1RhgHBkyBldizBiJbDQcE6ZnNDY+vjH0bOxJz7979O36wPU0YpSfEWPALP5TrzQVa8YNGwchY7WOgUfyrIhoZAunKAgDrZ5GuVZ33H9gf9WQ/1zxWygJVmXhU0rvsxib4NgaAjjDq+Mb1m9IizPhfOjGULh65Wq4w8GIOG9HzE/HZYxFFeo1IsdfW3zfhqcsJNjh883R8huPksdDPV7pVhP8HmOEG/8iOk8//XSKKmR5SieVP4WBJmSgOAhN2OhLrcqMgMQQUOoU/VhcR78lGllhZSsjGhlKQuJG4DnkbCRvlGufUXs2IilzHf7AypgZ2TKsvuFlOGHzHD7j3xn/GcnC5PurGxO/OQjwMmyMXr2SeQawJi7jegjeSTAW10GwjePBOOKGFZ5shNUFrze/uhk6OjtSnfAKZz2x4gCXIyMRX1wSGdbMMYeLYwVrlgFykqMz8OMYdhjlJwP1cmTq1V7luoWBejBQ1kGoB6vlmg1lgDEwAhQBoNiNbq1M6H4zg2akKNydHYB8z57hZRQcY2DWretOuFeteqRu+GGFE94JrPdS2Qx+JVbYGaqVq6LxiobZOYyXsDgDnSdYqlO9kgWSLJQ04WxNODPKhks9LIzEqbGNR+F7hhdWTsPA4EB65wQnwXmdXXEp7PivXkm5nAC84lKb4lXy3gXRATjtg1VeH7ySEZyTDcctBmX1yJIKA83CQLXHHIuD0Cyt3wT1ZBSMBBknxsH3Qk1w+sDps1BTeidDdFA4BHAu9JH1YpKBhdrmBVdzMlDNQWjV8UsqDCwFBjgERqoSuV7Iss3QZsdgIePEZV49kbOw0LFmGcg487d6lFQYKAw8hIGoO/WV1F8qfIIyB+EhfJXdi5OBxWQQFg3WOIbgHCyWtGh4XSyEFpxNy0CJIDRt05eKFwYKA4WBwkBhYIIBjnVyrisjCMXbLuJRGCgMFAYKA4WB5mZAlLA4CM0tA6X2hYHCQGGgMFAY+BoDJYLwNUrKjsJAYaAwUBgoDBQGYvigRBCKGBQGCgOFgcJAYaAw8CAD41UchP8HcOtg18OLtdIAAAAASUVORK5CYII=;imageBorder=#000000;" vertex="1" parent="iryjkZB7OB2-_eOB0UU8-1">
          <mxGeometry x="30" y="134.5" width="259.99" height="190" as="geometry" />
        </mxCell>
        <mxCell id="iryjkZB7OB2-_eOB0UU8-16" value="Doctor uses the platform with SELF SIGN FACILITY" style="text;html=1;strokeColor=none;fillColor=none;align=center;verticalAlign=middle;whiteSpace=wrap;rounded=0;fontFamily=Tahoma;fontSize=17;fontColor=#FF5112;" vertex="1" parent="iryjkZB7OB2-_eOB0UU8-1">
          <mxGeometry x="380" y="111" width="240" height="54" as="geometry" />
        </mxCell>
      </root>
    </mxGraphModel>
  </diagram>
</mxfile>
